G75*
%MOIN*%
%OFA0B0*%
%FSLAX24Y24*%
%IPPOS*%
%LPD*%
%AMOC8*
5,1,8,0,0,1.08239X$1,22.5*
%
%ADD10C,0.0080*%
%ADD11C,0.0040*%
%ADD12C,0.0060*%
%ADD13C,0.0100*%
%ADD14C,0.0050*%
%ADD15C,0.0020*%
%ADD16C,0.0030*%
%ADD17C,0.0070*%
D10*
X019356Y018200D02*
X019109Y018447D01*
X019356Y018694D01*
X019850Y018694D01*
X019480Y018694D02*
X019480Y018200D01*
X019356Y018200D02*
X019850Y018200D01*
X019109Y018955D02*
X019109Y019449D01*
X019109Y019202D02*
X019850Y019202D01*
X019850Y019710D02*
X019109Y019710D01*
X019356Y019957D01*
X019109Y020204D01*
X019850Y020204D01*
X019850Y020465D02*
X019850Y020959D01*
X019727Y021220D02*
X019850Y021344D01*
X019850Y021590D01*
X019727Y021714D01*
X019480Y021714D01*
X019480Y021467D01*
X019233Y021220D02*
X019727Y021220D01*
X019233Y021220D02*
X019109Y021344D01*
X019109Y021590D01*
X019233Y021714D01*
X019356Y021975D02*
X019109Y022222D01*
X019356Y022469D01*
X019850Y022469D01*
X019727Y022730D02*
X019850Y022854D01*
X019850Y023101D01*
X019727Y023224D01*
X019603Y023224D01*
X019480Y023101D01*
X019480Y022977D01*
X019480Y023101D02*
X019356Y023224D01*
X019233Y023224D01*
X019109Y023101D01*
X019109Y022854D01*
X019233Y022730D01*
X019480Y022469D02*
X019480Y021975D01*
X019356Y021975D02*
X019850Y021975D01*
X019109Y020959D02*
X019109Y020465D01*
X019850Y020465D01*
X019480Y020465D02*
X019480Y020712D01*
X019233Y023485D02*
X019109Y023609D01*
X019109Y023856D01*
X019233Y023979D01*
X019356Y023979D01*
X019850Y023485D01*
X019850Y023979D01*
X019727Y024240D02*
X019603Y024240D01*
X019480Y024364D01*
X019480Y024611D01*
X019603Y024734D01*
X019727Y024734D01*
X019850Y024611D01*
X019850Y024364D01*
X019727Y024240D01*
X019480Y024364D02*
X019356Y024240D01*
X019233Y024240D01*
X019109Y024364D01*
X019109Y024611D01*
X019233Y024734D01*
X019356Y024734D01*
X019480Y024611D01*
X019480Y024995D02*
X019480Y025489D01*
X019603Y025750D02*
X019603Y026121D01*
X019480Y026244D01*
X019233Y026244D01*
X019109Y026121D01*
X019109Y025750D01*
X019850Y025750D01*
X020038Y029890D02*
X020532Y029890D01*
X020285Y029890D02*
X020285Y030631D01*
X020038Y030384D01*
X019777Y030507D02*
X019654Y030631D01*
X019407Y030631D01*
X019283Y030507D01*
X019283Y030013D01*
X019407Y029890D01*
X019654Y029890D01*
X019777Y030013D01*
X019027Y029890D02*
X018780Y029890D01*
X018903Y029890D02*
X018903Y030631D01*
X018780Y030631D02*
X019027Y030631D01*
X005190Y033978D02*
X005036Y033825D01*
X004576Y033825D01*
X004576Y033518D02*
X004576Y034439D01*
X005036Y034439D01*
X005190Y034285D01*
X005190Y033978D01*
X004269Y033671D02*
X004269Y034285D01*
X004116Y034439D01*
X003809Y034439D01*
X003655Y034285D01*
X003655Y033671D01*
X003809Y033518D01*
X004116Y033518D01*
X004269Y033671D01*
X003348Y034439D02*
X002734Y034439D01*
X003041Y034439D02*
X003041Y033518D01*
D11*
X015620Y029580D02*
X015620Y029120D01*
X015620Y029273D02*
X015850Y029273D01*
X015927Y029350D01*
X015927Y029504D01*
X015850Y029580D01*
X015620Y029580D01*
X015773Y029273D02*
X015927Y029120D01*
X016080Y029197D02*
X016157Y029120D01*
X016311Y029120D01*
X016387Y029197D01*
X016387Y029273D01*
X016311Y029350D01*
X016157Y029350D01*
X016080Y029427D01*
X016080Y029504D01*
X016157Y029580D01*
X016311Y029580D01*
X016387Y029504D01*
X016541Y029580D02*
X016848Y029580D01*
X016694Y029580D02*
X016694Y029120D01*
X016387Y028580D02*
X016080Y028120D01*
X015927Y028120D02*
X015773Y028273D01*
X015850Y028273D02*
X015620Y028273D01*
X015620Y028120D02*
X015620Y028580D01*
X015850Y028580D01*
X015927Y028504D01*
X015927Y028350D01*
X015850Y028273D01*
X016080Y028580D02*
X016387Y028120D01*
X016387Y027580D02*
X016080Y027120D01*
X015773Y027120D02*
X015773Y027580D01*
X015620Y027580D02*
X015927Y027580D01*
X016080Y027580D02*
X016387Y027120D01*
X007471Y006741D02*
X007351Y006741D01*
X007291Y006681D01*
X007163Y006741D02*
X007043Y006741D01*
X007103Y006741D02*
X007103Y006441D01*
X007043Y006381D01*
X006983Y006381D01*
X006923Y006441D01*
X007291Y006381D02*
X007531Y006621D01*
X007531Y006681D01*
X007471Y006741D01*
X007531Y006381D02*
X007291Y006381D01*
X033322Y006441D02*
X033382Y006381D01*
X033443Y006381D01*
X033503Y006441D01*
X033503Y006741D01*
X033443Y006741D02*
X033563Y006741D01*
X033691Y006681D02*
X033751Y006741D01*
X033871Y006741D01*
X033931Y006681D01*
X033931Y006621D01*
X033871Y006561D01*
X033931Y006501D01*
X033931Y006441D01*
X033871Y006381D01*
X033751Y006381D01*
X033691Y006441D01*
X033811Y006561D02*
X033871Y006561D01*
D12*
X031503Y006691D02*
X031503Y006264D01*
X030862Y006264D01*
X030862Y006691D01*
X030862Y006909D02*
X030862Y007229D01*
X030969Y007336D01*
X031183Y007336D01*
X031290Y007229D01*
X031290Y006909D01*
X031503Y006909D02*
X030862Y006909D01*
X031183Y006478D02*
X031183Y006264D01*
X031503Y006047D02*
X031290Y005833D01*
X031503Y005620D01*
X030862Y005620D01*
X030969Y005402D02*
X030862Y005295D01*
X030862Y005082D01*
X030969Y004975D01*
X031396Y004975D01*
X031503Y005082D01*
X031503Y005295D01*
X031396Y005402D01*
X030969Y005402D01*
X030969Y004758D02*
X030862Y004651D01*
X030862Y004331D01*
X031503Y004331D01*
X031290Y004331D02*
X031290Y004651D01*
X031183Y004758D01*
X030969Y004758D01*
X030969Y003469D02*
X030862Y003362D01*
X030862Y003042D01*
X031503Y003042D01*
X031290Y003042D02*
X031290Y003362D01*
X031183Y003469D01*
X030969Y003469D01*
X031290Y003255D02*
X031503Y003469D01*
X031396Y002824D02*
X030969Y002824D01*
X030862Y002717D01*
X030862Y002504D01*
X030969Y002397D01*
X031396Y002397D01*
X031503Y002504D01*
X031503Y002717D01*
X031396Y002824D01*
X030862Y002179D02*
X030862Y001752D01*
X030862Y001966D02*
X031503Y001966D01*
X031396Y001535D02*
X030969Y001535D01*
X030862Y001428D01*
X030862Y001215D01*
X030969Y001108D01*
X031396Y001108D01*
X031503Y001215D01*
X031503Y001428D01*
X031396Y001535D01*
X031503Y000890D02*
X030862Y000890D01*
X031076Y000677D01*
X030862Y000463D01*
X031503Y000463D01*
X031503Y006047D02*
X030862Y006047D01*
X031290Y007122D02*
X031503Y007336D01*
X031000Y014600D02*
X030200Y014600D01*
X030100Y014700D01*
X030000Y014600D01*
X029200Y014600D01*
X029100Y014700D01*
X029100Y015500D01*
X029200Y015600D01*
X030000Y015600D01*
X030100Y015500D01*
X030200Y015600D01*
X031000Y015600D01*
X031100Y015500D01*
X031100Y014700D01*
X031000Y014600D01*
X027250Y019100D02*
X024950Y019100D01*
X024950Y027100D01*
X025700Y027100D01*
X025702Y027061D01*
X025708Y027022D01*
X025717Y026984D01*
X025730Y026947D01*
X025747Y026911D01*
X025767Y026878D01*
X025791Y026846D01*
X025817Y026817D01*
X025846Y026791D01*
X025878Y026767D01*
X025911Y026747D01*
X025947Y026730D01*
X025984Y026717D01*
X026022Y026708D01*
X026061Y026702D01*
X026100Y026700D01*
X026139Y026702D01*
X026178Y026708D01*
X026216Y026717D01*
X026253Y026730D01*
X026289Y026747D01*
X026322Y026767D01*
X026354Y026791D01*
X026383Y026817D01*
X026409Y026846D01*
X026433Y026878D01*
X026453Y026911D01*
X026470Y026947D01*
X026483Y026984D01*
X026492Y027022D01*
X026498Y027061D01*
X026500Y027100D01*
X027250Y027100D01*
X027250Y019100D01*
X023100Y018700D02*
X023000Y018600D01*
X023100Y018500D01*
X023100Y017700D01*
X023000Y017600D01*
X022200Y017600D01*
X022100Y017700D01*
X022100Y018500D01*
X022200Y018600D01*
X022100Y018700D01*
X022100Y019500D01*
X022200Y019600D01*
X022100Y019700D01*
X022100Y020500D01*
X022200Y020600D01*
X023000Y020600D01*
X023100Y020500D01*
X023100Y019700D01*
X023000Y019600D01*
X023100Y019500D01*
X023100Y018700D01*
X020720Y015750D02*
X018480Y015750D01*
X014600Y017850D02*
X014350Y017600D01*
X013850Y017600D01*
X013600Y017850D01*
X013600Y018350D01*
X013850Y018600D01*
X013600Y018850D01*
X013600Y019350D01*
X013850Y019600D01*
X013600Y019850D01*
X013600Y020350D01*
X013850Y020600D01*
X013600Y020850D01*
X013600Y021350D01*
X013850Y021600D01*
X013600Y021850D01*
X013600Y022350D01*
X013850Y022600D01*
X013600Y022850D01*
X013600Y023350D01*
X013850Y023600D01*
X013600Y023850D01*
X013600Y024350D01*
X013850Y024600D01*
X014350Y024600D01*
X014600Y024350D01*
X014600Y023850D01*
X014350Y023600D01*
X014600Y023350D01*
X014600Y022850D01*
X014350Y022600D01*
X014600Y022350D01*
X014600Y021850D01*
X014350Y021600D01*
X014600Y021350D01*
X014600Y020850D01*
X014350Y020600D01*
X014600Y020350D01*
X014600Y019850D01*
X014350Y019600D01*
X014600Y019350D01*
X014600Y018850D01*
X014350Y018600D01*
X014600Y018350D01*
X014600Y017850D01*
X012422Y017768D02*
X011995Y017768D01*
X012422Y018195D01*
X012422Y018302D01*
X012315Y018408D01*
X012102Y018408D01*
X011995Y018302D01*
X011778Y018302D02*
X011778Y017875D01*
X011671Y017768D01*
X011350Y017768D01*
X011350Y018408D01*
X011671Y018408D01*
X011778Y018302D01*
X011592Y018713D02*
X011272Y018713D01*
X011272Y019353D01*
X011592Y019353D01*
X011699Y019246D01*
X011699Y018819D01*
X011592Y018713D01*
X011916Y019033D02*
X012237Y019353D01*
X012237Y018713D01*
X012343Y019033D02*
X011916Y019033D01*
X011910Y019618D02*
X011910Y020259D01*
X012128Y020259D02*
X012448Y020259D01*
X012555Y020152D01*
X012555Y019725D01*
X012448Y019618D01*
X012128Y019618D01*
X012128Y020259D01*
X012186Y020799D02*
X011759Y021440D01*
X011541Y021440D02*
X011114Y021440D01*
X011328Y021440D02*
X011328Y020799D01*
X011759Y020799D02*
X012186Y021440D01*
X012403Y021440D02*
X012403Y020799D01*
X012830Y020799D01*
X012595Y021823D02*
X012382Y021823D01*
X012275Y021930D01*
X012275Y022143D02*
X012489Y022250D01*
X012595Y022250D01*
X012702Y022143D01*
X012702Y021930D01*
X012595Y021823D01*
X012920Y022036D02*
X013133Y021823D01*
X013347Y022036D01*
X013347Y022463D01*
X012920Y022463D02*
X012920Y022036D01*
X012702Y022463D02*
X012275Y022463D01*
X012275Y022143D01*
X012058Y021716D02*
X011631Y021716D01*
X011413Y021930D02*
X011306Y021823D01*
X011093Y021823D01*
X010986Y021930D01*
X010986Y022357D01*
X011093Y022463D01*
X011306Y022463D01*
X011413Y022357D01*
X011272Y022847D02*
X011592Y022847D01*
X011699Y022953D01*
X011699Y023380D01*
X011592Y023487D01*
X011272Y023487D01*
X011272Y022847D01*
X010769Y022357D02*
X010662Y022463D01*
X010448Y022463D01*
X010341Y022357D01*
X010341Y021930D01*
X010448Y021823D01*
X010662Y021823D01*
X010769Y021930D01*
X010124Y022036D02*
X009910Y021823D01*
X009697Y022036D01*
X009697Y022463D01*
X010124Y022463D02*
X010124Y022036D01*
X010945Y020259D02*
X010839Y020152D01*
X010839Y019725D01*
X010945Y019618D01*
X011159Y019618D01*
X011266Y019725D01*
X011266Y019938D01*
X011052Y019938D01*
X011266Y020152D02*
X011159Y020259D01*
X010945Y020259D01*
X011483Y020259D02*
X011483Y019618D01*
X011910Y019618D02*
X011483Y020259D01*
X011916Y022847D02*
X012343Y022847D01*
X012130Y022847D02*
X012130Y023487D01*
X011916Y023274D01*
X012023Y023910D02*
X011916Y024016D01*
X012023Y023910D02*
X012237Y023910D01*
X012343Y024016D01*
X012343Y024123D01*
X012237Y024230D01*
X012130Y024230D01*
X012237Y024230D02*
X012343Y024337D01*
X012343Y024443D01*
X012237Y024550D01*
X012023Y024550D01*
X011916Y024443D01*
X011699Y024443D02*
X011699Y024016D01*
X011592Y023910D01*
X011272Y023910D01*
X011272Y024550D01*
X011592Y024550D01*
X011699Y024443D01*
X013700Y026600D02*
X014500Y026600D01*
X014600Y026700D01*
X014600Y027500D01*
X014500Y027600D01*
X014600Y027700D01*
X014600Y028500D01*
X014500Y028600D01*
X014600Y028700D01*
X014600Y029500D01*
X014500Y029600D01*
X013700Y029600D01*
X013600Y029500D01*
X013600Y028700D01*
X013700Y028600D01*
X013600Y028500D01*
X013600Y027700D01*
X013700Y027600D01*
X013600Y027500D01*
X013600Y026700D01*
X013700Y026600D01*
X018620Y029450D02*
X019480Y029450D01*
X019720Y029450D01*
X020720Y029450D01*
X019720Y029450D02*
X019718Y029429D01*
X019713Y029409D01*
X019704Y029390D01*
X019692Y029373D01*
X019677Y029358D01*
X019660Y029346D01*
X019641Y029337D01*
X019621Y029332D01*
X019600Y029330D01*
X019579Y029332D01*
X019559Y029337D01*
X019540Y029346D01*
X019523Y029358D01*
X019508Y029373D01*
X019496Y029390D01*
X019487Y029409D01*
X019482Y029429D01*
X019480Y029450D01*
X022098Y029664D02*
X022098Y028864D01*
X022198Y028764D01*
X022998Y028764D01*
X023098Y028864D01*
X023098Y029664D01*
X022998Y029764D01*
X023098Y029864D01*
X023098Y030664D01*
X022998Y030764D01*
X022198Y030764D01*
X022098Y030664D01*
X022098Y029864D01*
X022198Y029764D01*
X022098Y029664D01*
X021982Y034630D02*
X021768Y034630D01*
X021662Y034737D01*
X021768Y034950D02*
X021662Y035057D01*
X021662Y035164D01*
X021768Y035271D01*
X021982Y035271D01*
X022089Y035164D01*
X021982Y034950D02*
X022089Y034844D01*
X022089Y034737D01*
X021982Y034630D01*
X021982Y034950D02*
X021768Y034950D01*
X021444Y035271D02*
X021017Y035271D01*
X021231Y035271D02*
X021231Y034630D01*
X020801Y034630D02*
X020587Y034630D01*
X020694Y034630D02*
X020694Y035271D01*
X020587Y035271D02*
X020801Y035271D01*
X019725Y035164D02*
X019725Y034737D01*
X019619Y034630D01*
X019298Y034630D01*
X019298Y035271D01*
X019619Y035271D01*
X019725Y035164D01*
X019081Y035271D02*
X019081Y034630D01*
X018654Y035271D01*
X018654Y034630D01*
X018436Y034630D02*
X018436Y035057D01*
X018223Y035271D01*
X018009Y035057D01*
X018009Y034630D01*
X018009Y034950D02*
X018436Y034950D01*
X017147Y034844D02*
X017147Y034737D01*
X017040Y034630D01*
X016827Y034630D01*
X016720Y034737D01*
X016827Y034950D02*
X017040Y034950D01*
X017147Y034844D01*
X017147Y035164D02*
X017040Y035271D01*
X016827Y035271D01*
X016720Y035164D01*
X016720Y035057D01*
X016827Y034950D01*
X016503Y035271D02*
X016075Y035271D01*
X016289Y035271D02*
X016289Y034630D01*
X015858Y034737D02*
X015858Y035164D01*
X015751Y035271D01*
X015538Y035271D01*
X015431Y035164D01*
X015431Y034737D01*
X015538Y034630D01*
X015751Y034630D01*
X015858Y034737D01*
X015213Y034737D02*
X015107Y034630D01*
X014786Y034630D01*
X014786Y035271D01*
X015107Y035271D01*
X015213Y035164D01*
X015213Y035057D01*
X015107Y034950D01*
X014786Y034950D01*
X014569Y034737D02*
X014569Y035164D01*
X014462Y035271D01*
X014249Y035271D01*
X014142Y035164D01*
X014142Y034737D01*
X014249Y034630D01*
X014462Y034630D01*
X014569Y034737D01*
X013924Y034630D02*
X013711Y034844D01*
X013818Y034844D02*
X013497Y034844D01*
X013497Y034630D02*
X013497Y035271D01*
X013818Y035271D01*
X013924Y035164D01*
X013924Y034950D01*
X013818Y034844D01*
X012635Y034630D02*
X012635Y035271D01*
X012422Y035057D01*
X012208Y035271D01*
X012208Y034630D01*
X011991Y034630D02*
X011777Y034844D01*
X011884Y034844D02*
X011564Y034844D01*
X011564Y034630D02*
X011564Y035271D01*
X011884Y035271D01*
X011991Y035164D01*
X011991Y034950D01*
X011884Y034844D01*
X011346Y034950D02*
X010919Y034950D01*
X010919Y035057D02*
X011133Y035271D01*
X011346Y035057D01*
X011346Y034630D01*
X010919Y034630D02*
X010919Y035057D01*
X010702Y035271D02*
X010702Y034630D01*
X010488Y034844D01*
X010275Y034630D01*
X010275Y035271D01*
X010057Y035164D02*
X009950Y035271D01*
X009737Y035271D01*
X009630Y035164D01*
X009630Y035057D01*
X009737Y034950D01*
X009950Y034950D01*
X010057Y034844D01*
X010057Y034737D01*
X009950Y034630D01*
X009737Y034630D01*
X009630Y034737D01*
X015107Y034950D02*
X015213Y034844D01*
X015213Y034737D01*
X022951Y034630D02*
X022951Y035057D01*
X023164Y035271D01*
X023378Y035057D01*
X023378Y034630D01*
X023595Y034630D02*
X023595Y035271D01*
X023916Y035271D01*
X024022Y035164D01*
X024022Y034950D01*
X023916Y034844D01*
X023595Y034844D01*
X023378Y034950D02*
X022951Y034950D01*
X024240Y034844D02*
X024560Y034844D01*
X024667Y034950D01*
X024667Y035164D01*
X024560Y035271D01*
X024240Y035271D01*
X024240Y034630D01*
X024884Y034630D02*
X024884Y035271D01*
X024884Y034630D02*
X025311Y034630D01*
X025529Y034630D02*
X025742Y034630D01*
X025636Y034630D02*
X025636Y035271D01*
X025742Y035271D02*
X025529Y035271D01*
X025959Y035164D02*
X025959Y034737D01*
X026065Y034630D01*
X026279Y034630D01*
X026386Y034737D01*
X026603Y034630D02*
X026603Y035057D01*
X026817Y035271D01*
X027030Y035057D01*
X027030Y034630D01*
X027030Y034950D02*
X026603Y034950D01*
X026386Y035164D02*
X026279Y035271D01*
X026065Y035271D01*
X025959Y035164D01*
X027248Y035271D02*
X027675Y035271D01*
X027461Y035271D02*
X027461Y034630D01*
X027892Y034630D02*
X028106Y034630D01*
X027999Y034630D02*
X027999Y035271D01*
X027892Y035271D02*
X028106Y035271D01*
X028322Y035164D02*
X028322Y034737D01*
X028429Y034630D01*
X028642Y034630D01*
X028749Y034737D01*
X028749Y035164D01*
X028642Y035271D01*
X028429Y035271D01*
X028322Y035164D01*
X028966Y035271D02*
X028966Y034630D01*
X029394Y034630D02*
X028966Y035271D01*
X029394Y035271D02*
X029394Y034630D01*
X029611Y034737D02*
X029718Y034630D01*
X029931Y034630D01*
X030038Y034737D01*
X030038Y034844D01*
X029931Y034950D01*
X029718Y034950D01*
X029611Y035057D01*
X029611Y035164D01*
X029718Y035271D01*
X029931Y035271D01*
X030038Y035164D01*
X038236Y021412D02*
X038129Y021306D01*
X038129Y021092D01*
X038236Y020985D01*
X038236Y021412D02*
X038343Y021412D01*
X038770Y020985D01*
X038770Y021412D01*
X038770Y020123D02*
X038556Y019910D01*
X038556Y020017D02*
X038556Y019696D01*
X038770Y019696D02*
X038129Y019696D01*
X038129Y020017D01*
X038236Y020123D01*
X038450Y020123D01*
X038556Y020017D01*
X038663Y019479D02*
X038236Y019479D01*
X038129Y019372D01*
X038129Y019159D01*
X038236Y019052D01*
X038663Y019052D01*
X038770Y019159D01*
X038770Y019372D01*
X038663Y019479D01*
X038129Y018834D02*
X038129Y018407D01*
X038129Y018621D02*
X038770Y018621D01*
X038663Y018190D02*
X038236Y018190D01*
X038129Y018083D01*
X038129Y017869D01*
X038236Y017763D01*
X038663Y017763D01*
X038770Y017869D01*
X038770Y018083D01*
X038663Y018190D01*
X038770Y017545D02*
X038129Y017545D01*
X038343Y017332D01*
X038129Y017118D01*
X038770Y017118D01*
X024461Y003230D02*
X024461Y002803D01*
X024354Y002696D01*
X024034Y002696D01*
X024034Y003337D01*
X024354Y003337D01*
X024461Y003230D01*
X023816Y003230D02*
X023816Y003017D01*
X023709Y002910D01*
X023389Y002910D01*
X023389Y002696D02*
X023389Y003337D01*
X023709Y003337D01*
X023816Y003230D01*
X023603Y002910D02*
X023816Y002696D01*
X023172Y002696D02*
X023172Y003123D01*
X022958Y003337D01*
X022745Y003123D01*
X022745Y002696D01*
X022527Y002803D02*
X022527Y003230D01*
X022420Y003337D01*
X022207Y003337D01*
X022100Y003230D01*
X022100Y002803D01*
X022207Y002696D01*
X022420Y002696D01*
X022527Y002803D01*
X022745Y003017D02*
X023172Y003017D01*
X021883Y003123D02*
X021776Y003017D01*
X021456Y003017D01*
X021776Y003017D02*
X021883Y002910D01*
X021883Y002803D01*
X021776Y002696D01*
X021456Y002696D01*
X021456Y003337D01*
X021776Y003337D01*
X021883Y003230D01*
X021883Y003123D01*
X020593Y003230D02*
X020487Y003337D01*
X020273Y003337D01*
X020166Y003230D01*
X020166Y002803D01*
X020273Y002696D01*
X020487Y002696D01*
X020593Y002803D01*
X019950Y002696D02*
X019737Y002696D01*
X019844Y002696D02*
X019844Y003337D01*
X019950Y003337D02*
X019737Y003337D01*
X019519Y003230D02*
X019412Y003337D01*
X019199Y003337D01*
X019092Y003230D01*
X019092Y002803D01*
X019199Y002696D01*
X019412Y002696D01*
X019519Y002803D01*
X019519Y003017D01*
X019306Y003017D01*
X018875Y003230D02*
X018768Y003337D01*
X018554Y003337D01*
X018448Y003230D01*
X018448Y002803D01*
X018554Y002696D01*
X018768Y002696D01*
X018875Y002803D01*
X018875Y003230D01*
X018230Y002696D02*
X017803Y002696D01*
X017803Y003337D01*
X016941Y003337D02*
X016941Y002696D01*
X016514Y003337D01*
X016514Y002696D01*
X016298Y002696D02*
X016084Y002696D01*
X016191Y002696D02*
X016191Y003337D01*
X016084Y003337D02*
X016298Y003337D01*
X015867Y003123D02*
X015867Y002696D01*
X015867Y003017D02*
X015440Y003017D01*
X015440Y003123D02*
X015653Y003337D01*
X015867Y003123D01*
X015440Y003123D02*
X015440Y002696D01*
X015222Y002696D02*
X015222Y003337D01*
X015009Y003123D01*
X014795Y003337D01*
X014795Y002696D01*
X008570Y002776D02*
X007929Y002776D01*
X007929Y002349D02*
X008570Y002776D01*
X008570Y002349D02*
X007929Y002349D01*
X007929Y002133D02*
X007929Y001919D01*
X007929Y002026D02*
X008570Y002026D01*
X008570Y001919D02*
X008570Y002133D01*
X008570Y001702D02*
X008143Y001702D01*
X007929Y001488D01*
X008143Y001275D01*
X008570Y001275D01*
X008570Y001057D02*
X007929Y001057D01*
X008143Y000844D01*
X007929Y000630D01*
X008570Y000630D01*
X008250Y001275D02*
X008250Y001702D01*
X008356Y003638D02*
X008356Y003958D01*
X008250Y004065D01*
X008036Y004065D01*
X007929Y003958D01*
X007929Y003638D01*
X008570Y003638D01*
X008463Y004282D02*
X008036Y004282D01*
X007929Y004389D01*
X007929Y004603D01*
X008036Y004709D01*
X008463Y004709D01*
X008570Y004603D01*
X008570Y004389D01*
X008463Y004282D01*
X008570Y004927D02*
X007929Y004927D01*
X007929Y005354D02*
X008570Y005354D01*
X008356Y005141D01*
X008570Y004927D01*
X008570Y005572D02*
X007929Y005572D01*
X007929Y005999D01*
X007929Y006216D02*
X007929Y006536D01*
X008036Y006643D01*
X008250Y006643D01*
X008356Y006536D01*
X008356Y006216D01*
X008356Y006430D02*
X008570Y006643D01*
X008570Y006216D02*
X007929Y006216D01*
X008250Y005785D02*
X008250Y005572D01*
X008570Y005572D02*
X008570Y005999D01*
X008000Y010100D02*
X007200Y010100D01*
X007100Y010200D01*
X007000Y010100D01*
X006200Y010100D01*
X006100Y010200D01*
X006000Y010100D01*
X005200Y010100D01*
X005100Y010200D01*
X005100Y011000D01*
X005200Y011100D01*
X006000Y011100D01*
X006100Y011000D01*
X006200Y011100D01*
X007000Y011100D01*
X007100Y011000D01*
X007200Y011100D01*
X008000Y011100D01*
X008100Y011000D01*
X008100Y010200D01*
X008000Y010100D01*
X004813Y010075D02*
X004813Y010395D01*
X004172Y010395D01*
X004172Y010075D01*
X004279Y009968D01*
X004706Y009968D01*
X004813Y010075D01*
X004813Y010613D02*
X004172Y010613D01*
X004813Y011040D01*
X004172Y011040D01*
X004279Y011257D02*
X004492Y011257D01*
X004492Y011471D01*
X004279Y011684D02*
X004172Y011577D01*
X004172Y011364D01*
X004279Y011257D01*
X004706Y011257D02*
X004813Y011364D01*
X004813Y011577D01*
X004706Y011684D01*
X004279Y011684D01*
X008600Y015200D02*
X008645Y015198D01*
X008691Y015193D01*
X008735Y015185D01*
X008779Y015173D01*
X008822Y015157D01*
X008864Y015139D01*
X008904Y015117D01*
X008942Y015093D01*
X008978Y015066D01*
X009013Y015036D01*
X009044Y015003D01*
X009074Y014968D01*
X008600Y014000D02*
X008553Y014002D01*
X008505Y014008D01*
X008459Y014017D01*
X008413Y014030D01*
X008369Y014046D01*
X008325Y014067D01*
X008284Y014090D01*
X008245Y014116D01*
X008208Y014146D01*
X008173Y014179D01*
X008141Y014214D01*
X008112Y014251D01*
X008600Y014000D02*
X008646Y014002D01*
X008692Y014007D01*
X008738Y014016D01*
X008783Y014028D01*
X008826Y014044D01*
X008868Y014063D01*
X008909Y014086D01*
X008948Y014111D01*
X008984Y014139D01*
X009019Y014170D01*
X009051Y014204D01*
X009080Y014240D01*
X008600Y015200D02*
X008555Y015198D01*
X008509Y015193D01*
X008465Y015185D01*
X008421Y015173D01*
X008378Y015157D01*
X008336Y015139D01*
X008296Y015117D01*
X008258Y015093D01*
X008222Y015066D01*
X008187Y015036D01*
X008156Y015003D01*
X008126Y014968D01*
X001271Y017489D02*
X000630Y017489D01*
X000630Y017276D02*
X000630Y017703D01*
X001057Y017703D02*
X001271Y017489D01*
X001164Y018565D02*
X000950Y018565D01*
X000844Y018672D01*
X000844Y018992D01*
X000844Y018778D02*
X000630Y018565D01*
X000630Y018992D02*
X001271Y018992D01*
X001271Y018672D01*
X001164Y018565D01*
X001164Y019209D02*
X000737Y019209D01*
X000630Y019316D01*
X000630Y019530D01*
X000737Y019636D01*
X001164Y019636D01*
X001271Y019530D01*
X001271Y019316D01*
X001164Y019209D01*
X001271Y019854D02*
X001271Y020281D01*
X001271Y020067D02*
X000630Y020067D01*
X000737Y020498D02*
X001164Y020498D01*
X001271Y020605D01*
X001271Y020819D01*
X001164Y020925D01*
X000737Y020925D01*
X000630Y020819D01*
X000630Y020605D01*
X000737Y020498D01*
X000630Y021143D02*
X001271Y021143D01*
X001057Y021356D01*
X001271Y021570D01*
X000630Y021570D01*
X002800Y025300D02*
X003400Y025300D01*
X003400Y025400D01*
X003500Y025400D01*
X002800Y025400D02*
X002700Y025400D01*
X002800Y025400D02*
X002800Y025300D01*
X001900Y025750D02*
X001900Y026100D01*
X001900Y027100D01*
X001900Y027450D01*
X002700Y027800D02*
X002800Y027800D01*
X002800Y027900D01*
X003400Y027900D01*
X003400Y027800D01*
X003500Y027800D01*
X004300Y027450D02*
X004300Y027050D01*
X004300Y026100D01*
X004300Y025750D01*
X003000Y026600D02*
X003002Y026620D01*
X003008Y026638D01*
X003017Y026656D01*
X003029Y026671D01*
X003044Y026683D01*
X003062Y026692D01*
X003080Y026698D01*
X003100Y026700D01*
X003120Y026698D01*
X003138Y026692D01*
X003156Y026683D01*
X003171Y026671D01*
X003183Y026656D01*
X003192Y026638D01*
X003198Y026620D01*
X003200Y026600D01*
X003198Y026580D01*
X003192Y026562D01*
X003183Y026544D01*
X003171Y026529D01*
X003156Y026517D01*
X003138Y026508D01*
X003120Y026502D01*
X003100Y026500D01*
X003080Y026502D01*
X003062Y026508D01*
X003044Y026517D01*
X003029Y026529D01*
X003017Y026544D01*
X003008Y026562D01*
X003002Y026580D01*
X003000Y026600D01*
X002400Y026600D02*
X002402Y026652D01*
X002408Y026704D01*
X002418Y026756D01*
X002431Y026806D01*
X002448Y026856D01*
X002469Y026904D01*
X002494Y026950D01*
X002522Y026994D01*
X002553Y027036D01*
X002587Y027076D01*
X002624Y027113D01*
X002664Y027147D01*
X002706Y027178D01*
X002750Y027206D01*
X002796Y027231D01*
X002844Y027252D01*
X002894Y027269D01*
X002944Y027282D01*
X002996Y027292D01*
X003048Y027298D01*
X003100Y027300D01*
X003152Y027298D01*
X003204Y027292D01*
X003256Y027282D01*
X003306Y027269D01*
X003356Y027252D01*
X003404Y027231D01*
X003450Y027206D01*
X003494Y027178D01*
X003536Y027147D01*
X003576Y027113D01*
X003613Y027076D01*
X003647Y027036D01*
X003678Y026994D01*
X003706Y026950D01*
X003731Y026904D01*
X003752Y026856D01*
X003769Y026806D01*
X003782Y026756D01*
X003792Y026704D01*
X003798Y026652D01*
X003800Y026600D01*
X003798Y026548D01*
X003792Y026496D01*
X003782Y026444D01*
X003769Y026394D01*
X003752Y026344D01*
X003731Y026296D01*
X003706Y026250D01*
X003678Y026206D01*
X003647Y026164D01*
X003613Y026124D01*
X003576Y026087D01*
X003536Y026053D01*
X003494Y026022D01*
X003450Y025994D01*
X003404Y025969D01*
X003356Y025948D01*
X003306Y025931D01*
X003256Y025918D01*
X003204Y025908D01*
X003152Y025902D01*
X003100Y025900D01*
X003048Y025902D01*
X002996Y025908D01*
X002944Y025918D01*
X002894Y025931D01*
X002844Y025948D01*
X002796Y025969D01*
X002750Y025994D01*
X002706Y026022D01*
X002664Y026053D01*
X002624Y026087D01*
X002587Y026124D01*
X002553Y026164D01*
X002522Y026206D01*
X002494Y026250D01*
X002469Y026296D01*
X002448Y026344D01*
X002431Y026394D01*
X002418Y026444D01*
X002408Y026496D01*
X002402Y026548D01*
X002400Y026600D01*
X006600Y029700D02*
X006645Y029698D01*
X006691Y029693D01*
X006735Y029685D01*
X006779Y029673D01*
X006822Y029657D01*
X006864Y029639D01*
X006904Y029617D01*
X006942Y029593D01*
X006978Y029566D01*
X007013Y029536D01*
X007044Y029503D01*
X007074Y029468D01*
X006600Y028500D02*
X006553Y028502D01*
X006505Y028508D01*
X006459Y028517D01*
X006413Y028530D01*
X006369Y028546D01*
X006325Y028567D01*
X006284Y028590D01*
X006245Y028616D01*
X006208Y028646D01*
X006173Y028679D01*
X006141Y028714D01*
X006112Y028751D01*
X006600Y028500D02*
X006646Y028502D01*
X006692Y028507D01*
X006738Y028516D01*
X006783Y028528D01*
X006826Y028544D01*
X006868Y028563D01*
X006909Y028586D01*
X006948Y028611D01*
X006984Y028639D01*
X007019Y028670D01*
X007051Y028704D01*
X007080Y028740D01*
X006600Y029700D02*
X006555Y029698D01*
X006509Y029693D01*
X006465Y029685D01*
X006421Y029673D01*
X006378Y029657D01*
X006336Y029639D01*
X006296Y029617D01*
X006258Y029593D01*
X006222Y029566D01*
X006187Y029536D01*
X006156Y029503D01*
X006126Y029468D01*
D13*
X005950Y003600D02*
X005600Y003600D01*
X005600Y004850D01*
X005850Y004850D01*
X005850Y004600D01*
X006350Y004600D01*
X006350Y004850D01*
X006850Y004850D01*
X006850Y004600D01*
X007350Y004600D01*
X007350Y004850D01*
X007600Y004850D01*
X007600Y003600D01*
X007100Y003600D01*
X007100Y000450D01*
X007000Y000250D01*
X006580Y000250D01*
X006620Y000250D01*
X006580Y000250D02*
X006200Y000250D01*
X006100Y000450D01*
X006100Y003600D01*
X005950Y003600D02*
X005950Y001150D01*
X006080Y001010D01*
X007120Y001010D02*
X007250Y001150D01*
X007250Y003600D01*
X007100Y003600D02*
X005950Y003600D01*
X014365Y003566D02*
X014365Y002433D01*
X024564Y002433D01*
X024564Y003566D01*
X014365Y003566D01*
X009295Y014997D02*
X009265Y015045D01*
X009232Y015090D01*
X009196Y015133D01*
X009158Y015174D01*
X009116Y015211D01*
X009072Y015246D01*
X009026Y015277D01*
X008977Y015306D01*
X008927Y015330D01*
X008875Y015351D01*
X008821Y015369D01*
X008767Y015382D01*
X008712Y015392D01*
X008656Y015398D01*
X008600Y015400D01*
X009306Y014224D02*
X009279Y014177D01*
X009249Y014132D01*
X009216Y014089D01*
X009180Y014049D01*
X009141Y014011D01*
X009100Y013976D01*
X009057Y013943D01*
X009012Y013914D01*
X008964Y013888D01*
X008915Y013865D01*
X008865Y013845D01*
X008814Y013829D01*
X008761Y013816D01*
X008708Y013807D01*
X008654Y013802D01*
X008600Y013800D01*
X007989Y015117D02*
X008025Y015156D01*
X008064Y015194D01*
X008104Y015228D01*
X008147Y015260D01*
X008192Y015288D01*
X008239Y015314D01*
X008288Y015337D01*
X008338Y015356D01*
X008389Y015372D01*
X008441Y015384D01*
X008493Y015393D01*
X008547Y015398D01*
X008600Y015400D01*
X007985Y014088D02*
X008021Y014048D01*
X008060Y014010D01*
X008101Y013975D01*
X008144Y013943D01*
X008189Y013913D01*
X008236Y013887D01*
X008285Y013865D01*
X008336Y013845D01*
X008387Y013829D01*
X008439Y013816D01*
X008493Y013807D01*
X008546Y013802D01*
X008600Y013800D01*
X007295Y029497D02*
X007265Y029545D01*
X007232Y029590D01*
X007196Y029633D01*
X007158Y029674D01*
X007116Y029711D01*
X007072Y029746D01*
X007026Y029777D01*
X006977Y029806D01*
X006927Y029830D01*
X006875Y029851D01*
X006821Y029869D01*
X006767Y029882D01*
X006712Y029892D01*
X006656Y029898D01*
X006600Y029900D01*
X007306Y028724D02*
X007279Y028677D01*
X007249Y028632D01*
X007216Y028589D01*
X007180Y028549D01*
X007141Y028511D01*
X007100Y028476D01*
X007057Y028443D01*
X007012Y028414D01*
X006964Y028388D01*
X006915Y028365D01*
X006865Y028345D01*
X006814Y028329D01*
X006761Y028316D01*
X006708Y028307D01*
X006654Y028302D01*
X006600Y028300D01*
X005989Y029617D02*
X006025Y029656D01*
X006064Y029694D01*
X006104Y029728D01*
X006147Y029760D01*
X006192Y029788D01*
X006239Y029814D01*
X006288Y029837D01*
X006338Y029856D01*
X006389Y029872D01*
X006441Y029884D01*
X006493Y029893D01*
X006547Y029898D01*
X006600Y029900D01*
X005985Y028588D02*
X006021Y028548D01*
X006060Y028510D01*
X006101Y028475D01*
X006144Y028443D01*
X006189Y028413D01*
X006236Y028387D01*
X006285Y028365D01*
X006336Y028345D01*
X006387Y028329D01*
X006439Y028316D01*
X006493Y028307D01*
X006546Y028302D01*
X006600Y028300D01*
X008840Y033761D02*
X008840Y036084D01*
X030454Y036084D01*
X030454Y033761D01*
X008840Y033761D01*
X032000Y004850D02*
X032000Y003600D01*
X032350Y003600D01*
X032350Y001150D01*
X032480Y001010D01*
X032500Y000450D02*
X032600Y000250D01*
X032980Y000250D01*
X033020Y000250D01*
X032980Y000250D02*
X033400Y000250D01*
X033500Y000450D01*
X033500Y003600D01*
X034000Y003600D01*
X034000Y004850D01*
X033750Y004850D01*
X033750Y004600D01*
X033250Y004600D01*
X033250Y004850D01*
X032750Y004850D01*
X032750Y004600D01*
X032250Y004600D01*
X032250Y004850D01*
X032000Y004850D01*
X032350Y003600D02*
X033500Y003600D01*
X033650Y003600D02*
X033650Y001150D01*
X033520Y001010D01*
X032500Y000450D02*
X032500Y003600D01*
D14*
X030965Y013975D02*
X030665Y013975D01*
X030815Y013975D02*
X030815Y014425D01*
X030665Y014275D01*
X030504Y014200D02*
X030429Y014125D01*
X030204Y014125D01*
X030204Y013975D02*
X030204Y014425D01*
X030429Y014425D01*
X030504Y014350D01*
X030504Y014200D01*
X030044Y014425D02*
X029894Y014425D01*
X029969Y014425D02*
X029969Y014050D01*
X029894Y013975D01*
X029819Y013975D01*
X029744Y014050D01*
X027242Y018375D02*
X027317Y018450D01*
X027317Y018750D01*
X027242Y018825D01*
X027017Y018825D01*
X027017Y018375D01*
X027242Y018375D01*
X026856Y018450D02*
X026781Y018375D01*
X026631Y018375D01*
X026556Y018450D01*
X026396Y018450D02*
X026396Y018750D01*
X026321Y018825D01*
X026171Y018825D01*
X026096Y018750D01*
X026096Y018675D01*
X026171Y018600D01*
X026396Y018600D01*
X026396Y018450D02*
X026321Y018375D01*
X026171Y018375D01*
X026096Y018450D01*
X025936Y018375D02*
X025635Y018375D01*
X025936Y018675D01*
X025936Y018750D01*
X025861Y018825D01*
X025710Y018825D01*
X025635Y018750D01*
X025475Y018375D02*
X025175Y018375D01*
X025175Y018825D01*
X023800Y019604D02*
X023800Y019904D01*
X023725Y020065D02*
X023725Y020365D01*
X023725Y020215D02*
X023275Y020215D01*
X023425Y020065D01*
X023275Y019444D02*
X023725Y019144D01*
X023725Y018984D02*
X023725Y018683D01*
X023275Y018683D01*
X023275Y018984D01*
X023275Y019144D02*
X023725Y019444D01*
X023500Y018834D02*
X023500Y018683D01*
X021915Y018766D02*
X021688Y018993D01*
X021631Y018993D01*
X021575Y018936D01*
X021575Y018823D01*
X021631Y018766D01*
X021915Y018766D02*
X021915Y018993D01*
X021915Y019766D02*
X021915Y019993D01*
X021915Y019879D02*
X021575Y019879D01*
X021688Y019766D01*
X021688Y017993D02*
X021745Y017936D01*
X021802Y017993D01*
X021858Y017993D01*
X021915Y017936D01*
X021915Y017823D01*
X021858Y017766D01*
X021745Y017879D02*
X021745Y017936D01*
X021688Y017993D02*
X021631Y017993D01*
X021575Y017936D01*
X021575Y017823D01*
X021631Y017766D01*
X017299Y017315D02*
X016999Y017315D01*
X017149Y017315D02*
X017149Y016865D01*
X016839Y016865D02*
X016689Y017015D01*
X016764Y017015D02*
X016539Y017015D01*
X016539Y016865D02*
X016539Y017315D01*
X016764Y017315D01*
X016839Y017240D01*
X016839Y017090D01*
X016764Y017015D01*
X016379Y016940D02*
X016379Y017240D01*
X016304Y017315D01*
X016154Y017315D01*
X016078Y017240D01*
X016078Y016940D01*
X016154Y016865D01*
X016304Y016865D01*
X016379Y016940D01*
X015918Y017090D02*
X015843Y017015D01*
X015618Y017015D01*
X015618Y016865D02*
X015618Y017315D01*
X015843Y017315D01*
X015918Y017240D01*
X015918Y017090D01*
X015458Y016790D02*
X015158Y016790D01*
X014998Y016865D02*
X014847Y017015D01*
X014922Y017015D02*
X014697Y017015D01*
X014697Y016865D02*
X014697Y017315D01*
X014922Y017315D01*
X014998Y017240D01*
X014998Y017090D01*
X014922Y017015D01*
X014537Y016865D02*
X014237Y016865D01*
X014237Y017315D01*
X014537Y017315D01*
X014387Y017090D02*
X014237Y017090D01*
X014077Y017015D02*
X014077Y017315D01*
X014077Y017015D02*
X013927Y016865D01*
X013776Y017015D01*
X013776Y017315D01*
X013616Y017315D02*
X013316Y017315D01*
X013316Y016865D01*
X013616Y016865D01*
X013466Y017090D02*
X013316Y017090D01*
X013159Y017315D02*
X013009Y017315D01*
X013084Y017315D02*
X013084Y016865D01*
X013009Y016865D02*
X013159Y016865D01*
X012849Y016940D02*
X012774Y016865D01*
X012624Y016865D01*
X012549Y016940D01*
X012549Y017240D01*
X012624Y017315D01*
X012774Y017315D01*
X012849Y017240D01*
X012389Y017315D02*
X012088Y017315D01*
X012088Y016865D01*
X012389Y016865D01*
X012239Y017090D02*
X012088Y017090D01*
X011928Y017090D02*
X011853Y017015D01*
X011628Y017015D01*
X011778Y017015D02*
X011928Y016865D01*
X011928Y017090D02*
X011928Y017240D01*
X011853Y017315D01*
X011628Y017315D01*
X011628Y016865D01*
X011468Y016940D02*
X011393Y016865D01*
X011243Y016865D01*
X011168Y016940D01*
X011243Y017090D02*
X011393Y017090D01*
X011468Y017015D01*
X011468Y016940D01*
X011243Y017090D02*
X011168Y017165D01*
X011168Y017240D01*
X011243Y017315D01*
X011393Y017315D01*
X011468Y017240D01*
X011007Y017315D02*
X011007Y016865D01*
X010707Y017315D01*
X010707Y016865D01*
X010547Y016865D02*
X010547Y017165D01*
X010397Y017315D01*
X010247Y017165D01*
X010247Y016865D01*
X010087Y016865D02*
X009937Y017015D01*
X010012Y017015D02*
X009786Y017015D01*
X009786Y016865D02*
X009786Y017315D01*
X010012Y017315D01*
X010087Y017240D01*
X010087Y017090D01*
X010012Y017015D01*
X010247Y017090D02*
X010547Y017090D01*
X009626Y017315D02*
X009326Y017315D01*
X009476Y017315D02*
X009476Y016865D01*
X007658Y015904D02*
X007658Y015679D01*
X007583Y015603D01*
X007433Y015603D01*
X007358Y015679D01*
X007358Y015904D01*
X007208Y015904D02*
X007658Y015904D01*
X007583Y015443D02*
X007283Y015443D01*
X007208Y015368D01*
X007208Y015218D01*
X007283Y015143D01*
X007583Y015143D01*
X007658Y015218D01*
X007658Y015368D01*
X007583Y015443D01*
X007658Y014983D02*
X007208Y014983D01*
X007358Y014833D01*
X007208Y014683D01*
X007658Y014683D01*
X007658Y014523D02*
X007208Y014523D01*
X007208Y014222D01*
X007208Y014062D02*
X007658Y014062D01*
X007658Y013837D01*
X007583Y013762D01*
X007433Y013762D01*
X007358Y013837D01*
X007358Y014062D01*
X007358Y013912D02*
X007208Y013762D01*
X007658Y014222D02*
X007658Y014523D01*
X007433Y014523D02*
X007433Y014372D01*
X006371Y011725D02*
X006221Y011725D01*
X006146Y011650D01*
X005986Y011650D02*
X005986Y011500D01*
X005911Y011425D01*
X005685Y011425D01*
X005685Y011275D02*
X005685Y011725D01*
X005911Y011725D01*
X005986Y011650D01*
X006146Y011350D02*
X006221Y011275D01*
X006371Y011275D01*
X006446Y011350D01*
X006446Y011425D01*
X006371Y011500D01*
X006296Y011500D01*
X006371Y011500D02*
X006446Y011575D01*
X006446Y011650D01*
X006371Y011725D01*
X005525Y011725D02*
X005375Y011725D01*
X005450Y011725D02*
X005450Y011350D01*
X005375Y011275D01*
X005300Y011275D01*
X005225Y011350D01*
X005738Y009915D02*
X005738Y009575D01*
X005625Y009575D02*
X005852Y009575D01*
X005625Y009802D02*
X005738Y009915D01*
X006625Y009859D02*
X006682Y009915D01*
X006795Y009915D01*
X006852Y009859D01*
X006852Y009802D01*
X006625Y009575D01*
X006852Y009575D01*
X007625Y009632D02*
X007682Y009575D01*
X007795Y009575D01*
X007852Y009632D01*
X007852Y009688D01*
X007795Y009745D01*
X007738Y009745D01*
X007795Y009745D02*
X007852Y009802D01*
X007852Y009859D01*
X007795Y009915D01*
X007682Y009915D01*
X007625Y009859D01*
X014775Y017815D02*
X014775Y018115D01*
X014850Y018115D01*
X015150Y017815D01*
X015225Y017815D01*
X013425Y023915D02*
X013425Y024215D01*
X013425Y024065D02*
X012975Y024065D01*
X013125Y023915D01*
X013131Y026766D02*
X013075Y026823D01*
X013075Y026936D01*
X013131Y026993D01*
X013188Y026993D01*
X013245Y026936D01*
X013302Y026993D01*
X013358Y026993D01*
X013415Y026936D01*
X013415Y026823D01*
X013358Y026766D01*
X013245Y026879D02*
X013245Y026936D01*
X013131Y027766D02*
X013075Y027823D01*
X013075Y027936D01*
X013131Y027993D01*
X013188Y027993D01*
X013415Y027766D01*
X013415Y027993D01*
X013415Y028766D02*
X013415Y028993D01*
X013415Y028879D02*
X013075Y028879D01*
X013188Y028766D01*
X014775Y028829D02*
X014850Y028904D01*
X015150Y028904D01*
X015225Y028829D01*
X015225Y028679D01*
X015150Y028604D01*
X014850Y028604D01*
X014775Y028679D01*
X014775Y028829D01*
X014850Y029065D02*
X015150Y029065D01*
X015225Y029140D01*
X015225Y029290D01*
X015150Y029365D01*
X015000Y029365D01*
X015000Y029215D01*
X014850Y029365D02*
X014775Y029290D01*
X014775Y029140D01*
X014850Y029065D01*
X014850Y028444D02*
X015000Y028444D01*
X015075Y028369D01*
X015075Y028144D01*
X015075Y028294D02*
X015225Y028444D01*
X015225Y028144D02*
X014775Y028144D01*
X014775Y028369D01*
X014850Y028444D01*
X014850Y027984D02*
X015000Y027984D01*
X015075Y027909D01*
X015075Y027683D01*
X015225Y027683D02*
X014775Y027683D01*
X014775Y027909D01*
X014850Y027984D01*
X007215Y027850D02*
X007215Y027775D01*
X007140Y027700D01*
X007215Y027625D01*
X007215Y027550D01*
X007140Y027475D01*
X006990Y027475D01*
X006915Y027550D01*
X006754Y027550D02*
X006754Y027850D01*
X006679Y027925D01*
X006454Y027925D01*
X006454Y027475D01*
X006679Y027475D01*
X006754Y027550D01*
X006915Y027850D02*
X006990Y027925D01*
X007140Y027925D01*
X007215Y027850D01*
X007140Y027700D02*
X007065Y027700D01*
X006294Y027475D02*
X005994Y027475D01*
X005994Y027925D01*
X006294Y027925D01*
X006144Y027700D02*
X005994Y027700D01*
X005834Y027475D02*
X005533Y027475D01*
X005533Y027925D01*
X003917Y029075D02*
X003917Y029525D01*
X003767Y029525D02*
X004067Y029525D01*
X003606Y029525D02*
X003306Y029525D01*
X003306Y029075D01*
X003606Y029075D01*
X003456Y029300D02*
X003306Y029300D01*
X003146Y029225D02*
X003146Y029150D01*
X003071Y029075D01*
X002921Y029075D01*
X002846Y029150D01*
X002921Y029300D02*
X003071Y029300D01*
X003146Y029225D01*
X003146Y029450D02*
X003071Y029525D01*
X002921Y029525D01*
X002846Y029450D01*
X002846Y029375D01*
X002921Y029300D01*
X002686Y029075D02*
X002385Y029075D01*
X002385Y029525D01*
X002686Y029525D01*
X002536Y029300D02*
X002385Y029300D01*
X002225Y029300D02*
X002225Y029450D01*
X002150Y029525D01*
X001925Y029525D01*
X001925Y029075D01*
X001925Y029225D02*
X002150Y029225D01*
X002225Y029300D01*
X002075Y029225D02*
X002225Y029075D01*
X023372Y029014D02*
X023372Y028714D01*
X023823Y028714D01*
X023823Y029014D01*
X023823Y029174D02*
X023372Y029474D01*
X023372Y029174D02*
X023823Y029474D01*
X023898Y029635D02*
X023898Y029935D01*
X023823Y030095D02*
X023522Y030395D01*
X023447Y030395D01*
X023372Y030320D01*
X023372Y030170D01*
X023447Y030095D01*
X023823Y030095D02*
X023823Y030395D01*
X023598Y028864D02*
X023598Y028714D01*
X024975Y027725D02*
X025125Y027725D01*
X025050Y027725D02*
X025050Y027275D01*
X024975Y027275D02*
X025125Y027275D01*
X025282Y027350D02*
X025357Y027275D01*
X025507Y027275D01*
X025582Y027350D01*
X025742Y027350D02*
X025817Y027275D01*
X025968Y027275D01*
X026043Y027350D01*
X026043Y027425D01*
X025968Y027500D01*
X025892Y027500D01*
X025968Y027500D02*
X026043Y027575D01*
X026043Y027650D01*
X025968Y027725D01*
X025817Y027725D01*
X025742Y027650D01*
X025582Y027650D02*
X025507Y027725D01*
X025357Y027725D01*
X025282Y027650D01*
X025282Y027350D01*
X026631Y018825D02*
X026781Y018825D01*
X026856Y018750D01*
X026856Y018675D01*
X026781Y018600D01*
X026856Y018525D01*
X026856Y018450D01*
X026781Y018600D02*
X026706Y018600D01*
X026556Y018750D02*
X026631Y018825D01*
D15*
X004300Y026100D02*
X004200Y026100D01*
X004200Y027050D01*
X004300Y027050D01*
X002000Y027100D02*
X002000Y026100D01*
X001900Y026100D01*
X001900Y027100D02*
X002000Y027100D01*
D16*
X017885Y029633D02*
X018199Y029947D01*
X018199Y029790D02*
X017885Y029790D01*
X017885Y029947D02*
X018199Y029633D01*
X018042Y029633D02*
X018042Y029947D01*
D17*
X007374Y004122D02*
X007374Y003835D01*
X007374Y003979D02*
X006944Y003979D01*
X007087Y003835D01*
X006394Y003885D02*
X006394Y004172D01*
X006394Y003885D02*
X006107Y004172D01*
X006036Y004172D01*
X005964Y004100D01*
X005964Y003957D01*
X006036Y003885D01*
X032364Y003957D02*
X032435Y003885D01*
X032364Y003957D02*
X032364Y004100D01*
X032435Y004172D01*
X032507Y004172D01*
X032794Y003885D01*
X032794Y004172D01*
X033344Y003979D02*
X033487Y003835D01*
X033344Y003979D02*
X033774Y003979D01*
X033774Y004122D02*
X033774Y003835D01*
M02*
