G75*
%MOIN*%
%OFA0B0*%
%FSLAX24Y24*%
%IPPOS*%
%LPD*%
%AMOC8*
5,1,8,0,0,1.08239X$1,22.5*
%
%ADD10C,0.0080*%
%ADD11C,0.0060*%
%ADD12C,0.0100*%
%ADD13R,0.0066X0.0033*%
%ADD14R,0.0167X0.0033*%
%ADD15R,0.0334X0.0033*%
%ADD16R,0.0367X0.0033*%
%ADD17R,0.0466X0.0033*%
%ADD18R,0.0467X0.0033*%
%ADD19R,0.0500X0.0033*%
%ADD20R,0.0533X0.0033*%
%ADD21R,0.0567X0.0033*%
%ADD22R,0.0566X0.0033*%
%ADD23R,0.0600X0.0033*%
%ADD24R,0.0566X0.0033*%
%ADD25R,0.0600X0.0033*%
%ADD26R,0.0634X0.0033*%
%ADD27R,0.0633X0.0033*%
%ADD28R,0.0634X0.0033*%
%ADD29R,0.0633X0.0033*%
%ADD30R,0.0300X0.0033*%
%ADD31R,0.0233X0.0033*%
%ADD32R,0.0333X0.0033*%
%ADD33R,0.0233X0.0033*%
%ADD34R,0.0234X0.0033*%
%ADD35R,0.0267X0.0033*%
%ADD36R,0.0333X0.0033*%
%ADD37R,0.0033X0.0033*%
%ADD38R,0.0400X0.0033*%
%ADD39R,0.0434X0.0033*%
%ADD40R,0.0300X0.0033*%
%ADD41R,0.0266X0.0033*%
%ADD42R,0.0266X0.0033*%
%ADD43R,0.1200X0.0033*%
%ADD44R,0.0267X0.0033*%
%ADD45R,0.0133X0.0033*%
%ADD46R,0.1400X0.0033*%
%ADD47R,0.1434X0.0033*%
%ADD48R,0.1434X0.0033*%
%ADD49R,0.1433X0.0033*%
%ADD50R,0.1467X0.0033*%
%ADD51R,0.1433X0.0033*%
%ADD52R,0.0133X0.0033*%
%ADD53R,0.0366X0.0033*%
%ADD54R,0.0433X0.0033*%
%ADD55R,0.0466X0.0033*%
%ADD56R,0.1367X0.0033*%
%ADD57R,0.1367X0.0033*%
%ADD58R,0.0366X0.0033*%
%ADD59R,0.0533X0.0033*%
%ADD60R,0.0367X0.0033*%
%ADD61R,0.1333X0.0033*%
%ADD62R,0.0666X0.0033*%
%ADD63R,0.1334X0.0033*%
%ADD64R,0.1300X0.0033*%
%ADD65R,0.0434X0.0033*%
%ADD66R,0.0700X0.0033*%
%ADD67R,0.0733X0.0033*%
%ADD68R,0.1267X0.0033*%
%ADD69R,0.0766X0.0033*%
%ADD70R,0.0800X0.0033*%
%ADD71R,0.0433X0.0033*%
%ADD72R,0.0500X0.0033*%
%ADD73R,0.0400X0.0033*%
%ADD74R,0.0166X0.0033*%
%ADD75R,0.0800X0.0033*%
%ADD76R,0.0833X0.0033*%
%ADD77R,0.0200X0.0033*%
%ADD78R,0.0134X0.0033*%
%ADD79R,0.0100X0.0033*%
%ADD80R,0.0866X0.0033*%
%ADD81R,0.0867X0.0033*%
%ADD82R,0.0067X0.0033*%
%ADD83R,0.0866X0.0033*%
%ADD84R,0.0834X0.0033*%
%ADD85R,0.0100X0.0033*%
%ADD86R,0.0700X0.0033*%
%ADD87R,0.0767X0.0033*%
%ADD88R,0.0667X0.0033*%
%ADD89R,0.0734X0.0033*%
%ADD90R,0.0334X0.0033*%
%ADD91R,0.0767X0.0033*%
%ADD92R,0.0166X0.0033*%
%ADD93R,0.0734X0.0033*%
%ADD94R,0.0567X0.0033*%
%ADD95R,0.0733X0.0033*%
%ADD96R,0.0667X0.0033*%
%ADD97R,0.0067X0.0033*%
%ADD98R,0.0534X0.0033*%
%ADD99R,0.0534X0.0033*%
%ADD100R,0.0467X0.0033*%
%ADD101R,0.0933X0.0033*%
%ADD102R,0.1033X0.0033*%
%ADD103R,0.1100X0.0033*%
%ADD104R,0.1134X0.0033*%
%ADD105R,0.1500X0.0033*%
%ADD106R,0.0167X0.0033*%
%ADD107R,0.0200X0.0033*%
%ADD108R,0.0867X0.0033*%
%ADD109R,0.0134X0.0033*%
%ADD110R,0.0066X0.0033*%
%ADD111R,0.0833X0.0033*%
%ADD112R,0.0234X0.0033*%
%ADD113R,0.0766X0.0033*%
%ADD114R,0.0900X0.0033*%
%ADD115R,0.0967X0.0033*%
%ADD116R,0.1000X0.0033*%
%ADD117R,0.1034X0.0033*%
%ADD118R,0.1133X0.0033*%
%ADD119R,0.1166X0.0033*%
%ADD120R,0.1234X0.0033*%
%ADD121R,0.1267X0.0033*%
%ADD122R,0.1333X0.0033*%
%ADD123R,0.0900X0.0033*%
%ADD124R,0.0967X0.0033*%
%ADD125R,0.0934X0.0033*%
%ADD126R,0.1000X0.0033*%
%ADD127R,0.1033X0.0033*%
%ADD128R,0.1067X0.0033*%
%ADD129R,0.2467X0.0033*%
%ADD130R,0.2467X0.0033*%
%ADD131R,0.2433X0.0033*%
%ADD132R,0.2433X0.0033*%
%ADD133R,0.2367X0.0033*%
%ADD134R,0.2367X0.0033*%
%ADD135R,0.2300X0.0033*%
%ADD136R,0.2300X0.0033*%
%ADD137R,0.2233X0.0033*%
%ADD138R,0.2233X0.0033*%
%ADD139R,0.2200X0.0033*%
%ADD140R,0.2167X0.0033*%
%ADD141R,0.2134X0.0033*%
%ADD142R,0.2066X0.0033*%
%ADD143R,0.2000X0.0033*%
%ADD144R,0.1967X0.0033*%
%ADD145R,0.1900X0.0033*%
%ADD146R,0.1833X0.0033*%
%ADD147R,0.1800X0.0033*%
%ADD148R,0.1734X0.0033*%
%ADD149R,0.1666X0.0033*%
%ADD150R,0.1567X0.0033*%
%ADD151R,0.1466X0.0033*%
%ADD152R,0.1233X0.0033*%
%ADD153C,0.0050*%
%ADD154C,0.0020*%
%ADD155C,0.0070*%
%ADD156C,0.0040*%
%ADD157R,0.0350X0.0500*%
%ADD158C,0.0160*%
%ADD159C,0.0240*%
%ADD160R,0.0240X0.0340*%
%ADD161R,0.0150X0.0200*%
%ADD162R,0.0200X0.1000*%
%ADD163R,0.0750X0.0300*%
D10*
X032614Y033518D02*
X032614Y034439D01*
X032921Y034132D01*
X033228Y034439D01*
X033228Y033518D01*
X033535Y033671D02*
X033535Y034285D01*
X033688Y034439D01*
X033995Y034439D01*
X034149Y034285D01*
X034149Y033671D01*
X033995Y033518D01*
X033688Y033518D01*
X033535Y033671D01*
X034455Y034439D02*
X035069Y034439D01*
X034762Y034439D02*
X034762Y033518D01*
X035376Y034439D02*
X035990Y034439D01*
X035683Y034439D02*
X035683Y033518D01*
X036297Y033671D02*
X036297Y034285D01*
X036450Y034439D01*
X036757Y034439D01*
X036911Y034285D01*
X036911Y033671D01*
X036757Y033518D01*
X036450Y033518D01*
X036297Y033671D01*
X037218Y033671D02*
X037371Y033518D01*
X037832Y033518D01*
X037832Y034439D01*
X037371Y034439D01*
X037218Y034285D01*
X037218Y034132D01*
X037371Y033978D01*
X037832Y033978D01*
X037371Y033978D02*
X037218Y033825D01*
X037218Y033671D01*
D11*
X036390Y021566D02*
X035450Y021566D01*
X035450Y017636D01*
X036390Y017636D01*
X038990Y017636D01*
X039070Y017636D01*
X039070Y021566D01*
X038990Y021566D01*
X036390Y021566D01*
X036390Y020936D01*
X036390Y020236D02*
X036390Y018966D01*
X036390Y018266D02*
X036390Y017636D01*
X038270Y018616D02*
X038272Y018644D01*
X038278Y018671D01*
X038287Y018697D01*
X038300Y018722D01*
X038317Y018745D01*
X038336Y018765D01*
X038358Y018782D01*
X038382Y018796D01*
X038408Y018806D01*
X038435Y018813D01*
X038463Y018816D01*
X038491Y018815D01*
X038518Y018810D01*
X038545Y018801D01*
X038570Y018789D01*
X038593Y018774D01*
X038614Y018755D01*
X038632Y018734D01*
X038647Y018710D01*
X038658Y018684D01*
X038666Y018658D01*
X038670Y018630D01*
X038670Y018602D01*
X038666Y018574D01*
X038658Y018548D01*
X038647Y018522D01*
X038632Y018498D01*
X038614Y018477D01*
X038593Y018458D01*
X038570Y018443D01*
X038545Y018431D01*
X038518Y018422D01*
X038491Y018417D01*
X038463Y018416D01*
X038435Y018419D01*
X038408Y018426D01*
X038382Y018436D01*
X038358Y018450D01*
X038336Y018467D01*
X038317Y018487D01*
X038300Y018510D01*
X038287Y018535D01*
X038278Y018561D01*
X038272Y018588D01*
X038270Y018616D01*
X038990Y017636D02*
X038990Y021566D01*
X038270Y020586D02*
X038272Y020614D01*
X038278Y020641D01*
X038287Y020667D01*
X038300Y020692D01*
X038317Y020715D01*
X038336Y020735D01*
X038358Y020752D01*
X038382Y020766D01*
X038408Y020776D01*
X038435Y020783D01*
X038463Y020786D01*
X038491Y020785D01*
X038518Y020780D01*
X038545Y020771D01*
X038570Y020759D01*
X038593Y020744D01*
X038614Y020725D01*
X038632Y020704D01*
X038647Y020680D01*
X038658Y020654D01*
X038666Y020628D01*
X038670Y020600D01*
X038670Y020572D01*
X038666Y020544D01*
X038658Y020518D01*
X038647Y020492D01*
X038632Y020468D01*
X038614Y020447D01*
X038593Y020428D01*
X038570Y020413D01*
X038545Y020401D01*
X038518Y020392D01*
X038491Y020387D01*
X038463Y020386D01*
X038435Y020389D01*
X038408Y020396D01*
X038382Y020406D01*
X038358Y020420D01*
X038336Y020437D01*
X038317Y020457D01*
X038300Y020480D01*
X038287Y020505D01*
X038278Y020531D01*
X038272Y020558D01*
X038270Y020586D01*
X026800Y013400D02*
X024400Y013400D01*
X024344Y013398D01*
X024289Y013392D01*
X024234Y013383D01*
X024179Y013369D01*
X024126Y013352D01*
X024075Y013331D01*
X024024Y013306D01*
X023976Y013278D01*
X023930Y013247D01*
X023886Y013213D01*
X023844Y013175D01*
X023805Y013135D01*
X023770Y013093D01*
X023737Y013047D01*
X023707Y013000D01*
X023681Y012951D01*
X023658Y012900D01*
X023639Y012847D01*
X023624Y012794D01*
X023612Y012739D01*
X023604Y012684D01*
X023600Y012628D01*
X023600Y012572D01*
X023604Y012516D01*
X023612Y012461D01*
X023624Y012406D01*
X023639Y012353D01*
X023658Y012300D01*
X023681Y012249D01*
X023707Y012200D01*
X023737Y012153D01*
X023770Y012107D01*
X023805Y012065D01*
X023844Y012025D01*
X023886Y011987D01*
X023930Y011953D01*
X023976Y011922D01*
X024024Y011894D01*
X024075Y011869D01*
X024126Y011848D01*
X024179Y011831D01*
X024234Y011817D01*
X024289Y011808D01*
X024344Y011802D01*
X024400Y011800D01*
X026800Y011800D01*
X026856Y011802D01*
X026911Y011808D01*
X026966Y011817D01*
X027021Y011831D01*
X027074Y011848D01*
X027125Y011869D01*
X027176Y011894D01*
X027224Y011922D01*
X027270Y011953D01*
X027314Y011987D01*
X027356Y012025D01*
X027395Y012065D01*
X027430Y012107D01*
X027463Y012153D01*
X027493Y012200D01*
X027519Y012249D01*
X027542Y012300D01*
X027561Y012353D01*
X027576Y012406D01*
X027588Y012461D01*
X027596Y012516D01*
X027600Y012572D01*
X027600Y012628D01*
X027596Y012684D01*
X027588Y012739D01*
X027576Y012794D01*
X027561Y012847D01*
X027542Y012900D01*
X027519Y012951D01*
X027493Y013000D01*
X027463Y013047D01*
X027430Y013093D01*
X027395Y013135D01*
X027356Y013175D01*
X027314Y013213D01*
X027270Y013247D01*
X027224Y013278D01*
X027176Y013306D01*
X027125Y013331D01*
X027074Y013352D01*
X027021Y013369D01*
X026966Y013383D01*
X026911Y013392D01*
X026856Y013398D01*
X026800Y013400D01*
X025870Y013000D02*
X025870Y012600D01*
X025870Y012200D01*
X025730Y012200D02*
X025480Y012200D01*
X025480Y013000D01*
X025730Y013000D01*
X025730Y012200D01*
X025330Y012200D02*
X025330Y012600D01*
X025050Y012600D01*
X025330Y012600D02*
X025330Y013000D01*
X025870Y012600D02*
X026150Y012600D01*
X026500Y010550D02*
X025700Y010550D01*
X025683Y010548D01*
X025666Y010544D01*
X025650Y010537D01*
X025636Y010527D01*
X025623Y010514D01*
X025613Y010500D01*
X025606Y010484D01*
X025602Y010467D01*
X025600Y010450D01*
X025600Y008750D01*
X025602Y008733D01*
X025606Y008716D01*
X025613Y008700D01*
X025623Y008686D01*
X025636Y008673D01*
X025650Y008663D01*
X025666Y008656D01*
X025683Y008652D01*
X025700Y008650D01*
X026500Y008650D01*
X026517Y008652D01*
X026534Y008656D01*
X026550Y008663D01*
X026564Y008673D01*
X026577Y008686D01*
X026587Y008700D01*
X026594Y008716D01*
X026598Y008733D01*
X026600Y008750D01*
X026600Y010450D01*
X026598Y010467D01*
X026594Y010484D01*
X026587Y010500D01*
X026577Y010514D01*
X026564Y010527D01*
X026550Y010537D01*
X026534Y010544D01*
X026517Y010548D01*
X026500Y010550D01*
X026100Y009750D02*
X026100Y009700D01*
X026100Y009500D02*
X026100Y009450D01*
X024100Y008750D02*
X024100Y010450D01*
X024098Y010467D01*
X024094Y010484D01*
X024087Y010500D01*
X024077Y010514D01*
X024064Y010527D01*
X024050Y010537D01*
X024034Y010544D01*
X024017Y010548D01*
X024000Y010550D01*
X023200Y010550D01*
X023183Y010548D01*
X023166Y010544D01*
X023150Y010537D01*
X023136Y010527D01*
X023123Y010514D01*
X023113Y010500D01*
X023106Y010484D01*
X023102Y010467D01*
X023100Y010450D01*
X023100Y008750D01*
X023102Y008733D01*
X023106Y008716D01*
X023113Y008700D01*
X023123Y008686D01*
X023136Y008673D01*
X023150Y008663D01*
X023166Y008656D01*
X023183Y008652D01*
X023200Y008650D01*
X024000Y008650D01*
X024017Y008652D01*
X024034Y008656D01*
X024050Y008663D01*
X024064Y008673D01*
X024077Y008686D01*
X024087Y008700D01*
X024094Y008716D01*
X024098Y008733D01*
X024100Y008750D01*
X023600Y009450D02*
X023600Y009500D01*
X023600Y009700D02*
X023600Y009750D01*
X021350Y011650D02*
X021350Y007550D01*
X020600Y007550D01*
X020600Y007900D01*
X020000Y007900D01*
X020000Y007550D01*
X015100Y007550D01*
X015100Y011650D01*
X020000Y011650D01*
X020000Y011300D01*
X020600Y011300D01*
X020600Y011650D01*
X021350Y011650D01*
X019290Y009600D02*
X019292Y009653D01*
X019298Y009706D01*
X019308Y009758D01*
X019322Y009809D01*
X019339Y009859D01*
X019360Y009908D01*
X019385Y009955D01*
X019413Y010000D01*
X019445Y010043D01*
X019480Y010083D01*
X019517Y010120D01*
X019557Y010155D01*
X019600Y010187D01*
X019645Y010215D01*
X019692Y010240D01*
X019741Y010261D01*
X019791Y010278D01*
X019842Y010292D01*
X019894Y010302D01*
X019947Y010308D01*
X020000Y010310D01*
X020053Y010308D01*
X020106Y010302D01*
X020158Y010292D01*
X020209Y010278D01*
X020259Y010261D01*
X020308Y010240D01*
X020355Y010215D01*
X020400Y010187D01*
X020443Y010155D01*
X020483Y010120D01*
X020520Y010083D01*
X020555Y010043D01*
X020587Y010000D01*
X020615Y009955D01*
X020640Y009908D01*
X020661Y009859D01*
X020678Y009809D01*
X020692Y009758D01*
X020702Y009706D01*
X020708Y009653D01*
X020710Y009600D01*
X020708Y009547D01*
X020702Y009494D01*
X020692Y009442D01*
X020678Y009391D01*
X020661Y009341D01*
X020640Y009292D01*
X020615Y009245D01*
X020587Y009200D01*
X020555Y009157D01*
X020520Y009117D01*
X020483Y009080D01*
X020443Y009045D01*
X020400Y009013D01*
X020355Y008985D01*
X020308Y008960D01*
X020259Y008939D01*
X020209Y008922D01*
X020158Y008908D01*
X020106Y008898D01*
X020053Y008892D01*
X020000Y008890D01*
X019947Y008892D01*
X019894Y008898D01*
X019842Y008908D01*
X019791Y008922D01*
X019741Y008939D01*
X019692Y008960D01*
X019645Y008985D01*
X019600Y009013D01*
X019557Y009045D01*
X019517Y009080D01*
X019480Y009117D01*
X019445Y009157D01*
X019413Y009200D01*
X019385Y009245D01*
X019360Y009292D01*
X019339Y009341D01*
X019322Y009391D01*
X019308Y009442D01*
X019298Y009494D01*
X019292Y009547D01*
X019290Y009600D01*
X014900Y006600D02*
X014900Y005600D01*
X013300Y005600D01*
X013300Y006600D01*
X014900Y006600D01*
X014350Y006100D02*
X014100Y006100D01*
X014100Y005850D01*
X014100Y006100D02*
X013700Y006350D01*
X013700Y005850D01*
X014100Y006100D01*
X014100Y006350D01*
X014100Y006100D02*
X013500Y006100D01*
X014761Y004371D02*
X014761Y003730D01*
X014334Y003730D01*
X014979Y003730D02*
X014979Y004157D01*
X015192Y004371D01*
X015406Y004157D01*
X015406Y003730D01*
X015623Y003837D02*
X015730Y003730D01*
X016050Y003730D01*
X016050Y004371D01*
X015730Y004371D01*
X015623Y004264D01*
X015623Y004157D01*
X015730Y004050D01*
X016050Y004050D01*
X016268Y004050D02*
X016695Y004050D01*
X016695Y004157D02*
X016481Y004371D01*
X016268Y004157D01*
X016268Y003730D01*
X016695Y003730D02*
X016695Y004157D01*
X016912Y004050D02*
X017339Y004050D01*
X017557Y004050D02*
X017984Y004050D01*
X017984Y004157D02*
X017770Y004371D01*
X017557Y004157D01*
X017557Y003730D01*
X017339Y003730D02*
X017339Y004371D01*
X016912Y004371D02*
X016912Y003730D01*
X016912Y003321D02*
X016912Y002680D01*
X016695Y002680D02*
X016695Y003107D01*
X016481Y003321D01*
X016268Y003107D01*
X016268Y002680D01*
X016050Y002680D02*
X016050Y003321D01*
X015943Y003000D02*
X015623Y002680D01*
X015623Y002271D02*
X016050Y002271D01*
X016050Y001630D01*
X015623Y001630D01*
X015837Y001950D02*
X016050Y001950D01*
X016268Y001737D02*
X016268Y002164D01*
X016375Y002271D01*
X016695Y002271D01*
X016695Y001630D01*
X016375Y001630D01*
X016268Y001737D01*
X016912Y001630D02*
X016912Y002271D01*
X017339Y002271D02*
X016912Y001630D01*
X017339Y001630D02*
X017339Y002271D01*
X017557Y002271D02*
X017984Y002271D01*
X017984Y001630D01*
X017557Y001630D01*
X017770Y001950D02*
X017984Y001950D01*
X018201Y001950D02*
X018628Y001950D01*
X018846Y001844D02*
X018846Y001737D01*
X018953Y001630D01*
X019166Y001630D01*
X019273Y001737D01*
X019166Y001950D02*
X018953Y001950D01*
X018846Y001844D01*
X018628Y001630D02*
X018628Y002271D01*
X018846Y002164D02*
X018953Y002271D01*
X019166Y002271D01*
X019273Y002164D01*
X019273Y002057D01*
X019166Y001950D01*
X019273Y002680D02*
X019273Y003321D01*
X018953Y003321D01*
X018846Y003214D01*
X018846Y003000D01*
X018953Y002894D01*
X019273Y002894D01*
X018628Y003000D02*
X018201Y003000D01*
X018201Y003107D02*
X018201Y002680D01*
X018201Y002271D02*
X018201Y001630D01*
X018628Y002680D02*
X018628Y003107D01*
X018415Y003321D01*
X018201Y003107D01*
X017984Y003321D02*
X017557Y003321D01*
X017770Y003321D02*
X017770Y002680D01*
X017339Y002680D02*
X017339Y003321D01*
X017339Y003000D02*
X016912Y003000D01*
X016695Y003000D02*
X016268Y003000D01*
X016050Y002894D02*
X015623Y003321D01*
X015623Y003837D02*
X015623Y003944D01*
X015730Y004050D01*
X015406Y004050D02*
X014979Y004050D01*
X017984Y004157D02*
X017984Y003730D01*
X018201Y003730D02*
X018201Y004371D01*
X018415Y004157D01*
X018628Y004371D01*
X018628Y003730D01*
X019491Y004264D02*
X019491Y004371D01*
X019491Y004264D02*
X019704Y004050D01*
X019704Y003730D01*
X019704Y004050D02*
X019918Y004264D01*
X019918Y004371D01*
X020135Y004157D02*
X020135Y003730D01*
X020135Y004050D02*
X020562Y004050D01*
X020562Y004157D02*
X020349Y004371D01*
X020135Y004157D01*
X020562Y004157D02*
X020562Y003730D01*
X020780Y003730D02*
X020780Y004371D01*
X020993Y004157D01*
X021207Y004371D01*
X021207Y003730D01*
X021424Y003730D02*
X021424Y004371D01*
X021851Y004371D02*
X021424Y003730D01*
X021851Y003730D02*
X021851Y004371D01*
X022067Y004371D02*
X022281Y004371D01*
X022174Y004371D02*
X022174Y003730D01*
X022281Y003730D02*
X022067Y003730D01*
X022067Y003321D02*
X022067Y002680D01*
X022067Y002271D02*
X021854Y002057D01*
X021854Y001630D01*
X021854Y001950D02*
X022281Y001950D01*
X022281Y002057D02*
X022281Y001630D01*
X022498Y001630D02*
X022712Y001844D01*
X022605Y001844D02*
X022925Y001844D01*
X022925Y001630D02*
X022925Y002271D01*
X022605Y002271D01*
X022498Y002164D01*
X022498Y001950D01*
X022605Y001844D01*
X022281Y002057D02*
X022067Y002271D01*
X021636Y002271D02*
X021209Y002271D01*
X021423Y002271D02*
X021423Y001630D01*
X020992Y001630D02*
X020778Y001630D01*
X020885Y001630D02*
X020885Y002271D01*
X020992Y002271D02*
X020778Y002271D01*
X020562Y002271D02*
X020562Y001630D01*
X020562Y001844D02*
X020135Y002271D01*
X020455Y001950D02*
X020135Y001630D01*
X020349Y002680D02*
X020242Y002787D01*
X020242Y003321D01*
X020349Y003321D02*
X020135Y003321D01*
X020562Y002787D02*
X020455Y002680D01*
X020349Y002680D01*
X020778Y002680D02*
X020992Y002680D01*
X020885Y002680D02*
X020885Y003321D01*
X020992Y003321D02*
X020778Y003321D01*
X021209Y003321D02*
X021209Y002894D01*
X021423Y002680D01*
X021636Y002894D01*
X021636Y003321D01*
X021854Y003321D02*
X022281Y003321D01*
X022498Y003321D02*
X022498Y002787D01*
X022605Y002680D01*
X022819Y002680D01*
X022925Y002787D01*
X022925Y003321D01*
X023143Y003214D02*
X023143Y003000D01*
X023250Y002894D01*
X023570Y002894D01*
X023356Y002894D02*
X023143Y002680D01*
X023250Y002271D02*
X023143Y002164D01*
X023143Y001950D01*
X023250Y001844D01*
X023570Y001844D01*
X023570Y001630D02*
X023570Y002271D01*
X023250Y002271D01*
X023570Y002680D02*
X023570Y003321D01*
X023250Y003321D01*
X023143Y003214D01*
X023250Y003730D02*
X023143Y003837D01*
X023250Y003730D02*
X023463Y003730D01*
X023570Y003837D01*
X023570Y004264D01*
X023463Y004371D01*
X023250Y004371D01*
X023143Y004264D01*
X022925Y004371D02*
X022925Y003730D01*
X022925Y004050D02*
X022498Y004050D01*
X022498Y003730D02*
X022498Y004371D01*
X013500Y014200D02*
X013350Y014200D01*
X013300Y014250D01*
X011900Y014250D01*
X011850Y014200D01*
X011700Y014200D01*
X011683Y014202D01*
X011666Y014206D01*
X011650Y014213D01*
X011636Y014223D01*
X011623Y014236D01*
X011613Y014250D01*
X011606Y014266D01*
X011602Y014283D01*
X011600Y014300D01*
X011600Y014900D01*
X011602Y014917D01*
X011606Y014934D01*
X011613Y014950D01*
X011623Y014964D01*
X011636Y014977D01*
X011650Y014987D01*
X011666Y014994D01*
X011683Y014998D01*
X011700Y015000D01*
X011850Y015000D01*
X011900Y014950D01*
X013300Y014950D01*
X013350Y015000D01*
X013500Y015000D01*
X013517Y014998D01*
X013534Y014994D01*
X013550Y014987D01*
X013564Y014977D01*
X013577Y014964D01*
X013587Y014950D01*
X013594Y014934D01*
X013598Y014917D01*
X013600Y014900D01*
X013600Y014300D01*
X013598Y014283D01*
X013594Y014266D01*
X013587Y014250D01*
X013577Y014236D01*
X013564Y014223D01*
X013550Y014213D01*
X013534Y014206D01*
X013517Y014202D01*
X013500Y014200D01*
X015968Y014505D02*
X016075Y014399D01*
X016288Y014399D01*
X016395Y014505D01*
X015968Y014932D01*
X015968Y014505D01*
X016395Y014505D02*
X016395Y014932D01*
X016288Y015039D01*
X016075Y015039D01*
X015968Y014932D01*
X016610Y014505D02*
X016610Y014399D01*
X016717Y014399D01*
X016717Y014505D01*
X016610Y014505D01*
X016935Y014505D02*
X017041Y014399D01*
X017255Y014399D01*
X017362Y014505D01*
X017148Y014719D02*
X017041Y014719D01*
X016935Y014612D01*
X016935Y014505D01*
X017041Y014719D02*
X016935Y014826D01*
X016935Y014932D01*
X017041Y015039D01*
X017255Y015039D01*
X017362Y014932D01*
X018224Y015039D02*
X018224Y014399D01*
X018651Y015039D01*
X018651Y014399D01*
X018868Y014505D02*
X018868Y014932D01*
X018975Y015039D01*
X019189Y015039D01*
X019295Y014932D01*
X019295Y014505D01*
X019189Y014399D01*
X018975Y014399D01*
X018868Y014505D01*
X019512Y014399D02*
X019725Y014399D01*
X019618Y014399D02*
X019618Y015039D01*
X019512Y015039D02*
X019725Y015039D01*
X019943Y014932D02*
X020049Y015039D01*
X020263Y015039D01*
X020370Y014932D01*
X020370Y014826D01*
X020263Y014719D01*
X020049Y014719D01*
X019943Y014612D01*
X019943Y014505D01*
X020049Y014399D01*
X020263Y014399D01*
X020370Y014505D01*
X020587Y014399D02*
X020801Y014612D01*
X020694Y014612D02*
X021014Y014612D01*
X021014Y014399D02*
X021014Y015039D01*
X020694Y015039D01*
X020587Y014932D01*
X020587Y014719D01*
X020694Y014612D01*
X021232Y014399D02*
X021659Y014399D01*
X021659Y015039D01*
X021232Y015039D01*
X021445Y014719D02*
X021659Y014719D01*
X021876Y014612D02*
X021876Y015039D01*
X021876Y014612D02*
X022090Y014399D01*
X022303Y014612D01*
X022303Y015039D01*
X009730Y011045D02*
X009732Y011108D01*
X009738Y011170D01*
X009748Y011232D01*
X009761Y011294D01*
X009779Y011354D01*
X009800Y011413D01*
X009825Y011471D01*
X009854Y011527D01*
X009886Y011581D01*
X009921Y011633D01*
X009959Y011682D01*
X010001Y011730D01*
X010045Y011774D01*
X010093Y011816D01*
X010142Y011854D01*
X010194Y011889D01*
X010248Y011921D01*
X010304Y011950D01*
X010362Y011975D01*
X010421Y011996D01*
X010481Y012014D01*
X010543Y012027D01*
X010605Y012037D01*
X010667Y012043D01*
X010730Y012045D01*
X010793Y012043D01*
X010855Y012037D01*
X010917Y012027D01*
X010979Y012014D01*
X011039Y011996D01*
X011098Y011975D01*
X011156Y011950D01*
X011212Y011921D01*
X011266Y011889D01*
X011318Y011854D01*
X011367Y011816D01*
X011415Y011774D01*
X011459Y011730D01*
X011501Y011682D01*
X011539Y011633D01*
X011574Y011581D01*
X011606Y011527D01*
X011635Y011471D01*
X011660Y011413D01*
X011681Y011354D01*
X011699Y011294D01*
X011712Y011232D01*
X011722Y011170D01*
X011728Y011108D01*
X011730Y011045D01*
X011728Y010982D01*
X011722Y010920D01*
X011712Y010858D01*
X011699Y010796D01*
X011681Y010736D01*
X011660Y010677D01*
X011635Y010619D01*
X011606Y010563D01*
X011574Y010509D01*
X011539Y010457D01*
X011501Y010408D01*
X011459Y010360D01*
X011415Y010316D01*
X011367Y010274D01*
X011318Y010236D01*
X011266Y010201D01*
X011212Y010169D01*
X011156Y010140D01*
X011098Y010115D01*
X011039Y010094D01*
X010979Y010076D01*
X010917Y010063D01*
X010855Y010053D01*
X010793Y010047D01*
X010730Y010045D01*
X010667Y010047D01*
X010605Y010053D01*
X010543Y010063D01*
X010481Y010076D01*
X010421Y010094D01*
X010362Y010115D01*
X010304Y010140D01*
X010248Y010169D01*
X010194Y010201D01*
X010142Y010236D01*
X010093Y010274D01*
X010045Y010316D01*
X010001Y010360D01*
X009959Y010408D01*
X009921Y010457D01*
X009886Y010509D01*
X009854Y010563D01*
X009825Y010619D01*
X009800Y010677D01*
X009779Y010736D01*
X009761Y010796D01*
X009748Y010858D01*
X009738Y010920D01*
X009732Y010982D01*
X009730Y011045D01*
X010030Y011345D02*
X010030Y011545D01*
X010130Y011445D02*
X009930Y011445D01*
X009630Y008604D02*
X009632Y008670D01*
X009638Y008735D01*
X009648Y008800D01*
X009661Y008865D01*
X009679Y008928D01*
X009700Y008991D01*
X009725Y009051D01*
X009754Y009111D01*
X009786Y009168D01*
X009821Y009224D01*
X009860Y009277D01*
X009902Y009328D01*
X009946Y009376D01*
X009994Y009421D01*
X010044Y009464D01*
X010097Y009503D01*
X010152Y009540D01*
X010209Y009573D01*
X010268Y009602D01*
X010328Y009628D01*
X010390Y009650D01*
X010453Y009669D01*
X010517Y009683D01*
X010582Y009694D01*
X010648Y009701D01*
X010714Y009704D01*
X010779Y009703D01*
X010845Y009698D01*
X010910Y009689D01*
X010975Y009676D01*
X011038Y009660D01*
X011101Y009640D01*
X011162Y009615D01*
X011222Y009588D01*
X011280Y009557D01*
X011336Y009522D01*
X011390Y009484D01*
X011441Y009443D01*
X011490Y009399D01*
X011536Y009352D01*
X011580Y009303D01*
X011620Y009251D01*
X011657Y009196D01*
X011691Y009140D01*
X011721Y009081D01*
X011748Y009021D01*
X011771Y008960D01*
X011790Y008897D01*
X011806Y008833D01*
X011818Y008768D01*
X011826Y008703D01*
X011830Y008637D01*
X011830Y008571D01*
X011826Y008505D01*
X011818Y008440D01*
X011806Y008375D01*
X011790Y008311D01*
X011771Y008248D01*
X011748Y008187D01*
X011721Y008127D01*
X011691Y008068D01*
X011657Y008012D01*
X011620Y007957D01*
X011580Y007905D01*
X011536Y007856D01*
X011490Y007809D01*
X011441Y007765D01*
X011390Y007724D01*
X011336Y007686D01*
X011280Y007651D01*
X011222Y007620D01*
X011162Y007593D01*
X011101Y007568D01*
X011038Y007548D01*
X010975Y007532D01*
X010910Y007519D01*
X010845Y007510D01*
X010779Y007505D01*
X010714Y007504D01*
X010648Y007507D01*
X010582Y007514D01*
X010517Y007525D01*
X010453Y007539D01*
X010390Y007558D01*
X010328Y007580D01*
X010268Y007606D01*
X010209Y007635D01*
X010152Y007668D01*
X010097Y007705D01*
X010044Y007744D01*
X009994Y007787D01*
X009946Y007832D01*
X009902Y007880D01*
X009860Y007931D01*
X009821Y007984D01*
X009786Y008040D01*
X009754Y008097D01*
X009725Y008157D01*
X009700Y008217D01*
X009679Y008280D01*
X009661Y008343D01*
X009648Y008408D01*
X009638Y008473D01*
X009632Y008538D01*
X009630Y008604D01*
X010630Y007654D02*
X010830Y007654D01*
X010730Y007754D02*
X010730Y007554D01*
X004250Y017634D02*
X003310Y017634D01*
X000710Y017634D01*
X000710Y021564D01*
X000630Y021564D01*
X000630Y017634D01*
X000710Y017634D01*
X001030Y018614D02*
X001032Y018642D01*
X001038Y018669D01*
X001047Y018695D01*
X001060Y018720D01*
X001077Y018743D01*
X001096Y018763D01*
X001118Y018780D01*
X001142Y018794D01*
X001168Y018804D01*
X001195Y018811D01*
X001223Y018814D01*
X001251Y018813D01*
X001278Y018808D01*
X001305Y018799D01*
X001330Y018787D01*
X001353Y018772D01*
X001374Y018753D01*
X001392Y018732D01*
X001407Y018708D01*
X001418Y018682D01*
X001426Y018656D01*
X001430Y018628D01*
X001430Y018600D01*
X001426Y018572D01*
X001418Y018546D01*
X001407Y018520D01*
X001392Y018496D01*
X001374Y018475D01*
X001353Y018456D01*
X001330Y018441D01*
X001305Y018429D01*
X001278Y018420D01*
X001251Y018415D01*
X001223Y018414D01*
X001195Y018417D01*
X001168Y018424D01*
X001142Y018434D01*
X001118Y018448D01*
X001096Y018465D01*
X001077Y018485D01*
X001060Y018508D01*
X001047Y018533D01*
X001038Y018559D01*
X001032Y018586D01*
X001030Y018614D01*
X001030Y020584D02*
X001032Y020612D01*
X001038Y020639D01*
X001047Y020665D01*
X001060Y020690D01*
X001077Y020713D01*
X001096Y020733D01*
X001118Y020750D01*
X001142Y020764D01*
X001168Y020774D01*
X001195Y020781D01*
X001223Y020784D01*
X001251Y020783D01*
X001278Y020778D01*
X001305Y020769D01*
X001330Y020757D01*
X001353Y020742D01*
X001374Y020723D01*
X001392Y020702D01*
X001407Y020678D01*
X001418Y020652D01*
X001426Y020626D01*
X001430Y020598D01*
X001430Y020570D01*
X001426Y020542D01*
X001418Y020516D01*
X001407Y020490D01*
X001392Y020466D01*
X001374Y020445D01*
X001353Y020426D01*
X001330Y020411D01*
X001305Y020399D01*
X001278Y020390D01*
X001251Y020385D01*
X001223Y020384D01*
X001195Y020387D01*
X001168Y020394D01*
X001142Y020404D01*
X001118Y020418D01*
X001096Y020435D01*
X001077Y020455D01*
X001060Y020478D01*
X001047Y020503D01*
X001038Y020529D01*
X001032Y020556D01*
X001030Y020584D01*
X000710Y021564D02*
X003310Y021564D01*
X003310Y020934D01*
X003310Y021564D02*
X004250Y021564D01*
X004250Y017634D01*
X003310Y017634D02*
X003310Y018264D01*
X003310Y018964D02*
X003310Y020234D01*
X007398Y023426D02*
X007398Y023576D01*
X007448Y023626D01*
X007448Y025526D01*
X007398Y025576D01*
X007398Y025726D01*
X007400Y025743D01*
X007404Y025760D01*
X007411Y025776D01*
X007421Y025790D01*
X007434Y025803D01*
X007448Y025813D01*
X007464Y025820D01*
X007481Y025824D01*
X007498Y025826D01*
X008198Y025826D01*
X008215Y025824D01*
X008232Y025820D01*
X008248Y025813D01*
X008262Y025803D01*
X008275Y025790D01*
X008285Y025776D01*
X008292Y025760D01*
X008296Y025743D01*
X008298Y025726D01*
X008298Y025576D01*
X008248Y025526D01*
X008248Y023626D01*
X008298Y023576D01*
X008298Y023426D01*
X008296Y023409D01*
X008292Y023392D01*
X008285Y023376D01*
X008275Y023362D01*
X008262Y023349D01*
X008248Y023339D01*
X008232Y023332D01*
X008215Y023328D01*
X008198Y023326D01*
X007498Y023326D01*
X007481Y023328D01*
X007464Y023332D01*
X007448Y023339D01*
X007434Y023349D01*
X007421Y023362D01*
X007411Y023376D01*
X007404Y023392D01*
X007400Y023409D01*
X007398Y023426D01*
D12*
X015932Y015232D02*
X015932Y014132D01*
X022598Y014132D01*
X022598Y015232D01*
X015932Y015232D01*
X023300Y009700D02*
X023600Y009700D01*
X023900Y009700D01*
X023900Y009500D02*
X023600Y009500D01*
X023300Y009500D01*
X025800Y009500D02*
X026100Y009500D01*
X026400Y009500D01*
X026400Y009700D02*
X026100Y009700D01*
X025800Y009700D01*
X025651Y004982D02*
X025651Y000809D01*
X013643Y000809D01*
X013643Y004982D01*
X025651Y004982D01*
D13*
X033314Y009233D03*
X034114Y012133D03*
X034114Y012166D03*
D14*
X034297Y012133D03*
X034297Y012066D03*
X034297Y012033D03*
X034430Y011866D03*
X034430Y011833D03*
X034430Y011766D03*
X034430Y011733D03*
X034197Y011833D03*
X034497Y012133D03*
X034697Y012133D03*
X034697Y012166D03*
X034697Y012066D03*
X034697Y012033D03*
X034930Y012166D03*
X033697Y012466D03*
X031997Y010266D03*
X033430Y009633D03*
X035730Y009633D03*
X035830Y009233D03*
X036597Y010233D03*
X030930Y013833D03*
X030930Y013866D03*
D15*
X033014Y011766D03*
X032414Y010866D03*
X031614Y010233D03*
X033314Y009266D03*
X038114Y013533D03*
D16*
X036130Y011733D03*
X036030Y011666D03*
X035830Y011533D03*
X036397Y010466D03*
X036330Y010366D03*
X036197Y010133D03*
X036197Y010066D03*
X035830Y009266D03*
X033297Y011566D03*
X033197Y011633D03*
X032797Y010433D03*
X032830Y010366D03*
X034230Y012966D03*
X034797Y013033D03*
X031130Y013466D03*
D17*
X033314Y010399D03*
X033314Y009299D03*
D18*
X032947Y010199D03*
X033747Y011299D03*
X033547Y013099D03*
X033547Y013499D03*
X035547Y013399D03*
X037880Y013199D03*
X037480Y009699D03*
X035847Y009299D03*
D19*
X036197Y010233D03*
X036264Y011466D03*
X036364Y011533D03*
X036397Y011566D03*
X036497Y011633D03*
X036531Y011666D03*
X036597Y011733D03*
X036731Y011833D03*
X035364Y011266D03*
X035297Y011233D03*
X035031Y011733D03*
X033864Y011233D03*
X033797Y011266D03*
X033097Y011333D03*
X032964Y011433D03*
X032897Y011466D03*
X032831Y011533D03*
X032764Y011566D03*
X032697Y011633D03*
X032664Y011666D03*
X032564Y011733D03*
X032531Y011766D03*
X032464Y011833D03*
X032431Y011866D03*
X031431Y013033D03*
X031397Y013066D03*
X033564Y013533D03*
X033697Y012933D03*
X034531Y013466D03*
X035531Y013466D03*
X034597Y014833D03*
X037764Y013033D03*
X037831Y013133D03*
X037864Y013166D03*
X034131Y010433D03*
X032964Y010266D03*
X032964Y010233D03*
X033297Y009333D03*
X031664Y009733D03*
D20*
X033047Y011366D03*
X033247Y011233D03*
X033980Y011166D03*
X034047Y011133D03*
X034947Y011033D03*
X035180Y011166D03*
X035047Y011766D03*
X035980Y011266D03*
X036080Y011333D03*
X037480Y009766D03*
X037480Y009733D03*
X035847Y009333D03*
X034147Y012633D03*
X034547Y013166D03*
X031480Y012966D03*
X037680Y012933D03*
X037780Y013066D03*
D21*
X037630Y012866D03*
X037597Y012833D03*
X035630Y011066D03*
X033997Y011766D03*
X033430Y011133D03*
X033530Y011066D03*
X033597Y011033D03*
X032430Y010766D03*
X033297Y009366D03*
X031497Y012933D03*
D22*
X031564Y012866D03*
X033364Y011166D03*
X031664Y009766D03*
X035864Y009366D03*
X035764Y011133D03*
D23*
X035347Y010899D03*
X034314Y010999D03*
X033847Y010899D03*
X033647Y010999D03*
X033281Y009399D03*
X031614Y012799D03*
X034514Y013499D03*
X037581Y012799D03*
X037481Y009799D03*
D24*
X035864Y009399D03*
X035664Y010099D03*
X035064Y011099D03*
X035864Y011199D03*
X037664Y012899D03*
X033464Y011099D03*
D25*
X033714Y010966D03*
X033781Y010933D03*
X033914Y010866D03*
X034181Y011066D03*
X034247Y011033D03*
X034381Y010966D03*
X034981Y011066D03*
X035414Y010933D03*
X035581Y011033D03*
X036714Y010766D03*
X035881Y009466D03*
X035881Y009433D03*
X033281Y009433D03*
X033281Y009466D03*
X032447Y010733D03*
X031647Y012766D03*
X031581Y012833D03*
X034981Y012633D03*
X037514Y012733D03*
X037547Y012766D03*
D26*
X033264Y009499D03*
D27*
X034030Y010799D03*
X034530Y010899D03*
X035897Y009499D03*
X037397Y012599D03*
X037497Y012699D03*
X031697Y012699D03*
D28*
X031664Y012733D03*
X031764Y012633D03*
X033364Y010433D03*
X033964Y010833D03*
X034164Y010733D03*
X034464Y010933D03*
X035464Y010966D03*
X037464Y012666D03*
X035464Y013533D03*
X033264Y009533D03*
D29*
X033530Y010133D03*
X034097Y010766D03*
X034697Y010833D03*
X035897Y009566D03*
X035897Y009533D03*
X036697Y010733D03*
X037430Y012633D03*
X031730Y012666D03*
D30*
X031064Y013566D03*
X031031Y013633D03*
X032864Y011866D03*
X032897Y011833D03*
X033631Y012633D03*
X034297Y013033D03*
X034697Y013133D03*
X035431Y013066D03*
X035431Y013033D03*
X036264Y011833D03*
X034931Y010966D03*
X036164Y009933D03*
X036164Y009866D03*
X036164Y009833D03*
X036131Y009733D03*
X036097Y009666D03*
X036097Y009633D03*
X037531Y010233D03*
X038131Y013566D03*
X038164Y013633D03*
X032964Y009966D03*
X032964Y009933D03*
X032997Y009866D03*
X032997Y009833D03*
X033031Y009733D03*
X033064Y009633D03*
X033097Y009566D03*
X032331Y010466D03*
D31*
X032297Y010233D03*
X031997Y010233D03*
X033430Y009566D03*
X033830Y011933D03*
X033830Y011966D03*
X033797Y012133D03*
X033797Y012166D03*
X035230Y011966D03*
X035230Y011933D03*
X035297Y012233D03*
X035297Y012266D03*
X035330Y012366D03*
X037530Y010266D03*
X038197Y013733D03*
X030997Y013733D03*
D32*
X031047Y013599D03*
X033880Y011799D03*
X033080Y009599D03*
X036080Y009599D03*
X036180Y009999D03*
X036080Y011699D03*
D33*
X035230Y011899D03*
X035297Y012199D03*
X033797Y012199D03*
X033797Y012099D03*
X033330Y009999D03*
X033430Y009599D03*
X035730Y009599D03*
X038197Y013699D03*
X030997Y013699D03*
D34*
X030964Y013766D03*
X033764Y012266D03*
X034364Y013133D03*
X035264Y012133D03*
X035264Y012066D03*
X036864Y010266D03*
X036864Y010233D03*
X037164Y010233D03*
X031664Y009633D03*
D35*
X033047Y009666D03*
X033780Y010666D03*
X033847Y011833D03*
X033847Y011866D03*
X035180Y011833D03*
X036147Y009766D03*
X037480Y009633D03*
X038180Y013666D03*
D36*
X036180Y011766D03*
X035980Y011633D03*
X036747Y010866D03*
X036180Y010033D03*
X036180Y009966D03*
X035847Y010366D03*
X034147Y010466D03*
X033280Y010366D03*
X033380Y010033D03*
X032947Y010033D03*
X031647Y009666D03*
X033047Y011733D03*
X033147Y011666D03*
X034747Y013066D03*
X031080Y013533D03*
D37*
X034097Y012033D03*
X035630Y013066D03*
X038330Y014033D03*
X033430Y009666D03*
D38*
X032947Y010133D03*
X033747Y010633D03*
X033514Y011433D03*
X033347Y011533D03*
X033681Y012966D03*
X033514Y013266D03*
X033514Y013333D03*
X033514Y013366D03*
X034514Y013366D03*
X034514Y013333D03*
X035514Y013166D03*
X035514Y013133D03*
X035881Y011566D03*
X035714Y011466D03*
X035314Y010833D03*
X036281Y010333D03*
X037481Y009666D03*
X037981Y013333D03*
X038014Y013366D03*
X038047Y013433D03*
X031214Y013333D03*
X031181Y013366D03*
X031147Y013433D03*
D39*
X033564Y011399D03*
X031664Y009699D03*
X036264Y010299D03*
X037964Y013299D03*
D40*
X038131Y013599D03*
X035164Y011799D03*
X034731Y013099D03*
X032964Y011799D03*
X032831Y011899D03*
X032964Y009999D03*
X032997Y009899D03*
X032997Y009799D03*
X033031Y009699D03*
X036164Y009899D03*
D41*
X036114Y009699D03*
X035814Y009999D03*
X033814Y011999D03*
D42*
X033814Y012033D03*
X033814Y012066D03*
X034314Y013066D03*
X035214Y011866D03*
X036814Y010466D03*
X033014Y009766D03*
X031014Y013666D03*
D43*
X034581Y012499D03*
X034514Y011599D03*
X031981Y009799D03*
D44*
X033847Y011899D03*
X034347Y013099D03*
X035347Y010799D03*
X036147Y009799D03*
X037147Y010199D03*
D45*
X036647Y009799D03*
X034647Y011799D03*
X034480Y011999D03*
X034480Y012099D03*
X034280Y011999D03*
X034947Y012099D03*
X035380Y012499D03*
X038280Y013899D03*
D46*
X034547Y011666D03*
X037114Y010033D03*
X037081Y009866D03*
X037081Y009833D03*
X032047Y009833D03*
X032047Y010033D03*
X032047Y010066D03*
D47*
X032064Y009866D03*
D48*
X032064Y009899D03*
D49*
X032030Y009999D03*
X037097Y009999D03*
X037097Y009899D03*
D50*
X032047Y009933D03*
X032047Y009966D03*
D51*
X037097Y009966D03*
X037097Y009933D03*
D52*
X035880Y009966D03*
X034947Y010933D03*
X034880Y011866D03*
X034947Y012033D03*
X034947Y012066D03*
X034947Y012133D03*
X034647Y011866D03*
X034647Y011833D03*
X034480Y012033D03*
X034480Y012066D03*
X034280Y012166D03*
X034547Y012666D03*
X033280Y009966D03*
X032547Y010266D03*
D53*
X032764Y010466D03*
X032864Y010333D03*
X032964Y010066D03*
X035764Y010033D03*
X036364Y010433D03*
X038064Y013466D03*
D54*
X037930Y013266D03*
X035530Y013266D03*
X035530Y013233D03*
X034530Y013233D03*
X034530Y013266D03*
X034530Y013433D03*
X034197Y012933D03*
X033597Y013033D03*
X033530Y013133D03*
X033530Y013166D03*
X033530Y013233D03*
X033530Y013433D03*
X033530Y013466D03*
X033430Y010066D03*
X036197Y010166D03*
X036730Y010833D03*
D55*
X036214Y010266D03*
X035714Y010066D03*
X033614Y011366D03*
X032414Y010833D03*
X031314Y013166D03*
X037914Y013233D03*
D56*
X037097Y010066D03*
D57*
X037097Y010099D03*
X034530Y014699D03*
X032030Y010099D03*
D58*
X032964Y010099D03*
X033664Y012999D03*
X034264Y012999D03*
X031164Y013399D03*
D59*
X031447Y012999D03*
X033147Y011299D03*
X033480Y010099D03*
X035247Y011199D03*
X036180Y011399D03*
X036447Y011599D03*
X037747Y012999D03*
D60*
X038097Y013499D03*
X035930Y011599D03*
X036330Y010399D03*
X036197Y010099D03*
X033097Y011699D03*
X032730Y010499D03*
X032797Y010399D03*
X031097Y013499D03*
D61*
X032047Y010133D03*
D62*
X034314Y010666D03*
X034614Y010866D03*
X035614Y010133D03*
X031914Y012466D03*
X031814Y012566D03*
D63*
X037114Y010133D03*
D64*
X037097Y010166D03*
X034531Y011633D03*
X032031Y010166D03*
D65*
X032964Y010166D03*
X033464Y011466D03*
X033564Y013066D03*
X031264Y013266D03*
X035664Y011433D03*
D66*
X035431Y010566D03*
X035231Y010633D03*
X035131Y010666D03*
X034564Y010566D03*
X034397Y010633D03*
X033697Y010566D03*
X033597Y010166D03*
X032464Y010666D03*
X036664Y010633D03*
X037131Y012333D03*
X037164Y012366D03*
X037231Y012433D03*
X037264Y012466D03*
X037331Y012533D03*
D67*
X037047Y012266D03*
X036647Y010566D03*
X035547Y010166D03*
X034647Y010533D03*
X032480Y010633D03*
X032047Y012333D03*
D68*
X032047Y010199D03*
D69*
X033664Y010199D03*
X036864Y012099D03*
D70*
X036747Y011999D03*
X034981Y010399D03*
X035481Y010199D03*
X032314Y012099D03*
D71*
X031297Y013199D03*
X031230Y013299D03*
X033530Y013199D03*
X034830Y012999D03*
X035530Y013299D03*
X035597Y011399D03*
X034930Y010999D03*
X036197Y010199D03*
X032897Y010299D03*
D72*
X032431Y010799D03*
X032864Y011499D03*
X032997Y011399D03*
X032731Y011599D03*
X032597Y011699D03*
X032497Y011799D03*
X032397Y011899D03*
X031364Y013099D03*
X033931Y011199D03*
X035431Y011299D03*
X035831Y010399D03*
X036731Y010199D03*
X036564Y011699D03*
X036697Y011799D03*
X037797Y013099D03*
X034531Y013199D03*
D73*
X034514Y013299D03*
X034514Y013399D03*
X035481Y013099D03*
X035514Y013199D03*
X035447Y012999D03*
X035781Y011499D03*
X036414Y010499D03*
X037547Y010199D03*
X038014Y013399D03*
X033514Y013399D03*
X033514Y013299D03*
X033247Y011599D03*
X033414Y011499D03*
D74*
X032564Y010233D03*
X034864Y011833D03*
X035364Y012466D03*
X038264Y013833D03*
X038264Y013866D03*
D75*
X036914Y012133D03*
X036781Y012033D03*
X036714Y011966D03*
X033747Y010233D03*
X032514Y011933D03*
X032481Y011966D03*
X032381Y012033D03*
X032347Y012066D03*
D76*
X033830Y010266D03*
X034097Y010366D03*
X035330Y010266D03*
X035430Y010233D03*
D77*
X036814Y010433D03*
X037147Y010266D03*
X035247Y012033D03*
X035281Y012166D03*
X035314Y012333D03*
X035347Y012433D03*
X035514Y012633D03*
X034547Y012633D03*
X033747Y012366D03*
X033747Y012333D03*
X033714Y012433D03*
X033781Y012233D03*
X034647Y011766D03*
X034647Y011733D03*
X032347Y010433D03*
X032281Y010266D03*
X031614Y010266D03*
X038214Y013766D03*
D78*
X036614Y010266D03*
X034514Y012166D03*
X034214Y011866D03*
D79*
X034097Y012099D03*
X033797Y010699D03*
X032264Y010299D03*
D80*
X033914Y010299D03*
D81*
X034547Y011399D03*
X035247Y010299D03*
X034580Y014799D03*
D82*
X034547Y012699D03*
X036880Y010299D03*
X030880Y013999D03*
D83*
X034014Y010333D03*
D84*
X035064Y010366D03*
X035164Y010333D03*
X036664Y011933D03*
D85*
X035397Y012533D03*
X034097Y012066D03*
X035897Y010333D03*
X038297Y013933D03*
X038297Y013966D03*
X030897Y013933D03*
D86*
X031997Y012399D03*
X034131Y010399D03*
X034464Y010599D03*
X035331Y010599D03*
X037197Y012399D03*
X037297Y012499D03*
D87*
X036930Y012166D03*
X036830Y012066D03*
X036630Y010533D03*
X035530Y010533D03*
X034897Y010433D03*
X034797Y010466D03*
X034530Y011366D03*
X033597Y010533D03*
X032530Y010533D03*
X032230Y012166D03*
X034530Y013533D03*
D88*
X034847Y010766D03*
X034947Y010733D03*
X035780Y010433D03*
X036680Y010666D03*
X037380Y012566D03*
X031947Y012433D03*
X031847Y012533D03*
D89*
X032014Y012366D03*
X032114Y012266D03*
X032514Y010566D03*
X033414Y010466D03*
X035714Y010466D03*
X037014Y012233D03*
D90*
X036214Y011799D03*
X036814Y010499D03*
X032314Y010499D03*
D91*
X032497Y010599D03*
X033530Y010499D03*
X032197Y012199D03*
X035630Y010499D03*
D92*
X034164Y010499D03*
D93*
X034714Y010499D03*
D94*
X035530Y010999D03*
X035697Y011099D03*
X033730Y010599D03*
X031530Y012899D03*
X035497Y013499D03*
D95*
X036980Y012199D03*
X037080Y012299D03*
X036647Y010599D03*
X032080Y012299D03*
D96*
X031880Y012499D03*
X031780Y012599D03*
X032447Y010699D03*
X034247Y010699D03*
X034780Y010799D03*
X035047Y010699D03*
X036680Y010699D03*
D97*
X035347Y010766D03*
X030880Y013966D03*
D98*
X033314Y011199D03*
X034114Y011099D03*
X036014Y011299D03*
X036314Y011499D03*
X036714Y010799D03*
D99*
X036214Y011433D03*
X036114Y011366D03*
X035914Y011233D03*
X035814Y011166D03*
X035314Y010866D03*
X035114Y011133D03*
X034014Y011733D03*
X033214Y011266D03*
X037714Y012966D03*
D100*
X036647Y011766D03*
X035547Y011366D03*
X035480Y011333D03*
X033680Y011333D03*
X035547Y013333D03*
X035547Y013366D03*
X035547Y013433D03*
X031347Y013133D03*
X031280Y013233D03*
D101*
X033880Y012766D03*
X033880Y012733D03*
X034547Y012233D03*
X035180Y012666D03*
X034547Y011466D03*
X034547Y011433D03*
D102*
X034530Y011499D03*
X035197Y012899D03*
D103*
X034564Y012366D03*
X034531Y011533D03*
D104*
X034514Y011566D03*
D105*
X034531Y011699D03*
D106*
X034430Y011799D03*
X034197Y011799D03*
X034297Y012099D03*
X034697Y012099D03*
X034697Y011999D03*
X033597Y012599D03*
D107*
X033714Y012399D03*
X034881Y011799D03*
X035247Y011999D03*
X035314Y012299D03*
X035347Y012399D03*
X038247Y013799D03*
X030947Y013799D03*
D108*
X036580Y011866D03*
D109*
X034214Y011899D03*
X030914Y013899D03*
D110*
X033714Y012499D03*
X034914Y011899D03*
X038314Y013999D03*
D111*
X036630Y011899D03*
X032430Y011999D03*
D112*
X033764Y012299D03*
X035264Y012099D03*
D113*
X032264Y012133D03*
X032164Y012233D03*
D114*
X033897Y012699D03*
X034531Y012199D03*
D115*
X034530Y012266D03*
D116*
X034547Y012299D03*
X033881Y012799D03*
X033914Y012899D03*
X035214Y012799D03*
D117*
X034564Y012333D03*
D118*
X034580Y012399D03*
D119*
X034564Y012433D03*
X034564Y012466D03*
D120*
X034564Y012533D03*
D121*
X034580Y012566D03*
D122*
X034580Y012599D03*
D123*
X033931Y012666D03*
D124*
X035197Y012699D03*
D125*
X035214Y012733D03*
D126*
X035214Y012766D03*
X035214Y012833D03*
X033881Y012833D03*
X033881Y012866D03*
D127*
X035197Y012866D03*
D128*
X035180Y012933D03*
X035180Y012966D03*
X034547Y014766D03*
D129*
X034547Y013766D03*
X034547Y013733D03*
X034547Y013666D03*
X034547Y013633D03*
X034547Y013566D03*
D130*
X034547Y013599D03*
X034547Y013699D03*
X034547Y013799D03*
D131*
X034530Y013833D03*
X034530Y013866D03*
X034530Y013933D03*
D132*
X034530Y013899D03*
D133*
X034530Y013966D03*
X034530Y014033D03*
D134*
X034530Y013999D03*
D135*
X034531Y014066D03*
X034531Y014133D03*
D136*
X034531Y014099D03*
D137*
X034530Y014166D03*
D138*
X034530Y014199D03*
D139*
X034514Y014233D03*
D140*
X034530Y014266D03*
D141*
X034514Y014299D03*
D142*
X034514Y014333D03*
X034514Y014366D03*
D143*
X034514Y014399D03*
D144*
X034497Y014433D03*
D145*
X034497Y014466D03*
D146*
X034497Y014499D03*
D147*
X034514Y014533D03*
D148*
X034514Y014566D03*
D149*
X034514Y014599D03*
D150*
X034530Y014633D03*
D151*
X034514Y014666D03*
D152*
X034530Y014733D03*
D153*
X009565Y006366D02*
X009415Y006366D01*
X009565Y006591D02*
X009265Y006591D01*
X009565Y006591D02*
X009565Y006141D01*
X009725Y006141D02*
X009725Y006441D01*
X009725Y006141D02*
X009951Y006141D01*
X010026Y006216D01*
X010026Y006441D01*
X010186Y006516D02*
X010486Y006216D01*
X010411Y006141D01*
X010261Y006141D01*
X010186Y006216D01*
X010186Y006516D01*
X010261Y006591D01*
X010411Y006591D01*
X010486Y006516D01*
X010486Y006216D01*
X010646Y006216D02*
X010721Y006141D01*
X010871Y006141D01*
X010946Y006216D01*
X010646Y006516D01*
X010646Y006216D01*
X010646Y006516D02*
X010721Y006591D01*
X010871Y006591D01*
X010946Y006516D01*
X010946Y006216D01*
X011107Y006141D02*
X011407Y006141D01*
X011257Y006141D02*
X011257Y006591D01*
X011407Y006441D01*
X010856Y006832D02*
X010781Y006756D01*
X010631Y006756D01*
X010555Y006832D01*
X010395Y006832D02*
X010320Y006756D01*
X010170Y006756D01*
X010095Y006832D01*
X010095Y006907D01*
X010170Y006982D01*
X010245Y006982D01*
X010170Y006982D02*
X010095Y007057D01*
X010095Y007132D01*
X010170Y007207D01*
X010320Y007207D01*
X010395Y007132D01*
X010555Y007132D02*
X010631Y007207D01*
X010781Y007207D01*
X010856Y007132D01*
X010856Y006832D01*
X012273Y007000D02*
X012573Y007000D01*
X012348Y007225D01*
X012348Y006775D01*
X012733Y006850D02*
X012733Y007150D01*
X013033Y006850D01*
X012958Y006775D01*
X012808Y006775D01*
X012733Y006850D01*
X012733Y007150D02*
X012808Y007225D01*
X012958Y007225D01*
X013033Y007150D01*
X013033Y006850D01*
X013194Y006850D02*
X013194Y007150D01*
X013494Y006850D01*
X013419Y006775D01*
X013269Y006775D01*
X013194Y006850D01*
X013494Y006850D02*
X013494Y007150D01*
X013419Y007225D01*
X013269Y007225D01*
X013194Y007150D01*
X013654Y007000D02*
X013954Y007000D01*
X013729Y007225D01*
X013729Y006775D01*
X014114Y006775D02*
X014114Y007225D01*
X014415Y007225D02*
X014114Y006775D01*
X014415Y006775D02*
X014415Y007225D01*
X014725Y007225D02*
X014725Y006775D01*
X014875Y006775D02*
X014575Y006775D01*
X014875Y007075D02*
X014725Y007225D01*
X016596Y005765D02*
X016596Y005358D01*
X016596Y005663D02*
X017003Y005663D01*
X017003Y005765D02*
X016800Y005968D01*
X016596Y005765D01*
X017003Y005765D02*
X017003Y005358D01*
X017205Y005358D02*
X017408Y005358D01*
X017307Y005358D02*
X017307Y005968D01*
X017408Y005968D02*
X017205Y005968D01*
X017609Y005867D02*
X017711Y005968D01*
X018016Y005968D01*
X018016Y005358D01*
X017711Y005358D01*
X017609Y005460D01*
X017609Y005867D01*
X018217Y005968D02*
X018217Y005358D01*
X018624Y005968D01*
X018624Y005358D01*
X018826Y005358D02*
X019029Y005358D01*
X018927Y005358D02*
X018927Y005968D01*
X018826Y005968D02*
X019029Y005968D01*
X019635Y005968D02*
X020042Y005968D01*
X020042Y005358D01*
X019635Y005358D01*
X019434Y005154D02*
X019231Y005358D01*
X019332Y005358D01*
X019332Y005460D01*
X019231Y005460D01*
X019231Y005358D01*
X019838Y005663D02*
X020042Y005663D01*
X020243Y005460D02*
X020243Y005867D01*
X020344Y005968D01*
X020548Y005968D01*
X020650Y005867D01*
X020650Y005460D01*
X020548Y005358D01*
X020344Y005358D01*
X020243Y005460D01*
X020850Y005460D02*
X020952Y005358D01*
X021156Y005358D01*
X021257Y005460D01*
X021257Y005867D01*
X021156Y005968D01*
X020952Y005968D01*
X020850Y005867D01*
X021458Y005968D02*
X021458Y005358D01*
X021865Y005358D02*
X021865Y005968D01*
X021662Y005765D01*
X021458Y005968D01*
X022066Y005968D02*
X022066Y005358D01*
X022473Y005358D02*
X022473Y005968D01*
X022269Y005765D01*
X022066Y005968D01*
X022600Y009604D02*
X022525Y009679D01*
X022525Y009829D01*
X022600Y009904D01*
X022525Y010065D02*
X022825Y010365D01*
X022900Y010365D01*
X022975Y010290D01*
X022975Y010140D01*
X022900Y010065D01*
X022900Y009904D02*
X022975Y009829D01*
X022975Y009679D01*
X022900Y009604D01*
X022600Y009604D01*
X022525Y010065D02*
X022525Y010365D01*
X025025Y010365D02*
X025025Y010065D01*
X025025Y010215D02*
X025475Y010215D01*
X025325Y010065D01*
X025400Y009904D02*
X025475Y009829D01*
X025475Y009679D01*
X025400Y009604D01*
X025100Y009604D01*
X025025Y009679D01*
X025025Y009829D01*
X025100Y009904D01*
X026814Y013875D02*
X027115Y013875D01*
X026964Y013875D02*
X026964Y014325D01*
X027115Y014175D01*
X027275Y014250D02*
X027275Y013950D01*
X027350Y013875D01*
X027500Y013875D01*
X027575Y013950D01*
X027575Y014250D01*
X027500Y014325D01*
X027350Y014325D01*
X027275Y014250D01*
X027425Y014025D02*
X027275Y013875D01*
X035655Y018111D02*
X036105Y018411D01*
X036030Y018571D02*
X036105Y018646D01*
X036105Y018796D01*
X036030Y018871D01*
X035955Y018871D01*
X035880Y018796D01*
X035805Y018871D01*
X035730Y018871D01*
X035655Y018796D01*
X035655Y018646D01*
X035730Y018571D01*
X035655Y018411D02*
X036105Y018111D01*
X035880Y018721D02*
X035880Y018796D01*
X037875Y018141D02*
X037875Y017841D01*
X037875Y017991D02*
X038325Y017991D01*
X038175Y017841D01*
X038250Y019791D02*
X038325Y019866D01*
X038325Y020016D01*
X038250Y020091D01*
X038175Y020091D01*
X037875Y019791D01*
X037875Y020091D01*
X011327Y012650D02*
X011177Y012800D01*
X011177Y012350D01*
X011327Y012350D02*
X011027Y012350D01*
X010867Y012425D02*
X010566Y012725D01*
X010566Y012425D01*
X010641Y012350D01*
X010792Y012350D01*
X010867Y012425D01*
X010867Y012725D01*
X010792Y012800D01*
X010641Y012800D01*
X010566Y012725D01*
X010406Y012650D02*
X010406Y012425D01*
X010331Y012350D01*
X010106Y012350D01*
X010106Y012650D01*
X009946Y012575D02*
X009796Y012575D01*
X009946Y012800D02*
X009646Y012800D01*
X009946Y012800D02*
X009946Y012350D01*
X010248Y012931D02*
X010248Y013381D01*
X010473Y013156D01*
X010173Y013156D01*
X010633Y013306D02*
X010708Y013381D01*
X010858Y013381D01*
X010933Y013306D01*
X010933Y013006D01*
X010858Y012931D01*
X010708Y012931D01*
X010633Y013006D01*
X004045Y020218D02*
X003595Y020519D01*
X003820Y020679D02*
X003820Y020979D01*
X003595Y020904D02*
X004045Y020904D01*
X003820Y020679D01*
X004045Y020519D02*
X003595Y020218D01*
X001825Y021099D02*
X001675Y020949D01*
X001825Y021099D02*
X001375Y021099D01*
X001375Y020949D02*
X001375Y021249D01*
X001375Y019299D02*
X001375Y018999D01*
X001675Y019299D01*
X001750Y019299D01*
X001825Y019224D01*
X001825Y019074D01*
X001750Y018999D01*
X007603Y023701D02*
X007603Y024002D01*
X007603Y023852D02*
X008053Y023852D01*
X007903Y023701D01*
X007978Y024162D02*
X007678Y024162D01*
X007978Y024462D01*
X007678Y024462D01*
X007603Y024387D01*
X007603Y024237D01*
X007678Y024162D01*
X007978Y024162D02*
X008053Y024237D01*
X008053Y024387D01*
X007978Y024462D01*
X008423Y024112D02*
X008423Y023812D01*
X008423Y023962D02*
X008873Y023962D01*
X008723Y023812D01*
X008798Y023652D02*
X008648Y023652D01*
X008573Y023577D01*
X008573Y023351D01*
X008423Y023351D02*
X008873Y023351D01*
X008873Y023577D01*
X008798Y023652D01*
X008573Y023502D02*
X008423Y023652D01*
X008053Y025083D02*
X007603Y025083D01*
X007753Y025083D02*
X008053Y025383D01*
X007828Y025158D02*
X007603Y025383D01*
D154*
X015350Y011400D02*
X018600Y011400D01*
X018600Y007800D01*
X015350Y007800D01*
X015350Y011400D01*
D155*
X017635Y009630D02*
X017635Y009209D01*
X018055Y009630D01*
X018160Y009630D01*
X018266Y009525D01*
X018266Y009314D01*
X018160Y009209D01*
X018160Y008985D02*
X018266Y008880D01*
X018266Y008670D01*
X018160Y008565D01*
X017740Y008565D01*
X017635Y008670D01*
X017635Y008880D01*
X017740Y008985D01*
X017635Y008345D02*
X017635Y008135D01*
X017635Y008240D02*
X018266Y008240D01*
X018266Y008135D02*
X018266Y008345D01*
D156*
X018720Y008346D02*
X019070Y008346D01*
X018954Y008229D01*
X018954Y008104D02*
X018720Y008104D01*
X018720Y008229D02*
X018720Y008463D01*
X018778Y008588D02*
X018720Y008647D01*
X018720Y008763D01*
X018778Y008822D01*
X018895Y008822D01*
X018954Y008763D01*
X018954Y008705D01*
X018895Y008588D01*
X019070Y008588D01*
X019070Y008822D01*
X018778Y009006D02*
X018720Y009006D01*
X018720Y009064D01*
X018778Y009064D01*
X018778Y009006D01*
X018720Y009064D02*
X018603Y008947D01*
X018720Y009187D02*
X018954Y009420D01*
X019012Y009420D01*
X019070Y009362D01*
X019070Y009245D01*
X019012Y009187D01*
X018720Y009187D02*
X018720Y009420D01*
X018720Y009546D02*
X018954Y009546D01*
X018954Y009604D01*
X018895Y009663D01*
X018954Y009721D01*
X018895Y009779D01*
X018720Y009779D01*
X018720Y009663D02*
X018895Y009663D01*
X018954Y009905D02*
X018954Y009963D01*
X018895Y010022D01*
X018954Y010080D01*
X018895Y010138D01*
X018720Y010138D01*
X018720Y010022D02*
X018895Y010022D01*
X018954Y009905D02*
X018720Y009905D01*
X018895Y008104D02*
X018895Y007870D01*
X018954Y007870D02*
X019070Y007987D01*
X018954Y008104D01*
X018954Y007870D02*
X018720Y007870D01*
X012298Y013720D02*
X012298Y014070D01*
X012123Y014070D01*
X012065Y014012D01*
X012065Y013895D01*
X012123Y013837D01*
X012298Y013837D01*
X012181Y013837D02*
X012065Y013720D01*
X011939Y013720D02*
X011939Y013778D01*
X011706Y014012D01*
X011706Y014070D01*
X011939Y014070D01*
X012124Y014420D02*
X012241Y014420D01*
X012299Y014478D01*
X012066Y014712D01*
X012066Y014478D01*
X012124Y014420D01*
X012299Y014478D02*
X012299Y014712D01*
X012241Y014770D01*
X012124Y014770D01*
X012066Y014712D01*
X012425Y014712D02*
X012425Y014654D01*
X012483Y014595D01*
X012425Y014537D01*
X012425Y014478D01*
X012483Y014420D01*
X012600Y014420D01*
X012658Y014478D01*
X012784Y014478D02*
X012842Y014420D01*
X012959Y014420D01*
X013017Y014478D01*
X012901Y014595D02*
X012842Y014595D01*
X012784Y014537D01*
X012784Y014478D01*
X012842Y014595D02*
X012784Y014654D01*
X012784Y014712D01*
X012842Y014770D01*
X012959Y014770D01*
X013017Y014712D01*
X012658Y014712D02*
X012600Y014770D01*
X012483Y014770D01*
X012425Y014712D01*
X012483Y014595D02*
X012541Y014595D01*
D157*
X014925Y010600D03*
X014925Y009600D03*
X014925Y008600D03*
D158*
X024400Y011600D02*
X026800Y011600D01*
X026862Y011602D01*
X026923Y011608D01*
X026984Y011617D01*
X027044Y011630D01*
X027103Y011647D01*
X027161Y011668D01*
X027218Y011692D01*
X027273Y011719D01*
X027326Y011750D01*
X027378Y011784D01*
X027427Y011821D01*
X027474Y011861D01*
X027518Y011904D01*
X027559Y011949D01*
X027598Y011997D01*
X027634Y012048D01*
X027666Y012100D01*
X027695Y012154D01*
X027721Y012210D01*
X027743Y012268D01*
X027762Y012326D01*
X027777Y012386D01*
X027788Y012447D01*
X027796Y012508D01*
X027800Y012569D01*
X027800Y012631D01*
X027796Y012692D01*
X027788Y012753D01*
X027777Y012814D01*
X027762Y012874D01*
X027743Y012932D01*
X027721Y012990D01*
X027695Y013046D01*
X027666Y013100D01*
X027634Y013152D01*
X027598Y013203D01*
X027559Y013251D01*
X027518Y013296D01*
X027474Y013339D01*
X027427Y013379D01*
X027378Y013416D01*
X027326Y013450D01*
X027273Y013481D01*
X027218Y013508D01*
X027161Y013532D01*
X027103Y013553D01*
X027044Y013570D01*
X026984Y013583D01*
X026923Y013592D01*
X026862Y013598D01*
X026800Y013600D01*
X024400Y013600D01*
X024338Y013598D01*
X024277Y013592D01*
X024216Y013583D01*
X024156Y013570D01*
X024097Y013553D01*
X024039Y013532D01*
X023982Y013508D01*
X023927Y013481D01*
X023874Y013450D01*
X023822Y013416D01*
X023773Y013379D01*
X023726Y013339D01*
X023682Y013296D01*
X023641Y013251D01*
X023602Y013203D01*
X023566Y013152D01*
X023534Y013100D01*
X023505Y013046D01*
X023479Y012990D01*
X023457Y012932D01*
X023438Y012874D01*
X023423Y012814D01*
X023412Y012753D01*
X023404Y012692D01*
X023400Y012631D01*
X023400Y012569D01*
X023404Y012508D01*
X023412Y012447D01*
X023423Y012386D01*
X023438Y012326D01*
X023457Y012268D01*
X023479Y012210D01*
X023505Y012154D01*
X023534Y012100D01*
X023566Y012048D01*
X023602Y011997D01*
X023641Y011949D01*
X023682Y011904D01*
X023726Y011861D01*
X023773Y011821D01*
X023822Y011784D01*
X023874Y011750D01*
X023927Y011719D01*
X023982Y011692D01*
X024039Y011668D01*
X024097Y011647D01*
X024156Y011630D01*
X024216Y011617D01*
X024277Y011608D01*
X024338Y011602D01*
X024400Y011600D01*
D159*
X007848Y022826D02*
X007848Y022976D01*
X007848Y026176D02*
X007848Y026326D01*
D160*
X007848Y026496D03*
X007848Y025996D03*
X007848Y023156D03*
X007848Y022656D03*
D161*
X011525Y014600D03*
X013675Y014600D03*
D162*
X014650Y006100D03*
D163*
X015275Y006100D03*
X012925Y006100D03*
M02*
