G75*
%MOIN*%
%OFA0B0*%
%FSLAX24Y24*%
%IPPOS*%
%LPD*%
%AMOC8*
5,1,8,0,0,1.08239X$1,22.5*
%
%ADD10C,0.1260*%
%ADD11OC8,0.0480*%
%ADD12C,0.0600*%
%ADD13C,0.1300*%
%ADD14C,0.0480*%
%ADD15C,0.0480*%
%ADD16R,0.0660X0.0660*%
%ADD17C,0.0660*%
%ADD18C,0.0705*%
%ADD19C,0.0540*%
%ADD20OC8,0.0620*%
%ADD21C,0.0620*%
%ADD22OC8,0.0500*%
%ADD23C,0.0500*%
D10*
X003982Y004021D03*
X035561Y004021D03*
X035553Y035671D03*
X004100Y035600D03*
D11*
X006100Y029100D03*
X007100Y029100D03*
X007848Y027076D03*
X007848Y022076D03*
X008100Y014600D03*
X009100Y014600D03*
X011100Y014600D03*
X014100Y014600D03*
X023600Y010100D03*
X023600Y009100D03*
X026100Y009100D03*
X026100Y010100D03*
D12*
X032500Y005900D02*
X032500Y005300D01*
X033500Y005300D02*
X033500Y005900D01*
X014400Y008600D02*
X013800Y008600D01*
X013800Y009600D02*
X014400Y009600D01*
X014400Y010600D02*
X013800Y010600D01*
X007100Y005900D02*
X007100Y005300D01*
X006100Y005300D02*
X006100Y005900D01*
X013800Y018100D02*
X014400Y018100D01*
X014400Y019100D02*
X013800Y019100D01*
X013800Y020100D02*
X014400Y020100D01*
X014400Y021100D02*
X013800Y021100D01*
X013800Y022100D02*
X014400Y022100D01*
X014400Y023100D02*
X013800Y023100D01*
X013800Y024100D02*
X014400Y024100D01*
X003990Y025020D02*
X003990Y025620D01*
X002210Y025620D02*
X002210Y025020D01*
X002210Y027580D02*
X002210Y028180D01*
X003990Y028180D02*
X003990Y027580D01*
D13*
X020000Y009600D03*
D14*
X024360Y019600D02*
X024840Y019600D01*
X024840Y020600D02*
X024360Y020600D01*
X024360Y021600D02*
X024840Y021600D01*
X024840Y022600D02*
X024360Y022600D01*
X024360Y023600D02*
X024840Y023600D01*
X024840Y024600D02*
X024360Y024600D01*
X024360Y025600D02*
X024840Y025600D01*
X024840Y026600D02*
X024360Y026600D01*
X027360Y026600D02*
X027840Y026600D01*
X027840Y025600D02*
X027360Y025600D01*
X027360Y024600D02*
X027840Y024600D01*
X027840Y023600D02*
X027360Y023600D01*
X027360Y022600D02*
X027840Y022600D01*
X027840Y021600D02*
X027360Y021600D01*
X027360Y020600D02*
X027840Y020600D01*
X027840Y019600D02*
X027360Y019600D01*
D15*
X026550Y012600D03*
X024650Y012600D03*
D16*
X018100Y029100D03*
D17*
X018100Y028100D03*
X018100Y027100D03*
X018100Y026100D03*
X018100Y025100D03*
X018100Y024100D03*
X018100Y023100D03*
X018100Y022100D03*
X018100Y021100D03*
X018100Y020100D03*
X018100Y019100D03*
X018100Y018100D03*
X018100Y017100D03*
X018100Y016100D03*
X021100Y016100D03*
X021100Y017100D03*
X021100Y018100D03*
X021100Y019100D03*
X021100Y020100D03*
X021100Y021100D03*
X021100Y022100D03*
X021100Y023100D03*
X021100Y024100D03*
X021100Y025100D03*
X021100Y026100D03*
X021100Y027100D03*
X021100Y028100D03*
X021100Y029100D03*
X016100Y006100D03*
X012100Y006100D03*
D18*
X002953Y018616D02*
X002248Y018616D01*
X002248Y020584D02*
X002953Y020584D01*
X036748Y020584D02*
X037453Y020584D01*
X037453Y018616D02*
X036748Y018616D01*
D19*
X030600Y015370D02*
X030600Y014830D01*
X029600Y014830D02*
X029600Y015370D01*
X022870Y018100D02*
X022330Y018100D01*
X022330Y019100D02*
X022870Y019100D01*
X022870Y020100D02*
X022330Y020100D01*
X014370Y027100D02*
X013830Y027100D01*
X013830Y028100D02*
X014370Y028100D01*
X014370Y029100D02*
X013830Y029100D01*
X022328Y029264D02*
X022868Y029264D01*
X022868Y030264D02*
X022328Y030264D01*
X007600Y010870D02*
X007600Y010330D01*
X006600Y010330D02*
X006600Y010870D01*
X005600Y010870D02*
X005600Y010330D01*
D20*
X010730Y009104D03*
D21*
X010730Y008104D03*
D22*
X010730Y010645D03*
D23*
X010730Y011445D03*
M02*
