G75*
%MOIN*%
%OFA0B0*%
%FSLAX24Y24*%
%IPPOS*%
%LPD*%
%AMOC8*
5,1,8,0,0,1.08239X$1,22.5*
%
%ADD10C,0.0000*%
D10*
X003197Y000467D02*
X003197Y039802D01*
X042527Y039781D01*
X042567Y000467D01*
X003197Y000467D01*
X006508Y004412D02*
X006510Y004462D01*
X006516Y004512D01*
X006526Y004561D01*
X006540Y004609D01*
X006557Y004656D01*
X006578Y004701D01*
X006603Y004745D01*
X006631Y004786D01*
X006663Y004825D01*
X006697Y004862D01*
X006734Y004896D01*
X006774Y004926D01*
X006816Y004953D01*
X006860Y004977D01*
X006906Y004998D01*
X006953Y005014D01*
X007001Y005027D01*
X007051Y005036D01*
X007100Y005041D01*
X007151Y005042D01*
X007201Y005039D01*
X007250Y005032D01*
X007299Y005021D01*
X007347Y005006D01*
X007393Y004988D01*
X007438Y004966D01*
X007481Y004940D01*
X007522Y004911D01*
X007561Y004879D01*
X007597Y004844D01*
X007629Y004806D01*
X007659Y004766D01*
X007686Y004723D01*
X007709Y004679D01*
X007728Y004633D01*
X007744Y004585D01*
X007756Y004536D01*
X007764Y004487D01*
X007768Y004437D01*
X007768Y004387D01*
X007764Y004337D01*
X007756Y004288D01*
X007744Y004239D01*
X007728Y004191D01*
X007709Y004145D01*
X007686Y004101D01*
X007659Y004058D01*
X007629Y004018D01*
X007597Y003980D01*
X007561Y003945D01*
X007522Y003913D01*
X007481Y003884D01*
X007438Y003858D01*
X007393Y003836D01*
X007347Y003818D01*
X007299Y003803D01*
X007250Y003792D01*
X007201Y003785D01*
X007151Y003782D01*
X007100Y003783D01*
X007051Y003788D01*
X007001Y003797D01*
X006953Y003810D01*
X006906Y003826D01*
X006860Y003847D01*
X006816Y003871D01*
X006774Y003898D01*
X006734Y003928D01*
X006697Y003962D01*
X006663Y003999D01*
X006631Y004038D01*
X006603Y004079D01*
X006578Y004123D01*
X006557Y004168D01*
X006540Y004215D01*
X006526Y004263D01*
X006516Y004312D01*
X006510Y004362D01*
X006508Y004412D01*
X009225Y033450D02*
X009227Y033500D01*
X009233Y033550D01*
X009243Y033600D01*
X009256Y033648D01*
X009273Y033696D01*
X009294Y033742D01*
X009318Y033786D01*
X009346Y033828D01*
X009377Y033868D01*
X009411Y033905D01*
X009448Y033940D01*
X009487Y033971D01*
X009528Y034000D01*
X009572Y034025D01*
X009618Y034047D01*
X009665Y034065D01*
X009713Y034079D01*
X009762Y034090D01*
X009812Y034097D01*
X009862Y034100D01*
X009913Y034099D01*
X009963Y034094D01*
X010013Y034085D01*
X010061Y034073D01*
X010109Y034056D01*
X010155Y034036D01*
X010200Y034013D01*
X010243Y033986D01*
X010283Y033956D01*
X010321Y033923D01*
X010356Y033887D01*
X010389Y033848D01*
X010418Y033807D01*
X010444Y033764D01*
X010467Y033719D01*
X010486Y033672D01*
X010501Y033624D01*
X010513Y033575D01*
X010521Y033525D01*
X010525Y033475D01*
X010525Y033425D01*
X010521Y033375D01*
X010513Y033325D01*
X010501Y033276D01*
X010486Y033228D01*
X010467Y033181D01*
X010444Y033136D01*
X010418Y033093D01*
X010389Y033052D01*
X010356Y033013D01*
X010321Y032977D01*
X010283Y032944D01*
X010243Y032914D01*
X010200Y032887D01*
X010155Y032864D01*
X010109Y032844D01*
X010061Y032827D01*
X010013Y032815D01*
X009963Y032806D01*
X009913Y032801D01*
X009862Y032800D01*
X009812Y032803D01*
X009762Y032810D01*
X009713Y032821D01*
X009665Y032835D01*
X009618Y032853D01*
X009572Y032875D01*
X009528Y032900D01*
X009487Y032929D01*
X009448Y032960D01*
X009411Y032995D01*
X009377Y033032D01*
X009346Y033072D01*
X009318Y033114D01*
X009294Y033158D01*
X009273Y033204D01*
X009256Y033252D01*
X009243Y033300D01*
X009233Y033350D01*
X009227Y033400D01*
X009225Y033450D01*
X006543Y035861D02*
X006545Y035911D01*
X006551Y035961D01*
X006561Y036010D01*
X006575Y036058D01*
X006592Y036105D01*
X006613Y036150D01*
X006638Y036194D01*
X006666Y036235D01*
X006698Y036274D01*
X006732Y036311D01*
X006769Y036345D01*
X006809Y036375D01*
X006851Y036402D01*
X006895Y036426D01*
X006941Y036447D01*
X006988Y036463D01*
X007036Y036476D01*
X007086Y036485D01*
X007135Y036490D01*
X007186Y036491D01*
X007236Y036488D01*
X007285Y036481D01*
X007334Y036470D01*
X007382Y036455D01*
X007428Y036437D01*
X007473Y036415D01*
X007516Y036389D01*
X007557Y036360D01*
X007596Y036328D01*
X007632Y036293D01*
X007664Y036255D01*
X007694Y036215D01*
X007721Y036172D01*
X007744Y036128D01*
X007763Y036082D01*
X007779Y036034D01*
X007791Y035985D01*
X007799Y035936D01*
X007803Y035886D01*
X007803Y035836D01*
X007799Y035786D01*
X007791Y035737D01*
X007779Y035688D01*
X007763Y035640D01*
X007744Y035594D01*
X007721Y035550D01*
X007694Y035507D01*
X007664Y035467D01*
X007632Y035429D01*
X007596Y035394D01*
X007557Y035362D01*
X007516Y035333D01*
X007473Y035307D01*
X007428Y035285D01*
X007382Y035267D01*
X007334Y035252D01*
X007285Y035241D01*
X007236Y035234D01*
X007186Y035231D01*
X007135Y035232D01*
X007086Y035237D01*
X007036Y035246D01*
X006988Y035259D01*
X006941Y035275D01*
X006895Y035296D01*
X006851Y035320D01*
X006809Y035347D01*
X006769Y035377D01*
X006732Y035411D01*
X006698Y035448D01*
X006666Y035487D01*
X006638Y035528D01*
X006613Y035572D01*
X006592Y035617D01*
X006575Y035664D01*
X006561Y035712D01*
X006551Y035761D01*
X006545Y035811D01*
X006543Y035861D01*
X037980Y035884D02*
X037982Y035934D01*
X037988Y035984D01*
X037998Y036033D01*
X038012Y036081D01*
X038029Y036128D01*
X038050Y036173D01*
X038075Y036217D01*
X038103Y036258D01*
X038135Y036297D01*
X038169Y036334D01*
X038206Y036368D01*
X038246Y036398D01*
X038288Y036425D01*
X038332Y036449D01*
X038378Y036470D01*
X038425Y036486D01*
X038473Y036499D01*
X038523Y036508D01*
X038572Y036513D01*
X038623Y036514D01*
X038673Y036511D01*
X038722Y036504D01*
X038771Y036493D01*
X038819Y036478D01*
X038865Y036460D01*
X038910Y036438D01*
X038953Y036412D01*
X038994Y036383D01*
X039033Y036351D01*
X039069Y036316D01*
X039101Y036278D01*
X039131Y036238D01*
X039158Y036195D01*
X039181Y036151D01*
X039200Y036105D01*
X039216Y036057D01*
X039228Y036008D01*
X039236Y035959D01*
X039240Y035909D01*
X039240Y035859D01*
X039236Y035809D01*
X039228Y035760D01*
X039216Y035711D01*
X039200Y035663D01*
X039181Y035617D01*
X039158Y035573D01*
X039131Y035530D01*
X039101Y035490D01*
X039069Y035452D01*
X039033Y035417D01*
X038994Y035385D01*
X038953Y035356D01*
X038910Y035330D01*
X038865Y035308D01*
X038819Y035290D01*
X038771Y035275D01*
X038722Y035264D01*
X038673Y035257D01*
X038623Y035254D01*
X038572Y035255D01*
X038523Y035260D01*
X038473Y035269D01*
X038425Y035282D01*
X038378Y035298D01*
X038332Y035319D01*
X038288Y035343D01*
X038246Y035370D01*
X038206Y035400D01*
X038169Y035434D01*
X038135Y035471D01*
X038103Y035510D01*
X038075Y035551D01*
X038050Y035595D01*
X038029Y035640D01*
X038012Y035687D01*
X037998Y035735D01*
X037988Y035784D01*
X037982Y035834D01*
X037980Y035884D01*
X037972Y004396D02*
X037974Y004446D01*
X037980Y004496D01*
X037990Y004545D01*
X038004Y004593D01*
X038021Y004640D01*
X038042Y004685D01*
X038067Y004729D01*
X038095Y004770D01*
X038127Y004809D01*
X038161Y004846D01*
X038198Y004880D01*
X038238Y004910D01*
X038280Y004937D01*
X038324Y004961D01*
X038370Y004982D01*
X038417Y004998D01*
X038465Y005011D01*
X038515Y005020D01*
X038564Y005025D01*
X038615Y005026D01*
X038665Y005023D01*
X038714Y005016D01*
X038763Y005005D01*
X038811Y004990D01*
X038857Y004972D01*
X038902Y004950D01*
X038945Y004924D01*
X038986Y004895D01*
X039025Y004863D01*
X039061Y004828D01*
X039093Y004790D01*
X039123Y004750D01*
X039150Y004707D01*
X039173Y004663D01*
X039192Y004617D01*
X039208Y004569D01*
X039220Y004520D01*
X039228Y004471D01*
X039232Y004421D01*
X039232Y004371D01*
X039228Y004321D01*
X039220Y004272D01*
X039208Y004223D01*
X039192Y004175D01*
X039173Y004129D01*
X039150Y004085D01*
X039123Y004042D01*
X039093Y004002D01*
X039061Y003964D01*
X039025Y003929D01*
X038986Y003897D01*
X038945Y003868D01*
X038902Y003842D01*
X038857Y003820D01*
X038811Y003802D01*
X038763Y003787D01*
X038714Y003776D01*
X038665Y003769D01*
X038615Y003766D01*
X038564Y003767D01*
X038515Y003772D01*
X038465Y003781D01*
X038417Y003794D01*
X038370Y003810D01*
X038324Y003831D01*
X038280Y003855D01*
X038238Y003882D01*
X038198Y003912D01*
X038161Y003946D01*
X038127Y003983D01*
X038095Y004022D01*
X038067Y004063D01*
X038042Y004107D01*
X038021Y004152D01*
X038004Y004199D01*
X037990Y004247D01*
X037980Y004296D01*
X037974Y004346D01*
X037972Y004396D01*
M02*
