%
M48
M72
T01C0.0236
T02C0.0315
T03C0.0320
T04C0.0360
T05C0.0400
T06C0.1260
T07C0.1300
%
T01
X14697Y16457
X19437Y19807
X20017Y20947
X19247Y21467
X18477Y22397
X15897Y21567
X15797Y23467
X18177Y25697
X15486Y26547
X14795Y27551
X11797Y25767
X9897Y25767
X13197Y22467
X9797Y20967
X12497Y30667
X19797Y33967
X22797Y33067
X23697Y34867
X24949Y34203
X24997Y32367
X22697Y29267
X20598Y28459
X20598Y27475
X21897Y20367
X24157Y19427
X26067Y17937
X28709Y20711
X31378Y20684
X33972Y19624
X36597Y22967
X38397Y21867
X39997Y16067
X31386Y13876
X28693Y13920
X26197Y10667
X26297Y8167
X18315Y2766
X27590Y37061
T02
X24866Y28210
X24866Y27423
X24866Y26636
X24866Y25848
X24866Y25061
X24866Y24273
X24866Y23486
X24866Y22698
X24866Y21911
X24866Y21124
X33527Y21124
X33527Y21911
X33527Y22698
X33527Y23486
X33527Y24273
X33527Y25061
X33527Y25848
X33527Y26636
X33527Y27423
X33527Y28210
T03
X40197Y22967
X40197Y20967
X40197Y19967
X40297Y18167
X40297Y17167
X38590Y16597
X35590Y16597
X31397Y14967
X31397Y12767
X31397Y11767
X28697Y11767
X28697Y12767
X28697Y14867
X28697Y18867
X31397Y18967
X20827Y21587
X20077Y22087
X20827Y22587
X14795Y26662
X11795Y26662
X5697Y23967
X5697Y22967
X5697Y20967
X5697Y19967
X5697Y17967
X17268Y6239
X17268Y3239
X20397Y2767
X21397Y2767
X23297Y2767
X24297Y2767
X26297Y2767
X24949Y35286
X25697Y37967
X26697Y37967
X27949Y35286
X23697Y37967
X22697Y37967
X20697Y37967
T04
X25297Y11767
X26297Y11767
T05
X17197Y18467
X17197Y19467
X17197Y20467
X17197Y21467
X17197Y22467
X17197Y23467
X17197Y24467
X17197Y27467
X17197Y28467
X17197Y29467
X10875Y27550
X9875Y27550
X8875Y27550
T06
X7138Y4412
X38602Y4396
X38610Y35884
X7173Y35861
T07
X9875Y33450
M30
