G75*
%MOIN*%
%OFA0B0*%
%FSLAX24Y24*%
%IPPOS*%
%LPD*%
%AMOC8*
5,1,8,0,0,1.08239X$1,22.5*
%
%ADD10C,0.0060*%
%ADD11C,0.0010*%
%ADD12C,0.0120*%
%ADD13R,0.0066X0.0033*%
%ADD14R,0.0167X0.0033*%
%ADD15R,0.0334X0.0033*%
%ADD16R,0.0367X0.0033*%
%ADD17R,0.0466X0.0033*%
%ADD18R,0.0467X0.0033*%
%ADD19R,0.0500X0.0033*%
%ADD20R,0.0533X0.0033*%
%ADD21R,0.0567X0.0033*%
%ADD22R,0.0566X0.0033*%
%ADD23R,0.0600X0.0033*%
%ADD24R,0.0566X0.0033*%
%ADD25R,0.0600X0.0033*%
%ADD26R,0.0634X0.0033*%
%ADD27R,0.0633X0.0033*%
%ADD28R,0.0634X0.0033*%
%ADD29R,0.0633X0.0033*%
%ADD30R,0.0300X0.0033*%
%ADD31R,0.0233X0.0033*%
%ADD32R,0.0333X0.0033*%
%ADD33R,0.0233X0.0033*%
%ADD34R,0.0234X0.0033*%
%ADD35R,0.0267X0.0033*%
%ADD36R,0.0333X0.0033*%
%ADD37R,0.0033X0.0033*%
%ADD38R,0.0400X0.0033*%
%ADD39R,0.0434X0.0033*%
%ADD40R,0.0300X0.0033*%
%ADD41R,0.0266X0.0033*%
%ADD42R,0.0266X0.0033*%
%ADD43R,0.1200X0.0033*%
%ADD44R,0.0267X0.0033*%
%ADD45R,0.0133X0.0033*%
%ADD46R,0.1400X0.0033*%
%ADD47R,0.1434X0.0033*%
%ADD48R,0.1434X0.0033*%
%ADD49R,0.1433X0.0033*%
%ADD50R,0.1467X0.0033*%
%ADD51R,0.1433X0.0033*%
%ADD52R,0.0133X0.0033*%
%ADD53R,0.0366X0.0033*%
%ADD54R,0.0433X0.0033*%
%ADD55R,0.0466X0.0033*%
%ADD56R,0.1367X0.0033*%
%ADD57R,0.1367X0.0033*%
%ADD58R,0.0366X0.0033*%
%ADD59R,0.0533X0.0033*%
%ADD60R,0.0367X0.0033*%
%ADD61R,0.1333X0.0033*%
%ADD62R,0.0666X0.0033*%
%ADD63R,0.1334X0.0033*%
%ADD64R,0.1300X0.0033*%
%ADD65R,0.0434X0.0033*%
%ADD66R,0.0700X0.0033*%
%ADD67R,0.0733X0.0033*%
%ADD68R,0.1267X0.0033*%
%ADD69R,0.0766X0.0033*%
%ADD70R,0.0800X0.0033*%
%ADD71R,0.0433X0.0033*%
%ADD72R,0.0500X0.0033*%
%ADD73R,0.0400X0.0033*%
%ADD74R,0.0166X0.0033*%
%ADD75R,0.0800X0.0033*%
%ADD76R,0.0833X0.0033*%
%ADD77R,0.0200X0.0033*%
%ADD78R,0.0134X0.0033*%
%ADD79R,0.0100X0.0033*%
%ADD80R,0.0866X0.0033*%
%ADD81R,0.0867X0.0033*%
%ADD82R,0.0067X0.0033*%
%ADD83R,0.0866X0.0033*%
%ADD84R,0.0834X0.0033*%
%ADD85R,0.0100X0.0033*%
%ADD86R,0.0700X0.0033*%
%ADD87R,0.0767X0.0033*%
%ADD88R,0.0667X0.0033*%
%ADD89R,0.0734X0.0033*%
%ADD90R,0.0334X0.0033*%
%ADD91R,0.0767X0.0033*%
%ADD92R,0.0166X0.0033*%
%ADD93R,0.0734X0.0033*%
%ADD94R,0.0567X0.0033*%
%ADD95R,0.0733X0.0033*%
%ADD96R,0.0667X0.0033*%
%ADD97R,0.0067X0.0033*%
%ADD98R,0.0534X0.0033*%
%ADD99R,0.0534X0.0033*%
%ADD100R,0.0467X0.0033*%
%ADD101R,0.0933X0.0033*%
%ADD102R,0.1033X0.0033*%
%ADD103R,0.1100X0.0033*%
%ADD104R,0.1134X0.0033*%
%ADD105R,0.1500X0.0033*%
%ADD106R,0.0167X0.0033*%
%ADD107R,0.0200X0.0033*%
%ADD108R,0.0867X0.0033*%
%ADD109R,0.0134X0.0033*%
%ADD110R,0.0066X0.0033*%
%ADD111R,0.0833X0.0033*%
%ADD112R,0.0234X0.0033*%
%ADD113R,0.0766X0.0033*%
%ADD114R,0.0900X0.0033*%
%ADD115R,0.0967X0.0033*%
%ADD116R,0.1000X0.0033*%
%ADD117R,0.1034X0.0033*%
%ADD118R,0.1133X0.0033*%
%ADD119R,0.1166X0.0033*%
%ADD120R,0.1234X0.0033*%
%ADD121R,0.1267X0.0033*%
%ADD122R,0.1333X0.0033*%
%ADD123R,0.0900X0.0033*%
%ADD124R,0.0967X0.0033*%
%ADD125R,0.0934X0.0033*%
%ADD126R,0.1000X0.0033*%
%ADD127R,0.1033X0.0033*%
%ADD128R,0.1067X0.0033*%
%ADD129R,0.2467X0.0033*%
%ADD130R,0.2467X0.0033*%
%ADD131R,0.2433X0.0033*%
%ADD132R,0.2433X0.0033*%
%ADD133R,0.2367X0.0033*%
%ADD134R,0.2367X0.0033*%
%ADD135R,0.2300X0.0033*%
%ADD136R,0.2300X0.0033*%
%ADD137R,0.2233X0.0033*%
%ADD138R,0.2233X0.0033*%
%ADD139R,0.2200X0.0033*%
%ADD140R,0.2167X0.0033*%
%ADD141R,0.2134X0.0033*%
%ADD142R,0.2066X0.0033*%
%ADD143R,0.2000X0.0033*%
%ADD144R,0.1967X0.0033*%
%ADD145R,0.1900X0.0033*%
%ADD146R,0.1833X0.0033*%
%ADD147R,0.1800X0.0033*%
%ADD148R,0.1734X0.0033*%
%ADD149R,0.1666X0.0033*%
%ADD150R,0.1567X0.0033*%
%ADD151R,0.1466X0.0033*%
%ADD152R,0.1233X0.0033*%
%ADD153C,0.0040*%
%ADD154R,0.0150X0.0200*%
%ADD155R,0.0200X0.0150*%
%ADD156C,0.0050*%
D10*
X016868Y003839D02*
X016868Y003989D01*
X016918Y004039D01*
X016918Y005439D01*
X016868Y005489D01*
X016868Y005639D01*
X016870Y005656D01*
X016874Y005673D01*
X016881Y005689D01*
X016891Y005703D01*
X016904Y005716D01*
X016918Y005726D01*
X016934Y005733D01*
X016951Y005737D01*
X016968Y005739D01*
X017568Y005739D01*
X017585Y005737D01*
X017602Y005733D01*
X017618Y005726D01*
X017632Y005716D01*
X017645Y005703D01*
X017655Y005689D01*
X017662Y005673D01*
X017666Y005656D01*
X017668Y005639D01*
X017668Y005489D01*
X017618Y005439D01*
X017618Y004039D01*
X017668Y003989D01*
X017668Y003839D01*
X017666Y003822D01*
X017662Y003805D01*
X017655Y003789D01*
X017645Y003775D01*
X017632Y003762D01*
X017618Y003752D01*
X017602Y003745D01*
X017585Y003741D01*
X017568Y003739D01*
X016968Y003739D01*
X016951Y003741D01*
X016934Y003745D01*
X016918Y003752D01*
X016904Y003762D01*
X016891Y003775D01*
X016881Y003789D01*
X016874Y003805D01*
X016870Y003822D01*
X016868Y003839D01*
X016947Y017967D02*
X016697Y018217D01*
X016697Y018717D01*
X016947Y018967D01*
X016697Y019217D01*
X016697Y019717D01*
X016947Y019967D01*
X016697Y020217D01*
X016697Y020717D01*
X016947Y020967D01*
X016697Y021217D01*
X016697Y021717D01*
X016947Y021967D01*
X016697Y022217D01*
X016697Y022717D01*
X016947Y022967D01*
X016697Y023217D01*
X016697Y023717D01*
X016947Y023967D01*
X016697Y024217D01*
X016697Y024717D01*
X016947Y024967D01*
X017447Y024967D01*
X017697Y024717D01*
X017697Y024217D01*
X017447Y023967D01*
X017697Y023717D01*
X017697Y023217D01*
X017447Y022967D01*
X017697Y022717D01*
X017697Y022217D01*
X017447Y021967D01*
X017697Y021717D01*
X017697Y021217D01*
X017447Y020967D01*
X017697Y020717D01*
X017697Y020217D01*
X017447Y019967D01*
X017697Y019717D01*
X017697Y019217D01*
X017447Y018967D01*
X017697Y018717D01*
X017697Y018217D01*
X017447Y017967D01*
X016947Y017967D01*
X014195Y026262D02*
X014045Y026262D01*
X013995Y026312D01*
X012595Y026312D01*
X012545Y026262D01*
X012395Y026262D01*
X012378Y026264D01*
X012361Y026268D01*
X012345Y026275D01*
X012331Y026285D01*
X012318Y026298D01*
X012308Y026312D01*
X012301Y026328D01*
X012297Y026345D01*
X012295Y026362D01*
X012295Y026962D01*
X012297Y026979D01*
X012301Y026996D01*
X012308Y027012D01*
X012318Y027026D01*
X012331Y027039D01*
X012345Y027049D01*
X012361Y027056D01*
X012378Y027060D01*
X012395Y027062D01*
X012545Y027062D01*
X012595Y027012D01*
X013995Y027012D01*
X014045Y027062D01*
X014195Y027062D01*
X014212Y027060D01*
X014229Y027056D01*
X014245Y027049D01*
X014259Y027039D01*
X014272Y027026D01*
X014282Y027012D01*
X014289Y026996D01*
X014293Y026979D01*
X014295Y026962D01*
X014295Y026362D01*
X014293Y026345D01*
X014289Y026328D01*
X014282Y026312D01*
X014272Y026298D01*
X014259Y026285D01*
X014245Y026275D01*
X014229Y026268D01*
X014212Y026264D01*
X014195Y026262D01*
X016697Y027217D02*
X016947Y026967D01*
X017447Y026967D01*
X017697Y027217D01*
X017697Y027717D01*
X017447Y027967D01*
X017697Y028217D01*
X017697Y028717D01*
X017447Y028967D01*
X017697Y029217D01*
X017697Y029717D01*
X017447Y029967D01*
X016947Y029967D01*
X016697Y029717D01*
X016697Y029217D01*
X016947Y028967D01*
X016697Y028717D01*
X016697Y028217D01*
X016947Y027967D01*
X016697Y027717D01*
X016697Y027217D01*
X025449Y034986D02*
X025449Y035586D01*
X025451Y035603D01*
X025455Y035620D01*
X025462Y035636D01*
X025472Y035650D01*
X025485Y035663D01*
X025499Y035673D01*
X025515Y035680D01*
X025532Y035684D01*
X025549Y035686D01*
X025699Y035686D01*
X025749Y035636D01*
X027149Y035636D01*
X027199Y035686D01*
X027349Y035686D01*
X027366Y035684D01*
X027383Y035680D01*
X027399Y035673D01*
X027413Y035663D01*
X027426Y035650D01*
X027436Y035636D01*
X027443Y035620D01*
X027447Y035603D01*
X027449Y035586D01*
X027449Y034986D01*
X027447Y034969D01*
X027443Y034952D01*
X027436Y034936D01*
X027426Y034922D01*
X027413Y034909D01*
X027399Y034899D01*
X027383Y034892D01*
X027366Y034888D01*
X027349Y034886D01*
X027199Y034886D01*
X027149Y034936D01*
X025749Y034936D01*
X025699Y034886D01*
X025549Y034886D01*
X025532Y034888D01*
X025515Y034892D01*
X025499Y034899D01*
X025485Y034909D01*
X025472Y034922D01*
X025462Y034936D01*
X025455Y034952D01*
X025451Y034969D01*
X025449Y034986D01*
X023731Y035927D02*
X023731Y036354D01*
X023518Y036567D01*
X023304Y036354D01*
X023304Y035927D01*
X023087Y036034D02*
X022980Y035927D01*
X022766Y035927D01*
X022660Y036034D01*
X022660Y036247D01*
X022873Y036247D01*
X022660Y036461D02*
X022766Y036567D01*
X022980Y036567D01*
X023087Y036461D01*
X023087Y036034D01*
X023304Y036247D02*
X023731Y036247D01*
X022442Y036247D02*
X022229Y036247D01*
X022442Y035927D02*
X022015Y035927D01*
X021798Y035927D02*
X021798Y036567D01*
X021371Y035927D01*
X021371Y036567D01*
X021153Y036567D02*
X020726Y036567D01*
X020940Y036567D02*
X020940Y035927D01*
X022015Y036567D02*
X022442Y036567D01*
X022442Y035927D01*
X033808Y036256D02*
X033808Y035615D01*
X034235Y035615D02*
X034235Y036256D01*
X034022Y036042D01*
X033808Y036256D01*
X034453Y036149D02*
X034453Y035722D01*
X034560Y035615D01*
X034773Y035615D01*
X034880Y035722D01*
X034880Y036149D01*
X034773Y036256D01*
X034560Y036256D01*
X034453Y036149D01*
X035097Y036256D02*
X035524Y036256D01*
X035311Y036256D02*
X035311Y035615D01*
X035742Y036256D02*
X036169Y036256D01*
X035955Y036256D02*
X035955Y035615D01*
X036386Y035722D02*
X036386Y036149D01*
X036493Y036256D01*
X036707Y036256D01*
X036813Y036149D01*
X036813Y035722D01*
X036707Y035615D01*
X036493Y035615D01*
X036386Y035722D01*
X037031Y035722D02*
X037138Y035615D01*
X037458Y035615D01*
X037458Y036256D01*
X037138Y036256D01*
X037031Y036149D01*
X037031Y036042D01*
X037138Y035935D01*
X037458Y035935D01*
X037138Y035935D02*
X037031Y035829D01*
X037031Y035722D01*
X036340Y016997D02*
X036190Y016997D01*
X036173Y016995D01*
X036156Y016991D01*
X036140Y016984D01*
X036126Y016974D01*
X036113Y016961D01*
X036103Y016947D01*
X036096Y016931D01*
X036092Y016914D01*
X036090Y016897D01*
X036090Y016297D01*
X036092Y016280D01*
X036096Y016263D01*
X036103Y016247D01*
X036113Y016233D01*
X036126Y016220D01*
X036140Y016210D01*
X036156Y016203D01*
X036173Y016199D01*
X036190Y016197D01*
X036340Y016197D01*
X036390Y016247D01*
X037790Y016247D01*
X037840Y016197D01*
X037990Y016197D01*
X038007Y016199D01*
X038024Y016203D01*
X038040Y016210D01*
X038054Y016220D01*
X038067Y016233D01*
X038077Y016247D01*
X038084Y016263D01*
X038088Y016280D01*
X038090Y016297D01*
X038090Y016897D01*
X038088Y016914D01*
X038084Y016931D01*
X038077Y016947D01*
X038067Y016961D01*
X038054Y016974D01*
X038040Y016984D01*
X038024Y016991D01*
X038007Y016995D01*
X037990Y016997D01*
X037840Y016997D01*
X037790Y016947D01*
X036390Y016947D01*
X036340Y016997D01*
D11*
X000179Y000343D02*
X000179Y000286D01*
X000179Y000343D01*
X000151Y000343D01*
X000141Y000334D01*
X000141Y000315D01*
X000151Y000305D01*
X000179Y000305D01*
X000151Y000305D01*
X000141Y000315D01*
X000141Y000334D01*
X000151Y000343D01*
X000179Y000343D01*
X000203Y000334D02*
X000203Y000305D01*
X000203Y000334D01*
X000212Y000343D01*
X000222Y000334D01*
X000222Y000305D01*
X000222Y000334D01*
X000231Y000343D01*
X000241Y000343D01*
X000241Y000305D01*
X000241Y000343D01*
X000231Y000343D01*
X000222Y000334D01*
X000212Y000343D01*
X000203Y000334D01*
X000264Y000334D02*
X000274Y000343D01*
X000302Y000343D01*
X000274Y000343D01*
X000264Y000334D01*
X000264Y000315D01*
X000274Y000305D01*
X000302Y000305D01*
X000302Y000362D01*
X000302Y000305D01*
X000274Y000305D01*
X000264Y000315D01*
X000264Y000334D01*
X000324Y000315D02*
X000324Y000305D01*
X000333Y000305D01*
X000333Y000315D01*
X000324Y000315D01*
X000324Y000305D01*
X000333Y000305D01*
X000333Y000315D01*
X000324Y000315D01*
X000357Y000315D02*
X000366Y000305D01*
X000385Y000305D01*
X000395Y000315D01*
X000395Y000353D01*
X000385Y000362D01*
X000366Y000362D01*
X000357Y000353D01*
X000357Y000315D01*
X000366Y000305D01*
X000385Y000305D01*
X000395Y000315D01*
X000395Y000353D01*
X000385Y000362D01*
X000366Y000362D01*
X000357Y000353D01*
X000357Y000315D01*
X000357Y000305D02*
X000376Y000324D01*
X000357Y000305D01*
X000417Y000305D02*
X000436Y000305D01*
X000417Y000305D01*
X000427Y000305D02*
X000427Y000343D01*
X000436Y000343D01*
X000427Y000343D01*
X000427Y000305D01*
X000427Y000362D02*
X000427Y000372D01*
X000427Y000362D01*
X000460Y000362D02*
X000498Y000362D01*
X000498Y000305D01*
X000498Y000362D01*
X000460Y000362D01*
X000479Y000334D02*
X000498Y000334D01*
X000479Y000334D01*
X000521Y000353D02*
X000521Y000315D01*
X000531Y000305D01*
X000550Y000305D01*
X000559Y000315D01*
X000559Y000353D01*
X000550Y000362D01*
X000531Y000362D01*
X000521Y000353D01*
X000521Y000315D01*
X000531Y000305D01*
X000550Y000305D01*
X000559Y000315D01*
X000559Y000353D01*
X000550Y000362D01*
X000531Y000362D01*
X000521Y000353D01*
X000540Y000324D02*
X000521Y000305D01*
X000540Y000324D01*
X000583Y000315D02*
X000583Y000353D01*
X000593Y000362D01*
X000612Y000362D01*
X000621Y000353D01*
X000621Y000343D01*
X000612Y000334D01*
X000583Y000334D01*
X000612Y000334D01*
X000621Y000343D01*
X000621Y000353D01*
X000612Y000362D01*
X000593Y000362D01*
X000583Y000353D01*
X000583Y000315D01*
X000593Y000305D01*
X000612Y000305D01*
X000621Y000315D01*
X000612Y000305D01*
X000593Y000305D01*
X000583Y000315D01*
X000645Y000305D02*
X000645Y000334D01*
X000654Y000343D01*
X000664Y000334D01*
X000664Y000305D01*
X000664Y000334D01*
X000673Y000343D01*
X000683Y000343D01*
X000683Y000305D01*
X000683Y000343D01*
X000673Y000343D01*
X000664Y000334D01*
X000654Y000343D01*
X000645Y000334D01*
X000645Y000305D01*
X000707Y000305D02*
X000707Y000362D01*
X000707Y000305D01*
X000745Y000362D01*
X000745Y000305D01*
X000745Y000362D01*
X000707Y000305D01*
X000768Y000315D02*
X000778Y000305D01*
X000797Y000305D01*
X000806Y000315D01*
X000768Y000353D01*
X000768Y000315D01*
X000778Y000305D01*
X000797Y000305D01*
X000806Y000315D01*
X000806Y000353D01*
X000797Y000362D01*
X000778Y000362D01*
X000768Y000353D01*
X000806Y000315D01*
X000806Y000353D01*
X000797Y000362D01*
X000778Y000362D01*
X000768Y000353D01*
X000768Y000315D01*
X000830Y000353D02*
X000868Y000315D01*
X000868Y000305D01*
X000868Y000315D01*
X000830Y000353D01*
X000830Y000362D01*
X000868Y000362D01*
X000830Y000362D01*
X000830Y000353D01*
X000892Y000353D02*
X000901Y000362D01*
X000920Y000362D01*
X000930Y000353D01*
X000930Y000315D01*
X000920Y000305D01*
X000901Y000305D01*
X000892Y000315D01*
X000892Y000353D01*
X000901Y000362D01*
X000920Y000362D01*
X000930Y000353D01*
X000930Y000315D01*
X000920Y000305D01*
X000901Y000305D01*
X000892Y000315D01*
X000892Y000353D01*
X000953Y000334D02*
X000953Y000324D01*
X000991Y000324D01*
X000953Y000324D01*
X000953Y000334D01*
X000963Y000343D01*
X000982Y000343D01*
X000991Y000334D01*
X000991Y000315D01*
X000982Y000305D01*
X000963Y000305D01*
X000982Y000305D01*
X000991Y000315D01*
X000991Y000334D01*
X000982Y000343D01*
X000963Y000343D01*
X000953Y000334D01*
X001015Y000362D02*
X001053Y000324D01*
X001015Y000362D01*
X001053Y000362D02*
X001053Y000305D01*
X001053Y000362D01*
X001044Y000334D02*
X001015Y000305D01*
X001044Y000334D01*
X001077Y000334D02*
X001077Y000305D01*
X001077Y000334D01*
X001086Y000343D01*
X001105Y000343D01*
X001115Y000334D01*
X001105Y000343D01*
X001086Y000343D01*
X001077Y000334D01*
X001115Y000362D02*
X001115Y000305D01*
X001115Y000362D01*
X001138Y000334D02*
X001176Y000334D01*
X001138Y000334D01*
X001190Y000334D02*
X001190Y000315D01*
X001199Y000305D01*
X001228Y000305D01*
X001219Y000305D02*
X001219Y000362D01*
X001238Y000343D01*
X001219Y000362D01*
X001219Y000305D01*
X001238Y000305D02*
X001200Y000305D01*
X001238Y000305D01*
X001251Y000305D02*
X001251Y000334D01*
X001261Y000343D01*
X001270Y000334D01*
X001270Y000305D01*
X001262Y000305D02*
X001300Y000343D01*
X001262Y000305D01*
X001290Y000305D02*
X001290Y000343D01*
X001280Y000343D01*
X001270Y000334D01*
X001262Y000343D02*
X001300Y000305D01*
X001262Y000343D01*
X001228Y000343D02*
X001199Y000343D01*
X001190Y000334D01*
X001228Y000343D02*
X001228Y000286D01*
X001313Y000315D02*
X001313Y000334D01*
X001323Y000343D01*
X001351Y000343D01*
X001351Y000362D02*
X001351Y000305D01*
X001323Y000305D01*
X001313Y000315D01*
X001323Y000324D02*
X001323Y000362D01*
X001323Y000324D01*
X001342Y000305D01*
X001361Y000324D01*
X001361Y000362D01*
X001361Y000324D01*
X001342Y000305D01*
X001323Y000324D01*
X001373Y000315D02*
X001373Y000305D01*
X001382Y000305D01*
X001382Y000315D01*
X001373Y000315D01*
X001385Y000305D02*
X001385Y000362D01*
X001404Y000343D01*
X001423Y000362D01*
X001423Y000305D01*
X001423Y000362D01*
X001404Y000343D01*
X001385Y000362D01*
X001385Y000305D01*
X001406Y000315D02*
X001415Y000305D01*
X001434Y000305D01*
X001444Y000315D01*
X001406Y000353D01*
X001406Y000315D01*
X001406Y000353D02*
X001415Y000362D01*
X001434Y000362D01*
X001444Y000353D01*
X001444Y000315D01*
X001467Y000315D02*
X001477Y000305D01*
X001496Y000305D01*
X001505Y000315D01*
X001467Y000353D01*
X001467Y000315D01*
X001466Y000334D02*
X001485Y000334D01*
X001466Y000334D01*
X001467Y000353D02*
X001477Y000362D01*
X001496Y000362D01*
X001505Y000353D01*
X001505Y000315D01*
X001509Y000315D02*
X001518Y000305D01*
X001537Y000305D01*
X001547Y000315D01*
X001547Y000353D01*
X001537Y000362D01*
X001518Y000362D01*
X001509Y000353D01*
X001509Y000315D01*
X001518Y000305D01*
X001537Y000305D01*
X001547Y000315D01*
X001547Y000353D01*
X001537Y000362D01*
X001518Y000362D01*
X001509Y000353D01*
X001509Y000315D01*
X001509Y000305D02*
X001528Y000324D01*
X001509Y000305D01*
X001529Y000315D02*
X001539Y000305D01*
X001558Y000305D01*
X001567Y000315D01*
X001570Y000315D02*
X001580Y000305D01*
X001599Y000305D01*
X001608Y000315D01*
X001608Y000353D01*
X001599Y000362D01*
X001580Y000362D01*
X001570Y000353D01*
X001570Y000315D01*
X001580Y000305D01*
X001599Y000305D01*
X001608Y000315D01*
X001608Y000353D01*
X001599Y000362D01*
X001580Y000362D01*
X001570Y000353D01*
X001570Y000315D01*
X001570Y000305D02*
X001589Y000324D01*
X001570Y000305D01*
X001589Y000305D02*
X001608Y000305D01*
X001599Y000305D02*
X001599Y000362D01*
X001608Y000362D01*
X001632Y000362D02*
X001632Y000353D01*
X001670Y000315D01*
X001670Y000305D01*
X001670Y000315D01*
X001632Y000353D01*
X001632Y000362D01*
X001670Y000362D01*
X001632Y000362D01*
X001632Y000334D02*
X001670Y000334D01*
X001694Y000334D02*
X001694Y000305D01*
X001694Y000334D01*
X001703Y000343D01*
X001713Y000334D01*
X001713Y000305D01*
X001713Y000334D01*
X001722Y000343D01*
X001732Y000343D01*
X001732Y000305D01*
X001732Y000343D01*
X001722Y000343D01*
X001713Y000334D01*
X001703Y000343D01*
X001694Y000334D01*
X001694Y000343D02*
X001722Y000343D01*
X001732Y000334D01*
X001722Y000324D01*
X001703Y000324D01*
X001694Y000315D01*
X001703Y000305D01*
X001732Y000305D01*
X001793Y000305D02*
X001755Y000362D01*
X001793Y000305D01*
X001755Y000362D01*
X001817Y000343D02*
X001846Y000343D01*
X001855Y000334D01*
X001846Y000324D01*
X001827Y000324D01*
X001817Y000315D01*
X001827Y000305D01*
X001855Y000305D01*
X001827Y000305D01*
X001817Y000315D01*
X001827Y000324D01*
X001846Y000324D01*
X001855Y000334D01*
X001846Y000343D01*
X001817Y000343D01*
X001846Y000343D01*
X001855Y000334D01*
X001846Y000324D01*
X001827Y000324D01*
X001817Y000315D01*
X001827Y000305D01*
X001855Y000305D01*
X001879Y000305D02*
X001907Y000305D01*
X001917Y000315D01*
X001917Y000334D01*
X001907Y000343D01*
X001879Y000343D01*
X001907Y000343D01*
X001917Y000334D01*
X001917Y000315D01*
X001907Y000305D01*
X001879Y000305D01*
X001879Y000362D01*
X001879Y000305D01*
X001907Y000305D01*
X001917Y000315D01*
X001917Y000334D01*
X001907Y000343D01*
X001879Y000343D01*
X001879Y000362D02*
X001879Y000305D01*
X001940Y000305D02*
X001969Y000305D01*
X001978Y000315D01*
X001969Y000324D01*
X001940Y000324D01*
X001969Y000324D01*
X001978Y000315D01*
X001969Y000305D01*
X001940Y000305D01*
X001940Y000334D01*
X001950Y000343D01*
X001969Y000343D01*
X001950Y000343D01*
X001940Y000334D01*
X001940Y000305D01*
X001969Y000305D01*
X001978Y000315D01*
X001969Y000324D01*
X001940Y000324D01*
X001940Y000334D02*
X001940Y000305D01*
X001940Y000334D02*
X001950Y000343D01*
X001969Y000343D01*
X002002Y000334D02*
X002012Y000343D01*
X002031Y000343D01*
X002040Y000334D01*
X002040Y000315D01*
X002031Y000305D01*
X002012Y000305D01*
X002002Y000315D01*
X002002Y000334D01*
X002012Y000343D01*
X002031Y000343D01*
X002040Y000334D01*
X002040Y000315D01*
X002031Y000305D01*
X002012Y000305D01*
X002002Y000315D01*
X002002Y000334D01*
X002012Y000343D01*
X002031Y000343D01*
X002040Y000334D01*
X002040Y000315D01*
X002031Y000305D01*
X002012Y000305D01*
X002002Y000315D01*
X002002Y000334D01*
X002062Y000305D02*
X002081Y000305D01*
X002062Y000305D01*
X002081Y000305D01*
X002072Y000305D02*
X002072Y000362D01*
X002081Y000362D01*
X002072Y000362D01*
X002072Y000305D01*
X002072Y000362D01*
X002081Y000362D01*
X002105Y000334D02*
X002105Y000305D01*
X002105Y000334D01*
X002114Y000343D01*
X002143Y000343D01*
X002143Y000305D01*
X002143Y000343D01*
X002114Y000343D01*
X002105Y000334D01*
X002105Y000305D01*
X002105Y000334D02*
X002114Y000343D01*
X002143Y000343D01*
X002143Y000305D01*
X002167Y000315D02*
X002167Y000343D01*
X002167Y000315D01*
X002176Y000305D01*
X002186Y000315D01*
X002195Y000305D01*
X002205Y000315D01*
X002205Y000343D01*
X002205Y000315D01*
X002195Y000305D01*
X002186Y000315D01*
X002176Y000305D01*
X002167Y000315D01*
X002167Y000343D01*
X002167Y000315D02*
X002176Y000305D01*
X002186Y000315D01*
X002195Y000305D01*
X002205Y000315D01*
X002205Y000343D01*
X002228Y000334D02*
X002238Y000343D01*
X002257Y000343D01*
X002266Y000334D01*
X002266Y000315D01*
X002257Y000305D01*
X002238Y000305D01*
X002228Y000315D01*
X002228Y000334D01*
X002238Y000343D01*
X002257Y000343D01*
X002266Y000334D01*
X002266Y000315D01*
X002257Y000305D01*
X002238Y000305D01*
X002228Y000315D01*
X002228Y000334D01*
X002238Y000343D01*
X002257Y000343D01*
X002266Y000334D01*
X002266Y000315D01*
X002257Y000305D01*
X002238Y000305D01*
X002228Y000315D01*
X002228Y000334D01*
X002290Y000353D02*
X002299Y000362D01*
X002328Y000362D01*
X002328Y000305D01*
X002299Y000305D01*
X002290Y000315D01*
X002290Y000353D01*
X002299Y000362D01*
X002328Y000362D01*
X002328Y000305D01*
X002299Y000305D01*
X002290Y000315D01*
X002290Y000353D01*
X002299Y000362D01*
X002328Y000362D01*
X002328Y000305D01*
X002299Y000305D01*
X002290Y000315D01*
X002290Y000353D01*
X002352Y000362D02*
X002390Y000305D01*
X002352Y000362D01*
X002390Y000305D01*
X002413Y000305D02*
X002413Y000334D01*
X002423Y000343D01*
X002451Y000343D01*
X002451Y000305D01*
X002451Y000343D01*
X002423Y000343D01*
X002413Y000334D01*
X002413Y000305D01*
X002413Y000334D01*
X002423Y000343D01*
X002451Y000343D01*
X002451Y000305D01*
X002474Y000305D02*
X002493Y000305D01*
X002474Y000305D01*
X002493Y000305D01*
X002483Y000305D02*
X002483Y000343D01*
X002493Y000343D01*
X002483Y000343D01*
X002483Y000305D01*
X002483Y000343D01*
X002493Y000343D01*
X002483Y000362D02*
X002483Y000372D01*
X002483Y000362D01*
X002483Y000372D01*
X002516Y000334D02*
X002516Y000305D01*
X002516Y000334D01*
X002526Y000343D01*
X002535Y000334D01*
X002535Y000305D01*
X002535Y000334D01*
X002545Y000343D01*
X002554Y000343D01*
X002554Y000305D01*
X002554Y000343D01*
X002545Y000343D01*
X002535Y000334D01*
X002526Y000343D01*
X002516Y000334D01*
X002516Y000305D01*
X002535Y000305D02*
X002535Y000334D01*
X002526Y000343D01*
X002516Y000334D01*
X002535Y000334D02*
X002545Y000343D01*
X002554Y000343D01*
X002554Y000305D01*
X002578Y000305D02*
X002606Y000305D01*
X002616Y000315D01*
X002616Y000334D01*
X002606Y000343D01*
X002578Y000343D01*
X002606Y000343D01*
X002616Y000334D01*
X002616Y000315D01*
X002606Y000305D01*
X002578Y000305D01*
X002578Y000362D01*
X002578Y000305D01*
X002606Y000305D01*
X002616Y000315D01*
X002616Y000334D01*
X002606Y000343D01*
X002578Y000343D01*
X002578Y000362D02*
X002578Y000305D01*
X002640Y000305D02*
X002668Y000305D01*
X002678Y000315D01*
X002668Y000324D01*
X002640Y000324D01*
X002668Y000324D01*
X002678Y000315D01*
X002668Y000305D01*
X002640Y000305D01*
X002640Y000334D01*
X002649Y000343D01*
X002668Y000343D01*
X002649Y000343D01*
X002640Y000334D01*
X002640Y000305D01*
X002668Y000305D01*
X002678Y000315D01*
X002668Y000324D01*
X002640Y000324D01*
X002640Y000334D02*
X002640Y000305D01*
X002640Y000334D02*
X002649Y000343D01*
X002668Y000343D01*
X002701Y000362D02*
X002739Y000305D01*
X002701Y000362D01*
X002739Y000305D01*
X002763Y000315D02*
X002772Y000324D01*
X002791Y000324D01*
X002801Y000334D01*
X002791Y000343D01*
X002763Y000343D01*
X002791Y000343D01*
X002801Y000334D01*
X002791Y000324D01*
X002772Y000324D01*
X002763Y000315D01*
X002772Y000305D01*
X002801Y000305D01*
X002772Y000305D01*
X002763Y000315D01*
X002772Y000324D01*
X002791Y000324D01*
X002801Y000334D01*
X002791Y000343D01*
X002763Y000343D01*
X002763Y000315D02*
X002772Y000305D01*
X002801Y000305D01*
X002824Y000343D02*
X002833Y000343D01*
X002852Y000324D01*
X002833Y000343D01*
X002824Y000343D01*
X002833Y000343D01*
X002852Y000324D01*
X002852Y000305D02*
X002852Y000343D01*
X002852Y000305D01*
X002852Y000343D01*
X002876Y000334D02*
X002876Y000324D01*
X002914Y000324D01*
X002876Y000324D01*
X002876Y000334D01*
X002886Y000343D01*
X002905Y000343D01*
X002914Y000334D01*
X002914Y000315D01*
X002905Y000305D01*
X002886Y000305D01*
X002905Y000305D01*
X002914Y000315D01*
X002914Y000334D01*
X002905Y000343D01*
X002886Y000343D01*
X002876Y000334D01*
X002876Y000324D01*
X002914Y000324D01*
X002914Y000315D02*
X002914Y000334D01*
X002905Y000343D01*
X002886Y000343D01*
X002876Y000334D01*
X002886Y000305D02*
X002905Y000305D01*
X002914Y000315D01*
X002938Y000315D02*
X002947Y000324D01*
X002966Y000324D01*
X002976Y000334D01*
X002966Y000343D01*
X002938Y000343D01*
X002966Y000343D01*
X002976Y000334D01*
X002966Y000324D01*
X002947Y000324D01*
X002938Y000315D01*
X002947Y000305D01*
X002976Y000305D01*
X002947Y000305D01*
X002938Y000315D01*
X002947Y000324D01*
X002966Y000324D01*
X002976Y000334D01*
X002966Y000343D01*
X002938Y000343D01*
X002938Y000315D02*
X002947Y000305D01*
X002976Y000305D01*
X002999Y000315D02*
X002999Y000362D01*
X002999Y000315D01*
X003009Y000305D01*
X003028Y000305D01*
X003037Y000315D01*
X003037Y000362D01*
X003037Y000315D01*
X003028Y000305D01*
X003009Y000305D01*
X002999Y000315D01*
X002999Y000362D01*
X003037Y000362D02*
X003037Y000315D01*
X003028Y000305D01*
X003009Y000305D01*
X002999Y000315D01*
X003061Y000362D02*
X003099Y000305D01*
X003061Y000362D01*
X003099Y000305D01*
X003121Y000305D02*
X003130Y000305D01*
X003130Y000315D01*
X003121Y000315D01*
X003121Y000305D01*
X003130Y000305D01*
X003130Y000315D01*
X003121Y000315D01*
X003121Y000305D01*
X003130Y000305D01*
X003130Y000315D01*
X003121Y000315D01*
X003121Y000305D01*
X003121Y000334D02*
X003130Y000334D01*
X003130Y000343D01*
X003121Y000343D01*
X003121Y000334D01*
X003130Y000334D01*
X003130Y000343D01*
X003121Y000343D01*
X003121Y000334D01*
X003130Y000334D01*
X003130Y000343D01*
X003121Y000343D01*
X003121Y000334D01*
X003154Y000353D02*
X003163Y000362D01*
X003182Y000362D01*
X003192Y000353D01*
X003192Y000315D01*
X003182Y000305D01*
X003163Y000305D01*
X003154Y000315D01*
X003163Y000305D01*
X003182Y000305D01*
X003192Y000315D01*
X003192Y000353D01*
X003182Y000362D01*
X003163Y000362D01*
X003154Y000353D01*
X003163Y000362D01*
X003182Y000362D01*
X003192Y000353D01*
X003192Y000315D01*
X003182Y000305D01*
X003163Y000305D01*
X003154Y000315D01*
X001567Y000353D02*
X001558Y000362D01*
X001539Y000362D01*
X001529Y000353D01*
X001529Y000343D01*
X001539Y000334D01*
X001529Y000324D01*
X001529Y000315D01*
X001539Y000334D02*
X001548Y000334D01*
X001485Y000362D02*
X001447Y000362D01*
X001485Y000362D01*
X001485Y000305D01*
X001485Y000362D01*
D12*
X020028Y035663D02*
X020028Y036830D01*
X024161Y036830D01*
X024161Y035663D01*
X020028Y035663D01*
D13*
X024245Y021565D03*
X024245Y021532D03*
X023445Y018632D03*
D14*
X023561Y019032D03*
X022128Y019665D03*
X023828Y021865D03*
X024428Y021532D03*
X024428Y021465D03*
X024428Y021432D03*
X024561Y021265D03*
X024561Y021232D03*
X024561Y021165D03*
X024561Y021132D03*
X024328Y021232D03*
X024628Y021532D03*
X024828Y021532D03*
X024828Y021565D03*
X024828Y021465D03*
X024828Y021432D03*
X025061Y021565D03*
X026728Y019632D03*
X025861Y019032D03*
X025961Y018632D03*
X021061Y023232D03*
X021061Y023265D03*
D15*
X023145Y021165D03*
X022545Y020265D03*
X021745Y019632D03*
X023445Y018665D03*
X028245Y022932D03*
D16*
X026261Y021132D03*
X026161Y021065D03*
X025961Y020932D03*
X026528Y019865D03*
X026461Y019765D03*
X026328Y019532D03*
X026328Y019465D03*
X025961Y018665D03*
X023428Y020965D03*
X023328Y021032D03*
X022928Y019832D03*
X022961Y019765D03*
X024361Y022365D03*
X024928Y022432D03*
X021261Y022865D03*
D17*
X023445Y019799D03*
X023445Y018699D03*
D18*
X023078Y019599D03*
X023878Y020699D03*
X023678Y022499D03*
X023678Y022899D03*
X025678Y022799D03*
X028011Y022599D03*
X027611Y019099D03*
X025978Y018699D03*
D19*
X026328Y019632D03*
X025495Y020665D03*
X025428Y020632D03*
X025162Y021132D03*
X023995Y020632D03*
X023928Y020665D03*
X023228Y020732D03*
X023095Y020832D03*
X023028Y020865D03*
X022962Y020932D03*
X022895Y020965D03*
X022828Y021032D03*
X022795Y021065D03*
X022695Y021132D03*
X022662Y021165D03*
X022595Y021232D03*
X022562Y021265D03*
X021562Y022432D03*
X021528Y022465D03*
X023695Y022932D03*
X023828Y022332D03*
X024662Y022865D03*
X025662Y022865D03*
X024728Y024232D03*
X026862Y021232D03*
X026728Y021132D03*
X026662Y021065D03*
X026628Y021032D03*
X026528Y020965D03*
X026495Y020932D03*
X026395Y020865D03*
X027895Y022432D03*
X027962Y022532D03*
X027995Y022565D03*
X024262Y019832D03*
X023095Y019665D03*
X023095Y019632D03*
X023428Y018732D03*
X021795Y019132D03*
D20*
X023378Y020632D03*
X023178Y020765D03*
X024111Y020565D03*
X024178Y020532D03*
X025078Y020432D03*
X025311Y020565D03*
X025178Y021165D03*
X026111Y020665D03*
X026211Y020732D03*
X027611Y019165D03*
X027611Y019132D03*
X025978Y018732D03*
X024278Y022032D03*
X024678Y022565D03*
X021611Y022365D03*
X027811Y022332D03*
X027911Y022465D03*
D21*
X027761Y022265D03*
X027728Y022232D03*
X025761Y020465D03*
X024128Y021165D03*
X023728Y020432D03*
X023661Y020465D03*
X023561Y020532D03*
X022561Y020165D03*
X023428Y018765D03*
X021628Y022332D03*
D22*
X021695Y022265D03*
X023495Y020565D03*
X021795Y019165D03*
X025995Y018765D03*
X025895Y020532D03*
D23*
X025478Y020299D03*
X024445Y020399D03*
X023978Y020299D03*
X023778Y020399D03*
X023412Y018799D03*
X021745Y022199D03*
X024645Y022899D03*
X027712Y022199D03*
X027612Y019199D03*
D24*
X025995Y018799D03*
X025795Y019499D03*
X025995Y020599D03*
X025195Y020499D03*
X023595Y020499D03*
X027795Y022299D03*
D25*
X027678Y022165D03*
X027645Y022132D03*
X025712Y020432D03*
X025545Y020332D03*
X025112Y020465D03*
X024512Y020365D03*
X024378Y020432D03*
X024312Y020465D03*
X024045Y020265D03*
X023912Y020332D03*
X023845Y020365D03*
X022578Y020132D03*
X023412Y018865D03*
X023412Y018832D03*
X026012Y018832D03*
X026012Y018865D03*
X026845Y020165D03*
X025112Y022032D03*
X021778Y022165D03*
X021712Y022232D03*
D26*
X023395Y018899D03*
D27*
X024161Y020199D03*
X024661Y020299D03*
X026028Y018899D03*
X027528Y021999D03*
X027628Y022099D03*
X021828Y022099D03*
D28*
X021795Y022132D03*
X021895Y022032D03*
X024095Y020232D03*
X024295Y020132D03*
X024595Y020332D03*
X025595Y020365D03*
X023495Y019832D03*
X023395Y018932D03*
X025595Y022932D03*
X027595Y022065D03*
D29*
X027561Y022032D03*
X026828Y020132D03*
X026028Y018965D03*
X026028Y018932D03*
X024828Y020232D03*
X024228Y020165D03*
X023661Y019532D03*
X021861Y022065D03*
D30*
X021195Y022965D03*
X021162Y023032D03*
X022995Y021265D03*
X023028Y021232D03*
X023762Y022032D03*
X024428Y022432D03*
X024828Y022532D03*
X025562Y022465D03*
X025562Y022432D03*
X026395Y021232D03*
X025062Y020365D03*
X026295Y019332D03*
X026295Y019265D03*
X026295Y019232D03*
X026262Y019132D03*
X026228Y019065D03*
X026228Y019032D03*
X027662Y019632D03*
X028262Y022965D03*
X028295Y023032D03*
X023095Y019365D03*
X023095Y019332D03*
X023128Y019265D03*
X023128Y019232D03*
X023162Y019132D03*
X023195Y019032D03*
X023228Y018965D03*
X022462Y019865D03*
D31*
X022428Y019632D03*
X022128Y019632D03*
X023561Y018965D03*
X023961Y021332D03*
X023961Y021365D03*
X023928Y021532D03*
X023928Y021565D03*
X025361Y021365D03*
X025361Y021332D03*
X025428Y021632D03*
X025428Y021665D03*
X025461Y021765D03*
X027661Y019665D03*
X028328Y023132D03*
X021128Y023132D03*
D32*
X021178Y022999D03*
X024011Y021199D03*
X026211Y021099D03*
X026311Y019399D03*
X026211Y018999D03*
X023211Y018999D03*
D33*
X023561Y018999D03*
X023461Y019399D03*
X023928Y021499D03*
X023928Y021599D03*
X025361Y021299D03*
X025428Y021599D03*
X025861Y018999D03*
X028328Y023099D03*
X021128Y023099D03*
D34*
X021095Y023165D03*
X023895Y021665D03*
X024495Y022532D03*
X025395Y021532D03*
X025395Y021465D03*
X026995Y019665D03*
X026995Y019632D03*
X027295Y019632D03*
X021795Y019032D03*
D35*
X023178Y019065D03*
X023911Y020065D03*
X023978Y021232D03*
X023978Y021265D03*
X025311Y021232D03*
X026278Y019165D03*
X027611Y019032D03*
X028311Y023065D03*
D36*
X026311Y021165D03*
X026111Y021032D03*
X026878Y020265D03*
X026311Y019432D03*
X026311Y019365D03*
X025978Y019765D03*
X024278Y019865D03*
X023511Y019432D03*
X023411Y019765D03*
X023078Y019432D03*
X021778Y019065D03*
X023178Y021132D03*
X023278Y021065D03*
X024878Y022465D03*
X021211Y022932D03*
D37*
X024228Y021432D03*
X025761Y022465D03*
X028461Y023432D03*
X023561Y019065D03*
D38*
X023078Y019532D03*
X023878Y020032D03*
X023645Y020832D03*
X023478Y020932D03*
X023812Y022365D03*
X023645Y022665D03*
X023645Y022732D03*
X023645Y022765D03*
X024645Y022765D03*
X024645Y022732D03*
X025645Y022565D03*
X025645Y022532D03*
X026012Y020965D03*
X025845Y020865D03*
X025445Y020232D03*
X026412Y019732D03*
X027612Y019065D03*
X028112Y022732D03*
X028145Y022765D03*
X028178Y022832D03*
X021345Y022732D03*
X021312Y022765D03*
X021278Y022832D03*
D39*
X023695Y020799D03*
X021795Y019099D03*
X026395Y019699D03*
X028095Y022699D03*
D40*
X028262Y022999D03*
X025295Y021199D03*
X024862Y022499D03*
X023095Y021199D03*
X022962Y021299D03*
X023095Y019399D03*
X023128Y019299D03*
X023128Y019199D03*
X023162Y019099D03*
X026295Y019299D03*
D41*
X026245Y019099D03*
X025945Y019399D03*
X023945Y021399D03*
D42*
X023945Y021432D03*
X023945Y021465D03*
X024445Y022465D03*
X025345Y021265D03*
X026945Y019865D03*
X023145Y019165D03*
X021145Y023065D03*
D43*
X024712Y021899D03*
X024645Y020999D03*
X022112Y019199D03*
D44*
X023978Y021299D03*
X024478Y022499D03*
X025478Y020199D03*
X026278Y019199D03*
X027278Y019599D03*
D45*
X026778Y019199D03*
X024778Y021199D03*
X024611Y021399D03*
X024611Y021499D03*
X024411Y021399D03*
X025078Y021499D03*
X025511Y021899D03*
X028411Y023299D03*
D46*
X024678Y021065D03*
X022178Y019465D03*
X022178Y019432D03*
X022178Y019232D03*
X027212Y019232D03*
X027212Y019265D03*
X027245Y019432D03*
D47*
X022195Y019265D03*
D48*
X022195Y019299D03*
D49*
X022161Y019399D03*
X027228Y019399D03*
X027228Y019299D03*
D50*
X022178Y019332D03*
X022178Y019365D03*
D51*
X027228Y019365D03*
X027228Y019332D03*
D52*
X026011Y019365D03*
X025078Y020332D03*
X025011Y021265D03*
X025078Y021432D03*
X025078Y021465D03*
X025078Y021532D03*
X024778Y021265D03*
X024778Y021232D03*
X024611Y021432D03*
X024611Y021465D03*
X024411Y021565D03*
X024678Y022065D03*
X022678Y019665D03*
X023411Y019365D03*
D53*
X023095Y019465D03*
X022995Y019732D03*
X022895Y019865D03*
X025895Y019432D03*
X026495Y019832D03*
X028195Y022865D03*
D54*
X028061Y022665D03*
X025661Y022665D03*
X025661Y022632D03*
X024661Y022632D03*
X024661Y022665D03*
X024661Y022832D03*
X024328Y022332D03*
X023728Y022432D03*
X023661Y022532D03*
X023661Y022565D03*
X023661Y022632D03*
X023661Y022832D03*
X023661Y022865D03*
X026861Y020232D03*
X026328Y019565D03*
X023561Y019465D03*
D55*
X022545Y020232D03*
X023745Y020765D03*
X025845Y019465D03*
X026345Y019665D03*
X028045Y022632D03*
X021445Y022565D03*
D56*
X027228Y019465D03*
D57*
X027228Y019499D03*
X022161Y019499D03*
X024661Y024099D03*
D58*
X024395Y022399D03*
X023795Y022399D03*
X021295Y022799D03*
X023095Y019499D03*
D59*
X023611Y019499D03*
X023278Y020699D03*
X025378Y020599D03*
X026311Y020799D03*
X026578Y020999D03*
X027878Y022399D03*
X021578Y022399D03*
D60*
X021228Y022899D03*
X023228Y021099D03*
X022861Y019899D03*
X022928Y019799D03*
X026061Y020999D03*
X026461Y019799D03*
X026328Y019499D03*
X028228Y022899D03*
D61*
X022178Y019532D03*
D62*
X024445Y020065D03*
X024745Y020265D03*
X025745Y019532D03*
X022045Y021865D03*
X021945Y021965D03*
D63*
X027245Y019532D03*
D64*
X027228Y019565D03*
X024662Y021032D03*
X022162Y019565D03*
D65*
X023095Y019565D03*
X023595Y020865D03*
X023695Y022465D03*
X021395Y022665D03*
X025795Y020832D03*
D66*
X025562Y019965D03*
X025362Y020032D03*
X025262Y020065D03*
X024695Y019965D03*
X024528Y020032D03*
X023828Y019965D03*
X023728Y019565D03*
X022595Y020065D03*
X026795Y020032D03*
X027262Y021732D03*
X027295Y021765D03*
X027362Y021832D03*
X027395Y021865D03*
X027462Y021932D03*
D67*
X027178Y021665D03*
X026778Y019965D03*
X025678Y019565D03*
X024778Y019932D03*
X022611Y020032D03*
X022178Y021732D03*
D68*
X022178Y019599D03*
D69*
X023795Y019599D03*
X026995Y021499D03*
D70*
X026878Y021399D03*
X025612Y019599D03*
X025112Y019799D03*
X022445Y021499D03*
D71*
X021428Y022599D03*
X021361Y022699D03*
X023661Y022599D03*
X024961Y022399D03*
X025661Y022699D03*
X025728Y020799D03*
X025061Y020399D03*
X026328Y019599D03*
X023028Y019699D03*
D72*
X022562Y020199D03*
X022995Y020899D03*
X022862Y020999D03*
X022728Y021099D03*
X022628Y021199D03*
X022528Y021299D03*
X023128Y020799D03*
X024062Y020599D03*
X025562Y020699D03*
X025962Y019799D03*
X026862Y019599D03*
X026695Y021099D03*
X026828Y021199D03*
X027928Y022499D03*
X024662Y022599D03*
X021495Y022499D03*
D73*
X023378Y020999D03*
X023545Y020899D03*
X023645Y022699D03*
X023645Y022799D03*
X024645Y022799D03*
X024645Y022699D03*
X025578Y022399D03*
X025612Y022499D03*
X025645Y022599D03*
X025912Y020899D03*
X026545Y019899D03*
X027678Y019599D03*
X028145Y022799D03*
D74*
X028395Y023232D03*
X028395Y023265D03*
X025495Y021865D03*
X024995Y021232D03*
X022695Y019632D03*
D75*
X023878Y019632D03*
X022645Y021332D03*
X022612Y021365D03*
X022512Y021432D03*
X022478Y021465D03*
X026845Y021365D03*
X026912Y021432D03*
X027045Y021532D03*
D76*
X025561Y019632D03*
X025461Y019665D03*
X024228Y019765D03*
X023961Y019665D03*
D77*
X024778Y021132D03*
X024778Y021165D03*
X025378Y021432D03*
X025412Y021565D03*
X025445Y021732D03*
X025478Y021832D03*
X025645Y022032D03*
X024678Y022032D03*
X023912Y021632D03*
X023878Y021732D03*
X023878Y021765D03*
X023845Y021832D03*
X022478Y019832D03*
X022412Y019665D03*
X021745Y019665D03*
X026945Y019832D03*
X027278Y019665D03*
X028345Y023165D03*
D78*
X026745Y019665D03*
X024645Y021565D03*
X024345Y021265D03*
D79*
X024228Y021499D03*
X023928Y020099D03*
X022395Y019699D03*
D80*
X024045Y019699D03*
D81*
X024678Y020799D03*
X025378Y019699D03*
X024711Y024199D03*
D82*
X024678Y022099D03*
X027011Y019699D03*
X021011Y023399D03*
D83*
X024145Y019732D03*
D84*
X025195Y019765D03*
X025295Y019732D03*
X026795Y021332D03*
D85*
X025528Y021932D03*
X024228Y021465D03*
X026028Y019732D03*
X028428Y023332D03*
X028428Y023365D03*
X021028Y023332D03*
D86*
X022128Y021799D03*
X024262Y019799D03*
X024595Y019999D03*
X025462Y019999D03*
X027328Y021799D03*
X027428Y021899D03*
D87*
X027061Y021565D03*
X026961Y021465D03*
X026761Y019932D03*
X025661Y019932D03*
X025028Y019832D03*
X024928Y019865D03*
X024661Y020765D03*
X023728Y019932D03*
X022661Y019932D03*
X022361Y021565D03*
X024661Y022932D03*
D88*
X022078Y021832D03*
X021978Y021932D03*
X024978Y020165D03*
X025078Y020132D03*
X025911Y019832D03*
X026811Y020065D03*
X027511Y021965D03*
D89*
X027145Y021632D03*
X025845Y019865D03*
X023545Y019865D03*
X022645Y019965D03*
X022245Y021665D03*
X022145Y021765D03*
D90*
X022445Y019899D03*
X026345Y021199D03*
X026945Y019899D03*
D91*
X025761Y019899D03*
X023661Y019899D03*
X022628Y019999D03*
X022328Y021599D03*
D92*
X024295Y019899D03*
D93*
X024845Y019899D03*
D94*
X025661Y020399D03*
X025828Y020499D03*
X023861Y019999D03*
X021661Y022299D03*
X025628Y022899D03*
D95*
X027111Y021599D03*
X027211Y021699D03*
X026778Y019999D03*
X022211Y021699D03*
D96*
X022011Y021899D03*
X021911Y021999D03*
X022578Y020099D03*
X024378Y020099D03*
X024911Y020199D03*
X025178Y020099D03*
X026811Y020099D03*
D97*
X025478Y020165D03*
X021011Y023365D03*
D98*
X023445Y020599D03*
X024245Y020499D03*
X026145Y020699D03*
X026445Y020899D03*
X026845Y020199D03*
D99*
X026045Y020632D03*
X025945Y020565D03*
X026245Y020765D03*
X026345Y020832D03*
X025445Y020265D03*
X025245Y020532D03*
X024145Y021132D03*
X023345Y020665D03*
X027845Y022365D03*
D100*
X026778Y021165D03*
X025678Y020765D03*
X025611Y020732D03*
X023811Y020732D03*
X025678Y022732D03*
X025678Y022765D03*
X025678Y022832D03*
X021478Y022532D03*
X021411Y022632D03*
D101*
X024011Y022165D03*
X024011Y022132D03*
X024678Y021632D03*
X024678Y020865D03*
X024678Y020832D03*
X025311Y022065D03*
D102*
X025328Y022299D03*
X024661Y020899D03*
D103*
X024662Y020932D03*
X024695Y021765D03*
D104*
X024645Y020965D03*
D105*
X024662Y021099D03*
D106*
X024561Y021199D03*
X024328Y021199D03*
X024428Y021499D03*
X024828Y021499D03*
X024828Y021399D03*
X023728Y021999D03*
D107*
X023845Y021799D03*
X025012Y021199D03*
X025378Y021399D03*
X025445Y021699D03*
X025478Y021799D03*
X028378Y023199D03*
X021078Y023199D03*
D108*
X026711Y021265D03*
D109*
X024345Y021299D03*
X021045Y023299D03*
D110*
X023845Y021899D03*
X025045Y021299D03*
X028445Y023399D03*
D111*
X026761Y021299D03*
X022561Y021399D03*
D112*
X023895Y021699D03*
X025395Y021499D03*
D113*
X022395Y021532D03*
X022295Y021632D03*
D114*
X024028Y022099D03*
X024662Y021599D03*
D115*
X024661Y021665D03*
D116*
X024678Y021699D03*
X024012Y022199D03*
X024045Y022299D03*
X025345Y022199D03*
D117*
X024695Y021732D03*
D118*
X024711Y021799D03*
D119*
X024695Y021832D03*
X024695Y021865D03*
D120*
X024695Y021932D03*
D121*
X024711Y021965D03*
D122*
X024711Y021999D03*
D123*
X024062Y022065D03*
D124*
X025328Y022099D03*
D125*
X025345Y022132D03*
D126*
X025345Y022165D03*
X025345Y022232D03*
X024012Y022232D03*
X024012Y022265D03*
D127*
X025328Y022265D03*
D128*
X025311Y022332D03*
X025311Y022365D03*
X024678Y024165D03*
D129*
X024678Y023165D03*
X024678Y023132D03*
X024678Y023065D03*
X024678Y023032D03*
X024678Y022965D03*
D130*
X024678Y022999D03*
X024678Y023099D03*
X024678Y023199D03*
D131*
X024661Y023232D03*
X024661Y023265D03*
X024661Y023332D03*
D132*
X024661Y023299D03*
D133*
X024661Y023365D03*
X024661Y023432D03*
D134*
X024661Y023399D03*
D135*
X024662Y023465D03*
X024662Y023532D03*
D136*
X024662Y023499D03*
D137*
X024661Y023565D03*
D138*
X024661Y023599D03*
D139*
X024645Y023632D03*
D140*
X024661Y023665D03*
D141*
X024645Y023699D03*
D142*
X024645Y023732D03*
X024645Y023765D03*
D143*
X024645Y023799D03*
D144*
X024628Y023832D03*
D145*
X024628Y023865D03*
D146*
X024628Y023899D03*
D147*
X024645Y023932D03*
D148*
X024645Y023965D03*
D149*
X024645Y023999D03*
D150*
X024661Y024032D03*
D151*
X024645Y024065D03*
D152*
X024661Y024132D03*
D153*
X013712Y026540D02*
X013654Y026482D01*
X013537Y026482D01*
X013478Y026540D01*
X013478Y026599D01*
X013537Y026657D01*
X013595Y026657D01*
X013537Y026657D02*
X013478Y026715D01*
X013478Y026774D01*
X013537Y026832D01*
X013654Y026832D01*
X013712Y026774D01*
X013353Y026774D02*
X013295Y026832D01*
X013178Y026832D01*
X013119Y026774D01*
X013119Y026715D01*
X013178Y026657D01*
X013119Y026599D01*
X013119Y026540D01*
X013178Y026482D01*
X013295Y026482D01*
X013353Y026540D01*
X013236Y026657D02*
X013178Y026657D01*
X012994Y026540D02*
X012994Y026774D01*
X012935Y026832D01*
X012819Y026832D01*
X012760Y026774D01*
X012994Y026540D01*
X012935Y026482D01*
X012819Y026482D01*
X012760Y026540D01*
X012760Y026774D01*
X012818Y026132D02*
X012759Y026074D01*
X012759Y025957D01*
X012818Y025899D01*
X012993Y025899D01*
X012876Y025899D02*
X012759Y025782D01*
X012634Y025840D02*
X012575Y025782D01*
X012459Y025782D01*
X012400Y025840D01*
X012400Y025957D01*
X012459Y026015D01*
X012517Y026015D01*
X012634Y025957D01*
X012634Y026132D01*
X012400Y026132D01*
X012818Y026132D02*
X012993Y026132D01*
X012993Y025782D01*
X026118Y035174D02*
X026176Y035116D01*
X026293Y035116D01*
X026351Y035174D01*
X026118Y035408D01*
X026118Y035174D01*
X026351Y035174D02*
X026351Y035408D01*
X026293Y035466D01*
X026176Y035466D01*
X026118Y035408D01*
X026477Y035408D02*
X026477Y035349D01*
X026535Y035291D01*
X026477Y035233D01*
X026477Y035174D01*
X026535Y035116D01*
X026652Y035116D01*
X026710Y035174D01*
X026836Y035174D02*
X026894Y035116D01*
X027011Y035116D01*
X027069Y035174D01*
X026953Y035291D02*
X026894Y035291D01*
X026836Y035233D01*
X026836Y035174D01*
X026894Y035291D02*
X026836Y035349D01*
X026836Y035408D01*
X026894Y035466D01*
X027011Y035466D01*
X027069Y035408D01*
X026710Y035408D02*
X026652Y035466D01*
X026535Y035466D01*
X026477Y035408D01*
X026535Y035291D02*
X026594Y035291D01*
X026895Y035816D02*
X026895Y036166D01*
X027070Y035991D01*
X026837Y035991D01*
X027196Y035991D02*
X027254Y035933D01*
X027429Y035933D01*
X027313Y035933D02*
X027196Y035816D01*
X027196Y035991D02*
X027196Y036108D01*
X027254Y036166D01*
X027429Y036166D01*
X027429Y035816D01*
X037536Y017477D02*
X037652Y017477D01*
X037711Y017419D01*
X037836Y017419D02*
X037836Y017302D01*
X037895Y017244D01*
X038070Y017244D01*
X037953Y017244D02*
X037836Y017127D01*
X037711Y017127D02*
X037477Y017361D01*
X037477Y017419D01*
X037536Y017477D01*
X037836Y017419D02*
X037895Y017477D01*
X038070Y017477D01*
X038070Y017127D01*
X037711Y017127D02*
X037477Y017127D01*
X037535Y016777D02*
X037476Y016719D01*
X037476Y016661D01*
X037535Y016602D01*
X037476Y016544D01*
X037476Y016486D01*
X037535Y016427D01*
X037652Y016427D01*
X037710Y016486D01*
X037593Y016602D02*
X037535Y016602D01*
X037535Y016777D02*
X037652Y016777D01*
X037710Y016719D01*
X037351Y016719D02*
X037292Y016777D01*
X037176Y016777D01*
X037117Y016719D01*
X037117Y016661D01*
X037176Y016602D01*
X037117Y016544D01*
X037117Y016486D01*
X037176Y016427D01*
X037292Y016427D01*
X037351Y016486D01*
X037234Y016602D02*
X037176Y016602D01*
X036992Y016486D02*
X036758Y016719D01*
X036758Y016486D01*
X036817Y016427D01*
X036933Y016427D01*
X036992Y016486D01*
X036992Y016719D01*
X036933Y016777D01*
X036817Y016777D01*
X036758Y016719D01*
X018148Y004293D02*
X018090Y004352D01*
X018031Y004352D01*
X017973Y004293D01*
X017914Y004352D01*
X017856Y004352D01*
X017798Y004293D01*
X017798Y004177D01*
X017856Y004118D01*
X017798Y003993D02*
X017914Y003876D01*
X017914Y003934D02*
X017914Y003759D01*
X017798Y003759D02*
X018148Y003759D01*
X018148Y003934D01*
X018090Y003993D01*
X017973Y003993D01*
X017914Y003934D01*
X018090Y004118D02*
X018148Y004177D01*
X018148Y004293D01*
X017973Y004293D02*
X017973Y004235D01*
X017448Y004177D02*
X017448Y004294D01*
X017390Y004353D01*
X017331Y004353D01*
X017273Y004294D01*
X017214Y004353D01*
X017156Y004353D01*
X017098Y004294D01*
X017098Y004177D01*
X017156Y004119D01*
X017273Y004236D02*
X017273Y004294D01*
X017390Y004119D02*
X017448Y004177D01*
X017390Y004478D02*
X017448Y004537D01*
X017448Y004653D01*
X017390Y004712D01*
X017331Y004712D01*
X017273Y004653D01*
X017214Y004712D01*
X017156Y004712D01*
X017098Y004653D01*
X017098Y004537D01*
X017156Y004478D01*
X017273Y004595D02*
X017273Y004653D01*
X017390Y004837D02*
X017448Y004896D01*
X017448Y005012D01*
X017390Y005071D01*
X017156Y004837D01*
X017098Y004896D01*
X017098Y005012D01*
X017156Y005071D01*
X017390Y005071D01*
X017390Y004837D02*
X017156Y004837D01*
D154*
X036015Y016597D03*
X038165Y016597D03*
X027524Y035286D03*
X025374Y035286D03*
X014370Y026662D03*
X012220Y026662D03*
D155*
X017268Y005814D03*
X017268Y003664D03*
D156*
X017947Y017992D02*
X017872Y018067D01*
X017872Y018217D01*
X017947Y018292D01*
X018022Y018292D01*
X018097Y018217D01*
X018097Y018067D01*
X018172Y017992D01*
X018247Y017992D01*
X018322Y018067D01*
X018322Y018217D01*
X018247Y018292D01*
X018322Y018452D02*
X018022Y018452D01*
X017872Y018603D01*
X018022Y018753D01*
X018322Y018753D01*
X018172Y018913D02*
X018322Y019063D01*
X017872Y019063D01*
X017872Y018913D02*
X017872Y019213D01*
X016522Y018392D02*
X016372Y018242D01*
X016522Y018392D02*
X016072Y018392D01*
X016072Y018242D02*
X016072Y018542D01*
X017872Y024342D02*
X017947Y024342D01*
X018247Y024642D01*
X018322Y024642D01*
X018322Y024342D01*
X016447Y028611D02*
X016372Y028611D01*
X016297Y028686D01*
X016297Y028836D01*
X016222Y028911D01*
X016147Y028911D01*
X016072Y028836D01*
X016072Y028686D01*
X016147Y028611D01*
X016447Y028611D02*
X016522Y028686D01*
X016522Y028836D01*
X016447Y028911D01*
X016522Y029071D02*
X016222Y029071D01*
X016072Y029221D01*
X016222Y029371D01*
X016522Y029371D01*
X016447Y029532D02*
X016522Y029607D01*
X016522Y029757D01*
X016447Y029832D01*
X016372Y029832D01*
X016072Y029532D01*
X016072Y029832D01*
X016972Y030032D02*
X016972Y030332D01*
X016972Y030182D02*
X017422Y030182D01*
X017272Y030032D01*
M02*
