G75*
%MOIN*%
%OFA0B0*%
%FSLAX24Y24*%
%IPPOS*%
%LPD*%
%AMOC8*
5,1,8,0,0,1.08239X$1,22.5*
%
%ADD10C,0.0520*%
%ADD11C,0.0560*%
%ADD12OC8,0.0520*%
%ADD13C,0.0600*%
%ADD14C,0.0515*%
%ADD15C,0.0400*%
%ADD16R,0.0396X0.0396*%
D10*
X005437Y017967D02*
X005957Y017967D01*
X005957Y019967D02*
X005437Y019967D01*
X005437Y020967D02*
X005957Y020967D01*
X005957Y022967D02*
X005437Y022967D01*
X005437Y023967D02*
X005957Y023967D01*
X020697Y037707D02*
X020697Y038227D01*
X022697Y038227D02*
X022697Y037707D01*
X023697Y037707D02*
X023697Y038227D01*
X025697Y038227D02*
X025697Y037707D01*
X026697Y037707D02*
X026697Y038227D01*
X039937Y022967D02*
X040457Y022967D01*
X040457Y020967D02*
X039937Y020967D01*
X039937Y019967D02*
X040457Y019967D01*
X040557Y018167D02*
X040037Y018167D01*
X040037Y017167D02*
X040557Y017167D01*
X026297Y003027D02*
X026297Y002507D01*
X024297Y002507D02*
X024297Y003027D01*
X023297Y003027D02*
X023297Y002507D01*
X021397Y002507D02*
X021397Y003027D01*
X020397Y003027D02*
X020397Y002507D01*
D11*
X025297Y011487D02*
X025297Y012047D01*
X026297Y012047D02*
X026297Y011487D01*
D12*
X017268Y003239D03*
X017268Y006239D03*
X028697Y011767D03*
X028697Y012767D03*
X028697Y014867D03*
X031397Y014967D03*
X031397Y012767D03*
X031397Y011767D03*
X035590Y016597D03*
X038590Y016597D03*
X031397Y018967D03*
X028697Y018867D03*
X020827Y021587D03*
X020077Y022087D03*
X020827Y022587D03*
X014795Y026662D03*
X011795Y026662D03*
X024949Y035286D03*
X027949Y035286D03*
D13*
X017497Y029467D02*
X016897Y029467D01*
X016897Y028467D02*
X017497Y028467D01*
X017497Y027467D02*
X016897Y027467D01*
X016897Y024467D02*
X017497Y024467D01*
X017497Y023467D02*
X016897Y023467D01*
X016897Y022467D02*
X017497Y022467D01*
X017497Y021467D02*
X016897Y021467D01*
X016897Y020467D02*
X017497Y020467D01*
X017497Y019467D02*
X016897Y019467D01*
X016897Y018467D02*
X017497Y018467D01*
X010875Y027250D02*
X010875Y027850D01*
X009875Y027850D02*
X009875Y027250D01*
X008875Y027250D02*
X008875Y027850D01*
D14*
X024866Y028210D03*
X024866Y027423D03*
X024866Y026636D03*
X024866Y025848D03*
X024866Y025061D03*
X024866Y024273D03*
X024866Y023486D03*
X024866Y022698D03*
X024866Y021911D03*
X024866Y021124D03*
X033527Y021124D03*
X033527Y021911D03*
X033527Y022698D03*
X033527Y023486D03*
X033527Y024273D03*
X033527Y025061D03*
X033527Y025848D03*
X033527Y026636D03*
X033527Y027423D03*
X033527Y028210D03*
D15*
X028709Y023155D02*
X028709Y020711D01*
X027709Y019621D02*
X033968Y019621D01*
X033972Y019624D01*
X031378Y020684D02*
X031378Y021448D01*
X032597Y022667D01*
X033496Y022667D01*
X033527Y022698D01*
X036597Y022967D02*
X040197Y022967D01*
X040197Y020967D02*
X038397Y020967D01*
X038397Y021867D01*
X037497Y019967D02*
X033597Y016067D01*
X033597Y013367D01*
X031997Y011767D01*
X031397Y011767D01*
X028697Y011767D01*
X028597Y011667D01*
X026397Y011667D01*
X026297Y011767D01*
X025297Y011767D02*
X025297Y011567D01*
X023197Y013667D01*
X023197Y020167D01*
X022397Y020967D01*
X022397Y023067D01*
X021684Y023800D01*
X020827Y022943D01*
X020827Y022587D01*
X020077Y022087D02*
X019867Y022087D01*
X019247Y021467D01*
X020017Y020947D02*
X020737Y020947D01*
X020827Y021037D01*
X020827Y020837D01*
X021297Y020367D01*
X021897Y020367D01*
X020827Y021037D02*
X020827Y021587D01*
X019437Y019807D02*
X018477Y020767D01*
X018477Y022397D01*
X015897Y021567D02*
X015887Y016957D01*
X024297Y008767D01*
X024297Y002767D01*
X023297Y002767D02*
X023297Y002167D01*
X024297Y001167D01*
X027197Y001167D01*
X028597Y002567D01*
X028597Y011667D01*
X028697Y012767D02*
X028697Y013916D01*
X028693Y013920D01*
X031386Y013876D02*
X031397Y013865D01*
X031397Y012767D01*
X026197Y010667D02*
X025497Y010667D01*
X025297Y010867D01*
X025297Y011567D01*
X022927Y008527D02*
X022927Y008517D01*
X023137Y008307D01*
X023137Y002927D01*
X023297Y002767D01*
X021397Y002767D01*
X020397Y002767D02*
X019367Y002767D01*
X019311Y002766D01*
X018315Y002766D01*
X022927Y008527D02*
X014697Y016457D01*
X010697Y019967D02*
X013197Y022467D01*
X013397Y024567D02*
X009797Y020967D01*
X005697Y020967D01*
X005697Y022967D01*
X005677Y022947D01*
X004614Y022947D01*
X004417Y023144D01*
X004417Y024522D01*
X005008Y025113D01*
X007212Y025113D01*
X008875Y026775D01*
X008875Y027550D01*
X009875Y027550D02*
X009875Y028050D01*
X011937Y030113D01*
X011942Y030113D01*
X012497Y030667D01*
X013437Y030237D02*
X013405Y025728D01*
X013436Y025697D01*
X018177Y025697D01*
X018997Y026567D02*
X015486Y026547D01*
X014795Y027551D02*
X014797Y027795D01*
X014797Y029567D01*
X015697Y030467D01*
X025697Y030467D01*
X026197Y030967D01*
X026197Y032955D01*
X024949Y034203D01*
X023697Y034867D02*
X023697Y037967D01*
X025697Y037967D01*
X026697Y037967D02*
X027535Y037128D01*
X027590Y037061D01*
X022697Y037967D02*
X022697Y034267D01*
X024297Y032567D01*
X024497Y032367D01*
X024997Y032367D01*
X024507Y032357D02*
X024497Y032367D01*
X022797Y033067D02*
X022697Y032967D01*
X022697Y031867D01*
X022557Y031727D01*
X015057Y031727D01*
X014947Y031707D01*
X013437Y030237D01*
X010875Y027550D02*
X010875Y026745D01*
X009897Y025767D01*
X009997Y023967D02*
X011797Y025767D01*
X013405Y025728D02*
X013397Y024567D01*
X015797Y023467D02*
X010297Y017967D01*
X005697Y017967D01*
X005697Y019967D02*
X010697Y019967D01*
X009997Y023967D02*
X005697Y023967D01*
X018997Y026567D02*
X021684Y023800D01*
X021797Y026667D02*
X024835Y026667D01*
X024866Y026636D01*
X024866Y027423D02*
X024822Y027467D01*
X022397Y027467D01*
X021397Y028467D01*
X021389Y028459D01*
X020598Y028459D01*
X020598Y027475D02*
X020989Y027475D01*
X020997Y027467D01*
X021148Y027316D01*
X021797Y026667D01*
X023753Y028210D02*
X022697Y029267D01*
X023753Y028210D02*
X024866Y028210D01*
X024866Y024273D02*
X024872Y024267D01*
X027597Y024267D01*
X028709Y023155D01*
X027709Y019621D02*
X026067Y017979D01*
X026067Y017937D01*
X024157Y019427D02*
X024866Y020136D01*
X024866Y021124D01*
X037497Y019967D02*
X040197Y019967D01*
X040197Y018267D01*
X040297Y018167D01*
X040297Y017167D02*
X040297Y016367D01*
X039997Y016067D01*
X026297Y008167D02*
X026297Y002767D01*
X019797Y033967D02*
X020697Y034867D01*
X020697Y037967D01*
D16*
X023697Y034867D03*
X024949Y034203D03*
X024997Y032367D03*
X022797Y033067D03*
X019797Y033967D03*
X022697Y029267D03*
X020598Y028459D03*
X020598Y027475D03*
X018177Y025697D03*
X015486Y026547D03*
X014795Y027551D03*
X011797Y025767D03*
X009897Y025767D03*
X013197Y022467D03*
X015797Y023467D03*
X015897Y021567D03*
X018477Y022397D03*
X019247Y021467D03*
X020017Y020947D03*
X019437Y019807D03*
X021897Y020367D03*
X024157Y019427D03*
X026067Y017937D03*
X028709Y020711D03*
X031378Y020684D03*
X033972Y019624D03*
X036597Y022967D03*
X038397Y021867D03*
X039997Y016067D03*
X031386Y013876D03*
X028693Y013920D03*
X026197Y010667D03*
X026297Y008167D03*
X018315Y002766D03*
X014697Y016457D03*
X009797Y020967D03*
X012497Y030667D03*
X027590Y037061D03*
M02*
