G75*
%MOIN*%
%OFA0B0*%
%FSLAX24Y24*%
%IPPOS*%
%LPD*%
%AMOC8*
5,1,8,0,0,1.08239X$1,22.5*
%
%ADD10C,0.1260*%
%ADD11C,0.0480*%
%ADD12C,0.0540*%
%ADD13OC8,0.0480*%
%ADD14C,0.0600*%
%ADD15C,0.0500*%
%ADD16C,0.1300*%
D10*
X004075Y004029D03*
X035506Y004029D03*
X035513Y035517D03*
X004076Y035494D03*
D11*
X002840Y023600D02*
X002360Y023600D01*
X002360Y022600D02*
X002840Y022600D01*
X002840Y020600D02*
X002360Y020600D01*
X002360Y019600D02*
X002840Y019600D01*
X002840Y017600D02*
X002360Y017600D01*
X017300Y002640D02*
X017300Y002160D01*
X018300Y002160D02*
X018300Y002640D01*
X020200Y002640D02*
X020200Y002160D01*
X021200Y002160D02*
X021200Y002640D01*
X023200Y002640D02*
X023200Y002160D01*
X036960Y016800D02*
X037440Y016800D01*
X037440Y017800D02*
X036960Y017800D01*
X036860Y019600D02*
X037340Y019600D01*
X037340Y020600D02*
X036860Y020600D01*
X036860Y022600D02*
X037340Y022600D01*
X023600Y037360D02*
X023600Y037840D01*
X022600Y037840D02*
X022600Y037360D01*
X020600Y037360D02*
X020600Y037840D01*
X019600Y037840D02*
X019600Y037360D01*
X017600Y037360D02*
X017600Y037840D01*
D12*
X022200Y011670D02*
X022200Y011130D01*
X023200Y011130D02*
X023200Y011670D01*
D13*
X025600Y011400D03*
X025600Y012400D03*
X025600Y014500D03*
X028300Y014600D03*
X028300Y012400D03*
X028300Y011400D03*
X032493Y016230D03*
X035493Y016230D03*
X028300Y018600D03*
X025600Y018500D03*
X017730Y021220D03*
X016980Y021720D03*
X017730Y022220D03*
X011698Y026295D03*
X008698Y026295D03*
X004033Y027031D03*
X004033Y028031D03*
X004033Y025464D03*
X004033Y024464D03*
X021853Y034919D03*
X024853Y034919D03*
X014171Y005872D03*
X014171Y002872D03*
D14*
X014400Y018100D02*
X013800Y018100D01*
X013800Y019100D02*
X014400Y019100D01*
X014400Y020100D02*
X013800Y020100D01*
X013800Y021100D02*
X014400Y021100D01*
X014400Y022100D02*
X013800Y022100D01*
X013800Y023100D02*
X014400Y023100D01*
X014400Y024100D02*
X013800Y024100D01*
X013800Y027100D02*
X014400Y027100D01*
X014400Y028100D02*
X013800Y028100D01*
X013800Y029100D02*
X014400Y029100D01*
X008285Y030818D02*
X007685Y030818D01*
X007685Y031818D02*
X008285Y031818D01*
X008285Y032818D02*
X007685Y032818D01*
D15*
X021769Y027843D03*
X021769Y027056D03*
X021769Y026269D03*
X021769Y025481D03*
X021769Y024694D03*
X021769Y023906D03*
X021769Y023119D03*
X021769Y022331D03*
X021769Y021544D03*
X021769Y020757D03*
X030431Y020757D03*
X030431Y021544D03*
X030431Y022331D03*
X030431Y023119D03*
X030431Y023906D03*
X030431Y024694D03*
X030431Y025481D03*
X030431Y026269D03*
X030431Y027056D03*
X030431Y027843D03*
D16*
X002085Y031818D03*
M02*
