G75*
%MOIN*%
%OFA0B0*%
%FSLAX24Y24*%
%IPPOS*%
%LPD*%
%AMOC8*
5,1,8,0,0,1.08239X$1,22.5*
%
%ADD10C,0.0060*%
%ADD11C,0.0160*%
%ADD12C,0.0100*%
%ADD13C,0.0050*%
%ADD14R,0.0240X0.0340*%
%ADD15C,0.0080*%
%ADD16C,0.0040*%
%ADD17C,0.0020*%
%ADD18R,0.0500X0.0350*%
%ADD19C,0.0070*%
D10*
X016395Y004741D02*
X016502Y004635D01*
X016716Y004635D01*
X016822Y004741D01*
X016822Y005275D01*
X017040Y005275D02*
X017360Y005275D01*
X017467Y005168D01*
X017467Y004955D01*
X017360Y004848D01*
X017040Y004848D01*
X017040Y004635D02*
X017040Y005275D01*
X016395Y005275D02*
X016395Y004741D01*
X017685Y004635D02*
X017685Y005275D01*
X018005Y005275D01*
X018112Y005168D01*
X018112Y004955D01*
X018005Y004848D01*
X017685Y004848D01*
X018329Y004955D02*
X018543Y004955D01*
X018756Y005275D02*
X018329Y005275D01*
X018329Y004635D01*
X018756Y004635D01*
X018974Y004635D02*
X018974Y005275D01*
X019294Y005275D01*
X019401Y005168D01*
X019401Y004955D01*
X019294Y004848D01*
X018974Y004848D01*
X019187Y004848D02*
X019401Y004635D01*
X020047Y003867D02*
X020297Y003617D01*
X020047Y003367D02*
X019797Y003617D01*
X020047Y003867D01*
X020476Y004635D02*
X020476Y005275D01*
X020263Y005275D02*
X020690Y005275D01*
X020907Y005275D02*
X021228Y005275D01*
X021334Y005168D01*
X021334Y004955D01*
X021228Y004848D01*
X020907Y004848D01*
X020907Y004635D02*
X020907Y005275D01*
X021121Y004848D02*
X021334Y004635D01*
X021552Y004635D02*
X021552Y005062D01*
X021765Y005275D01*
X021979Y005062D01*
X021979Y004635D01*
X022196Y004635D02*
X022196Y005275D01*
X022623Y004635D01*
X022623Y005275D01*
X022841Y005168D02*
X022948Y005275D01*
X023161Y005275D01*
X023268Y005168D01*
X023161Y004955D02*
X023268Y004848D01*
X023268Y004741D01*
X023161Y004635D01*
X022948Y004635D01*
X022841Y004741D01*
X022948Y004955D02*
X023161Y004955D01*
X022948Y004955D02*
X022841Y005062D01*
X022841Y005168D01*
X023485Y005275D02*
X023485Y004635D01*
X023485Y004848D02*
X023806Y004848D01*
X023913Y004955D01*
X023913Y005168D01*
X023806Y005275D01*
X023485Y005275D01*
X023699Y004848D02*
X023913Y004635D01*
X024130Y004635D02*
X024557Y004635D01*
X024775Y004741D02*
X024775Y005168D01*
X024881Y005275D01*
X025095Y005275D01*
X025202Y005168D01*
X025419Y005275D02*
X025633Y005275D01*
X025526Y005275D02*
X025526Y004635D01*
X025419Y004635D02*
X025633Y004635D01*
X025849Y004635D02*
X026276Y004635D01*
X026493Y004848D02*
X026707Y004635D01*
X026920Y004848D01*
X026920Y005275D01*
X027138Y005275D02*
X027138Y004635D01*
X027565Y004635D01*
X027782Y004635D02*
X027782Y005275D01*
X028103Y005275D01*
X028210Y005168D01*
X028210Y004955D01*
X028103Y004848D01*
X027782Y004848D01*
X027996Y004848D02*
X028210Y004635D01*
X029072Y004635D02*
X029072Y005275D01*
X029392Y005275D01*
X029499Y005168D01*
X029499Y005062D01*
X029392Y004955D01*
X029072Y004955D01*
X029392Y004955D02*
X029499Y004848D01*
X029499Y004741D01*
X029392Y004635D01*
X029072Y004635D01*
X029716Y004741D02*
X029716Y005168D01*
X029823Y005275D01*
X030036Y005275D01*
X030143Y005168D01*
X030143Y004741D01*
X030036Y004635D01*
X029823Y004635D01*
X029716Y004741D01*
X030361Y004635D02*
X030361Y005062D01*
X030574Y005275D01*
X030788Y005062D01*
X030788Y004635D01*
X031005Y004635D02*
X031005Y005275D01*
X031326Y005275D01*
X031432Y005168D01*
X031432Y004955D01*
X031326Y004848D01*
X031005Y004848D01*
X031219Y004848D02*
X031432Y004635D01*
X031650Y004635D02*
X031970Y004635D01*
X032077Y004741D01*
X032077Y005168D01*
X031970Y005275D01*
X031650Y005275D01*
X031650Y004635D01*
X030788Y004955D02*
X030361Y004955D01*
X028812Y003122D02*
X028599Y003122D01*
X028492Y003015D01*
X028275Y003122D02*
X027848Y002481D01*
X027630Y002481D02*
X027417Y002695D01*
X027523Y002695D02*
X027203Y002695D01*
X027203Y002481D02*
X027203Y003122D01*
X027523Y003122D01*
X027630Y003015D01*
X027630Y002802D01*
X027523Y002695D01*
X027848Y003122D02*
X028275Y002481D01*
X028492Y002481D02*
X028919Y002908D01*
X028919Y003015D01*
X028812Y003122D01*
X028919Y002481D02*
X028492Y002481D01*
X027351Y004955D02*
X027138Y004955D01*
X027138Y005275D02*
X027565Y005275D01*
X026493Y005275D02*
X026493Y004848D01*
X026062Y004955D02*
X025849Y004955D01*
X025849Y005275D02*
X025849Y004635D01*
X025202Y004741D02*
X025095Y004635D01*
X024881Y004635D01*
X024775Y004741D01*
X024344Y004955D02*
X024130Y004955D01*
X024130Y005275D02*
X024130Y004635D01*
X024130Y005275D02*
X024557Y005275D01*
X025849Y005275D02*
X026276Y005275D01*
X021979Y004955D02*
X021552Y004955D01*
X021502Y002414D02*
X021474Y002370D01*
X021443Y002328D01*
X021408Y002289D01*
X021371Y002252D01*
X021332Y002218D01*
X021290Y002188D01*
X021246Y002160D01*
X021200Y002136D01*
X021152Y002115D01*
X021102Y002098D01*
X021052Y002084D01*
X021001Y002075D01*
X020949Y002069D01*
X020897Y002067D01*
X020292Y003120D02*
X020320Y003164D01*
X020351Y003206D01*
X020386Y003245D01*
X020423Y003282D01*
X020462Y003316D01*
X020504Y003346D01*
X020548Y003374D01*
X020594Y003398D01*
X020642Y003419D01*
X020692Y003436D01*
X020742Y003450D01*
X020793Y003459D01*
X020845Y003465D01*
X020897Y003467D01*
X019847Y002767D02*
X019849Y002832D01*
X019855Y002896D01*
X019865Y002960D01*
X019879Y003023D01*
X019896Y003085D01*
X019918Y003146D01*
X019943Y003206D01*
X019972Y003264D01*
X020004Y003320D01*
X020040Y003374D01*
X020079Y003425D01*
X020121Y003474D01*
X020166Y003521D01*
X020214Y003564D01*
X020264Y003605D01*
X020317Y003642D01*
X020372Y003676D01*
X020429Y003707D01*
X020488Y003734D01*
X020548Y003757D01*
X020610Y003777D01*
X020672Y003793D01*
X020736Y003805D01*
X020800Y003813D01*
X020865Y003817D01*
X020929Y003817D01*
X020994Y003813D01*
X021058Y003805D01*
X021122Y003793D01*
X021184Y003777D01*
X021246Y003757D01*
X021306Y003734D01*
X021365Y003707D01*
X021422Y003676D01*
X021477Y003642D01*
X021530Y003605D01*
X021580Y003564D01*
X021628Y003521D01*
X021673Y003474D01*
X021715Y003425D01*
X021754Y003374D01*
X021790Y003320D01*
X021822Y003264D01*
X021851Y003206D01*
X021876Y003146D01*
X021898Y003085D01*
X021915Y003023D01*
X021929Y002960D01*
X021939Y002896D01*
X021945Y002832D01*
X021947Y002767D01*
X021945Y002702D01*
X021939Y002638D01*
X021929Y002574D01*
X021915Y002511D01*
X021898Y002449D01*
X021876Y002388D01*
X021851Y002328D01*
X021822Y002270D01*
X021790Y002214D01*
X021754Y002160D01*
X021715Y002109D01*
X021673Y002060D01*
X021628Y002013D01*
X021580Y001970D01*
X021530Y001929D01*
X021477Y001892D01*
X021422Y001858D01*
X021365Y001827D01*
X021306Y001800D01*
X021246Y001777D01*
X021184Y001757D01*
X021122Y001741D01*
X021058Y001729D01*
X020994Y001721D01*
X020929Y001717D01*
X020865Y001717D01*
X020800Y001721D01*
X020736Y001729D01*
X020672Y001741D01*
X020610Y001757D01*
X020548Y001777D01*
X020488Y001800D01*
X020429Y001827D01*
X020372Y001858D01*
X020317Y001892D01*
X020264Y001929D01*
X020214Y001970D01*
X020166Y002013D01*
X020121Y002060D01*
X020079Y002109D01*
X020040Y002160D01*
X020004Y002214D01*
X019972Y002270D01*
X019943Y002328D01*
X019918Y002388D01*
X019896Y002449D01*
X019879Y002511D01*
X019865Y002574D01*
X019855Y002638D01*
X019849Y002702D01*
X019847Y002767D01*
X020292Y002414D02*
X020320Y002370D01*
X020351Y002328D01*
X020386Y002289D01*
X020423Y002252D01*
X020462Y002218D01*
X020504Y002188D01*
X020548Y002160D01*
X020594Y002136D01*
X020642Y002115D01*
X020692Y002098D01*
X020742Y002084D01*
X020793Y002075D01*
X020845Y002069D01*
X020897Y002067D01*
X021502Y003120D02*
X021474Y003164D01*
X021443Y003206D01*
X021408Y003245D01*
X021371Y003282D01*
X021332Y003316D01*
X021290Y003346D01*
X021246Y003374D01*
X021200Y003398D01*
X021152Y003419D01*
X021102Y003436D01*
X021052Y003450D01*
X021001Y003459D01*
X020949Y003465D01*
X020897Y003467D01*
X024897Y011267D02*
X024797Y011367D01*
X024797Y012167D01*
X024897Y012267D01*
X025697Y012267D01*
X025797Y012167D01*
X025897Y012267D01*
X026697Y012267D01*
X026797Y012167D01*
X026797Y011367D01*
X026697Y011267D01*
X025897Y011267D01*
X025797Y011367D01*
X025697Y011267D01*
X024897Y011267D01*
X029057Y012747D02*
X029093Y012718D01*
X029127Y012686D01*
X029158Y012651D01*
X029186Y012615D01*
X029211Y012576D01*
X029234Y012535D01*
X029253Y012493D01*
X029269Y012450D01*
X029281Y012405D01*
X029290Y012359D01*
X029295Y012313D01*
X029297Y012267D01*
X028329Y012741D02*
X028294Y012711D01*
X028261Y012680D01*
X028231Y012645D01*
X028204Y012609D01*
X028180Y012571D01*
X028158Y012531D01*
X028140Y012489D01*
X028124Y012446D01*
X028112Y012402D01*
X028104Y012358D01*
X028099Y012312D01*
X028097Y012267D01*
X029046Y011779D02*
X029083Y011808D01*
X029118Y011840D01*
X029151Y011875D01*
X029181Y011912D01*
X029207Y011951D01*
X029230Y011992D01*
X029251Y012036D01*
X029267Y012080D01*
X029280Y012126D01*
X029289Y012172D01*
X029295Y012220D01*
X029297Y012267D01*
X028329Y011793D02*
X028294Y011823D01*
X028261Y011854D01*
X028231Y011889D01*
X028204Y011925D01*
X028180Y011963D01*
X028158Y012003D01*
X028140Y012045D01*
X028124Y012088D01*
X028112Y012132D01*
X028104Y012176D01*
X028099Y012222D01*
X028097Y012267D01*
X031757Y012747D02*
X031793Y012718D01*
X031827Y012686D01*
X031858Y012651D01*
X031886Y012615D01*
X031911Y012576D01*
X031934Y012535D01*
X031953Y012493D01*
X031969Y012450D01*
X031981Y012405D01*
X031990Y012359D01*
X031995Y012313D01*
X031997Y012267D01*
X031029Y012741D02*
X030994Y012711D01*
X030961Y012680D01*
X030931Y012645D01*
X030904Y012609D01*
X030880Y012571D01*
X030858Y012531D01*
X030840Y012489D01*
X030824Y012446D01*
X030812Y012402D01*
X030804Y012358D01*
X030799Y012312D01*
X030797Y012267D01*
X031746Y011779D02*
X031783Y011808D01*
X031818Y011840D01*
X031851Y011875D01*
X031881Y011912D01*
X031907Y011951D01*
X031930Y011992D01*
X031951Y012036D01*
X031967Y012080D01*
X031980Y012126D01*
X031989Y012172D01*
X031995Y012220D01*
X031997Y012267D01*
X031029Y011793D02*
X030994Y011823D01*
X030961Y011854D01*
X030931Y011889D01*
X030904Y011925D01*
X030880Y011963D01*
X030858Y012003D01*
X030840Y012045D01*
X030824Y012088D01*
X030812Y012132D01*
X030804Y012176D01*
X030799Y012222D01*
X030797Y012267D01*
X031047Y015717D02*
X031747Y015717D01*
X031764Y015719D01*
X031781Y015723D01*
X031797Y015730D01*
X031811Y015740D01*
X031824Y015753D01*
X031834Y015767D01*
X031841Y015783D01*
X031845Y015800D01*
X031847Y015817D01*
X031847Y015967D01*
X031797Y016017D01*
X031797Y017917D01*
X031847Y017967D01*
X031847Y018117D01*
X031845Y018134D01*
X031841Y018151D01*
X031834Y018167D01*
X031824Y018181D01*
X031811Y018194D01*
X031797Y018204D01*
X031781Y018211D01*
X031764Y018215D01*
X031747Y018217D01*
X031047Y018217D01*
X031030Y018215D01*
X031013Y018211D01*
X030997Y018204D01*
X030983Y018194D01*
X030970Y018181D01*
X030960Y018167D01*
X030953Y018151D01*
X030949Y018134D01*
X030947Y018117D01*
X030947Y017967D01*
X030997Y017917D01*
X030997Y016017D01*
X030947Y015967D01*
X030947Y015817D01*
X030949Y015800D01*
X030953Y015783D01*
X030960Y015767D01*
X030970Y015753D01*
X030983Y015740D01*
X030997Y015730D01*
X031013Y015723D01*
X031030Y015719D01*
X031047Y015717D01*
X029147Y015717D02*
X029147Y015867D01*
X029097Y015917D01*
X029097Y017817D01*
X029147Y017867D01*
X029147Y018017D01*
X029145Y018034D01*
X029141Y018051D01*
X029134Y018067D01*
X029124Y018081D01*
X029111Y018094D01*
X029097Y018104D01*
X029081Y018111D01*
X029064Y018115D01*
X029047Y018117D01*
X028347Y018117D01*
X028330Y018115D01*
X028313Y018111D01*
X028297Y018104D01*
X028283Y018094D01*
X028270Y018081D01*
X028260Y018067D01*
X028253Y018051D01*
X028249Y018034D01*
X028247Y018017D01*
X028247Y017867D01*
X028297Y017817D01*
X028297Y015917D01*
X028247Y015867D01*
X028247Y015717D01*
X028249Y015700D01*
X028253Y015683D01*
X028260Y015667D01*
X028270Y015653D01*
X028283Y015640D01*
X028297Y015630D01*
X028313Y015623D01*
X028330Y015619D01*
X028347Y015617D01*
X029047Y015617D01*
X029064Y015619D01*
X029081Y015623D01*
X029097Y015630D01*
X029111Y015640D01*
X029124Y015653D01*
X029134Y015667D01*
X029141Y015683D01*
X029145Y015700D01*
X029147Y015717D01*
X021477Y021262D02*
X021477Y022912D01*
X020927Y022974D02*
X020927Y023132D01*
X020927Y022200D02*
X020927Y021974D01*
X021477Y021262D02*
X021426Y021225D01*
X021373Y021190D01*
X021317Y021158D01*
X021260Y021130D01*
X021201Y021106D01*
X021141Y021085D01*
X021080Y021068D01*
X021018Y021054D01*
X020955Y021045D01*
X020892Y021039D01*
X020828Y021037D01*
X020764Y021039D01*
X020701Y021045D01*
X020638Y021054D01*
X020576Y021067D01*
X020515Y021085D01*
X020455Y021105D01*
X020396Y021130D01*
X020339Y021158D01*
X020283Y021189D01*
X020230Y021223D01*
X020179Y021261D01*
X020130Y021302D01*
X020084Y021346D01*
X020040Y021392D01*
X019999Y021441D01*
X019962Y021492D01*
X019927Y021546D01*
X019896Y021601D01*
X019868Y021658D01*
X019844Y021717D01*
X019824Y021777D01*
X019824Y022397D02*
X019844Y022457D01*
X019868Y022516D01*
X019896Y022573D01*
X019927Y022628D01*
X019962Y022682D01*
X019999Y022733D01*
X020040Y022782D01*
X020084Y022828D01*
X020130Y022872D01*
X020179Y022913D01*
X020230Y022951D01*
X020283Y022985D01*
X020339Y023017D01*
X020396Y023044D01*
X020455Y023069D01*
X020515Y023089D01*
X020576Y023107D01*
X020638Y023120D01*
X020701Y023129D01*
X020764Y023135D01*
X020828Y023137D01*
X020892Y023135D01*
X020955Y023129D01*
X021018Y023120D01*
X021080Y023106D01*
X021141Y023089D01*
X021201Y023068D01*
X021260Y023044D01*
X021317Y023016D01*
X021373Y022984D01*
X021426Y022949D01*
X021477Y022912D01*
X020927Y021200D02*
X020927Y021042D01*
X020929Y017436D02*
X020502Y017436D01*
X020716Y017436D02*
X020716Y016795D01*
X020285Y016795D02*
X020071Y017009D01*
X020178Y017009D02*
X019858Y017009D01*
X019858Y016795D02*
X019858Y017436D01*
X020178Y017436D01*
X020285Y017329D01*
X020285Y017115D01*
X020178Y017009D01*
X019640Y016902D02*
X019640Y017329D01*
X019534Y017436D01*
X019320Y017436D01*
X019213Y017329D01*
X019213Y016902D01*
X019320Y016795D01*
X019534Y016795D01*
X019640Y016902D01*
X018996Y017115D02*
X018889Y017009D01*
X018569Y017009D01*
X018569Y016795D02*
X018569Y017436D01*
X018889Y017436D01*
X018996Y017329D01*
X018996Y017115D01*
X017707Y017115D02*
X017600Y017009D01*
X017280Y017009D01*
X017493Y017009D02*
X017707Y016795D01*
X017707Y017115D02*
X017707Y017329D01*
X017600Y017436D01*
X017280Y017436D01*
X017280Y016795D01*
X017062Y016795D02*
X016635Y016795D01*
X016635Y017436D01*
X017062Y017436D01*
X016849Y017115D02*
X016635Y017115D01*
X016418Y017009D02*
X016418Y017436D01*
X016418Y017009D02*
X016204Y016795D01*
X015991Y017009D01*
X015991Y017436D01*
X015773Y017436D02*
X015346Y017436D01*
X015346Y016795D01*
X015773Y016795D01*
X015559Y017115D02*
X015346Y017115D01*
X015130Y016795D02*
X014916Y016795D01*
X015023Y016795D02*
X015023Y017436D01*
X014916Y017436D02*
X015130Y017436D01*
X014699Y017329D02*
X014592Y017436D01*
X014378Y017436D01*
X014272Y017329D01*
X014272Y016902D01*
X014378Y016795D01*
X014592Y016795D01*
X014699Y016902D01*
X014054Y016795D02*
X013627Y016795D01*
X013627Y017436D01*
X014054Y017436D01*
X013841Y017115D02*
X013627Y017115D01*
X013410Y017115D02*
X013303Y017009D01*
X012983Y017009D01*
X013196Y017009D02*
X013410Y016795D01*
X013410Y017115D02*
X013410Y017329D01*
X013303Y017436D01*
X012983Y017436D01*
X012983Y016795D01*
X014262Y018206D02*
X014582Y018206D01*
X014689Y018312D01*
X014689Y018739D01*
X014582Y018846D01*
X014262Y018846D01*
X014262Y018206D01*
X014907Y018206D02*
X015334Y018633D01*
X015334Y018739D01*
X015227Y018846D01*
X015013Y018846D01*
X014907Y018739D01*
X014907Y018206D02*
X015334Y018206D01*
X015215Y019174D02*
X015215Y019815D01*
X014895Y019494D01*
X015322Y019494D01*
X014677Y019281D02*
X014677Y019708D01*
X014571Y019815D01*
X014250Y019815D01*
X014250Y019174D01*
X014571Y019174D01*
X014677Y019281D01*
X014667Y020147D02*
X014881Y020147D01*
X014987Y020253D01*
X015205Y020253D02*
X015312Y020147D01*
X015525Y020147D01*
X015632Y020253D01*
X015205Y020253D02*
X015205Y020680D01*
X015312Y020787D01*
X015525Y020787D01*
X015632Y020680D01*
X015734Y021099D02*
X015307Y021099D01*
X015307Y021740D01*
X015090Y021740D02*
X014663Y021099D01*
X014667Y020787D02*
X014560Y020680D01*
X014560Y020253D01*
X014667Y020147D01*
X014343Y020360D02*
X014343Y020787D01*
X014667Y020787D02*
X014881Y020787D01*
X014987Y020680D01*
X015090Y021099D02*
X014663Y021740D01*
X014445Y021740D02*
X014018Y021740D01*
X014232Y021740D02*
X014232Y021099D01*
X013916Y020787D02*
X013916Y020360D01*
X014129Y020147D01*
X014343Y020360D01*
X014450Y022190D02*
X014450Y022830D01*
X014877Y022190D01*
X014877Y022830D01*
X015095Y022830D02*
X015415Y022830D01*
X015522Y022724D01*
X015522Y022297D01*
X015415Y022190D01*
X015095Y022190D01*
X015095Y022830D01*
X015152Y023162D02*
X015152Y023803D01*
X014938Y023589D01*
X014721Y023696D02*
X014721Y023269D01*
X014614Y023162D01*
X014294Y023162D01*
X014294Y023803D01*
X014614Y023803D01*
X014721Y023696D01*
X014606Y024214D02*
X014286Y024214D01*
X014286Y024854D01*
X014606Y024854D01*
X014713Y024747D01*
X014713Y024320D01*
X014606Y024214D01*
X014930Y024320D02*
X015037Y024214D01*
X015251Y024214D01*
X015357Y024320D01*
X015357Y024427D01*
X015251Y024534D01*
X015144Y024534D01*
X015251Y024534D02*
X015357Y024641D01*
X015357Y024747D01*
X015251Y024854D01*
X015037Y024854D01*
X014930Y024747D01*
X014938Y023162D02*
X015365Y023162D01*
X014232Y022724D02*
X014126Y022830D01*
X013912Y022830D01*
X013805Y022724D01*
X013805Y022297D01*
X013912Y022190D01*
X014126Y022190D01*
X014232Y022297D01*
X014232Y022510D01*
X014019Y022510D01*
X011925Y028550D02*
X007825Y028550D01*
X007825Y033450D01*
X008175Y033450D01*
X008175Y034050D01*
X007825Y034050D01*
X007825Y034800D01*
X011925Y034800D01*
X011925Y034050D01*
X011575Y034050D01*
X011575Y033450D01*
X011925Y033450D01*
X011925Y028550D01*
X009165Y033450D02*
X009167Y033503D01*
X009173Y033556D01*
X009183Y033608D01*
X009197Y033659D01*
X009214Y033709D01*
X009235Y033758D01*
X009260Y033805D01*
X009288Y033850D01*
X009320Y033893D01*
X009355Y033933D01*
X009392Y033970D01*
X009432Y034005D01*
X009475Y034037D01*
X009520Y034065D01*
X009567Y034090D01*
X009616Y034111D01*
X009666Y034128D01*
X009717Y034142D01*
X009769Y034152D01*
X009822Y034158D01*
X009875Y034160D01*
X009928Y034158D01*
X009981Y034152D01*
X010033Y034142D01*
X010084Y034128D01*
X010134Y034111D01*
X010183Y034090D01*
X010230Y034065D01*
X010275Y034037D01*
X010318Y034005D01*
X010358Y033970D01*
X010395Y033933D01*
X010430Y033893D01*
X010462Y033850D01*
X010490Y033805D01*
X010515Y033758D01*
X010536Y033709D01*
X010553Y033659D01*
X010567Y033608D01*
X010577Y033556D01*
X010583Y033503D01*
X010585Y033450D01*
X010583Y033397D01*
X010577Y033344D01*
X010567Y033292D01*
X010553Y033241D01*
X010536Y033191D01*
X010515Y033142D01*
X010490Y033095D01*
X010462Y033050D01*
X010430Y033007D01*
X010395Y032967D01*
X010358Y032930D01*
X010318Y032895D01*
X010275Y032863D01*
X010230Y032835D01*
X010183Y032810D01*
X010134Y032789D01*
X010084Y032772D01*
X010033Y032758D01*
X009981Y032748D01*
X009928Y032742D01*
X009875Y032740D01*
X009822Y032742D01*
X009769Y032748D01*
X009717Y032758D01*
X009666Y032772D01*
X009616Y032789D01*
X009567Y032810D01*
X009520Y032835D01*
X009475Y032863D01*
X009432Y032895D01*
X009392Y032930D01*
X009355Y032967D01*
X009320Y033007D01*
X009288Y033050D01*
X009260Y033095D01*
X009235Y033142D01*
X009214Y033191D01*
X009197Y033241D01*
X009183Y033292D01*
X009173Y033344D01*
X009167Y033397D01*
X009165Y033450D01*
X009096Y035615D02*
X009310Y035615D01*
X009416Y035722D01*
X009416Y036149D01*
X009310Y036256D01*
X009096Y036256D01*
X008989Y036149D01*
X008989Y035722D01*
X009096Y035615D01*
X008558Y035615D02*
X008558Y036256D01*
X008345Y036256D02*
X008772Y036256D01*
X009634Y036256D02*
X009634Y035615D01*
X009634Y035829D02*
X009954Y035829D01*
X010061Y035935D01*
X010061Y036149D01*
X009954Y036256D01*
X009634Y036256D01*
X017912Y037741D02*
X017912Y038382D01*
X018232Y038382D01*
X018339Y038275D01*
X018339Y038061D01*
X018232Y037955D01*
X017912Y037955D01*
X018125Y037955D02*
X018339Y037741D01*
X018556Y037741D02*
X018983Y038382D01*
X019201Y038275D02*
X019308Y038382D01*
X019521Y038382D01*
X019628Y038275D01*
X019628Y038168D01*
X019521Y038061D01*
X019628Y037955D01*
X019628Y037848D01*
X019521Y037741D01*
X019308Y037741D01*
X019201Y037848D01*
X018983Y037741D02*
X018556Y038382D01*
X019414Y038061D02*
X019521Y038061D01*
X025592Y038320D02*
X025620Y038364D01*
X025651Y038406D01*
X025686Y038445D01*
X025723Y038482D01*
X025762Y038516D01*
X025804Y038546D01*
X025848Y038574D01*
X025894Y038598D01*
X025942Y038619D01*
X025992Y038636D01*
X026042Y038650D01*
X026093Y038659D01*
X026145Y038665D01*
X026197Y038667D01*
X025147Y037967D02*
X025149Y038032D01*
X025155Y038096D01*
X025165Y038160D01*
X025179Y038223D01*
X025196Y038285D01*
X025218Y038346D01*
X025243Y038406D01*
X025272Y038464D01*
X025304Y038520D01*
X025340Y038574D01*
X025379Y038625D01*
X025421Y038674D01*
X025466Y038721D01*
X025514Y038764D01*
X025564Y038805D01*
X025617Y038842D01*
X025672Y038876D01*
X025729Y038907D01*
X025788Y038934D01*
X025848Y038957D01*
X025910Y038977D01*
X025972Y038993D01*
X026036Y039005D01*
X026100Y039013D01*
X026165Y039017D01*
X026229Y039017D01*
X026294Y039013D01*
X026358Y039005D01*
X026422Y038993D01*
X026484Y038977D01*
X026546Y038957D01*
X026606Y038934D01*
X026665Y038907D01*
X026722Y038876D01*
X026777Y038842D01*
X026830Y038805D01*
X026880Y038764D01*
X026928Y038721D01*
X026973Y038674D01*
X027015Y038625D01*
X027054Y038574D01*
X027090Y038520D01*
X027122Y038464D01*
X027151Y038406D01*
X027176Y038346D01*
X027198Y038285D01*
X027215Y038223D01*
X027229Y038160D01*
X027239Y038096D01*
X027245Y038032D01*
X027247Y037967D01*
X027245Y037902D01*
X027239Y037838D01*
X027229Y037774D01*
X027215Y037711D01*
X027198Y037649D01*
X027176Y037588D01*
X027151Y037528D01*
X027122Y037470D01*
X027090Y037414D01*
X027054Y037360D01*
X027015Y037309D01*
X026973Y037260D01*
X026928Y037213D01*
X026880Y037170D01*
X026830Y037129D01*
X026777Y037092D01*
X026722Y037058D01*
X026665Y037027D01*
X026606Y037000D01*
X026546Y036977D01*
X026484Y036957D01*
X026422Y036941D01*
X026358Y036929D01*
X026294Y036921D01*
X026229Y036917D01*
X026165Y036917D01*
X026100Y036921D01*
X026036Y036929D01*
X025972Y036941D01*
X025910Y036957D01*
X025848Y036977D01*
X025788Y037000D01*
X025729Y037027D01*
X025672Y037058D01*
X025617Y037092D01*
X025564Y037129D01*
X025514Y037170D01*
X025466Y037213D01*
X025421Y037260D01*
X025379Y037309D01*
X025340Y037360D01*
X025304Y037414D01*
X025272Y037470D01*
X025243Y037528D01*
X025218Y037588D01*
X025196Y037649D01*
X025179Y037711D01*
X025165Y037774D01*
X025155Y037838D01*
X025149Y037902D01*
X025147Y037967D01*
X025592Y037614D02*
X025620Y037570D01*
X025651Y037528D01*
X025686Y037489D01*
X025723Y037452D01*
X025762Y037418D01*
X025804Y037388D01*
X025848Y037360D01*
X025894Y037336D01*
X025942Y037315D01*
X025992Y037298D01*
X026042Y037284D01*
X026093Y037275D01*
X026145Y037269D01*
X026197Y037267D01*
X026797Y037117D02*
X027047Y036867D01*
X027297Y037117D01*
X027047Y037367D01*
X026802Y038320D02*
X026774Y038364D01*
X026743Y038406D01*
X026708Y038445D01*
X026671Y038482D01*
X026632Y038516D01*
X026590Y038546D01*
X026546Y038574D01*
X026500Y038598D01*
X026452Y038619D01*
X026402Y038636D01*
X026352Y038650D01*
X026301Y038659D01*
X026249Y038665D01*
X026197Y038667D01*
X026802Y037614D02*
X026774Y037570D01*
X026743Y037528D01*
X026708Y037489D01*
X026671Y037452D01*
X026632Y037418D01*
X026590Y037388D01*
X026546Y037360D01*
X026500Y037336D01*
X026452Y037315D01*
X026402Y037298D01*
X026352Y037284D01*
X026301Y037275D01*
X026249Y037269D01*
X026197Y037267D01*
X025896Y025796D02*
X032124Y025796D01*
X032124Y023708D02*
X025896Y023708D01*
X039197Y016817D02*
X039447Y017067D01*
X039697Y016817D02*
X039447Y016567D01*
X039197Y016817D01*
X040650Y017062D02*
X040694Y017090D01*
X040736Y017121D01*
X040775Y017156D01*
X040812Y017193D01*
X040846Y017232D01*
X040876Y017274D01*
X040904Y017318D01*
X040928Y017364D01*
X040949Y017412D01*
X040966Y017462D01*
X040980Y017512D01*
X040989Y017563D01*
X040995Y017615D01*
X040997Y017667D01*
X039247Y017667D02*
X039249Y017732D01*
X039255Y017796D01*
X039265Y017860D01*
X039279Y017923D01*
X039296Y017985D01*
X039318Y018046D01*
X039343Y018106D01*
X039372Y018164D01*
X039404Y018220D01*
X039440Y018274D01*
X039479Y018325D01*
X039521Y018374D01*
X039566Y018421D01*
X039614Y018464D01*
X039664Y018505D01*
X039717Y018542D01*
X039772Y018576D01*
X039829Y018607D01*
X039888Y018634D01*
X039948Y018657D01*
X040010Y018677D01*
X040072Y018693D01*
X040136Y018705D01*
X040200Y018713D01*
X040265Y018717D01*
X040329Y018717D01*
X040394Y018713D01*
X040458Y018705D01*
X040522Y018693D01*
X040584Y018677D01*
X040646Y018657D01*
X040706Y018634D01*
X040765Y018607D01*
X040822Y018576D01*
X040877Y018542D01*
X040930Y018505D01*
X040980Y018464D01*
X041028Y018421D01*
X041073Y018374D01*
X041115Y018325D01*
X041154Y018274D01*
X041190Y018220D01*
X041222Y018164D01*
X041251Y018106D01*
X041276Y018046D01*
X041298Y017985D01*
X041315Y017923D01*
X041329Y017860D01*
X041339Y017796D01*
X041345Y017732D01*
X041347Y017667D01*
X041345Y017602D01*
X041339Y017538D01*
X041329Y017474D01*
X041315Y017411D01*
X041298Y017349D01*
X041276Y017288D01*
X041251Y017228D01*
X041222Y017170D01*
X041190Y017114D01*
X041154Y017060D01*
X041115Y017009D01*
X041073Y016960D01*
X041028Y016913D01*
X040980Y016870D01*
X040930Y016829D01*
X040877Y016792D01*
X040822Y016758D01*
X040765Y016727D01*
X040706Y016700D01*
X040646Y016677D01*
X040584Y016657D01*
X040522Y016641D01*
X040458Y016629D01*
X040394Y016621D01*
X040329Y016617D01*
X040265Y016617D01*
X040200Y016621D01*
X040136Y016629D01*
X040072Y016641D01*
X040010Y016657D01*
X039948Y016677D01*
X039888Y016700D01*
X039829Y016727D01*
X039772Y016758D01*
X039717Y016792D01*
X039664Y016829D01*
X039614Y016870D01*
X039566Y016913D01*
X039521Y016960D01*
X039479Y017009D01*
X039440Y017060D01*
X039404Y017114D01*
X039372Y017170D01*
X039343Y017228D01*
X039318Y017288D01*
X039296Y017349D01*
X039279Y017411D01*
X039265Y017474D01*
X039255Y017538D01*
X039249Y017602D01*
X039247Y017667D01*
X040650Y018272D02*
X040694Y018244D01*
X040736Y018213D01*
X040775Y018178D01*
X040812Y018141D01*
X040846Y018102D01*
X040876Y018060D01*
X040904Y018016D01*
X040928Y017970D01*
X040949Y017922D01*
X040966Y017872D01*
X040980Y017822D01*
X040989Y017771D01*
X040995Y017719D01*
X040997Y017667D01*
X039944Y017062D02*
X039900Y017090D01*
X039858Y017121D01*
X039819Y017156D01*
X039782Y017193D01*
X039748Y017232D01*
X039718Y017274D01*
X039690Y017318D01*
X039666Y017364D01*
X039645Y017412D01*
X039628Y017462D01*
X039614Y017512D01*
X039605Y017563D01*
X039599Y017615D01*
X039597Y017667D01*
X039599Y017719D01*
X039605Y017771D01*
X039614Y017822D01*
X039628Y017872D01*
X039645Y017922D01*
X039666Y017970D01*
X039690Y018016D01*
X039718Y018060D01*
X039748Y018102D01*
X039782Y018141D01*
X039819Y018178D01*
X039858Y018213D01*
X039900Y018244D01*
X039944Y018272D01*
X039970Y023895D02*
X040397Y024535D01*
X040614Y024215D02*
X041041Y024215D01*
X040935Y023895D02*
X040935Y024535D01*
X040614Y024215D01*
X040397Y023895D02*
X039970Y024535D01*
X039752Y024428D02*
X039752Y024215D01*
X039645Y024108D01*
X039325Y024108D01*
X039325Y023895D02*
X039325Y024535D01*
X039645Y024535D01*
X039752Y024428D01*
X039539Y024108D02*
X039752Y023895D01*
X006797Y024317D02*
X006547Y024067D01*
X006797Y024317D02*
X006547Y024567D01*
X006297Y024317D01*
X005344Y024072D02*
X005300Y024044D01*
X005258Y024013D01*
X005219Y023978D01*
X005182Y023941D01*
X005148Y023902D01*
X005118Y023860D01*
X005090Y023816D01*
X005066Y023770D01*
X005045Y023722D01*
X005028Y023672D01*
X005014Y023622D01*
X005005Y023571D01*
X004999Y023519D01*
X004997Y023467D01*
X006050Y024072D02*
X006094Y024044D01*
X006136Y024013D01*
X006175Y023978D01*
X006212Y023941D01*
X006246Y023902D01*
X006276Y023860D01*
X006304Y023816D01*
X006328Y023770D01*
X006349Y023722D01*
X006366Y023672D01*
X006380Y023622D01*
X006389Y023571D01*
X006395Y023519D01*
X006397Y023467D01*
X004647Y023467D02*
X004649Y023532D01*
X004655Y023596D01*
X004665Y023660D01*
X004679Y023723D01*
X004696Y023785D01*
X004718Y023846D01*
X004743Y023906D01*
X004772Y023964D01*
X004804Y024020D01*
X004840Y024074D01*
X004879Y024125D01*
X004921Y024174D01*
X004966Y024221D01*
X005014Y024264D01*
X005064Y024305D01*
X005117Y024342D01*
X005172Y024376D01*
X005229Y024407D01*
X005288Y024434D01*
X005348Y024457D01*
X005410Y024477D01*
X005472Y024493D01*
X005536Y024505D01*
X005600Y024513D01*
X005665Y024517D01*
X005729Y024517D01*
X005794Y024513D01*
X005858Y024505D01*
X005922Y024493D01*
X005984Y024477D01*
X006046Y024457D01*
X006106Y024434D01*
X006165Y024407D01*
X006222Y024376D01*
X006277Y024342D01*
X006330Y024305D01*
X006380Y024264D01*
X006428Y024221D01*
X006473Y024174D01*
X006515Y024125D01*
X006554Y024074D01*
X006590Y024020D01*
X006622Y023964D01*
X006651Y023906D01*
X006676Y023846D01*
X006698Y023785D01*
X006715Y023723D01*
X006729Y023660D01*
X006739Y023596D01*
X006745Y023532D01*
X006747Y023467D01*
X006745Y023402D01*
X006739Y023338D01*
X006729Y023274D01*
X006715Y023211D01*
X006698Y023149D01*
X006676Y023088D01*
X006651Y023028D01*
X006622Y022970D01*
X006590Y022914D01*
X006554Y022860D01*
X006515Y022809D01*
X006473Y022760D01*
X006428Y022713D01*
X006380Y022670D01*
X006330Y022629D01*
X006277Y022592D01*
X006222Y022558D01*
X006165Y022527D01*
X006106Y022500D01*
X006046Y022477D01*
X005984Y022457D01*
X005922Y022441D01*
X005858Y022429D01*
X005794Y022421D01*
X005729Y022417D01*
X005665Y022417D01*
X005600Y022421D01*
X005536Y022429D01*
X005472Y022441D01*
X005410Y022457D01*
X005348Y022477D01*
X005288Y022500D01*
X005229Y022527D01*
X005172Y022558D01*
X005117Y022592D01*
X005064Y022629D01*
X005014Y022670D01*
X004966Y022713D01*
X004921Y022760D01*
X004879Y022809D01*
X004840Y022860D01*
X004804Y022914D01*
X004772Y022970D01*
X004743Y023028D01*
X004718Y023088D01*
X004696Y023149D01*
X004679Y023211D01*
X004665Y023274D01*
X004655Y023338D01*
X004649Y023402D01*
X004647Y023467D01*
X006050Y022862D02*
X006094Y022890D01*
X006136Y022921D01*
X006175Y022956D01*
X006212Y022993D01*
X006246Y023032D01*
X006276Y023074D01*
X006304Y023118D01*
X006328Y023164D01*
X006349Y023212D01*
X006366Y023262D01*
X006380Y023312D01*
X006389Y023363D01*
X006395Y023415D01*
X006397Y023467D01*
X005344Y022862D02*
X005300Y022890D01*
X005258Y022921D01*
X005219Y022956D01*
X005182Y022993D01*
X005148Y023032D01*
X005118Y023074D01*
X005090Y023118D01*
X005066Y023164D01*
X005045Y023212D01*
X005028Y023262D01*
X005014Y023312D01*
X005005Y023363D01*
X004999Y023415D01*
X004997Y023467D01*
X005082Y016846D02*
X005189Y016739D01*
X005189Y016526D01*
X005082Y016419D01*
X004762Y016419D01*
X004762Y016206D02*
X004762Y016846D01*
X005082Y016846D01*
X005407Y016846D02*
X005834Y016206D01*
X006051Y016206D02*
X006478Y016206D01*
X006265Y016206D02*
X006265Y016846D01*
X006051Y016633D01*
X005834Y016846D02*
X005407Y016206D01*
X005189Y016206D02*
X004976Y016419D01*
D11*
X015829Y005633D02*
X015829Y004133D01*
X032327Y004133D01*
X032327Y005633D01*
X015829Y005633D01*
D12*
X019947Y002767D02*
X019949Y002828D01*
X019955Y002890D01*
X019965Y002950D01*
X019979Y003010D01*
X019996Y003069D01*
X020018Y003127D01*
X020043Y003183D01*
X020072Y003238D01*
X020104Y003290D01*
X020139Y003340D01*
X020178Y003388D01*
X020220Y003433D01*
X020264Y003476D01*
X020312Y003515D01*
X020361Y003552D01*
X020413Y003585D01*
X020467Y003614D01*
X020523Y003640D01*
X020580Y003663D01*
X020639Y003681D01*
X020698Y003696D01*
X020759Y003707D01*
X020820Y003714D01*
X020882Y003717D01*
X020943Y003716D01*
X021004Y003711D01*
X021065Y003702D01*
X021125Y003689D01*
X021185Y003672D01*
X021243Y003652D01*
X021299Y003628D01*
X021354Y003600D01*
X021407Y003568D01*
X021458Y003534D01*
X021506Y003496D01*
X021552Y003455D01*
X021595Y003411D01*
X021636Y003364D01*
X021673Y003315D01*
X021707Y003264D01*
X021737Y003211D01*
X021764Y003155D01*
X021787Y003098D01*
X021807Y003040D01*
X021823Y002981D01*
X021835Y002920D01*
X021843Y002859D01*
X021847Y002798D01*
X021847Y002736D01*
X021843Y002675D01*
X021835Y002614D01*
X021823Y002553D01*
X021807Y002494D01*
X021787Y002436D01*
X021764Y002379D01*
X021737Y002323D01*
X021707Y002270D01*
X021673Y002219D01*
X021636Y002170D01*
X021595Y002123D01*
X021552Y002079D01*
X021506Y002038D01*
X021458Y002000D01*
X021407Y001966D01*
X021354Y001934D01*
X021299Y001906D01*
X021243Y001882D01*
X021185Y001862D01*
X021125Y001845D01*
X021065Y001832D01*
X021004Y001823D01*
X020943Y001818D01*
X020882Y001817D01*
X020820Y001820D01*
X020759Y001827D01*
X020698Y001838D01*
X020639Y001853D01*
X020580Y001871D01*
X020523Y001894D01*
X020467Y001920D01*
X020413Y001949D01*
X020361Y001982D01*
X020312Y002019D01*
X020264Y002058D01*
X020220Y002101D01*
X020178Y002146D01*
X020139Y002194D01*
X020104Y002244D01*
X020072Y002296D01*
X020043Y002351D01*
X020018Y002407D01*
X019996Y002465D01*
X019979Y002524D01*
X019965Y002584D01*
X019955Y002644D01*
X019949Y002706D01*
X019947Y002767D01*
X029497Y012267D02*
X029495Y012321D01*
X029490Y012375D01*
X029481Y012428D01*
X029468Y012481D01*
X029452Y012532D01*
X029432Y012582D01*
X029409Y012631D01*
X029383Y012679D01*
X029354Y012724D01*
X029321Y012767D01*
X029286Y012808D01*
X029248Y012847D01*
X029208Y012883D01*
X029165Y012916D01*
X029120Y012946D01*
X029073Y012973D01*
X028300Y012962D02*
X028252Y012932D01*
X028207Y012899D01*
X028164Y012863D01*
X028123Y012825D01*
X028086Y012783D01*
X028051Y012739D01*
X028020Y012693D01*
X027991Y012644D01*
X027967Y012594D01*
X027946Y012542D01*
X027928Y012488D01*
X027915Y012434D01*
X027905Y012379D01*
X027899Y012323D01*
X027897Y012267D01*
X027899Y012214D01*
X027904Y012160D01*
X027913Y012108D01*
X027925Y012056D01*
X027941Y012005D01*
X027960Y011955D01*
X027983Y011906D01*
X028009Y011859D01*
X028037Y011814D01*
X028069Y011771D01*
X028103Y011731D01*
X028141Y011692D01*
X028180Y011656D01*
X029209Y011652D02*
X029249Y011688D01*
X029287Y011727D01*
X029322Y011768D01*
X029354Y011811D01*
X029384Y011856D01*
X029410Y011903D01*
X029432Y011952D01*
X029452Y012003D01*
X029468Y012054D01*
X029481Y012106D01*
X029490Y012160D01*
X029495Y012213D01*
X029497Y012267D01*
X031773Y012973D02*
X031820Y012946D01*
X031865Y012916D01*
X031908Y012883D01*
X031948Y012847D01*
X031986Y012808D01*
X032021Y012767D01*
X032054Y012724D01*
X032083Y012679D01*
X032109Y012631D01*
X032132Y012582D01*
X032152Y012532D01*
X032168Y012481D01*
X032181Y012428D01*
X032190Y012375D01*
X032195Y012321D01*
X032197Y012267D01*
X031000Y012962D02*
X030952Y012932D01*
X030907Y012899D01*
X030864Y012863D01*
X030823Y012825D01*
X030786Y012783D01*
X030751Y012739D01*
X030720Y012693D01*
X030691Y012644D01*
X030667Y012594D01*
X030646Y012542D01*
X030628Y012488D01*
X030615Y012434D01*
X030605Y012379D01*
X030599Y012323D01*
X030597Y012267D01*
X030599Y012214D01*
X030604Y012160D01*
X030613Y012108D01*
X030625Y012056D01*
X030641Y012005D01*
X030660Y011955D01*
X030683Y011906D01*
X030709Y011859D01*
X030737Y011814D01*
X030769Y011771D01*
X030803Y011731D01*
X030841Y011692D01*
X030880Y011656D01*
X031909Y011652D02*
X031949Y011688D01*
X031987Y011727D01*
X032022Y011768D01*
X032054Y011811D01*
X032084Y011856D01*
X032110Y011903D01*
X032132Y011952D01*
X032152Y012003D01*
X032168Y012054D01*
X032181Y012106D01*
X032190Y012160D01*
X032195Y012213D01*
X032197Y012267D01*
X039347Y017667D02*
X039349Y017728D01*
X039355Y017790D01*
X039365Y017850D01*
X039379Y017910D01*
X039396Y017969D01*
X039418Y018027D01*
X039443Y018083D01*
X039472Y018138D01*
X039504Y018190D01*
X039539Y018240D01*
X039578Y018288D01*
X039620Y018333D01*
X039664Y018376D01*
X039712Y018415D01*
X039761Y018452D01*
X039813Y018485D01*
X039867Y018514D01*
X039923Y018540D01*
X039980Y018563D01*
X040039Y018581D01*
X040098Y018596D01*
X040159Y018607D01*
X040220Y018614D01*
X040282Y018617D01*
X040343Y018616D01*
X040404Y018611D01*
X040465Y018602D01*
X040525Y018589D01*
X040585Y018572D01*
X040643Y018552D01*
X040699Y018528D01*
X040754Y018500D01*
X040807Y018468D01*
X040858Y018434D01*
X040906Y018396D01*
X040952Y018355D01*
X040995Y018311D01*
X041036Y018264D01*
X041073Y018215D01*
X041107Y018164D01*
X041137Y018111D01*
X041164Y018055D01*
X041187Y017998D01*
X041207Y017940D01*
X041223Y017881D01*
X041235Y017820D01*
X041243Y017759D01*
X041247Y017698D01*
X041247Y017636D01*
X041243Y017575D01*
X041235Y017514D01*
X041223Y017453D01*
X041207Y017394D01*
X041187Y017336D01*
X041164Y017279D01*
X041137Y017223D01*
X041107Y017170D01*
X041073Y017119D01*
X041036Y017070D01*
X040995Y017023D01*
X040952Y016979D01*
X040906Y016938D01*
X040858Y016900D01*
X040807Y016866D01*
X040754Y016834D01*
X040699Y016806D01*
X040643Y016782D01*
X040585Y016762D01*
X040525Y016745D01*
X040465Y016732D01*
X040404Y016723D01*
X040343Y016718D01*
X040282Y016717D01*
X040220Y016720D01*
X040159Y016727D01*
X040098Y016738D01*
X040039Y016753D01*
X039980Y016771D01*
X039923Y016794D01*
X039867Y016820D01*
X039813Y016849D01*
X039761Y016882D01*
X039712Y016919D01*
X039664Y016958D01*
X039620Y017001D01*
X039578Y017046D01*
X039539Y017094D01*
X039504Y017144D01*
X039472Y017196D01*
X039443Y017251D01*
X039418Y017307D01*
X039396Y017365D01*
X039379Y017424D01*
X039365Y017484D01*
X039355Y017544D01*
X039349Y017606D01*
X039347Y017667D01*
X025247Y037967D02*
X025249Y038028D01*
X025255Y038090D01*
X025265Y038150D01*
X025279Y038210D01*
X025296Y038269D01*
X025318Y038327D01*
X025343Y038383D01*
X025372Y038438D01*
X025404Y038490D01*
X025439Y038540D01*
X025478Y038588D01*
X025520Y038633D01*
X025564Y038676D01*
X025612Y038715D01*
X025661Y038752D01*
X025713Y038785D01*
X025767Y038814D01*
X025823Y038840D01*
X025880Y038863D01*
X025939Y038881D01*
X025998Y038896D01*
X026059Y038907D01*
X026120Y038914D01*
X026182Y038917D01*
X026243Y038916D01*
X026304Y038911D01*
X026365Y038902D01*
X026425Y038889D01*
X026485Y038872D01*
X026543Y038852D01*
X026599Y038828D01*
X026654Y038800D01*
X026707Y038768D01*
X026758Y038734D01*
X026806Y038696D01*
X026852Y038655D01*
X026895Y038611D01*
X026936Y038564D01*
X026973Y038515D01*
X027007Y038464D01*
X027037Y038411D01*
X027064Y038355D01*
X027087Y038298D01*
X027107Y038240D01*
X027123Y038181D01*
X027135Y038120D01*
X027143Y038059D01*
X027147Y037998D01*
X027147Y037936D01*
X027143Y037875D01*
X027135Y037814D01*
X027123Y037753D01*
X027107Y037694D01*
X027087Y037636D01*
X027064Y037579D01*
X027037Y037523D01*
X027007Y037470D01*
X026973Y037419D01*
X026936Y037370D01*
X026895Y037323D01*
X026852Y037279D01*
X026806Y037238D01*
X026758Y037200D01*
X026707Y037166D01*
X026654Y037134D01*
X026599Y037106D01*
X026543Y037082D01*
X026485Y037062D01*
X026425Y037045D01*
X026365Y037032D01*
X026304Y037023D01*
X026243Y037018D01*
X026182Y037017D01*
X026120Y037020D01*
X026059Y037027D01*
X025998Y037038D01*
X025939Y037053D01*
X025880Y037071D01*
X025823Y037094D01*
X025767Y037120D01*
X025713Y037149D01*
X025661Y037182D01*
X025612Y037219D01*
X025564Y037258D01*
X025520Y037301D01*
X025478Y037346D01*
X025439Y037394D01*
X025404Y037444D01*
X025372Y037496D01*
X025343Y037551D01*
X025318Y037607D01*
X025296Y037665D01*
X025279Y037724D01*
X025265Y037784D01*
X025255Y037844D01*
X025249Y037906D01*
X025247Y037967D01*
X004747Y023467D02*
X004749Y023528D01*
X004755Y023590D01*
X004765Y023650D01*
X004779Y023710D01*
X004796Y023769D01*
X004818Y023827D01*
X004843Y023883D01*
X004872Y023938D01*
X004904Y023990D01*
X004939Y024040D01*
X004978Y024088D01*
X005020Y024133D01*
X005064Y024176D01*
X005112Y024215D01*
X005161Y024252D01*
X005213Y024285D01*
X005267Y024314D01*
X005323Y024340D01*
X005380Y024363D01*
X005439Y024381D01*
X005498Y024396D01*
X005559Y024407D01*
X005620Y024414D01*
X005682Y024417D01*
X005743Y024416D01*
X005804Y024411D01*
X005865Y024402D01*
X005925Y024389D01*
X005985Y024372D01*
X006043Y024352D01*
X006099Y024328D01*
X006154Y024300D01*
X006207Y024268D01*
X006258Y024234D01*
X006306Y024196D01*
X006352Y024155D01*
X006395Y024111D01*
X006436Y024064D01*
X006473Y024015D01*
X006507Y023964D01*
X006537Y023911D01*
X006564Y023855D01*
X006587Y023798D01*
X006607Y023740D01*
X006623Y023681D01*
X006635Y023620D01*
X006643Y023559D01*
X006647Y023498D01*
X006647Y023436D01*
X006643Y023375D01*
X006635Y023314D01*
X006623Y023253D01*
X006607Y023194D01*
X006587Y023136D01*
X006564Y023079D01*
X006537Y023023D01*
X006507Y022970D01*
X006473Y022919D01*
X006436Y022870D01*
X006395Y022823D01*
X006352Y022779D01*
X006306Y022738D01*
X006258Y022700D01*
X006207Y022666D01*
X006154Y022634D01*
X006099Y022606D01*
X006043Y022582D01*
X005985Y022562D01*
X005925Y022545D01*
X005865Y022532D01*
X005804Y022523D01*
X005743Y022518D01*
X005682Y022517D01*
X005620Y022520D01*
X005559Y022527D01*
X005498Y022538D01*
X005439Y022553D01*
X005380Y022571D01*
X005323Y022594D01*
X005267Y022620D01*
X005213Y022649D01*
X005161Y022682D01*
X005112Y022719D01*
X005064Y022758D01*
X005020Y022801D01*
X004978Y022846D01*
X004939Y022894D01*
X004904Y022944D01*
X004872Y022996D01*
X004843Y023051D01*
X004818Y023107D01*
X004796Y023165D01*
X004779Y023224D01*
X004765Y023284D01*
X004755Y023344D01*
X004749Y023406D01*
X004747Y023467D01*
D13*
X004872Y021467D02*
X004872Y020483D01*
X004872Y018514D01*
X004872Y017530D01*
X006447Y017530D01*
X006447Y018514D01*
X006447Y020483D01*
X006447Y021467D01*
X004872Y021467D01*
X004872Y020482D02*
X004814Y020457D01*
X004758Y020428D01*
X004704Y020397D01*
X004651Y020362D01*
X004601Y020324D01*
X004553Y020282D01*
X004508Y020239D01*
X004465Y020192D01*
X004425Y020143D01*
X004388Y020092D01*
X004354Y020039D01*
X004324Y019984D01*
X004297Y019927D01*
X004273Y019869D01*
X004253Y019809D01*
X004236Y019748D01*
X004223Y019686D01*
X004214Y019624D01*
X004208Y019561D01*
X004206Y019498D01*
X004208Y019435D01*
X004214Y019372D01*
X004223Y019310D01*
X004236Y019248D01*
X004253Y019187D01*
X004273Y019127D01*
X004297Y019069D01*
X004324Y019012D01*
X004354Y018957D01*
X004388Y018904D01*
X004425Y018853D01*
X004465Y018804D01*
X004508Y018757D01*
X004553Y018714D01*
X004601Y018672D01*
X004651Y018634D01*
X004704Y018599D01*
X004758Y018568D01*
X004814Y018539D01*
X004872Y018514D01*
X006921Y022764D02*
X006921Y022914D01*
X006921Y022839D02*
X007372Y022839D01*
X007372Y022764D02*
X007372Y022914D01*
X007372Y023071D02*
X006921Y023071D01*
X006921Y023296D01*
X006996Y023371D01*
X007147Y023371D01*
X007222Y023296D01*
X007222Y023071D01*
X007222Y023221D02*
X007372Y023371D01*
X007147Y023532D02*
X007147Y023832D01*
X007372Y023757D02*
X006921Y023757D01*
X007147Y023532D01*
X021609Y022406D02*
X021759Y022255D01*
X021684Y022095D02*
X021985Y022095D01*
X022060Y022020D01*
X022060Y021870D01*
X021985Y021795D01*
X021684Y021795D01*
X021609Y021870D01*
X021609Y022020D01*
X021684Y022095D01*
X021909Y021945D02*
X022060Y022095D01*
X022060Y022255D02*
X022060Y022556D01*
X022060Y022406D02*
X021609Y022406D01*
X022304Y022554D02*
X022379Y022479D01*
X022454Y022479D01*
X022529Y022554D01*
X022529Y022780D01*
X022379Y022780D02*
X022304Y022705D01*
X022304Y022554D01*
X022379Y022780D02*
X022679Y022780D01*
X022754Y022705D01*
X022754Y022554D01*
X022679Y022479D01*
X022679Y022319D02*
X022604Y022319D01*
X022529Y022244D01*
X022529Y022169D01*
X022529Y022244D02*
X022454Y022319D01*
X022379Y022319D01*
X022304Y022244D01*
X022304Y022094D01*
X022379Y022019D01*
X022304Y021859D02*
X022754Y021859D01*
X022304Y021559D01*
X022754Y021559D01*
X022754Y021398D02*
X022754Y021098D01*
X022454Y021398D01*
X022379Y021398D01*
X022304Y021323D01*
X022304Y021173D01*
X022379Y021098D01*
X022679Y022019D02*
X022754Y022094D01*
X022754Y022244D01*
X022679Y022319D01*
X022679Y022940D02*
X022379Y022940D01*
X022304Y023015D01*
X022304Y023165D01*
X022379Y023240D01*
X022679Y022940D01*
X022754Y023015D01*
X022754Y023165D01*
X022679Y023240D01*
X022379Y023240D01*
X022529Y023400D02*
X022529Y023625D01*
X022604Y023700D01*
X022679Y023700D01*
X022754Y023625D01*
X022754Y023475D01*
X022679Y023400D01*
X022529Y023400D01*
X022379Y023550D01*
X022304Y023700D01*
X028546Y017223D02*
X028847Y016923D01*
X028922Y016998D01*
X028922Y017148D01*
X028847Y017223D01*
X028546Y017223D01*
X028471Y017148D01*
X028471Y016998D01*
X028546Y016923D01*
X028847Y016923D01*
X028847Y016763D02*
X028922Y016688D01*
X028922Y016537D01*
X028847Y016462D01*
X028847Y016302D02*
X028922Y016227D01*
X028922Y016077D01*
X028847Y016002D01*
X028697Y016152D02*
X028697Y016227D01*
X028772Y016302D01*
X028847Y016302D01*
X028697Y016227D02*
X028621Y016302D01*
X028546Y016302D01*
X028471Y016227D01*
X028471Y016077D01*
X028546Y016002D01*
X028546Y016462D02*
X028471Y016537D01*
X028471Y016688D01*
X028546Y016763D01*
X028621Y016763D01*
X028697Y016688D01*
X028772Y016763D01*
X028847Y016763D01*
X028697Y016688D02*
X028697Y016613D01*
X028072Y016453D02*
X028072Y016152D01*
X028072Y016303D02*
X027621Y016303D01*
X027771Y016152D01*
X027696Y015992D02*
X027847Y015992D01*
X027922Y015917D01*
X027922Y015692D01*
X028072Y015692D02*
X027621Y015692D01*
X027621Y015917D01*
X027696Y015992D01*
X027922Y015842D02*
X028072Y015992D01*
X027847Y016613D02*
X027847Y016913D01*
X028072Y016838D02*
X027621Y016838D01*
X027847Y016613D01*
X030321Y016713D02*
X030547Y016713D01*
X030471Y016863D01*
X030471Y016938D01*
X030547Y017013D01*
X030697Y017013D01*
X030772Y016938D01*
X030772Y016788D01*
X030697Y016713D01*
X030772Y016553D02*
X030772Y016252D01*
X030772Y016403D02*
X030321Y016403D01*
X030471Y016252D01*
X030396Y016092D02*
X030547Y016092D01*
X030622Y016017D01*
X030622Y015792D01*
X030772Y015792D02*
X030321Y015792D01*
X030321Y016017D01*
X030396Y016092D01*
X030622Y015942D02*
X030772Y016092D01*
X031171Y016177D02*
X031171Y016327D01*
X031246Y016402D01*
X031321Y016402D01*
X031397Y016327D01*
X031472Y016402D01*
X031547Y016402D01*
X031622Y016327D01*
X031622Y016177D01*
X031547Y016102D01*
X031397Y016252D02*
X031397Y016327D01*
X031246Y016102D02*
X031171Y016177D01*
X031246Y016562D02*
X031171Y016637D01*
X031171Y016788D01*
X031246Y016863D01*
X031321Y016863D01*
X031397Y016788D01*
X031472Y016863D01*
X031547Y016863D01*
X031622Y016788D01*
X031622Y016637D01*
X031547Y016562D01*
X031397Y016713D02*
X031397Y016788D01*
X031547Y017023D02*
X031246Y017323D01*
X031547Y017323D01*
X031622Y017248D01*
X031622Y017098D01*
X031547Y017023D01*
X031246Y017023D01*
X031171Y017098D01*
X031171Y017248D01*
X031246Y017323D01*
X030321Y017013D02*
X030321Y016713D01*
X026043Y012442D02*
X025742Y012442D01*
X025893Y012442D02*
X025893Y012892D01*
X025742Y012742D01*
X025582Y012817D02*
X025582Y012667D01*
X025507Y012592D01*
X025282Y012592D01*
X025282Y012442D02*
X025282Y012892D01*
X025507Y012892D01*
X025582Y012817D01*
X025122Y012892D02*
X024972Y012892D01*
X025047Y012892D02*
X025047Y012517D01*
X024972Y012442D01*
X024897Y012442D01*
X024822Y012517D01*
X028871Y011307D02*
X028871Y011157D01*
X028946Y011082D01*
X029021Y011082D01*
X029097Y011157D01*
X029097Y011307D01*
X029172Y011382D01*
X029247Y011382D01*
X029322Y011307D01*
X029322Y011157D01*
X029247Y011082D01*
X029172Y011082D01*
X029097Y011157D01*
X029097Y011307D02*
X029021Y011382D01*
X028946Y011382D01*
X028871Y011307D01*
X028946Y010921D02*
X028871Y010846D01*
X028871Y010621D01*
X029322Y010621D01*
X029322Y010846D01*
X029247Y010921D01*
X028946Y010921D01*
X028871Y010461D02*
X028871Y010161D01*
X029322Y010161D01*
X029322Y010461D01*
X029097Y010311D02*
X029097Y010161D01*
X029322Y010001D02*
X029322Y009700D01*
X028871Y009700D01*
X031571Y009700D02*
X032022Y009700D01*
X032022Y010001D01*
X032022Y010161D02*
X032022Y010461D01*
X032022Y010621D02*
X032022Y010846D01*
X031947Y010921D01*
X031646Y010921D01*
X031571Y010846D01*
X031571Y010621D01*
X032022Y010621D01*
X031797Y010311D02*
X031797Y010161D01*
X032022Y010161D02*
X031571Y010161D01*
X031571Y010461D01*
X031646Y011082D02*
X031571Y011157D01*
X031571Y011307D01*
X031646Y011382D01*
X031947Y011382D01*
X032022Y011307D01*
X032022Y011157D01*
X031947Y011082D01*
X031797Y011157D02*
X031797Y011382D01*
X031797Y011157D02*
X031721Y011082D01*
X031646Y011082D01*
X038621Y017192D02*
X038621Y017342D01*
X038621Y017267D02*
X039072Y017267D01*
X039072Y017192D02*
X039072Y017342D01*
X039072Y017499D02*
X038621Y017499D01*
X038621Y017724D01*
X038696Y017799D01*
X038847Y017799D01*
X038922Y017724D01*
X038922Y017499D01*
X038922Y017649D02*
X039072Y017799D01*
X039072Y017959D02*
X039072Y018260D01*
X039072Y018109D02*
X038621Y018109D01*
X038771Y017959D01*
X039447Y019467D02*
X041022Y019467D01*
X041022Y020451D01*
X041022Y022420D01*
X041022Y023404D01*
X039447Y023404D01*
X039447Y022420D01*
X039447Y020451D01*
X039447Y019467D01*
X041022Y020452D02*
X041080Y020477D01*
X041136Y020506D01*
X041190Y020537D01*
X041243Y020572D01*
X041293Y020610D01*
X041341Y020652D01*
X041386Y020695D01*
X041429Y020742D01*
X041469Y020791D01*
X041506Y020842D01*
X041540Y020895D01*
X041570Y020950D01*
X041597Y021007D01*
X041621Y021065D01*
X041641Y021125D01*
X041658Y021186D01*
X041671Y021248D01*
X041680Y021310D01*
X041686Y021373D01*
X041688Y021436D01*
X041686Y021499D01*
X041680Y021562D01*
X041671Y021624D01*
X041658Y021686D01*
X041641Y021747D01*
X041621Y021807D01*
X041597Y021865D01*
X041570Y021922D01*
X041540Y021977D01*
X041506Y022030D01*
X041469Y022081D01*
X041429Y022130D01*
X041386Y022177D01*
X041341Y022220D01*
X041293Y022262D01*
X041243Y022300D01*
X041190Y022335D01*
X041136Y022366D01*
X041080Y022395D01*
X041022Y022420D01*
X026562Y036367D02*
X026487Y036292D01*
X026336Y036292D01*
X026261Y036367D01*
X026101Y036292D02*
X025951Y036442D01*
X026026Y036442D02*
X025801Y036442D01*
X025801Y036292D02*
X025801Y036742D01*
X026026Y036742D01*
X026101Y036667D01*
X026101Y036517D01*
X026026Y036442D01*
X026261Y036667D02*
X026336Y036742D01*
X026487Y036742D01*
X026562Y036667D01*
X026562Y036592D01*
X026487Y036517D01*
X026562Y036442D01*
X026562Y036367D01*
X026487Y036517D02*
X026411Y036517D01*
X025644Y036292D02*
X025494Y036292D01*
X025569Y036292D02*
X025569Y036742D01*
X025494Y036742D02*
X025644Y036742D01*
X024197Y037217D02*
X024197Y038792D01*
X023212Y038792D01*
X021244Y038792D01*
X020260Y038792D01*
X020260Y037217D01*
X021244Y037217D01*
X023212Y037217D01*
X024197Y037217D01*
X023212Y038792D02*
X023187Y038850D01*
X023158Y038906D01*
X023127Y038960D01*
X023092Y039013D01*
X023054Y039063D01*
X023012Y039111D01*
X022969Y039156D01*
X022922Y039199D01*
X022873Y039239D01*
X022822Y039276D01*
X022769Y039310D01*
X022714Y039340D01*
X022657Y039367D01*
X022599Y039391D01*
X022539Y039411D01*
X022478Y039428D01*
X022416Y039441D01*
X022354Y039450D01*
X022291Y039456D01*
X022228Y039458D01*
X022165Y039456D01*
X022102Y039450D01*
X022040Y039441D01*
X021978Y039428D01*
X021917Y039411D01*
X021857Y039391D01*
X021799Y039367D01*
X021742Y039340D01*
X021687Y039310D01*
X021634Y039276D01*
X021583Y039239D01*
X021534Y039199D01*
X021487Y039156D01*
X021444Y039111D01*
X021402Y039063D01*
X021364Y039013D01*
X021329Y038960D01*
X021298Y038906D01*
X021269Y038850D01*
X021244Y038792D01*
X021264Y004442D02*
X021189Y004367D01*
X021264Y004442D02*
X021414Y004442D01*
X021489Y004367D01*
X021489Y004292D01*
X021189Y003992D01*
X021489Y003992D01*
X021029Y003992D02*
X020879Y004142D01*
X020954Y004142D02*
X020729Y004142D01*
X020729Y003992D02*
X020729Y004442D01*
X020954Y004442D01*
X021029Y004367D01*
X021029Y004217D01*
X020954Y004142D01*
X020572Y003992D02*
X020422Y003992D01*
X020497Y003992D02*
X020497Y004442D01*
X020422Y004442D02*
X020572Y004442D01*
X022797Y003517D02*
X022797Y001942D01*
X023781Y001942D01*
X025749Y001942D01*
X026734Y001942D01*
X026734Y003517D01*
X025749Y003517D01*
X023781Y003517D01*
X022797Y003517D01*
X023781Y001942D02*
X023806Y001884D01*
X023835Y001828D01*
X023866Y001774D01*
X023901Y001721D01*
X023939Y001671D01*
X023981Y001623D01*
X024024Y001578D01*
X024071Y001535D01*
X024120Y001495D01*
X024171Y001458D01*
X024224Y001424D01*
X024279Y001394D01*
X024336Y001367D01*
X024394Y001343D01*
X024454Y001323D01*
X024515Y001306D01*
X024577Y001293D01*
X024639Y001284D01*
X024702Y001278D01*
X024765Y001276D01*
X024828Y001278D01*
X024891Y001284D01*
X024953Y001293D01*
X025015Y001306D01*
X025076Y001323D01*
X025136Y001343D01*
X025194Y001367D01*
X025251Y001394D01*
X025306Y001424D01*
X025359Y001458D01*
X025410Y001495D01*
X025459Y001535D01*
X025506Y001578D01*
X025549Y001623D01*
X025591Y001671D01*
X025629Y001721D01*
X025664Y001774D01*
X025695Y001828D01*
X025724Y001884D01*
X025749Y001942D01*
D14*
X028697Y015447D03*
X031397Y015547D03*
X028697Y018287D03*
X031397Y018387D03*
D15*
X033960Y019952D02*
X024433Y019952D01*
X024433Y028250D01*
X026923Y030740D01*
X031470Y030740D01*
X033960Y028250D01*
X033960Y019952D01*
D16*
X031899Y024004D02*
X030814Y024004D01*
X030770Y024015D01*
X030726Y024047D01*
X030699Y024086D01*
X030682Y024146D01*
X030682Y024201D01*
X030693Y024289D01*
X030803Y024777D01*
X030819Y024837D01*
X030885Y024968D01*
X030935Y025040D01*
X031022Y025095D01*
X031088Y025117D01*
X031121Y025122D01*
X031982Y025122D01*
X032042Y025100D01*
X032113Y025045D01*
X032135Y025023D01*
X032135Y024831D01*
X032042Y024453D01*
X031143Y024453D01*
X031099Y024267D01*
X031088Y024234D01*
X031094Y024196D01*
X031115Y024179D01*
X031905Y024179D01*
X031976Y024190D01*
X031899Y024004D01*
X031669Y024623D02*
X031198Y024623D01*
X031192Y024629D01*
X031231Y024853D01*
X031247Y024897D01*
X031269Y024936D01*
X031302Y024952D01*
X031691Y024952D01*
X031713Y024947D01*
X031729Y024930D01*
X031729Y024859D01*
X031669Y024623D01*
X030677Y024831D02*
X030584Y024453D01*
X029685Y024453D01*
X029641Y024267D01*
X029630Y024234D01*
X029635Y024196D01*
X029657Y024179D01*
X030447Y024179D01*
X030518Y024190D01*
X030441Y024004D01*
X029356Y024004D01*
X029312Y024015D01*
X029268Y024047D01*
X029241Y024086D01*
X029224Y024146D01*
X029224Y024201D01*
X029235Y024289D01*
X029345Y024777D01*
X029361Y024837D01*
X029427Y024968D01*
X029476Y025040D01*
X029564Y025095D01*
X029630Y025117D01*
X029663Y025122D01*
X030523Y025122D01*
X030584Y025100D01*
X030655Y025045D01*
X030677Y025023D01*
X030677Y024831D01*
X030271Y024859D02*
X030211Y024623D01*
X029739Y024623D01*
X029734Y024629D01*
X029772Y024853D01*
X029789Y024897D01*
X029811Y024936D01*
X029844Y024952D01*
X030233Y024952D01*
X030255Y024947D01*
X030271Y024930D01*
X030271Y024859D01*
X029268Y025226D02*
X029202Y024952D01*
X029180Y024897D01*
X029098Y024815D01*
X029032Y024788D01*
X028945Y024766D01*
X028835Y024766D01*
X028994Y024744D01*
X029109Y024689D01*
X029114Y024678D01*
X029114Y024530D01*
X029054Y024289D01*
X029016Y024228D01*
X029005Y024163D01*
X028923Y024069D01*
X028857Y024037D01*
X028753Y024004D01*
X026850Y024004D01*
X026883Y024064D01*
X026883Y024102D01*
X026708Y024535D01*
X026253Y024091D01*
X026203Y024004D01*
X025880Y024004D01*
X026017Y024102D01*
X026653Y024700D01*
X026340Y025462D01*
X026280Y025522D01*
X026883Y025522D01*
X026883Y025489D01*
X026867Y025456D01*
X026883Y025429D01*
X026883Y025402D01*
X027020Y025056D01*
X027409Y025440D01*
X027431Y025467D01*
X027448Y025500D01*
X027453Y025522D01*
X027799Y025522D01*
X027727Y025473D01*
X027673Y025435D01*
X027596Y025369D01*
X027081Y024886D01*
X027388Y024130D01*
X027475Y024009D01*
X027492Y024009D01*
X027525Y024042D01*
X027568Y024174D01*
X027634Y024420D01*
X027711Y024733D01*
X027854Y025314D01*
X027875Y025413D01*
X027875Y025522D01*
X029120Y025522D01*
X029186Y025506D01*
X029230Y025478D01*
X029262Y025418D01*
X029284Y025363D01*
X029284Y025270D01*
X029268Y025226D01*
X028851Y025221D02*
X028775Y024930D01*
X028758Y024892D01*
X028725Y024870D01*
X028177Y024870D01*
X028292Y025336D01*
X028796Y025336D01*
X028846Y025308D01*
X028851Y025221D01*
X028637Y024672D02*
X028139Y024672D01*
X028012Y024190D01*
X028544Y024190D01*
X028566Y024201D01*
X028605Y024245D01*
X028627Y024278D01*
X028709Y024601D01*
X028709Y024618D01*
X028681Y024656D01*
X028637Y024672D01*
X026405Y019647D02*
X026098Y019647D01*
X026098Y019187D01*
X026405Y019187D01*
X026251Y019417D02*
X026098Y019417D01*
X025944Y019187D02*
X025637Y019187D01*
X025637Y019647D01*
X025944Y019647D01*
X025791Y019417D02*
X025637Y019417D01*
X025484Y019340D02*
X025484Y019264D01*
X025407Y019187D01*
X025177Y019187D01*
X025177Y019647D01*
X025407Y019647D01*
X025484Y019571D01*
X025484Y019494D01*
X025407Y019417D01*
X025177Y019417D01*
X025407Y019417D02*
X025484Y019340D01*
X025024Y019187D02*
X024717Y019647D01*
X025024Y019647D02*
X024717Y019187D01*
X024717Y030187D02*
X025024Y030647D01*
X025177Y030647D02*
X025177Y030187D01*
X025407Y030187D01*
X025484Y030264D01*
X025484Y030340D01*
X025407Y030417D01*
X025177Y030417D01*
X025407Y030417D02*
X025484Y030494D01*
X025484Y030571D01*
X025407Y030647D01*
X025177Y030647D01*
X024717Y030647D02*
X025024Y030187D01*
X025637Y030187D02*
X025944Y030494D01*
X025944Y030571D01*
X025868Y030647D01*
X025714Y030647D01*
X025637Y030571D01*
X025637Y030187D02*
X025944Y030187D01*
X010413Y032170D02*
X010413Y032345D01*
X010355Y032403D01*
X010296Y032345D01*
X010296Y032170D01*
X010180Y032170D02*
X010180Y032403D01*
X010238Y032403D01*
X010296Y032345D01*
X010054Y032345D02*
X010054Y032170D01*
X009937Y032170D02*
X009937Y032345D01*
X009996Y032403D01*
X010054Y032345D01*
X009937Y032345D02*
X009879Y032403D01*
X009820Y032403D01*
X009820Y032170D01*
X009695Y032170D02*
X009461Y032170D01*
X009695Y032403D01*
X009695Y032462D01*
X009637Y032520D01*
X009520Y032520D01*
X009461Y032462D01*
X009339Y032228D02*
X009280Y032228D01*
X009280Y032170D01*
X009339Y032170D01*
X009339Y032228D01*
X009339Y032170D02*
X009222Y032053D01*
X009096Y032228D02*
X009038Y032170D01*
X008921Y032170D01*
X008863Y032228D01*
X008863Y032345D02*
X008980Y032403D01*
X009038Y032403D01*
X009096Y032345D01*
X009096Y032228D01*
X008863Y032345D02*
X008863Y032520D01*
X009096Y032520D01*
X008621Y032520D02*
X008621Y032170D01*
X008737Y032170D02*
X008504Y032170D01*
X008378Y032170D02*
X008378Y032403D01*
X008261Y032520D01*
X008145Y032403D01*
X008145Y032170D01*
X008145Y032345D02*
X008378Y032345D01*
X008504Y032403D02*
X008621Y032520D01*
D17*
X008075Y032050D02*
X008075Y028800D01*
X011675Y028800D01*
X011675Y032050D01*
X008075Y032050D01*
D18*
X008875Y028375D03*
X009875Y028375D03*
X010875Y028375D03*
D19*
X010731Y030376D02*
X010311Y030376D01*
X010521Y030376D02*
X010521Y031007D01*
X010311Y030796D01*
X010086Y030901D02*
X009981Y031007D01*
X009771Y031007D01*
X009666Y030901D01*
X009666Y030481D01*
X009771Y030376D01*
X009981Y030376D01*
X010086Y030481D01*
X009447Y030376D02*
X009236Y030376D01*
X009342Y030376D02*
X009342Y031007D01*
X009447Y031007D02*
X009236Y031007D01*
X007516Y030976D02*
X007516Y030556D01*
X007516Y030766D02*
X006886Y030766D01*
X007096Y030556D01*
X007516Y030332D02*
X007516Y029911D01*
X007516Y030121D02*
X006886Y030121D01*
X007096Y029911D01*
X006991Y029687D02*
X006886Y029582D01*
X006886Y029267D01*
X007516Y029267D01*
X007516Y029582D01*
X007411Y029687D01*
X006991Y029687D01*
X007516Y029042D02*
X007516Y028622D01*
X006886Y028622D01*
X006886Y031200D02*
X006886Y031621D01*
X006991Y031621D01*
X007411Y031200D01*
X007516Y031200D01*
X007516Y031845D02*
X007096Y031845D01*
X006886Y032055D01*
X007096Y032265D01*
X007516Y032265D01*
X007306Y032489D02*
X006886Y032489D01*
X007201Y032265D02*
X007201Y031845D01*
X007306Y032489D02*
X007516Y032700D01*
X007306Y032910D01*
X006886Y032910D01*
X006991Y033134D02*
X006886Y033239D01*
X006886Y033449D01*
X006991Y033554D01*
X007096Y033554D01*
X007516Y033134D01*
X007516Y033554D01*
X007411Y033778D02*
X007516Y033884D01*
X007516Y034094D01*
X007411Y034199D01*
X007201Y034199D01*
X007096Y034094D01*
X007096Y033989D01*
X007201Y033778D01*
X006886Y033778D01*
X006886Y034199D01*
M02*
