%
M48
M72
T01C0.0236
T02C0.0315
T03C0.0320
T04C0.0360
T05C0.0400
T06C0.1260
T07C0.1300
%
T01
X15218Y2399
X23200Y7800
X23100Y10300
X25596Y13553
X28289Y13509
X22970Y17570
X21060Y19060
X18800Y20000
X16340Y19440
X16150Y21100
X15380Y23663
X15080Y25330
X17502Y27108
X17502Y28092
X19600Y28900
X21900Y32000
X21852Y33836
X20600Y34500
X19700Y32700
X16700Y33600
X10799Y32997
X9400Y30300
X11698Y27184
X12389Y26180
X12700Y23100
X12800Y21200
X10100Y22100
X8700Y25400
X6800Y25400
X5633Y28031
X1948Y24746
X6700Y20600
X11600Y16090
X25612Y20344
X28281Y20317
X30876Y19257
X33500Y22600
X35300Y21500
X36900Y15700
X24494Y36694
T02
X21769Y27843
X21769Y27056
X21769Y26269
X21769Y25481
X21769Y24694
X21769Y23906
X21769Y23119
X21769Y22331
X21769Y21544
X21769Y20757
X30431Y20757
X30431Y21544
X30431Y22331
X30431Y23119
X30431Y23906
X30431Y24694
X30431Y25481
X30431Y26269
X30431Y27056
X30431Y27843
T03
X37100Y22600
X37100Y20600
X37100Y19600
X37200Y17800
X37200Y16800
X35493Y16230
X32493Y16230
X28300Y14600
X28300Y12400
X28300Y11400
X25600Y11400
X25600Y12400
X25600Y14500
X25600Y18500
X28300Y18600
X17730Y21220
X16980Y21720
X17730Y22220
X11698Y26295
X8698Y26295
X4033Y27031
X4033Y28031
X4033Y25464
X4033Y24464
X2600Y23600
X2600Y22600
X2600Y20600
X2600Y19600
X2600Y17600
X14171Y5872
X14171Y2872
X17300Y2400
X18300Y2400
X20200Y2400
X21200Y2400
X23200Y2400
X21853Y34919
X22600Y37600
X23600Y37600
X24853Y34919
X20600Y37600
X19600Y37600
X17600Y37600
T04
X22200Y11400
X23200Y11400
T05
X14100Y18100
X14100Y19100
X14100Y20100
X14100Y21100
X14100Y22100
X14100Y23100
X14100Y24100
X14100Y27100
X14100Y28100
X14100Y29100
X7985Y30818
X7985Y31818
X7985Y32818
T06
X4075Y4029
X35506Y4029
X35513Y35517
X4076Y35494
T07
X2085Y31818
M30
