G75*
%MOIN*%
%OFA0B0*%
%FSLAX24Y24*%
%IPPOS*%
%LPD*%
%AMOC8*
5,1,8,0,0,1.08239X$1,22.5*
%
%ADD10C,0.0000*%
%ADD11C,0.0480*%
%ADD12C,0.0540*%
%ADD13OC8,0.0480*%
%ADD14C,0.0600*%
%ADD15C,0.0500*%
%ADD16R,0.0356X0.0356*%
%ADD17C,0.0400*%
D10*
X000100Y000100D02*
X000100Y039496D01*
X039464Y039496D01*
X039503Y000100D01*
X000100Y000100D01*
X003445Y004029D02*
X003447Y004079D01*
X003453Y004129D01*
X003463Y004178D01*
X003477Y004226D01*
X003494Y004273D01*
X003515Y004318D01*
X003540Y004362D01*
X003568Y004403D01*
X003600Y004442D01*
X003634Y004479D01*
X003671Y004513D01*
X003711Y004543D01*
X003753Y004570D01*
X003797Y004594D01*
X003843Y004615D01*
X003890Y004631D01*
X003938Y004644D01*
X003988Y004653D01*
X004037Y004658D01*
X004088Y004659D01*
X004138Y004656D01*
X004187Y004649D01*
X004236Y004638D01*
X004284Y004623D01*
X004330Y004605D01*
X004375Y004583D01*
X004418Y004557D01*
X004459Y004528D01*
X004498Y004496D01*
X004534Y004461D01*
X004566Y004423D01*
X004596Y004383D01*
X004623Y004340D01*
X004646Y004296D01*
X004665Y004250D01*
X004681Y004202D01*
X004693Y004153D01*
X004701Y004104D01*
X004705Y004054D01*
X004705Y004004D01*
X004701Y003954D01*
X004693Y003905D01*
X004681Y003856D01*
X004665Y003808D01*
X004646Y003762D01*
X004623Y003718D01*
X004596Y003675D01*
X004566Y003635D01*
X004534Y003597D01*
X004498Y003562D01*
X004459Y003530D01*
X004418Y003501D01*
X004375Y003475D01*
X004330Y003453D01*
X004284Y003435D01*
X004236Y003420D01*
X004187Y003409D01*
X004138Y003402D01*
X004088Y003399D01*
X004037Y003400D01*
X003988Y003405D01*
X003938Y003414D01*
X003890Y003427D01*
X003843Y003443D01*
X003797Y003464D01*
X003753Y003488D01*
X003711Y003515D01*
X003671Y003545D01*
X003634Y003579D01*
X003600Y003616D01*
X003568Y003655D01*
X003540Y003696D01*
X003515Y003740D01*
X003494Y003785D01*
X003477Y003832D01*
X003463Y003880D01*
X003453Y003929D01*
X003447Y003979D01*
X003445Y004029D01*
X001435Y031818D02*
X001437Y031868D01*
X001443Y031918D01*
X001453Y031968D01*
X001466Y032016D01*
X001483Y032064D01*
X001504Y032110D01*
X001528Y032154D01*
X001556Y032196D01*
X001587Y032236D01*
X001621Y032273D01*
X001658Y032308D01*
X001697Y032339D01*
X001738Y032368D01*
X001782Y032393D01*
X001828Y032415D01*
X001875Y032433D01*
X001923Y032447D01*
X001972Y032458D01*
X002022Y032465D01*
X002072Y032468D01*
X002123Y032467D01*
X002173Y032462D01*
X002223Y032453D01*
X002271Y032441D01*
X002319Y032424D01*
X002365Y032404D01*
X002410Y032381D01*
X002453Y032354D01*
X002493Y032324D01*
X002531Y032291D01*
X002566Y032255D01*
X002599Y032216D01*
X002628Y032175D01*
X002654Y032132D01*
X002677Y032087D01*
X002696Y032040D01*
X002711Y031992D01*
X002723Y031943D01*
X002731Y031893D01*
X002735Y031843D01*
X002735Y031793D01*
X002731Y031743D01*
X002723Y031693D01*
X002711Y031644D01*
X002696Y031596D01*
X002677Y031549D01*
X002654Y031504D01*
X002628Y031461D01*
X002599Y031420D01*
X002566Y031381D01*
X002531Y031345D01*
X002493Y031312D01*
X002453Y031282D01*
X002410Y031255D01*
X002365Y031232D01*
X002319Y031212D01*
X002271Y031195D01*
X002223Y031183D01*
X002173Y031174D01*
X002123Y031169D01*
X002072Y031168D01*
X002022Y031171D01*
X001972Y031178D01*
X001923Y031189D01*
X001875Y031203D01*
X001828Y031221D01*
X001782Y031243D01*
X001738Y031268D01*
X001697Y031297D01*
X001658Y031328D01*
X001621Y031363D01*
X001587Y031400D01*
X001556Y031440D01*
X001528Y031482D01*
X001504Y031526D01*
X001483Y031572D01*
X001466Y031620D01*
X001453Y031668D01*
X001443Y031718D01*
X001437Y031768D01*
X001435Y031818D01*
X003446Y035494D02*
X003448Y035544D01*
X003454Y035594D01*
X003464Y035643D01*
X003478Y035691D01*
X003495Y035738D01*
X003516Y035783D01*
X003541Y035827D01*
X003569Y035868D01*
X003601Y035907D01*
X003635Y035944D01*
X003672Y035978D01*
X003712Y036008D01*
X003754Y036035D01*
X003798Y036059D01*
X003844Y036080D01*
X003891Y036096D01*
X003939Y036109D01*
X003989Y036118D01*
X004038Y036123D01*
X004089Y036124D01*
X004139Y036121D01*
X004188Y036114D01*
X004237Y036103D01*
X004285Y036088D01*
X004331Y036070D01*
X004376Y036048D01*
X004419Y036022D01*
X004460Y035993D01*
X004499Y035961D01*
X004535Y035926D01*
X004567Y035888D01*
X004597Y035848D01*
X004624Y035805D01*
X004647Y035761D01*
X004666Y035715D01*
X004682Y035667D01*
X004694Y035618D01*
X004702Y035569D01*
X004706Y035519D01*
X004706Y035469D01*
X004702Y035419D01*
X004694Y035370D01*
X004682Y035321D01*
X004666Y035273D01*
X004647Y035227D01*
X004624Y035183D01*
X004597Y035140D01*
X004567Y035100D01*
X004535Y035062D01*
X004499Y035027D01*
X004460Y034995D01*
X004419Y034966D01*
X004376Y034940D01*
X004331Y034918D01*
X004285Y034900D01*
X004237Y034885D01*
X004188Y034874D01*
X004139Y034867D01*
X004089Y034864D01*
X004038Y034865D01*
X003989Y034870D01*
X003939Y034879D01*
X003891Y034892D01*
X003844Y034908D01*
X003798Y034929D01*
X003754Y034953D01*
X003712Y034980D01*
X003672Y035010D01*
X003635Y035044D01*
X003601Y035081D01*
X003569Y035120D01*
X003541Y035161D01*
X003516Y035205D01*
X003495Y035250D01*
X003478Y035297D01*
X003464Y035345D01*
X003454Y035394D01*
X003448Y035444D01*
X003446Y035494D01*
X034883Y035517D02*
X034885Y035567D01*
X034891Y035617D01*
X034901Y035666D01*
X034915Y035714D01*
X034932Y035761D01*
X034953Y035806D01*
X034978Y035850D01*
X035006Y035891D01*
X035038Y035930D01*
X035072Y035967D01*
X035109Y036001D01*
X035149Y036031D01*
X035191Y036058D01*
X035235Y036082D01*
X035281Y036103D01*
X035328Y036119D01*
X035376Y036132D01*
X035426Y036141D01*
X035475Y036146D01*
X035526Y036147D01*
X035576Y036144D01*
X035625Y036137D01*
X035674Y036126D01*
X035722Y036111D01*
X035768Y036093D01*
X035813Y036071D01*
X035856Y036045D01*
X035897Y036016D01*
X035936Y035984D01*
X035972Y035949D01*
X036004Y035911D01*
X036034Y035871D01*
X036061Y035828D01*
X036084Y035784D01*
X036103Y035738D01*
X036119Y035690D01*
X036131Y035641D01*
X036139Y035592D01*
X036143Y035542D01*
X036143Y035492D01*
X036139Y035442D01*
X036131Y035393D01*
X036119Y035344D01*
X036103Y035296D01*
X036084Y035250D01*
X036061Y035206D01*
X036034Y035163D01*
X036004Y035123D01*
X035972Y035085D01*
X035936Y035050D01*
X035897Y035018D01*
X035856Y034989D01*
X035813Y034963D01*
X035768Y034941D01*
X035722Y034923D01*
X035674Y034908D01*
X035625Y034897D01*
X035576Y034890D01*
X035526Y034887D01*
X035475Y034888D01*
X035426Y034893D01*
X035376Y034902D01*
X035328Y034915D01*
X035281Y034931D01*
X035235Y034952D01*
X035191Y034976D01*
X035149Y035003D01*
X035109Y035033D01*
X035072Y035067D01*
X035038Y035104D01*
X035006Y035143D01*
X034978Y035184D01*
X034953Y035228D01*
X034932Y035273D01*
X034915Y035320D01*
X034901Y035368D01*
X034891Y035417D01*
X034885Y035467D01*
X034883Y035517D01*
X034876Y004029D02*
X034878Y004079D01*
X034884Y004129D01*
X034894Y004178D01*
X034908Y004226D01*
X034925Y004273D01*
X034946Y004318D01*
X034971Y004362D01*
X034999Y004403D01*
X035031Y004442D01*
X035065Y004479D01*
X035102Y004513D01*
X035142Y004543D01*
X035184Y004570D01*
X035228Y004594D01*
X035274Y004615D01*
X035321Y004631D01*
X035369Y004644D01*
X035419Y004653D01*
X035468Y004658D01*
X035519Y004659D01*
X035569Y004656D01*
X035618Y004649D01*
X035667Y004638D01*
X035715Y004623D01*
X035761Y004605D01*
X035806Y004583D01*
X035849Y004557D01*
X035890Y004528D01*
X035929Y004496D01*
X035965Y004461D01*
X035997Y004423D01*
X036027Y004383D01*
X036054Y004340D01*
X036077Y004296D01*
X036096Y004250D01*
X036112Y004202D01*
X036124Y004153D01*
X036132Y004104D01*
X036136Y004054D01*
X036136Y004004D01*
X036132Y003954D01*
X036124Y003905D01*
X036112Y003856D01*
X036096Y003808D01*
X036077Y003762D01*
X036054Y003718D01*
X036027Y003675D01*
X035997Y003635D01*
X035965Y003597D01*
X035929Y003562D01*
X035890Y003530D01*
X035849Y003501D01*
X035806Y003475D01*
X035761Y003453D01*
X035715Y003435D01*
X035667Y003420D01*
X035618Y003409D01*
X035569Y003402D01*
X035519Y003399D01*
X035468Y003400D01*
X035419Y003405D01*
X035369Y003414D01*
X035321Y003427D01*
X035274Y003443D01*
X035228Y003464D01*
X035184Y003488D01*
X035142Y003515D01*
X035102Y003545D01*
X035065Y003579D01*
X035031Y003616D01*
X034999Y003655D01*
X034971Y003696D01*
X034946Y003740D01*
X034925Y003785D01*
X034908Y003832D01*
X034894Y003880D01*
X034884Y003929D01*
X034878Y003979D01*
X034876Y004029D01*
D11*
X023200Y002640D02*
X023200Y002160D01*
X021200Y002160D02*
X021200Y002640D01*
X020200Y002640D02*
X020200Y002160D01*
X018300Y002160D02*
X018300Y002640D01*
X017300Y002640D02*
X017300Y002160D01*
X002840Y017600D02*
X002360Y017600D01*
X002360Y019600D02*
X002840Y019600D01*
X002840Y020600D02*
X002360Y020600D01*
X002360Y022600D02*
X002840Y022600D01*
X002840Y023600D02*
X002360Y023600D01*
X017600Y037360D02*
X017600Y037840D01*
X019600Y037840D02*
X019600Y037360D01*
X020600Y037360D02*
X020600Y037840D01*
X022600Y037840D02*
X022600Y037360D01*
X023600Y037360D02*
X023600Y037840D01*
X036860Y022600D02*
X037340Y022600D01*
X037340Y020600D02*
X036860Y020600D01*
X036860Y019600D02*
X037340Y019600D01*
X037440Y017800D02*
X036960Y017800D01*
X036960Y016800D02*
X037440Y016800D01*
D12*
X023200Y011670D02*
X023200Y011130D01*
X022200Y011130D02*
X022200Y011670D01*
D13*
X025600Y011400D03*
X025600Y012400D03*
X025600Y014500D03*
X028300Y014600D03*
X028300Y012400D03*
X028300Y011400D03*
X032493Y016230D03*
X035493Y016230D03*
X028300Y018600D03*
X025600Y018500D03*
X017730Y021220D03*
X016980Y021720D03*
X017730Y022220D03*
X011698Y026295D03*
X008698Y026295D03*
X004033Y027031D03*
X004033Y028031D03*
X004033Y025464D03*
X004033Y024464D03*
X021853Y034919D03*
X024853Y034919D03*
X014171Y005872D03*
X014171Y002872D03*
D14*
X014400Y018100D02*
X013800Y018100D01*
X013800Y019100D02*
X014400Y019100D01*
X014400Y020100D02*
X013800Y020100D01*
X013800Y021100D02*
X014400Y021100D01*
X014400Y022100D02*
X013800Y022100D01*
X013800Y023100D02*
X014400Y023100D01*
X014400Y024100D02*
X013800Y024100D01*
X013800Y027100D02*
X014400Y027100D01*
X014400Y028100D02*
X013800Y028100D01*
X013800Y029100D02*
X014400Y029100D01*
X008285Y030818D02*
X007685Y030818D01*
X007685Y031818D02*
X008285Y031818D01*
X008285Y032818D02*
X007685Y032818D01*
D15*
X021769Y027843D03*
X021769Y027056D03*
X021769Y026269D03*
X021769Y025481D03*
X021769Y024694D03*
X021769Y023906D03*
X021769Y023119D03*
X021769Y022331D03*
X021769Y021544D03*
X021769Y020757D03*
X030431Y020757D03*
X030431Y021544D03*
X030431Y022331D03*
X030431Y023119D03*
X030431Y023906D03*
X030431Y024694D03*
X030431Y025481D03*
X030431Y026269D03*
X030431Y027056D03*
X030431Y027843D03*
D16*
X033500Y022600D03*
X035300Y021500D03*
X030876Y019257D03*
X028281Y020317D03*
X025612Y020344D03*
X022970Y017570D03*
X021060Y019060D03*
X018800Y020000D03*
X016340Y019440D03*
X016150Y021100D03*
X015380Y023663D03*
X015080Y025330D03*
X017502Y027108D03*
X017502Y028092D03*
X019600Y028900D03*
X021900Y032000D03*
X021852Y033836D03*
X020600Y034500D03*
X019700Y032700D03*
X016700Y033600D03*
X010799Y032997D03*
X009400Y030300D03*
X011698Y027184D03*
X012389Y026180D03*
X012700Y023100D03*
X012800Y021200D03*
X010100Y022100D03*
X008700Y025400D03*
X006800Y025400D03*
X005633Y028031D03*
X001948Y024746D03*
X006700Y020600D03*
X011600Y016090D03*
X023100Y010300D03*
X023200Y007800D03*
X025596Y013553D03*
X028289Y013509D03*
X036900Y015700D03*
X024494Y036694D03*
X015218Y002399D03*
D17*
X015218Y002400D01*
X014465Y002400D01*
X014171Y002694D01*
X014171Y002872D01*
X014171Y005872D02*
X014186Y005887D01*
X022659Y005887D01*
X023372Y006600D01*
X023400Y006600D01*
X024800Y008000D01*
X024800Y008600D01*
X029033Y008600D01*
X032502Y012069D01*
X032493Y012069D01*
X032493Y016230D01*
X035493Y016230D02*
X035978Y016230D01*
X036517Y015691D01*
X036527Y015700D01*
X036900Y015700D01*
X035300Y021500D02*
X035300Y025700D01*
X029000Y032000D01*
X026600Y032000D01*
X026700Y031900D01*
X026600Y032000D02*
X021900Y032000D01*
X021899Y031999D01*
X021899Y029513D01*
X021470Y029084D01*
X021454Y029084D01*
X020000Y027630D01*
X020000Y024764D01*
X018332Y024764D01*
X015667Y022100D01*
X014100Y022100D01*
X013700Y022100D01*
X012800Y021200D01*
X011900Y022100D01*
X010100Y022100D01*
X006950Y025290D01*
X006800Y025400D01*
X005864Y024464D01*
X004033Y024464D01*
X004033Y025464D02*
X004033Y025464D01*
X004033Y027031D01*
X001948Y024946D01*
X001948Y024746D01*
X004033Y028031D02*
X004899Y028031D01*
X005633Y028031D01*
X006399Y029233D02*
X007985Y030818D01*
X007985Y031818D02*
X009911Y031818D01*
X010415Y031315D01*
X009400Y030300D01*
X010415Y031315D02*
X014600Y035500D01*
X018200Y035500D01*
X018600Y035100D01*
X018600Y033400D01*
X017800Y032600D01*
X017800Y030700D01*
X019600Y028900D01*
X017502Y028092D02*
X017494Y028100D01*
X014100Y028100D01*
X014100Y027100D02*
X017494Y027100D01*
X017502Y027108D01*
X015380Y025097D02*
X015080Y025330D01*
X015380Y025097D02*
X015380Y024983D01*
X015380Y024916D01*
X015380Y023663D01*
X014100Y024100D02*
X013265Y024100D01*
X013021Y024344D01*
X013021Y029921D01*
X016700Y033600D01*
X019700Y032700D02*
X020600Y033600D01*
X020600Y034500D01*
X021852Y034918D02*
X021852Y033836D01*
X021852Y034918D02*
X021853Y034919D01*
X024494Y036694D02*
X024857Y036300D01*
X024853Y034919D01*
X020000Y024764D02*
X020000Y024664D01*
X019900Y024764D01*
X020000Y024664D02*
X020000Y020300D01*
X019700Y020000D01*
X018800Y020000D01*
X017040Y018740D02*
X016340Y019440D01*
X015680Y020100D01*
X014100Y020100D01*
X014100Y019100D02*
X015340Y019100D01*
X016870Y017570D01*
X022970Y017570D01*
X021060Y019060D02*
X021020Y019060D01*
X020700Y018740D01*
X017040Y018740D01*
X016150Y021100D02*
X014100Y021100D01*
X014100Y023100D02*
X012700Y023100D01*
X010399Y020600D02*
X011604Y019395D01*
X011600Y019391D01*
X011600Y016090D01*
X014100Y016890D02*
X014100Y018100D01*
X014100Y016890D02*
X016190Y014800D01*
X016200Y014800D01*
X023200Y007800D01*
X024800Y008600D02*
X023100Y010300D01*
X025596Y013553D02*
X025596Y014496D01*
X025600Y014500D01*
X028289Y014589D02*
X028289Y013509D01*
X028289Y014589D02*
X028300Y014600D01*
X028300Y018600D02*
X028300Y020298D01*
X028281Y020317D01*
X030876Y019257D02*
X030957Y019257D01*
X033300Y021600D01*
X033300Y022400D01*
X033500Y022600D01*
X025612Y020344D02*
X025600Y020332D01*
X025600Y018500D01*
X012389Y026180D02*
X012371Y026198D01*
X011702Y026198D01*
X011698Y026295D02*
X011698Y027183D01*
X011698Y027184D01*
X008700Y026293D02*
X008700Y025400D01*
X008700Y026293D02*
X008698Y026295D01*
X006800Y025400D02*
X006399Y025801D01*
X006399Y029233D01*
X007985Y032818D02*
X010620Y032818D01*
X010799Y032997D01*
X010399Y020600D02*
X006700Y020600D01*
M02*
