G75*
%MOIN*%
%OFA0B0*%
%FSLAX24Y24*%
%IPPOS*%
%LPD*%
%AMOC8*
5,1,8,0,0,1.08239X$1,22.5*
%
%ADD10C,0.0000*%
%ADD11C,0.0060*%
%ADD12C,0.0160*%
%ADD13C,0.0120*%
%ADD14C,0.0100*%
%ADD15C,0.0050*%
%ADD16R,0.0240X0.0340*%
%ADD17C,0.0080*%
%ADD18C,0.0040*%
D10*
X000100Y000100D02*
X000100Y039496D01*
X039464Y039496D01*
X039503Y000100D01*
X000100Y000100D01*
X003445Y004029D02*
X003447Y004079D01*
X003453Y004129D01*
X003463Y004178D01*
X003477Y004226D01*
X003494Y004273D01*
X003515Y004318D01*
X003540Y004362D01*
X003568Y004403D01*
X003600Y004442D01*
X003634Y004479D01*
X003671Y004513D01*
X003711Y004543D01*
X003753Y004570D01*
X003797Y004594D01*
X003843Y004615D01*
X003890Y004631D01*
X003938Y004644D01*
X003988Y004653D01*
X004037Y004658D01*
X004088Y004659D01*
X004138Y004656D01*
X004187Y004649D01*
X004236Y004638D01*
X004284Y004623D01*
X004330Y004605D01*
X004375Y004583D01*
X004418Y004557D01*
X004459Y004528D01*
X004498Y004496D01*
X004534Y004461D01*
X004566Y004423D01*
X004596Y004383D01*
X004623Y004340D01*
X004646Y004296D01*
X004665Y004250D01*
X004681Y004202D01*
X004693Y004153D01*
X004701Y004104D01*
X004705Y004054D01*
X004705Y004004D01*
X004701Y003954D01*
X004693Y003905D01*
X004681Y003856D01*
X004665Y003808D01*
X004646Y003762D01*
X004623Y003718D01*
X004596Y003675D01*
X004566Y003635D01*
X004534Y003597D01*
X004498Y003562D01*
X004459Y003530D01*
X004418Y003501D01*
X004375Y003475D01*
X004330Y003453D01*
X004284Y003435D01*
X004236Y003420D01*
X004187Y003409D01*
X004138Y003402D01*
X004088Y003399D01*
X004037Y003400D01*
X003988Y003405D01*
X003938Y003414D01*
X003890Y003427D01*
X003843Y003443D01*
X003797Y003464D01*
X003753Y003488D01*
X003711Y003515D01*
X003671Y003545D01*
X003634Y003579D01*
X003600Y003616D01*
X003568Y003655D01*
X003540Y003696D01*
X003515Y003740D01*
X003494Y003785D01*
X003477Y003832D01*
X003463Y003880D01*
X003453Y003929D01*
X003447Y003979D01*
X003445Y004029D01*
X001435Y031818D02*
X001437Y031868D01*
X001443Y031918D01*
X001453Y031968D01*
X001466Y032016D01*
X001483Y032064D01*
X001504Y032110D01*
X001528Y032154D01*
X001556Y032196D01*
X001587Y032236D01*
X001621Y032273D01*
X001658Y032308D01*
X001697Y032339D01*
X001738Y032368D01*
X001782Y032393D01*
X001828Y032415D01*
X001875Y032433D01*
X001923Y032447D01*
X001972Y032458D01*
X002022Y032465D01*
X002072Y032468D01*
X002123Y032467D01*
X002173Y032462D01*
X002223Y032453D01*
X002271Y032441D01*
X002319Y032424D01*
X002365Y032404D01*
X002410Y032381D01*
X002453Y032354D01*
X002493Y032324D01*
X002531Y032291D01*
X002566Y032255D01*
X002599Y032216D01*
X002628Y032175D01*
X002654Y032132D01*
X002677Y032087D01*
X002696Y032040D01*
X002711Y031992D01*
X002723Y031943D01*
X002731Y031893D01*
X002735Y031843D01*
X002735Y031793D01*
X002731Y031743D01*
X002723Y031693D01*
X002711Y031644D01*
X002696Y031596D01*
X002677Y031549D01*
X002654Y031504D01*
X002628Y031461D01*
X002599Y031420D01*
X002566Y031381D01*
X002531Y031345D01*
X002493Y031312D01*
X002453Y031282D01*
X002410Y031255D01*
X002365Y031232D01*
X002319Y031212D01*
X002271Y031195D01*
X002223Y031183D01*
X002173Y031174D01*
X002123Y031169D01*
X002072Y031168D01*
X002022Y031171D01*
X001972Y031178D01*
X001923Y031189D01*
X001875Y031203D01*
X001828Y031221D01*
X001782Y031243D01*
X001738Y031268D01*
X001697Y031297D01*
X001658Y031328D01*
X001621Y031363D01*
X001587Y031400D01*
X001556Y031440D01*
X001528Y031482D01*
X001504Y031526D01*
X001483Y031572D01*
X001466Y031620D01*
X001453Y031668D01*
X001443Y031718D01*
X001437Y031768D01*
X001435Y031818D01*
X003446Y035494D02*
X003448Y035544D01*
X003454Y035594D01*
X003464Y035643D01*
X003478Y035691D01*
X003495Y035738D01*
X003516Y035783D01*
X003541Y035827D01*
X003569Y035868D01*
X003601Y035907D01*
X003635Y035944D01*
X003672Y035978D01*
X003712Y036008D01*
X003754Y036035D01*
X003798Y036059D01*
X003844Y036080D01*
X003891Y036096D01*
X003939Y036109D01*
X003989Y036118D01*
X004038Y036123D01*
X004089Y036124D01*
X004139Y036121D01*
X004188Y036114D01*
X004237Y036103D01*
X004285Y036088D01*
X004331Y036070D01*
X004376Y036048D01*
X004419Y036022D01*
X004460Y035993D01*
X004499Y035961D01*
X004535Y035926D01*
X004567Y035888D01*
X004597Y035848D01*
X004624Y035805D01*
X004647Y035761D01*
X004666Y035715D01*
X004682Y035667D01*
X004694Y035618D01*
X004702Y035569D01*
X004706Y035519D01*
X004706Y035469D01*
X004702Y035419D01*
X004694Y035370D01*
X004682Y035321D01*
X004666Y035273D01*
X004647Y035227D01*
X004624Y035183D01*
X004597Y035140D01*
X004567Y035100D01*
X004535Y035062D01*
X004499Y035027D01*
X004460Y034995D01*
X004419Y034966D01*
X004376Y034940D01*
X004331Y034918D01*
X004285Y034900D01*
X004237Y034885D01*
X004188Y034874D01*
X004139Y034867D01*
X004089Y034864D01*
X004038Y034865D01*
X003989Y034870D01*
X003939Y034879D01*
X003891Y034892D01*
X003844Y034908D01*
X003798Y034929D01*
X003754Y034953D01*
X003712Y034980D01*
X003672Y035010D01*
X003635Y035044D01*
X003601Y035081D01*
X003569Y035120D01*
X003541Y035161D01*
X003516Y035205D01*
X003495Y035250D01*
X003478Y035297D01*
X003464Y035345D01*
X003454Y035394D01*
X003448Y035444D01*
X003446Y035494D01*
X034883Y035517D02*
X034885Y035567D01*
X034891Y035617D01*
X034901Y035666D01*
X034915Y035714D01*
X034932Y035761D01*
X034953Y035806D01*
X034978Y035850D01*
X035006Y035891D01*
X035038Y035930D01*
X035072Y035967D01*
X035109Y036001D01*
X035149Y036031D01*
X035191Y036058D01*
X035235Y036082D01*
X035281Y036103D01*
X035328Y036119D01*
X035376Y036132D01*
X035426Y036141D01*
X035475Y036146D01*
X035526Y036147D01*
X035576Y036144D01*
X035625Y036137D01*
X035674Y036126D01*
X035722Y036111D01*
X035768Y036093D01*
X035813Y036071D01*
X035856Y036045D01*
X035897Y036016D01*
X035936Y035984D01*
X035972Y035949D01*
X036004Y035911D01*
X036034Y035871D01*
X036061Y035828D01*
X036084Y035784D01*
X036103Y035738D01*
X036119Y035690D01*
X036131Y035641D01*
X036139Y035592D01*
X036143Y035542D01*
X036143Y035492D01*
X036139Y035442D01*
X036131Y035393D01*
X036119Y035344D01*
X036103Y035296D01*
X036084Y035250D01*
X036061Y035206D01*
X036034Y035163D01*
X036004Y035123D01*
X035972Y035085D01*
X035936Y035050D01*
X035897Y035018D01*
X035856Y034989D01*
X035813Y034963D01*
X035768Y034941D01*
X035722Y034923D01*
X035674Y034908D01*
X035625Y034897D01*
X035576Y034890D01*
X035526Y034887D01*
X035475Y034888D01*
X035426Y034893D01*
X035376Y034902D01*
X035328Y034915D01*
X035281Y034931D01*
X035235Y034952D01*
X035191Y034976D01*
X035149Y035003D01*
X035109Y035033D01*
X035072Y035067D01*
X035038Y035104D01*
X035006Y035143D01*
X034978Y035184D01*
X034953Y035228D01*
X034932Y035273D01*
X034915Y035320D01*
X034901Y035368D01*
X034891Y035417D01*
X034885Y035467D01*
X034883Y035517D01*
X034876Y004029D02*
X034878Y004079D01*
X034884Y004129D01*
X034894Y004178D01*
X034908Y004226D01*
X034925Y004273D01*
X034946Y004318D01*
X034971Y004362D01*
X034999Y004403D01*
X035031Y004442D01*
X035065Y004479D01*
X035102Y004513D01*
X035142Y004543D01*
X035184Y004570D01*
X035228Y004594D01*
X035274Y004615D01*
X035321Y004631D01*
X035369Y004644D01*
X035419Y004653D01*
X035468Y004658D01*
X035519Y004659D01*
X035569Y004656D01*
X035618Y004649D01*
X035667Y004638D01*
X035715Y004623D01*
X035761Y004605D01*
X035806Y004583D01*
X035849Y004557D01*
X035890Y004528D01*
X035929Y004496D01*
X035965Y004461D01*
X035997Y004423D01*
X036027Y004383D01*
X036054Y004340D01*
X036077Y004296D01*
X036096Y004250D01*
X036112Y004202D01*
X036124Y004153D01*
X036132Y004104D01*
X036136Y004054D01*
X036136Y004004D01*
X036132Y003954D01*
X036124Y003905D01*
X036112Y003856D01*
X036096Y003808D01*
X036077Y003762D01*
X036054Y003718D01*
X036027Y003675D01*
X035997Y003635D01*
X035965Y003597D01*
X035929Y003562D01*
X035890Y003530D01*
X035849Y003501D01*
X035806Y003475D01*
X035761Y003453D01*
X035715Y003435D01*
X035667Y003420D01*
X035618Y003409D01*
X035569Y003402D01*
X035519Y003399D01*
X035468Y003400D01*
X035419Y003405D01*
X035369Y003414D01*
X035321Y003427D01*
X035274Y003443D01*
X035228Y003464D01*
X035184Y003488D01*
X035142Y003515D01*
X035102Y003545D01*
X035065Y003579D01*
X035031Y003616D01*
X034999Y003655D01*
X034971Y003696D01*
X034946Y003740D01*
X034925Y003785D01*
X034908Y003832D01*
X034894Y003880D01*
X034884Y003929D01*
X034878Y003979D01*
X034876Y004029D01*
D11*
X027700Y011900D02*
X027702Y011945D01*
X027707Y011991D01*
X027715Y012035D01*
X027727Y012079D01*
X027743Y012122D01*
X027761Y012164D01*
X027783Y012204D01*
X027807Y012242D01*
X027834Y012278D01*
X027864Y012313D01*
X027897Y012344D01*
X027932Y012374D01*
X028900Y011900D02*
X028898Y011853D01*
X028892Y011805D01*
X028883Y011759D01*
X028870Y011713D01*
X028854Y011669D01*
X028833Y011625D01*
X028810Y011584D01*
X028784Y011545D01*
X028754Y011508D01*
X028721Y011473D01*
X028686Y011441D01*
X028649Y011412D01*
X028900Y011900D02*
X028898Y011946D01*
X028893Y011992D01*
X028884Y012038D01*
X028872Y012083D01*
X028856Y012126D01*
X028837Y012168D01*
X028814Y012209D01*
X028789Y012248D01*
X028761Y012284D01*
X028730Y012319D01*
X028696Y012351D01*
X028660Y012380D01*
X027700Y011900D02*
X027702Y011855D01*
X027707Y011809D01*
X027715Y011765D01*
X027727Y011721D01*
X027743Y011678D01*
X027761Y011636D01*
X027783Y011596D01*
X027807Y011558D01*
X027834Y011522D01*
X027864Y011487D01*
X027897Y011456D01*
X027932Y011426D01*
X025232Y012374D02*
X025197Y012344D01*
X025164Y012313D01*
X025134Y012278D01*
X025107Y012242D01*
X025083Y012204D01*
X025061Y012164D01*
X025043Y012122D01*
X025027Y012079D01*
X025015Y012035D01*
X025007Y011991D01*
X025002Y011945D01*
X025000Y011900D01*
X025960Y012380D02*
X025996Y012351D01*
X026030Y012319D01*
X026061Y012284D01*
X026089Y012248D01*
X026114Y012209D01*
X026137Y012168D01*
X026156Y012126D01*
X026172Y012083D01*
X026184Y012038D01*
X026193Y011992D01*
X026198Y011946D01*
X026200Y011900D01*
X025232Y011426D02*
X025197Y011456D01*
X025164Y011487D01*
X025134Y011522D01*
X025107Y011558D01*
X025083Y011596D01*
X025061Y011636D01*
X025043Y011678D01*
X025027Y011721D01*
X025015Y011765D01*
X025007Y011809D01*
X025002Y011855D01*
X025000Y011900D01*
X025949Y011412D02*
X025986Y011441D01*
X026021Y011473D01*
X026054Y011508D01*
X026084Y011545D01*
X026110Y011584D01*
X026133Y011625D01*
X026154Y011669D01*
X026170Y011713D01*
X026183Y011759D01*
X026192Y011805D01*
X026198Y011853D01*
X026200Y011900D01*
X023700Y011800D02*
X023700Y011000D01*
X023600Y010900D01*
X022800Y010900D01*
X022700Y011000D01*
X022600Y010900D01*
X021800Y010900D01*
X021700Y011000D01*
X021700Y011800D01*
X021800Y011900D01*
X022600Y011900D01*
X022700Y011800D01*
X022800Y011900D01*
X023600Y011900D01*
X023700Y011800D01*
X025250Y015250D02*
X025950Y015250D01*
X025967Y015252D01*
X025984Y015256D01*
X026000Y015263D01*
X026014Y015273D01*
X026027Y015286D01*
X026037Y015300D01*
X026044Y015316D01*
X026048Y015333D01*
X026050Y015350D01*
X026050Y015500D01*
X026000Y015550D01*
X026000Y017450D01*
X026050Y017500D01*
X026050Y017650D01*
X026048Y017667D01*
X026044Y017684D01*
X026037Y017700D01*
X026027Y017714D01*
X026014Y017727D01*
X026000Y017737D01*
X025984Y017744D01*
X025967Y017748D01*
X025950Y017750D01*
X025250Y017750D01*
X025233Y017748D01*
X025216Y017744D01*
X025200Y017737D01*
X025186Y017727D01*
X025173Y017714D01*
X025163Y017700D01*
X025156Y017684D01*
X025152Y017667D01*
X025150Y017650D01*
X025150Y017500D01*
X025200Y017450D01*
X025200Y015550D01*
X025150Y015500D01*
X025150Y015350D01*
X025152Y015333D01*
X025156Y015316D01*
X025163Y015300D01*
X025173Y015286D01*
X025186Y015273D01*
X025200Y015263D01*
X025216Y015256D01*
X025233Y015252D01*
X025250Y015250D01*
X027850Y015450D02*
X027850Y015600D01*
X027900Y015650D01*
X027900Y017550D01*
X027850Y017600D01*
X027850Y017750D01*
X027852Y017767D01*
X027856Y017784D01*
X027863Y017800D01*
X027873Y017814D01*
X027886Y017827D01*
X027900Y017837D01*
X027916Y017844D01*
X027933Y017848D01*
X027950Y017850D01*
X028650Y017850D01*
X028667Y017848D01*
X028684Y017844D01*
X028700Y017837D01*
X028714Y017827D01*
X028727Y017814D01*
X028737Y017800D01*
X028744Y017784D01*
X028748Y017767D01*
X028750Y017750D01*
X028750Y017600D01*
X028700Y017550D01*
X028700Y015650D01*
X028750Y015600D01*
X028750Y015450D01*
X028748Y015433D01*
X028744Y015416D01*
X028737Y015400D01*
X028727Y015386D01*
X028714Y015373D01*
X028700Y015363D01*
X028684Y015356D01*
X028667Y015352D01*
X028650Y015350D01*
X027950Y015350D01*
X027933Y015352D01*
X027916Y015356D01*
X027900Y015363D01*
X027886Y015373D01*
X027873Y015386D01*
X027863Y015400D01*
X027856Y015416D01*
X027852Y015433D01*
X027850Y015450D01*
X029028Y023341D02*
X022800Y023341D01*
X022800Y025429D02*
X029028Y025429D01*
X036228Y024168D02*
X036228Y023528D01*
X036228Y023741D02*
X036549Y023741D01*
X036655Y023848D01*
X036655Y024061D01*
X036549Y024168D01*
X036228Y024168D01*
X036442Y023741D02*
X036655Y023528D01*
X036873Y023528D02*
X037300Y024168D01*
X037518Y023848D02*
X037945Y023848D01*
X037838Y023528D02*
X037838Y024168D01*
X037518Y023848D01*
X037300Y023528D02*
X036873Y024168D01*
X037553Y017905D02*
X037597Y017877D01*
X037639Y017846D01*
X037678Y017811D01*
X037715Y017774D01*
X037749Y017735D01*
X037779Y017693D01*
X037807Y017649D01*
X037831Y017603D01*
X037852Y017555D01*
X037869Y017505D01*
X037883Y017455D01*
X037892Y017404D01*
X037898Y017352D01*
X037900Y017300D01*
X036150Y017300D02*
X036152Y017365D01*
X036158Y017429D01*
X036168Y017493D01*
X036182Y017556D01*
X036199Y017618D01*
X036221Y017679D01*
X036246Y017739D01*
X036275Y017797D01*
X036307Y017853D01*
X036343Y017907D01*
X036382Y017958D01*
X036424Y018007D01*
X036469Y018054D01*
X036517Y018097D01*
X036567Y018138D01*
X036620Y018175D01*
X036675Y018209D01*
X036732Y018240D01*
X036791Y018267D01*
X036851Y018290D01*
X036913Y018310D01*
X036975Y018326D01*
X037039Y018338D01*
X037103Y018346D01*
X037168Y018350D01*
X037232Y018350D01*
X037297Y018346D01*
X037361Y018338D01*
X037425Y018326D01*
X037487Y018310D01*
X037549Y018290D01*
X037609Y018267D01*
X037668Y018240D01*
X037725Y018209D01*
X037780Y018175D01*
X037833Y018138D01*
X037883Y018097D01*
X037931Y018054D01*
X037976Y018007D01*
X038018Y017958D01*
X038057Y017907D01*
X038093Y017853D01*
X038125Y017797D01*
X038154Y017739D01*
X038179Y017679D01*
X038201Y017618D01*
X038218Y017556D01*
X038232Y017493D01*
X038242Y017429D01*
X038248Y017365D01*
X038250Y017300D01*
X038248Y017235D01*
X038242Y017171D01*
X038232Y017107D01*
X038218Y017044D01*
X038201Y016982D01*
X038179Y016921D01*
X038154Y016861D01*
X038125Y016803D01*
X038093Y016747D01*
X038057Y016693D01*
X038018Y016642D01*
X037976Y016593D01*
X037931Y016546D01*
X037883Y016503D01*
X037833Y016462D01*
X037780Y016425D01*
X037725Y016391D01*
X037668Y016360D01*
X037609Y016333D01*
X037549Y016310D01*
X037487Y016290D01*
X037425Y016274D01*
X037361Y016262D01*
X037297Y016254D01*
X037232Y016250D01*
X037168Y016250D01*
X037103Y016254D01*
X037039Y016262D01*
X036975Y016274D01*
X036913Y016290D01*
X036851Y016310D01*
X036791Y016333D01*
X036732Y016360D01*
X036675Y016391D01*
X036620Y016425D01*
X036567Y016462D01*
X036517Y016503D01*
X036469Y016546D01*
X036424Y016593D01*
X036382Y016642D01*
X036343Y016693D01*
X036307Y016747D01*
X036275Y016803D01*
X036246Y016861D01*
X036221Y016921D01*
X036199Y016982D01*
X036182Y017044D01*
X036168Y017107D01*
X036158Y017171D01*
X036152Y017235D01*
X036150Y017300D01*
X036350Y016700D02*
X036100Y016450D01*
X036350Y016200D01*
X036600Y016450D01*
X037553Y016695D02*
X037597Y016723D01*
X037639Y016754D01*
X037678Y016789D01*
X037715Y016826D01*
X037749Y016865D01*
X037779Y016907D01*
X037807Y016951D01*
X037831Y016997D01*
X037852Y017045D01*
X037869Y017095D01*
X037883Y017145D01*
X037892Y017196D01*
X037898Y017248D01*
X037900Y017300D01*
X036847Y016695D02*
X036803Y016723D01*
X036761Y016754D01*
X036722Y016789D01*
X036685Y016826D01*
X036651Y016865D01*
X036621Y016907D01*
X036593Y016951D01*
X036569Y016997D01*
X036548Y017045D01*
X036531Y017095D01*
X036517Y017145D01*
X036508Y017196D01*
X036502Y017248D01*
X036500Y017300D01*
X036502Y017352D01*
X036508Y017404D01*
X036517Y017455D01*
X036531Y017505D01*
X036548Y017555D01*
X036569Y017603D01*
X036593Y017649D01*
X036621Y017693D01*
X036651Y017735D01*
X036685Y017774D01*
X036722Y017811D01*
X036761Y017846D01*
X036803Y017877D01*
X036847Y017905D01*
X025716Y002755D02*
X025502Y002755D01*
X025395Y002648D01*
X025178Y002755D02*
X024751Y002114D01*
X024533Y002114D02*
X024320Y002328D01*
X024427Y002328D02*
X024106Y002328D01*
X024106Y002114D02*
X024106Y002755D01*
X024427Y002755D01*
X024533Y002648D01*
X024533Y002435D01*
X024427Y002328D01*
X024751Y002755D02*
X025178Y002114D01*
X025395Y002114D02*
X025823Y002541D01*
X025823Y002648D01*
X025716Y002755D01*
X025823Y002114D02*
X025395Y002114D01*
X018405Y002047D02*
X018377Y002003D01*
X018346Y001961D01*
X018311Y001922D01*
X018274Y001885D01*
X018235Y001851D01*
X018193Y001821D01*
X018149Y001793D01*
X018103Y001769D01*
X018055Y001748D01*
X018005Y001731D01*
X017955Y001717D01*
X017904Y001708D01*
X017852Y001702D01*
X017800Y001700D01*
X017195Y002753D02*
X017223Y002797D01*
X017254Y002839D01*
X017289Y002878D01*
X017326Y002915D01*
X017365Y002949D01*
X017407Y002979D01*
X017451Y003007D01*
X017497Y003031D01*
X017545Y003052D01*
X017595Y003069D01*
X017645Y003083D01*
X017696Y003092D01*
X017748Y003098D01*
X017800Y003100D01*
X017200Y003250D02*
X016950Y003500D01*
X016700Y003250D01*
X016950Y003000D01*
X017195Y002047D02*
X017223Y002003D01*
X017254Y001961D01*
X017289Y001922D01*
X017326Y001885D01*
X017365Y001851D01*
X017407Y001821D01*
X017451Y001793D01*
X017497Y001769D01*
X017545Y001748D01*
X017595Y001731D01*
X017645Y001717D01*
X017696Y001708D01*
X017748Y001702D01*
X017800Y001700D01*
X018405Y002753D02*
X018377Y002797D01*
X018346Y002839D01*
X018311Y002878D01*
X018274Y002915D01*
X018235Y002949D01*
X018193Y002979D01*
X018149Y003007D01*
X018103Y003031D01*
X018055Y003052D01*
X018005Y003069D01*
X017955Y003083D01*
X017904Y003092D01*
X017852Y003098D01*
X017800Y003100D01*
X016750Y002400D02*
X016752Y002465D01*
X016758Y002529D01*
X016768Y002593D01*
X016782Y002656D01*
X016799Y002718D01*
X016821Y002779D01*
X016846Y002839D01*
X016875Y002897D01*
X016907Y002953D01*
X016943Y003007D01*
X016982Y003058D01*
X017024Y003107D01*
X017069Y003154D01*
X017117Y003197D01*
X017167Y003238D01*
X017220Y003275D01*
X017275Y003309D01*
X017332Y003340D01*
X017391Y003367D01*
X017451Y003390D01*
X017513Y003410D01*
X017575Y003426D01*
X017639Y003438D01*
X017703Y003446D01*
X017768Y003450D01*
X017832Y003450D01*
X017897Y003446D01*
X017961Y003438D01*
X018025Y003426D01*
X018087Y003410D01*
X018149Y003390D01*
X018209Y003367D01*
X018268Y003340D01*
X018325Y003309D01*
X018380Y003275D01*
X018433Y003238D01*
X018483Y003197D01*
X018531Y003154D01*
X018576Y003107D01*
X018618Y003058D01*
X018657Y003007D01*
X018693Y002953D01*
X018725Y002897D01*
X018754Y002839D01*
X018779Y002779D01*
X018801Y002718D01*
X018818Y002656D01*
X018832Y002593D01*
X018842Y002529D01*
X018848Y002465D01*
X018850Y002400D01*
X018848Y002335D01*
X018842Y002271D01*
X018832Y002207D01*
X018818Y002144D01*
X018801Y002082D01*
X018779Y002021D01*
X018754Y001961D01*
X018725Y001903D01*
X018693Y001847D01*
X018657Y001793D01*
X018618Y001742D01*
X018576Y001693D01*
X018531Y001646D01*
X018483Y001603D01*
X018433Y001562D01*
X018380Y001525D01*
X018325Y001491D01*
X018268Y001460D01*
X018209Y001433D01*
X018149Y001410D01*
X018087Y001390D01*
X018025Y001374D01*
X017961Y001362D01*
X017897Y001354D01*
X017832Y001350D01*
X017768Y001350D01*
X017703Y001354D01*
X017639Y001362D01*
X017575Y001374D01*
X017513Y001390D01*
X017451Y001410D01*
X017391Y001433D01*
X017332Y001460D01*
X017275Y001491D01*
X017220Y001525D01*
X017167Y001562D01*
X017117Y001603D01*
X017069Y001646D01*
X017024Y001693D01*
X016982Y001742D01*
X016943Y001793D01*
X016907Y001847D01*
X016875Y001903D01*
X016846Y001961D01*
X016821Y002021D01*
X016799Y002082D01*
X016782Y002144D01*
X016768Y002207D01*
X016758Y002271D01*
X016752Y002335D01*
X016750Y002400D01*
X012598Y006469D02*
X012598Y006896D01*
X012171Y006469D01*
X012278Y006363D01*
X012491Y006363D01*
X012598Y006469D01*
X012171Y006469D02*
X012171Y006896D01*
X012278Y007003D01*
X012491Y007003D01*
X012598Y006896D01*
X011956Y006469D02*
X011956Y006363D01*
X011849Y006363D01*
X011849Y006469D01*
X011956Y006469D01*
X011631Y006363D02*
X011204Y006363D01*
X011631Y006790D01*
X011631Y006896D01*
X011525Y007003D01*
X011311Y007003D01*
X011204Y006896D01*
X010342Y007003D02*
X010342Y006363D01*
X009915Y007003D01*
X009915Y006363D01*
X009698Y006469D02*
X009698Y006896D01*
X009591Y007003D01*
X009377Y007003D01*
X009271Y006896D01*
X009271Y006469D01*
X009377Y006363D01*
X009591Y006363D01*
X009698Y006469D01*
X009054Y006363D02*
X008841Y006363D01*
X008948Y006363D02*
X008948Y007003D01*
X009054Y007003D02*
X008841Y007003D01*
X008623Y006896D02*
X008517Y007003D01*
X008303Y007003D01*
X008196Y006896D01*
X008196Y006790D01*
X008303Y006683D01*
X008517Y006683D01*
X008623Y006576D01*
X008623Y006469D01*
X008517Y006363D01*
X008303Y006363D01*
X008196Y006469D01*
X007979Y006363D02*
X007765Y006576D01*
X007872Y006576D02*
X007552Y006576D01*
X007552Y006363D02*
X007552Y007003D01*
X007872Y007003D01*
X007979Y006896D01*
X007979Y006683D01*
X007872Y006576D01*
X007334Y006363D02*
X006907Y006363D01*
X006907Y007003D01*
X007334Y007003D01*
X007121Y006683D02*
X006907Y006683D01*
X006690Y006576D02*
X006690Y007003D01*
X006690Y006576D02*
X006476Y006363D01*
X006263Y006576D01*
X006263Y007003D01*
X006232Y008258D02*
X006018Y008471D01*
X006125Y008471D02*
X005805Y008471D01*
X005805Y008258D02*
X005805Y008898D01*
X006125Y008898D01*
X006232Y008792D01*
X006232Y008578D01*
X006125Y008471D01*
X006449Y008578D02*
X006876Y008578D01*
X006876Y008685D02*
X006876Y008258D01*
X007094Y008258D02*
X007094Y008898D01*
X007521Y008258D01*
X007521Y008898D01*
X007738Y008792D02*
X007738Y008685D01*
X007845Y008578D01*
X008058Y008578D01*
X008165Y008471D01*
X008165Y008364D01*
X008058Y008258D01*
X007845Y008258D01*
X007738Y008364D01*
X007738Y008792D02*
X007845Y008898D01*
X008058Y008898D01*
X008165Y008792D01*
X008383Y008898D02*
X008703Y008898D01*
X008810Y008792D01*
X008810Y008578D01*
X008703Y008471D01*
X008383Y008471D01*
X008596Y008471D02*
X008810Y008258D01*
X009027Y008258D02*
X009454Y008258D01*
X009672Y008364D02*
X009779Y008258D01*
X009992Y008258D01*
X010099Y008364D01*
X010316Y008258D02*
X010530Y008258D01*
X010423Y008258D02*
X010423Y008898D01*
X010316Y008898D02*
X010530Y008898D01*
X010746Y008898D02*
X010746Y008258D01*
X011173Y008258D01*
X011391Y008471D02*
X011604Y008258D01*
X011818Y008471D01*
X011818Y008898D01*
X012035Y008898D02*
X012035Y008258D01*
X012462Y008258D01*
X012680Y008258D02*
X012680Y008898D01*
X013000Y008898D01*
X013107Y008792D01*
X013107Y008578D01*
X013000Y008471D01*
X012680Y008471D01*
X012893Y008471D02*
X013107Y008258D01*
X013969Y008258D02*
X013969Y008898D01*
X014289Y008898D01*
X014396Y008792D01*
X014396Y008685D01*
X014289Y008578D01*
X013969Y008578D01*
X014289Y008578D02*
X014396Y008471D01*
X014396Y008364D01*
X014289Y008258D01*
X013969Y008258D01*
X014613Y008364D02*
X014720Y008258D01*
X014934Y008258D01*
X015040Y008364D01*
X015040Y008792D01*
X014934Y008898D01*
X014720Y008898D01*
X014613Y008792D01*
X014613Y008364D01*
X015258Y008258D02*
X015258Y008685D01*
X015471Y008898D01*
X015685Y008685D01*
X015685Y008258D01*
X015902Y008258D02*
X015902Y008898D01*
X016223Y008898D01*
X016329Y008792D01*
X016329Y008578D01*
X016223Y008471D01*
X015902Y008471D01*
X016116Y008471D02*
X016329Y008258D01*
X016547Y008258D02*
X016867Y008258D01*
X016974Y008364D01*
X016974Y008792D01*
X016867Y008898D01*
X016547Y008898D01*
X016547Y008258D01*
X015685Y008578D02*
X015258Y008578D01*
X012462Y008898D02*
X012035Y008898D01*
X012035Y008578D02*
X012249Y008578D01*
X011391Y008471D02*
X011391Y008898D01*
X011173Y008898D02*
X010746Y008898D01*
X010746Y008578D02*
X010960Y008578D01*
X010099Y008792D02*
X009992Y008898D01*
X009779Y008898D01*
X009672Y008792D01*
X009672Y008364D01*
X009241Y008578D02*
X009027Y008578D01*
X009027Y008898D02*
X009027Y008258D01*
X008383Y008258D02*
X008383Y008898D01*
X009027Y008898D02*
X009454Y008898D01*
X006876Y008685D02*
X006663Y008898D01*
X006449Y008685D01*
X006449Y008258D01*
X005587Y008898D02*
X005160Y008898D01*
X005373Y008898D02*
X005373Y008258D01*
X004298Y008258D02*
X004084Y008471D01*
X004191Y008471D02*
X003871Y008471D01*
X003871Y008258D02*
X003871Y008898D01*
X004191Y008898D01*
X004298Y008792D01*
X004298Y008578D01*
X004191Y008471D01*
X003653Y008258D02*
X003226Y008258D01*
X003226Y008898D01*
X003653Y008898D01*
X003440Y008578D02*
X003226Y008578D01*
X003009Y008578D02*
X003009Y008792D01*
X002902Y008898D01*
X002582Y008898D01*
X002582Y008258D01*
X002582Y008471D02*
X002902Y008471D01*
X003009Y008578D01*
X002364Y008578D02*
X002257Y008471D01*
X001937Y008471D01*
X001937Y008258D02*
X001937Y008898D01*
X002257Y008898D01*
X002364Y008792D01*
X002364Y008578D01*
X001720Y008364D02*
X001613Y008258D01*
X001399Y008258D01*
X001293Y008364D01*
X001293Y008898D01*
X001720Y008898D02*
X001720Y008364D01*
X008507Y016448D02*
X008507Y017088D01*
X008720Y017088D02*
X008293Y017088D01*
X008938Y017088D02*
X008938Y016448D01*
X008938Y016661D02*
X009258Y016661D01*
X009365Y016768D01*
X009365Y016982D01*
X009258Y017088D01*
X008938Y017088D01*
X009151Y016661D02*
X009365Y016448D01*
X009582Y016448D02*
X009582Y016875D01*
X009796Y017088D01*
X010009Y016875D01*
X010009Y016448D01*
X010227Y016448D02*
X010227Y017088D01*
X010654Y016448D01*
X010654Y017088D01*
X010871Y016982D02*
X010871Y016875D01*
X010978Y016768D01*
X011191Y016768D01*
X011298Y016661D01*
X011298Y016555D01*
X011191Y016448D01*
X010978Y016448D01*
X010871Y016555D01*
X010871Y016982D02*
X010978Y017088D01*
X011191Y017088D01*
X011298Y016982D01*
X011516Y017088D02*
X011516Y016448D01*
X011516Y016661D02*
X011836Y016661D01*
X011943Y016768D01*
X011943Y016982D01*
X011836Y017088D01*
X011516Y017088D01*
X011729Y016661D02*
X011943Y016448D01*
X012160Y016448D02*
X012587Y016448D01*
X012805Y016555D02*
X012805Y016982D01*
X012912Y017088D01*
X013125Y017088D01*
X013232Y016982D01*
X013449Y017088D02*
X013663Y017088D01*
X013556Y017088D02*
X013556Y016448D01*
X013449Y016448D02*
X013663Y016448D01*
X013879Y016448D02*
X014306Y016448D01*
X014524Y016661D02*
X014737Y016448D01*
X014951Y016661D01*
X014951Y017088D01*
X015168Y017088D02*
X015168Y016448D01*
X015595Y016448D01*
X015813Y016448D02*
X015813Y017088D01*
X016133Y017088D01*
X016240Y016982D01*
X016240Y016768D01*
X016133Y016661D01*
X015813Y016661D01*
X016026Y016661D02*
X016240Y016448D01*
X016457Y016341D02*
X016884Y016341D01*
X017102Y016448D02*
X017102Y017088D01*
X017422Y017088D01*
X017529Y016982D01*
X017529Y016768D01*
X017422Y016661D01*
X017102Y016661D01*
X017746Y016555D02*
X017853Y016448D01*
X018067Y016448D01*
X018173Y016555D01*
X018173Y016982D01*
X018067Y017088D01*
X017853Y017088D01*
X017746Y016982D01*
X017746Y016555D01*
X018391Y016661D02*
X018711Y016661D01*
X018818Y016768D01*
X018818Y016982D01*
X018711Y017088D01*
X018391Y017088D01*
X018391Y016448D01*
X018604Y016661D02*
X018818Y016448D01*
X019249Y016448D02*
X019249Y017088D01*
X019036Y017088D02*
X019463Y017088D01*
X017830Y020675D02*
X017830Y020833D01*
X018380Y020895D02*
X018380Y022545D01*
X017830Y022607D02*
X017830Y022765D01*
X017830Y021833D02*
X017830Y021607D01*
X018380Y020895D02*
X018329Y020858D01*
X018276Y020823D01*
X018220Y020791D01*
X018163Y020763D01*
X018104Y020739D01*
X018044Y020718D01*
X017983Y020701D01*
X017921Y020687D01*
X017858Y020678D01*
X017795Y020672D01*
X017731Y020670D01*
X017667Y020672D01*
X017604Y020678D01*
X017541Y020687D01*
X017479Y020700D01*
X017418Y020718D01*
X017358Y020738D01*
X017299Y020763D01*
X017242Y020791D01*
X017186Y020822D01*
X017133Y020856D01*
X017082Y020894D01*
X017033Y020935D01*
X016987Y020979D01*
X016943Y021025D01*
X016902Y021074D01*
X016865Y021125D01*
X016830Y021179D01*
X016799Y021234D01*
X016771Y021291D01*
X016747Y021350D01*
X016727Y021410D01*
X016727Y022030D02*
X016747Y022090D01*
X016771Y022149D01*
X016799Y022206D01*
X016830Y022261D01*
X016865Y022315D01*
X016902Y022366D01*
X016943Y022415D01*
X016987Y022461D01*
X017033Y022505D01*
X017082Y022546D01*
X017133Y022584D01*
X017186Y022618D01*
X017242Y022650D01*
X017299Y022677D01*
X017358Y022702D01*
X017418Y022722D01*
X017479Y022740D01*
X017541Y022753D01*
X017604Y022762D01*
X017667Y022768D01*
X017731Y022770D01*
X017795Y022768D01*
X017858Y022762D01*
X017921Y022753D01*
X017983Y022739D01*
X018044Y022722D01*
X018104Y022701D01*
X018163Y022677D01*
X018220Y022649D01*
X018276Y022617D01*
X018329Y022582D01*
X018380Y022545D01*
X015595Y017088D02*
X015168Y017088D01*
X015168Y016768D02*
X015382Y016768D01*
X014524Y016661D02*
X014524Y017088D01*
X014306Y017088D02*
X013879Y017088D01*
X013879Y016448D01*
X013879Y016768D02*
X014093Y016768D01*
X013232Y016555D02*
X013125Y016448D01*
X012912Y016448D01*
X012805Y016555D01*
X012374Y016768D02*
X012160Y016768D01*
X012160Y017088D02*
X012160Y016448D01*
X012160Y017088D02*
X012587Y017088D01*
X012237Y017839D02*
X011810Y017839D01*
X012237Y018266D01*
X012237Y018372D01*
X012130Y018479D01*
X011917Y018479D01*
X011810Y018372D01*
X011592Y018372D02*
X011486Y018479D01*
X011165Y018479D01*
X011165Y017839D01*
X011486Y017839D01*
X011592Y017945D01*
X011592Y018372D01*
X011474Y018807D02*
X011581Y018914D01*
X011581Y019341D01*
X011474Y019448D01*
X011154Y019448D01*
X011154Y018807D01*
X011474Y018807D01*
X011798Y019127D02*
X012225Y019127D01*
X012118Y018807D02*
X012118Y019448D01*
X011798Y019127D01*
X011587Y019723D02*
X011587Y020364D01*
X012014Y019723D01*
X012014Y020364D01*
X012231Y020364D02*
X012551Y020364D01*
X012658Y020257D01*
X012658Y019830D01*
X012551Y019723D01*
X012231Y019723D01*
X012231Y020364D01*
X012210Y020732D02*
X012637Y020732D01*
X012210Y020732D02*
X012210Y021373D01*
X011993Y021373D02*
X011566Y020732D01*
X011993Y020732D02*
X011566Y021373D01*
X011348Y021373D02*
X010921Y021373D01*
X011135Y021373D02*
X011135Y020732D01*
X011049Y020364D02*
X010942Y020257D01*
X010942Y019830D01*
X011049Y019723D01*
X011262Y019723D01*
X011369Y019830D01*
X011369Y020043D01*
X011156Y020043D01*
X011369Y020257D02*
X011262Y020364D01*
X011049Y020364D01*
X011066Y021813D02*
X011279Y022026D01*
X011279Y022453D01*
X011497Y022347D02*
X011497Y021919D01*
X011604Y021813D01*
X011817Y021813D01*
X011924Y021919D01*
X012141Y021919D02*
X012248Y021813D01*
X012462Y021813D01*
X012568Y021919D01*
X012141Y021919D02*
X012141Y022347D01*
X012248Y022453D01*
X012462Y022453D01*
X012568Y022347D01*
X012269Y022795D02*
X011841Y022795D01*
X012055Y022795D02*
X012055Y023436D01*
X011841Y023222D01*
X011624Y023329D02*
X011517Y023436D01*
X011197Y023436D01*
X011197Y022795D01*
X011517Y022795D01*
X011624Y022902D01*
X011624Y023329D01*
X011509Y023847D02*
X011189Y023847D01*
X011189Y024487D01*
X011509Y024487D01*
X011616Y024380D01*
X011616Y023953D01*
X011509Y023847D01*
X011834Y023953D02*
X011940Y023847D01*
X012154Y023847D01*
X012261Y023953D01*
X012261Y024060D01*
X012154Y024167D01*
X012047Y024167D01*
X012154Y024167D02*
X012261Y024274D01*
X012261Y024380D01*
X012154Y024487D01*
X011940Y024487D01*
X011834Y024380D01*
X011817Y022453D02*
X011604Y022453D01*
X011497Y022347D01*
X011817Y022453D02*
X011924Y022347D01*
X011066Y021813D02*
X010852Y022026D01*
X010852Y022453D01*
X012020Y026784D02*
X012020Y027424D01*
X012340Y027424D01*
X012447Y027317D01*
X012447Y027104D01*
X012340Y026997D01*
X012020Y026997D01*
X012233Y026997D02*
X012447Y026784D01*
X012664Y026784D02*
X013091Y027424D01*
X013131Y027807D02*
X012704Y028448D01*
X012486Y028448D02*
X012059Y028448D01*
X012273Y028448D02*
X012273Y027807D01*
X012664Y027424D02*
X013091Y026784D01*
X012704Y027807D02*
X013131Y028448D01*
X017528Y035493D02*
X017528Y035920D01*
X017742Y036134D01*
X017955Y035920D01*
X017955Y035493D01*
X018173Y035600D02*
X018280Y035493D01*
X018493Y035493D01*
X018600Y035600D01*
X018600Y035813D01*
X018386Y035813D01*
X018173Y036027D02*
X018173Y035600D01*
X017955Y035813D02*
X017528Y035813D01*
X018173Y036027D02*
X018280Y036134D01*
X018493Y036134D01*
X018600Y036027D01*
X018817Y036134D02*
X018817Y035493D01*
X019244Y035493D01*
X019462Y035493D02*
X019462Y036134D01*
X019889Y035493D01*
X019889Y036134D01*
X020106Y036134D02*
X020533Y036134D01*
X020320Y036134D02*
X020320Y035493D01*
X019244Y036134D02*
X018817Y036134D01*
X018817Y035813D02*
X019031Y035813D01*
X016531Y037481D02*
X016424Y037374D01*
X016211Y037374D01*
X016104Y037481D01*
X015887Y037374D02*
X015460Y038015D01*
X015242Y037908D02*
X015242Y037694D01*
X015135Y037588D01*
X014815Y037588D01*
X015029Y037588D02*
X015242Y037374D01*
X015460Y037374D02*
X015887Y038015D01*
X016104Y037908D02*
X016211Y038015D01*
X016424Y038015D01*
X016531Y037908D01*
X016531Y037801D01*
X016424Y037694D01*
X016531Y037588D01*
X016531Y037481D01*
X016424Y037694D02*
X016318Y037694D01*
X015242Y037908D02*
X015135Y038015D01*
X014815Y038015D01*
X014815Y037374D01*
X006964Y035782D02*
X006964Y035568D01*
X006857Y035462D01*
X006537Y035462D01*
X006537Y035248D02*
X006537Y035889D01*
X006857Y035889D01*
X006964Y035782D01*
X006320Y035782D02*
X006320Y035355D01*
X006213Y035248D01*
X005999Y035248D01*
X005893Y035355D01*
X005893Y035782D01*
X005999Y035889D01*
X006213Y035889D01*
X006320Y035782D01*
X005675Y035889D02*
X005248Y035889D01*
X005462Y035889D02*
X005462Y035248D01*
X003450Y024200D02*
X003700Y023950D01*
X003450Y023700D01*
X003200Y023950D02*
X003450Y024200D01*
X002247Y023705D02*
X002203Y023677D01*
X002161Y023646D01*
X002122Y023611D01*
X002085Y023574D01*
X002051Y023535D01*
X002021Y023493D01*
X001993Y023449D01*
X001969Y023403D01*
X001948Y023355D01*
X001931Y023305D01*
X001917Y023255D01*
X001908Y023204D01*
X001902Y023152D01*
X001900Y023100D01*
X002953Y023705D02*
X002997Y023677D01*
X003039Y023646D01*
X003078Y023611D01*
X003115Y023574D01*
X003149Y023535D01*
X003179Y023493D01*
X003207Y023449D01*
X003231Y023403D01*
X003252Y023355D01*
X003269Y023305D01*
X003283Y023255D01*
X003292Y023204D01*
X003298Y023152D01*
X003300Y023100D01*
X001550Y023100D02*
X001552Y023165D01*
X001558Y023229D01*
X001568Y023293D01*
X001582Y023356D01*
X001599Y023418D01*
X001621Y023479D01*
X001646Y023539D01*
X001675Y023597D01*
X001707Y023653D01*
X001743Y023707D01*
X001782Y023758D01*
X001824Y023807D01*
X001869Y023854D01*
X001917Y023897D01*
X001967Y023938D01*
X002020Y023975D01*
X002075Y024009D01*
X002132Y024040D01*
X002191Y024067D01*
X002251Y024090D01*
X002313Y024110D01*
X002375Y024126D01*
X002439Y024138D01*
X002503Y024146D01*
X002568Y024150D01*
X002632Y024150D01*
X002697Y024146D01*
X002761Y024138D01*
X002825Y024126D01*
X002887Y024110D01*
X002949Y024090D01*
X003009Y024067D01*
X003068Y024040D01*
X003125Y024009D01*
X003180Y023975D01*
X003233Y023938D01*
X003283Y023897D01*
X003331Y023854D01*
X003376Y023807D01*
X003418Y023758D01*
X003457Y023707D01*
X003493Y023653D01*
X003525Y023597D01*
X003554Y023539D01*
X003579Y023479D01*
X003601Y023418D01*
X003618Y023356D01*
X003632Y023293D01*
X003642Y023229D01*
X003648Y023165D01*
X003650Y023100D01*
X003648Y023035D01*
X003642Y022971D01*
X003632Y022907D01*
X003618Y022844D01*
X003601Y022782D01*
X003579Y022721D01*
X003554Y022661D01*
X003525Y022603D01*
X003493Y022547D01*
X003457Y022493D01*
X003418Y022442D01*
X003376Y022393D01*
X003331Y022346D01*
X003283Y022303D01*
X003233Y022262D01*
X003180Y022225D01*
X003125Y022191D01*
X003068Y022160D01*
X003009Y022133D01*
X002949Y022110D01*
X002887Y022090D01*
X002825Y022074D01*
X002761Y022062D01*
X002697Y022054D01*
X002632Y022050D01*
X002568Y022050D01*
X002503Y022054D01*
X002439Y022062D01*
X002375Y022074D01*
X002313Y022090D01*
X002251Y022110D01*
X002191Y022133D01*
X002132Y022160D01*
X002075Y022191D01*
X002020Y022225D01*
X001967Y022262D01*
X001917Y022303D01*
X001869Y022346D01*
X001824Y022393D01*
X001782Y022442D01*
X001743Y022493D01*
X001707Y022547D01*
X001675Y022603D01*
X001646Y022661D01*
X001621Y022721D01*
X001599Y022782D01*
X001582Y022844D01*
X001568Y022907D01*
X001558Y022971D01*
X001552Y023035D01*
X001550Y023100D01*
X002953Y022495D02*
X002997Y022523D01*
X003039Y022554D01*
X003078Y022589D01*
X003115Y022626D01*
X003149Y022665D01*
X003179Y022707D01*
X003207Y022751D01*
X003231Y022797D01*
X003252Y022845D01*
X003269Y022895D01*
X003283Y022945D01*
X003292Y022996D01*
X003298Y023048D01*
X003300Y023100D01*
X002247Y022495D02*
X002203Y022523D01*
X002161Y022554D01*
X002122Y022589D01*
X002085Y022626D01*
X002051Y022665D01*
X002021Y022707D01*
X001993Y022751D01*
X001969Y022797D01*
X001948Y022845D01*
X001931Y022895D01*
X001917Y022945D01*
X001908Y022996D01*
X001902Y023048D01*
X001900Y023100D01*
X001687Y017879D02*
X001260Y017239D01*
X001042Y017239D02*
X000829Y017452D01*
X000935Y017452D02*
X000615Y017452D01*
X000615Y017239D02*
X000615Y017879D01*
X000935Y017879D01*
X001042Y017773D01*
X001042Y017559D01*
X000935Y017452D01*
X001260Y017879D02*
X001687Y017239D01*
X001904Y017239D02*
X002331Y017239D01*
X002118Y017239D02*
X002118Y017879D01*
X001904Y017666D01*
X009582Y016768D02*
X010009Y016768D01*
X023950Y036500D02*
X023700Y036750D01*
X023950Y037000D02*
X024200Y036750D01*
X023950Y036500D01*
X023705Y037953D02*
X023677Y037997D01*
X023646Y038039D01*
X023611Y038078D01*
X023574Y038115D01*
X023535Y038149D01*
X023493Y038179D01*
X023449Y038207D01*
X023403Y038231D01*
X023355Y038252D01*
X023305Y038269D01*
X023255Y038283D01*
X023204Y038292D01*
X023152Y038298D01*
X023100Y038300D01*
X022050Y037600D02*
X022052Y037665D01*
X022058Y037729D01*
X022068Y037793D01*
X022082Y037856D01*
X022099Y037918D01*
X022121Y037979D01*
X022146Y038039D01*
X022175Y038097D01*
X022207Y038153D01*
X022243Y038207D01*
X022282Y038258D01*
X022324Y038307D01*
X022369Y038354D01*
X022417Y038397D01*
X022467Y038438D01*
X022520Y038475D01*
X022575Y038509D01*
X022632Y038540D01*
X022691Y038567D01*
X022751Y038590D01*
X022813Y038610D01*
X022875Y038626D01*
X022939Y038638D01*
X023003Y038646D01*
X023068Y038650D01*
X023132Y038650D01*
X023197Y038646D01*
X023261Y038638D01*
X023325Y038626D01*
X023387Y038610D01*
X023449Y038590D01*
X023509Y038567D01*
X023568Y038540D01*
X023625Y038509D01*
X023680Y038475D01*
X023733Y038438D01*
X023783Y038397D01*
X023831Y038354D01*
X023876Y038307D01*
X023918Y038258D01*
X023957Y038207D01*
X023993Y038153D01*
X024025Y038097D01*
X024054Y038039D01*
X024079Y037979D01*
X024101Y037918D01*
X024118Y037856D01*
X024132Y037793D01*
X024142Y037729D01*
X024148Y037665D01*
X024150Y037600D01*
X024148Y037535D01*
X024142Y037471D01*
X024132Y037407D01*
X024118Y037344D01*
X024101Y037282D01*
X024079Y037221D01*
X024054Y037161D01*
X024025Y037103D01*
X023993Y037047D01*
X023957Y036993D01*
X023918Y036942D01*
X023876Y036893D01*
X023831Y036846D01*
X023783Y036803D01*
X023733Y036762D01*
X023680Y036725D01*
X023625Y036691D01*
X023568Y036660D01*
X023509Y036633D01*
X023449Y036610D01*
X023387Y036590D01*
X023325Y036574D01*
X023261Y036562D01*
X023197Y036554D01*
X023132Y036550D01*
X023068Y036550D01*
X023003Y036554D01*
X022939Y036562D01*
X022875Y036574D01*
X022813Y036590D01*
X022751Y036610D01*
X022691Y036633D01*
X022632Y036660D01*
X022575Y036691D01*
X022520Y036725D01*
X022467Y036762D01*
X022417Y036803D01*
X022369Y036846D01*
X022324Y036893D01*
X022282Y036942D01*
X022243Y036993D01*
X022207Y037047D01*
X022175Y037103D01*
X022146Y037161D01*
X022121Y037221D01*
X022099Y037282D01*
X022082Y037344D01*
X022068Y037407D01*
X022058Y037471D01*
X022052Y037535D01*
X022050Y037600D01*
X022495Y037953D02*
X022523Y037997D01*
X022554Y038039D01*
X022589Y038078D01*
X022626Y038115D01*
X022665Y038149D01*
X022707Y038179D01*
X022751Y038207D01*
X022797Y038231D01*
X022845Y038252D01*
X022895Y038269D01*
X022945Y038283D01*
X022996Y038292D01*
X023048Y038298D01*
X023100Y038300D01*
X023705Y037247D02*
X023677Y037203D01*
X023646Y037161D01*
X023611Y037122D01*
X023574Y037085D01*
X023535Y037051D01*
X023493Y037021D01*
X023449Y036993D01*
X023403Y036969D01*
X023355Y036948D01*
X023305Y036931D01*
X023255Y036917D01*
X023204Y036908D01*
X023152Y036902D01*
X023100Y036900D01*
X023048Y036902D01*
X022996Y036908D01*
X022945Y036917D01*
X022895Y036931D01*
X022845Y036948D01*
X022797Y036969D01*
X022751Y036993D01*
X022707Y037021D01*
X022665Y037051D01*
X022626Y037085D01*
X022589Y037122D01*
X022554Y037161D01*
X022523Y037203D01*
X022495Y037247D01*
D12*
X017832Y009699D02*
X000867Y009699D01*
X000900Y009699D02*
X000900Y009666D01*
X000900Y009699D02*
X000800Y009699D01*
X000800Y007666D01*
X017832Y007666D01*
X017832Y009699D01*
D13*
X017032Y035263D02*
X017032Y036396D01*
X021198Y036396D01*
X021198Y035263D01*
X017032Y035263D01*
D14*
X022150Y037600D02*
X022152Y037661D01*
X022158Y037723D01*
X022168Y037783D01*
X022182Y037843D01*
X022199Y037902D01*
X022221Y037960D01*
X022246Y038016D01*
X022275Y038071D01*
X022307Y038123D01*
X022342Y038173D01*
X022381Y038221D01*
X022423Y038266D01*
X022467Y038309D01*
X022515Y038348D01*
X022564Y038385D01*
X022616Y038418D01*
X022670Y038447D01*
X022726Y038473D01*
X022783Y038496D01*
X022842Y038514D01*
X022901Y038529D01*
X022962Y038540D01*
X023023Y038547D01*
X023085Y038550D01*
X023146Y038549D01*
X023207Y038544D01*
X023268Y038535D01*
X023328Y038522D01*
X023388Y038505D01*
X023446Y038485D01*
X023502Y038461D01*
X023557Y038433D01*
X023610Y038401D01*
X023661Y038367D01*
X023709Y038329D01*
X023755Y038288D01*
X023798Y038244D01*
X023839Y038197D01*
X023876Y038148D01*
X023910Y038097D01*
X023940Y038044D01*
X023967Y037988D01*
X023990Y037931D01*
X024010Y037873D01*
X024026Y037814D01*
X024038Y037753D01*
X024046Y037692D01*
X024050Y037631D01*
X024050Y037569D01*
X024046Y037508D01*
X024038Y037447D01*
X024026Y037386D01*
X024010Y037327D01*
X023990Y037269D01*
X023967Y037212D01*
X023940Y037156D01*
X023910Y037103D01*
X023876Y037052D01*
X023839Y037003D01*
X023798Y036956D01*
X023755Y036912D01*
X023709Y036871D01*
X023661Y036833D01*
X023610Y036799D01*
X023557Y036767D01*
X023502Y036739D01*
X023446Y036715D01*
X023388Y036695D01*
X023328Y036678D01*
X023268Y036665D01*
X023207Y036656D01*
X023146Y036651D01*
X023085Y036650D01*
X023023Y036653D01*
X022962Y036660D01*
X022901Y036671D01*
X022842Y036686D01*
X022783Y036704D01*
X022726Y036727D01*
X022670Y036753D01*
X022616Y036782D01*
X022564Y036815D01*
X022515Y036852D01*
X022467Y036891D01*
X022423Y036934D01*
X022381Y036979D01*
X022342Y037027D01*
X022307Y037077D01*
X022275Y037129D01*
X022246Y037184D01*
X022221Y037240D01*
X022199Y037298D01*
X022182Y037357D01*
X022168Y037417D01*
X022158Y037477D01*
X022152Y037539D01*
X022150Y037600D01*
X001650Y023100D02*
X001652Y023161D01*
X001658Y023223D01*
X001668Y023283D01*
X001682Y023343D01*
X001699Y023402D01*
X001721Y023460D01*
X001746Y023516D01*
X001775Y023571D01*
X001807Y023623D01*
X001842Y023673D01*
X001881Y023721D01*
X001923Y023766D01*
X001967Y023809D01*
X002015Y023848D01*
X002064Y023885D01*
X002116Y023918D01*
X002170Y023947D01*
X002226Y023973D01*
X002283Y023996D01*
X002342Y024014D01*
X002401Y024029D01*
X002462Y024040D01*
X002523Y024047D01*
X002585Y024050D01*
X002646Y024049D01*
X002707Y024044D01*
X002768Y024035D01*
X002828Y024022D01*
X002888Y024005D01*
X002946Y023985D01*
X003002Y023961D01*
X003057Y023933D01*
X003110Y023901D01*
X003161Y023867D01*
X003209Y023829D01*
X003255Y023788D01*
X003298Y023744D01*
X003339Y023697D01*
X003376Y023648D01*
X003410Y023597D01*
X003440Y023544D01*
X003467Y023488D01*
X003490Y023431D01*
X003510Y023373D01*
X003526Y023314D01*
X003538Y023253D01*
X003546Y023192D01*
X003550Y023131D01*
X003550Y023069D01*
X003546Y023008D01*
X003538Y022947D01*
X003526Y022886D01*
X003510Y022827D01*
X003490Y022769D01*
X003467Y022712D01*
X003440Y022656D01*
X003410Y022603D01*
X003376Y022552D01*
X003339Y022503D01*
X003298Y022456D01*
X003255Y022412D01*
X003209Y022371D01*
X003161Y022333D01*
X003110Y022299D01*
X003057Y022267D01*
X003002Y022239D01*
X002946Y022215D01*
X002888Y022195D01*
X002828Y022178D01*
X002768Y022165D01*
X002707Y022156D01*
X002646Y022151D01*
X002585Y022150D01*
X002523Y022153D01*
X002462Y022160D01*
X002401Y022171D01*
X002342Y022186D01*
X002283Y022204D01*
X002226Y022227D01*
X002170Y022253D01*
X002116Y022282D01*
X002064Y022315D01*
X002015Y022352D01*
X001967Y022391D01*
X001923Y022434D01*
X001881Y022479D01*
X001842Y022527D01*
X001807Y022577D01*
X001775Y022629D01*
X001746Y022684D01*
X001721Y022740D01*
X001699Y022798D01*
X001682Y022857D01*
X001668Y022917D01*
X001658Y022977D01*
X001652Y023039D01*
X001650Y023100D01*
X016850Y002400D02*
X016852Y002461D01*
X016858Y002523D01*
X016868Y002583D01*
X016882Y002643D01*
X016899Y002702D01*
X016921Y002760D01*
X016946Y002816D01*
X016975Y002871D01*
X017007Y002923D01*
X017042Y002973D01*
X017081Y003021D01*
X017123Y003066D01*
X017167Y003109D01*
X017215Y003148D01*
X017264Y003185D01*
X017316Y003218D01*
X017370Y003247D01*
X017426Y003273D01*
X017483Y003296D01*
X017542Y003314D01*
X017601Y003329D01*
X017662Y003340D01*
X017723Y003347D01*
X017785Y003350D01*
X017846Y003349D01*
X017907Y003344D01*
X017968Y003335D01*
X018028Y003322D01*
X018088Y003305D01*
X018146Y003285D01*
X018202Y003261D01*
X018257Y003233D01*
X018310Y003201D01*
X018361Y003167D01*
X018409Y003129D01*
X018455Y003088D01*
X018498Y003044D01*
X018539Y002997D01*
X018576Y002948D01*
X018610Y002897D01*
X018640Y002844D01*
X018667Y002788D01*
X018690Y002731D01*
X018710Y002673D01*
X018726Y002614D01*
X018738Y002553D01*
X018746Y002492D01*
X018750Y002431D01*
X018750Y002369D01*
X018746Y002308D01*
X018738Y002247D01*
X018726Y002186D01*
X018710Y002127D01*
X018690Y002069D01*
X018667Y002012D01*
X018640Y001956D01*
X018610Y001903D01*
X018576Y001852D01*
X018539Y001803D01*
X018498Y001756D01*
X018455Y001712D01*
X018409Y001671D01*
X018361Y001633D01*
X018310Y001599D01*
X018257Y001567D01*
X018202Y001539D01*
X018146Y001515D01*
X018088Y001495D01*
X018028Y001478D01*
X017968Y001465D01*
X017907Y001456D01*
X017846Y001451D01*
X017785Y001450D01*
X017723Y001453D01*
X017662Y001460D01*
X017601Y001471D01*
X017542Y001486D01*
X017483Y001504D01*
X017426Y001527D01*
X017370Y001553D01*
X017316Y001582D01*
X017264Y001615D01*
X017215Y001652D01*
X017167Y001691D01*
X017123Y001734D01*
X017081Y001779D01*
X017042Y001827D01*
X017007Y001877D01*
X016975Y001929D01*
X016946Y001984D01*
X016921Y002040D01*
X016899Y002098D01*
X016882Y002157D01*
X016868Y002217D01*
X016858Y002277D01*
X016852Y002339D01*
X016850Y002400D01*
X026400Y011900D02*
X026398Y011954D01*
X026393Y012008D01*
X026384Y012061D01*
X026371Y012114D01*
X026355Y012165D01*
X026335Y012215D01*
X026312Y012264D01*
X026286Y012312D01*
X026257Y012357D01*
X026224Y012400D01*
X026189Y012441D01*
X026151Y012480D01*
X026111Y012516D01*
X026068Y012549D01*
X026023Y012579D01*
X025976Y012606D01*
X025203Y012595D02*
X025155Y012565D01*
X025110Y012532D01*
X025067Y012496D01*
X025026Y012458D01*
X024989Y012416D01*
X024954Y012372D01*
X024923Y012326D01*
X024894Y012277D01*
X024870Y012227D01*
X024849Y012175D01*
X024831Y012121D01*
X024818Y012067D01*
X024808Y012012D01*
X024802Y011956D01*
X024800Y011900D01*
X024802Y011847D01*
X024807Y011793D01*
X024816Y011741D01*
X024828Y011689D01*
X024844Y011638D01*
X024863Y011588D01*
X024886Y011539D01*
X024912Y011492D01*
X024940Y011447D01*
X024972Y011404D01*
X025006Y011364D01*
X025044Y011325D01*
X025083Y011289D01*
X026112Y011285D02*
X026152Y011321D01*
X026190Y011360D01*
X026225Y011401D01*
X026257Y011444D01*
X026287Y011489D01*
X026313Y011536D01*
X026335Y011585D01*
X026355Y011636D01*
X026371Y011687D01*
X026384Y011739D01*
X026393Y011793D01*
X026398Y011846D01*
X026400Y011900D01*
X028676Y012606D02*
X028723Y012579D01*
X028768Y012549D01*
X028811Y012516D01*
X028851Y012480D01*
X028889Y012441D01*
X028924Y012400D01*
X028957Y012357D01*
X028986Y012312D01*
X029012Y012264D01*
X029035Y012215D01*
X029055Y012165D01*
X029071Y012114D01*
X029084Y012061D01*
X029093Y012008D01*
X029098Y011954D01*
X029100Y011900D01*
X027903Y012595D02*
X027855Y012565D01*
X027810Y012532D01*
X027767Y012496D01*
X027726Y012458D01*
X027689Y012416D01*
X027654Y012372D01*
X027623Y012326D01*
X027594Y012277D01*
X027570Y012227D01*
X027549Y012175D01*
X027531Y012121D01*
X027518Y012067D01*
X027508Y012012D01*
X027502Y011956D01*
X027500Y011900D01*
X027502Y011847D01*
X027507Y011793D01*
X027516Y011741D01*
X027528Y011689D01*
X027544Y011638D01*
X027563Y011588D01*
X027586Y011539D01*
X027612Y011492D01*
X027640Y011447D01*
X027672Y011404D01*
X027706Y011364D01*
X027744Y011325D01*
X027783Y011289D01*
X028812Y011285D02*
X028852Y011321D01*
X028890Y011360D01*
X028925Y011401D01*
X028957Y011444D01*
X028987Y011489D01*
X029013Y011536D01*
X029035Y011585D01*
X029055Y011636D01*
X029071Y011687D01*
X029084Y011739D01*
X029093Y011793D01*
X029098Y011846D01*
X029100Y011900D01*
X036250Y017300D02*
X036252Y017361D01*
X036258Y017423D01*
X036268Y017483D01*
X036282Y017543D01*
X036299Y017602D01*
X036321Y017660D01*
X036346Y017716D01*
X036375Y017771D01*
X036407Y017823D01*
X036442Y017873D01*
X036481Y017921D01*
X036523Y017966D01*
X036567Y018009D01*
X036615Y018048D01*
X036664Y018085D01*
X036716Y018118D01*
X036770Y018147D01*
X036826Y018173D01*
X036883Y018196D01*
X036942Y018214D01*
X037001Y018229D01*
X037062Y018240D01*
X037123Y018247D01*
X037185Y018250D01*
X037246Y018249D01*
X037307Y018244D01*
X037368Y018235D01*
X037428Y018222D01*
X037488Y018205D01*
X037546Y018185D01*
X037602Y018161D01*
X037657Y018133D01*
X037710Y018101D01*
X037761Y018067D01*
X037809Y018029D01*
X037855Y017988D01*
X037898Y017944D01*
X037939Y017897D01*
X037976Y017848D01*
X038010Y017797D01*
X038040Y017744D01*
X038067Y017688D01*
X038090Y017631D01*
X038110Y017573D01*
X038126Y017514D01*
X038138Y017453D01*
X038146Y017392D01*
X038150Y017331D01*
X038150Y017269D01*
X038146Y017208D01*
X038138Y017147D01*
X038126Y017086D01*
X038110Y017027D01*
X038090Y016969D01*
X038067Y016912D01*
X038040Y016856D01*
X038010Y016803D01*
X037976Y016752D01*
X037939Y016703D01*
X037898Y016656D01*
X037855Y016612D01*
X037809Y016571D01*
X037761Y016533D01*
X037710Y016499D01*
X037657Y016467D01*
X037602Y016439D01*
X037546Y016415D01*
X037488Y016395D01*
X037428Y016378D01*
X037368Y016365D01*
X037307Y016356D01*
X037246Y016351D01*
X037185Y016350D01*
X037123Y016353D01*
X037062Y016360D01*
X037001Y016371D01*
X036942Y016386D01*
X036883Y016404D01*
X036826Y016427D01*
X036770Y016453D01*
X036716Y016482D01*
X036664Y016515D01*
X036615Y016552D01*
X036567Y016591D01*
X036523Y016634D01*
X036481Y016679D01*
X036442Y016727D01*
X036407Y016777D01*
X036375Y016829D01*
X036346Y016884D01*
X036321Y016940D01*
X036299Y016998D01*
X036282Y017057D01*
X036268Y017117D01*
X036258Y017177D01*
X036252Y017239D01*
X036250Y017300D01*
D15*
X035975Y017432D02*
X035825Y017282D01*
X035825Y017357D02*
X035825Y017132D01*
X035975Y017132D02*
X035525Y017132D01*
X035525Y017357D01*
X035600Y017432D01*
X035750Y017432D01*
X035825Y017357D01*
X035975Y017592D02*
X035975Y017893D01*
X035975Y017742D02*
X035525Y017742D01*
X035675Y017592D01*
X035525Y016975D02*
X035525Y016825D01*
X035525Y016900D02*
X035975Y016900D01*
X035975Y016825D02*
X035975Y016975D01*
X036350Y019100D02*
X037925Y019100D01*
X037925Y020084D01*
X037925Y022053D01*
X037925Y023037D01*
X036350Y023037D01*
X036350Y022053D01*
X036350Y020084D01*
X036350Y019100D01*
X037925Y020085D02*
X037983Y020110D01*
X038039Y020139D01*
X038093Y020170D01*
X038146Y020205D01*
X038196Y020243D01*
X038244Y020285D01*
X038289Y020328D01*
X038332Y020375D01*
X038372Y020424D01*
X038409Y020475D01*
X038443Y020528D01*
X038473Y020583D01*
X038500Y020640D01*
X038524Y020698D01*
X038544Y020758D01*
X038561Y020819D01*
X038574Y020881D01*
X038583Y020943D01*
X038589Y021006D01*
X038591Y021069D01*
X038589Y021132D01*
X038583Y021195D01*
X038574Y021257D01*
X038561Y021319D01*
X038544Y021380D01*
X038524Y021440D01*
X038500Y021498D01*
X038473Y021555D01*
X038443Y021610D01*
X038409Y021663D01*
X038372Y021714D01*
X038332Y021763D01*
X038289Y021810D01*
X038244Y021853D01*
X038196Y021895D01*
X038146Y021933D01*
X038093Y021968D01*
X038039Y021999D01*
X037983Y022028D01*
X037925Y022053D01*
X028525Y016881D02*
X028525Y016731D01*
X028450Y016656D01*
X028150Y016956D01*
X028450Y016956D01*
X028525Y016881D01*
X028450Y016656D02*
X028150Y016656D01*
X028075Y016731D01*
X028075Y016881D01*
X028150Y016956D01*
X028150Y016496D02*
X028075Y016421D01*
X028075Y016270D01*
X028150Y016195D01*
X028150Y016035D02*
X028225Y016035D01*
X028300Y015960D01*
X028375Y016035D01*
X028450Y016035D01*
X028525Y015960D01*
X028525Y015810D01*
X028450Y015735D01*
X028300Y015885D02*
X028300Y015960D01*
X028150Y016035D02*
X028075Y015960D01*
X028075Y015810D01*
X028150Y015735D01*
X028450Y016195D02*
X028525Y016270D01*
X028525Y016421D01*
X028450Y016496D01*
X028375Y016496D01*
X028300Y016421D01*
X028300Y016346D01*
X028300Y016421D02*
X028225Y016496D01*
X028150Y016496D01*
X027675Y016571D02*
X027675Y016421D01*
X027600Y016346D01*
X027450Y016346D02*
X027375Y016496D01*
X027375Y016571D01*
X027450Y016646D01*
X027600Y016646D01*
X027675Y016571D01*
X027450Y016346D02*
X027225Y016346D01*
X027225Y016646D01*
X027225Y016036D02*
X027675Y016036D01*
X027675Y016186D02*
X027675Y015885D01*
X027675Y015725D02*
X027525Y015575D01*
X027525Y015650D02*
X027525Y015425D01*
X027675Y015425D02*
X027225Y015425D01*
X027225Y015650D01*
X027300Y015725D01*
X027450Y015725D01*
X027525Y015650D01*
X027375Y015885D02*
X027225Y016036D01*
X025825Y016170D02*
X025750Y016095D01*
X025825Y016170D02*
X025825Y016321D01*
X025750Y016396D01*
X025675Y016396D01*
X025600Y016321D01*
X025600Y016246D01*
X025600Y016321D02*
X025525Y016396D01*
X025450Y016396D01*
X025375Y016321D01*
X025375Y016170D01*
X025450Y016095D01*
X025450Y015935D02*
X025525Y015935D01*
X025600Y015860D01*
X025675Y015935D01*
X025750Y015935D01*
X025825Y015860D01*
X025825Y015710D01*
X025750Y015635D01*
X025600Y015785D02*
X025600Y015860D01*
X025450Y015935D02*
X025375Y015860D01*
X025375Y015710D01*
X025450Y015635D01*
X024975Y015625D02*
X024825Y015475D01*
X024825Y015550D02*
X024825Y015325D01*
X024975Y015325D02*
X024525Y015325D01*
X024525Y015550D01*
X024600Y015625D01*
X024750Y015625D01*
X024825Y015550D01*
X024975Y015785D02*
X024975Y016086D01*
X024975Y015936D02*
X024525Y015936D01*
X024675Y015785D01*
X024750Y016246D02*
X024525Y016471D01*
X024975Y016471D01*
X024750Y016546D02*
X024750Y016246D01*
X025375Y016631D02*
X025450Y016556D01*
X025750Y016556D01*
X025450Y016856D01*
X025750Y016856D01*
X025825Y016781D01*
X025825Y016631D01*
X025750Y016556D01*
X025375Y016631D02*
X025375Y016781D01*
X025450Y016856D01*
X022796Y012525D02*
X022796Y012075D01*
X022646Y012075D02*
X022946Y012075D01*
X022646Y012375D02*
X022796Y012525D01*
X022486Y012450D02*
X022486Y012300D01*
X022411Y012225D01*
X022185Y012225D01*
X022185Y012075D02*
X022185Y012525D01*
X022411Y012525D01*
X022486Y012450D01*
X022025Y012525D02*
X021875Y012525D01*
X021950Y012525D02*
X021950Y012150D01*
X021875Y012075D01*
X021800Y012075D01*
X021725Y012150D01*
X025775Y010940D02*
X025850Y011015D01*
X025925Y011015D01*
X026000Y010940D01*
X026000Y010790D01*
X025925Y010715D01*
X025850Y010715D01*
X025775Y010790D01*
X025775Y010940D01*
X026000Y010940D02*
X026075Y011015D01*
X026150Y011015D01*
X026225Y010940D01*
X026225Y010790D01*
X026150Y010715D01*
X026075Y010715D01*
X026000Y010790D01*
X026150Y010554D02*
X025850Y010554D01*
X025775Y010479D01*
X025775Y010254D01*
X026225Y010254D01*
X026225Y010479D01*
X026150Y010554D01*
X026225Y010094D02*
X026225Y009794D01*
X025775Y009794D01*
X025775Y010094D01*
X026000Y009944D02*
X026000Y009794D01*
X026225Y009634D02*
X026225Y009333D01*
X025775Y009333D01*
X028475Y009333D02*
X028925Y009333D01*
X028925Y009634D01*
X028925Y009794D02*
X028925Y010094D01*
X028925Y010254D02*
X028925Y010479D01*
X028850Y010554D01*
X028550Y010554D01*
X028475Y010479D01*
X028475Y010254D01*
X028925Y010254D01*
X028700Y009944D02*
X028700Y009794D01*
X028475Y009794D02*
X028925Y009794D01*
X028475Y009794D02*
X028475Y010094D01*
X028550Y010715D02*
X028475Y010790D01*
X028475Y010940D01*
X028550Y011015D01*
X028850Y011015D01*
X028925Y010940D01*
X028925Y010790D01*
X028850Y010715D01*
X028700Y010790D02*
X028700Y011015D01*
X028700Y010790D02*
X028625Y010715D01*
X028550Y010715D01*
X023637Y003150D02*
X022653Y003150D01*
X020684Y003150D01*
X019700Y003150D01*
X019700Y001575D01*
X020684Y001575D01*
X022653Y001575D01*
X023637Y001575D01*
X023637Y003150D01*
X022653Y001575D02*
X022628Y001517D01*
X022599Y001461D01*
X022568Y001407D01*
X022533Y001354D01*
X022495Y001304D01*
X022453Y001256D01*
X022410Y001211D01*
X022363Y001168D01*
X022314Y001128D01*
X022263Y001091D01*
X022210Y001057D01*
X022155Y001027D01*
X022098Y001000D01*
X022040Y000976D01*
X021980Y000956D01*
X021919Y000939D01*
X021857Y000926D01*
X021795Y000917D01*
X021732Y000911D01*
X021669Y000909D01*
X021606Y000911D01*
X021543Y000917D01*
X021481Y000926D01*
X021419Y000939D01*
X021358Y000956D01*
X021298Y000976D01*
X021240Y001000D01*
X021183Y001027D01*
X021128Y001057D01*
X021075Y001091D01*
X021024Y001128D01*
X020975Y001168D01*
X020928Y001211D01*
X020885Y001256D01*
X020843Y001304D01*
X020805Y001354D01*
X020770Y001407D01*
X020739Y001461D01*
X020710Y001517D01*
X020685Y001575D01*
X018393Y003625D02*
X018092Y003625D01*
X018393Y003925D01*
X018393Y004000D01*
X018318Y004075D01*
X018167Y004075D01*
X018092Y004000D01*
X017932Y004000D02*
X017932Y003850D01*
X017857Y003775D01*
X017632Y003775D01*
X017632Y003625D02*
X017632Y004075D01*
X017857Y004075D01*
X017932Y004000D01*
X017782Y003775D02*
X017932Y003625D01*
X017475Y003625D02*
X017325Y003625D01*
X017400Y003625D02*
X017400Y004075D01*
X017325Y004075D02*
X017475Y004075D01*
X003350Y017163D02*
X001775Y017163D01*
X001775Y018147D01*
X001775Y020116D01*
X001775Y021100D01*
X003350Y021100D01*
X003350Y020116D01*
X003350Y018147D01*
X003350Y017163D01*
X001775Y018147D02*
X001717Y018172D01*
X001661Y018201D01*
X001607Y018232D01*
X001554Y018267D01*
X001504Y018305D01*
X001456Y018347D01*
X001411Y018390D01*
X001368Y018437D01*
X001328Y018486D01*
X001291Y018537D01*
X001257Y018590D01*
X001227Y018645D01*
X001200Y018702D01*
X001176Y018760D01*
X001156Y018820D01*
X001139Y018881D01*
X001126Y018943D01*
X001117Y019005D01*
X001111Y019068D01*
X001109Y019131D01*
X001111Y019194D01*
X001117Y019257D01*
X001126Y019319D01*
X001139Y019381D01*
X001156Y019442D01*
X001176Y019502D01*
X001200Y019560D01*
X001227Y019617D01*
X001257Y019672D01*
X001291Y019725D01*
X001328Y019776D01*
X001368Y019825D01*
X001411Y019872D01*
X001456Y019915D01*
X001504Y019957D01*
X001554Y019995D01*
X001607Y020030D01*
X001661Y020061D01*
X001717Y020090D01*
X001775Y020115D01*
X003825Y022397D02*
X003825Y022547D01*
X003825Y022472D02*
X004275Y022472D01*
X004275Y022397D02*
X004275Y022547D01*
X004275Y022704D02*
X003825Y022704D01*
X003825Y022929D01*
X003900Y023004D01*
X004050Y023004D01*
X004125Y022929D01*
X004125Y022704D01*
X004125Y022854D02*
X004275Y023004D01*
X004050Y023165D02*
X004050Y023465D01*
X004275Y023390D02*
X003825Y023390D01*
X004050Y023165D01*
X017163Y036850D02*
X017163Y038425D01*
X018147Y038425D01*
X020116Y038425D01*
X021100Y038425D01*
X021100Y036850D01*
X020116Y036850D01*
X018147Y036850D01*
X017163Y036850D01*
X018147Y038425D02*
X018172Y038483D01*
X018201Y038539D01*
X018232Y038593D01*
X018267Y038646D01*
X018305Y038696D01*
X018347Y038744D01*
X018390Y038789D01*
X018437Y038832D01*
X018486Y038872D01*
X018537Y038909D01*
X018590Y038943D01*
X018645Y038973D01*
X018702Y039000D01*
X018760Y039024D01*
X018820Y039044D01*
X018881Y039061D01*
X018943Y039074D01*
X019005Y039083D01*
X019068Y039089D01*
X019131Y039091D01*
X019194Y039089D01*
X019257Y039083D01*
X019319Y039074D01*
X019381Y039061D01*
X019442Y039044D01*
X019502Y039024D01*
X019560Y039000D01*
X019617Y038973D01*
X019672Y038943D01*
X019725Y038909D01*
X019776Y038872D01*
X019825Y038832D01*
X019872Y038789D01*
X019915Y038744D01*
X019957Y038696D01*
X019995Y038646D01*
X020030Y038593D01*
X020061Y038539D01*
X020090Y038483D01*
X020115Y038425D01*
X022397Y036375D02*
X022547Y036375D01*
X022472Y036375D02*
X022472Y035925D01*
X022397Y035925D02*
X022547Y035925D01*
X022704Y035925D02*
X022704Y036375D01*
X022929Y036375D01*
X023004Y036300D01*
X023004Y036150D01*
X022929Y036075D01*
X022704Y036075D01*
X022854Y036075D02*
X023004Y035925D01*
X023165Y036000D02*
X023240Y035925D01*
X023390Y035925D01*
X023465Y036000D01*
X023465Y036075D01*
X023390Y036150D01*
X023315Y036150D01*
X023390Y036150D02*
X023465Y036225D01*
X023465Y036300D01*
X023390Y036375D01*
X023240Y036375D01*
X023165Y036300D01*
X019583Y023333D02*
X019508Y023333D01*
X019433Y023258D01*
X019433Y023033D01*
X019583Y023033D01*
X019658Y023108D01*
X019658Y023258D01*
X019583Y023333D01*
X019433Y023033D02*
X019282Y023183D01*
X019207Y023333D01*
X019282Y022873D02*
X019583Y022573D01*
X019658Y022648D01*
X019658Y022798D01*
X019583Y022873D01*
X019282Y022873D01*
X019207Y022798D01*
X019207Y022648D01*
X019282Y022573D01*
X019583Y022573D01*
X019583Y022413D02*
X019282Y022413D01*
X019207Y022338D01*
X019207Y022187D01*
X019282Y022112D01*
X019358Y022112D01*
X019433Y022187D01*
X019433Y022413D01*
X019583Y022413D02*
X019658Y022338D01*
X019658Y022187D01*
X019583Y022112D01*
X019583Y021952D02*
X019658Y021877D01*
X019658Y021727D01*
X019583Y021652D01*
X019658Y021492D02*
X019207Y021492D01*
X019282Y021652D02*
X019207Y021727D01*
X019207Y021877D01*
X019282Y021952D01*
X019358Y021952D01*
X019433Y021877D01*
X019508Y021952D01*
X019583Y021952D01*
X019433Y021877D02*
X019433Y021802D01*
X019658Y021492D02*
X019207Y021192D01*
X019658Y021192D01*
X019658Y021031D02*
X019658Y020731D01*
X019358Y021031D01*
X019282Y021031D01*
X019207Y020956D01*
X019207Y020806D01*
X019282Y020731D01*
X018888Y021428D02*
X018588Y021428D01*
X018512Y021503D01*
X018512Y021653D01*
X018588Y021728D01*
X018888Y021728D01*
X018963Y021653D01*
X018963Y021503D01*
X018888Y021428D01*
X018813Y021578D02*
X018963Y021728D01*
X018963Y021888D02*
X018963Y022189D01*
X018963Y022039D02*
X018512Y022039D01*
X018663Y021888D01*
D16*
X025600Y017920D03*
X028300Y018020D03*
X028300Y015180D03*
X025600Y015080D03*
D17*
X021336Y019585D02*
X030864Y019585D01*
X030864Y027883D01*
X028374Y030373D01*
X023826Y030373D01*
X021336Y027883D01*
X021336Y019585D01*
D18*
X021620Y019280D02*
X021927Y018820D01*
X022080Y018820D02*
X022311Y018820D01*
X022387Y018897D01*
X022387Y018973D01*
X022311Y019050D01*
X022080Y019050D01*
X022080Y018820D02*
X022080Y019280D01*
X022311Y019280D01*
X022387Y019204D01*
X022387Y019127D01*
X022311Y019050D01*
X022541Y019050D02*
X022694Y019050D01*
X022541Y018820D02*
X022848Y018820D01*
X023001Y018820D02*
X023001Y019280D01*
X023308Y019280D01*
X023155Y019050D02*
X023001Y019050D01*
X023001Y018820D02*
X023308Y018820D01*
X022848Y019280D02*
X022541Y019280D01*
X022541Y018820D01*
X021927Y019280D02*
X021620Y018820D01*
X022783Y023637D02*
X022920Y023735D01*
X023556Y024333D01*
X023244Y025095D01*
X023183Y025155D01*
X023786Y025155D01*
X023786Y025122D01*
X023770Y025089D01*
X023786Y025062D01*
X023786Y025035D01*
X023924Y024689D01*
X024313Y025073D01*
X024335Y025100D01*
X024351Y025133D01*
X024357Y025155D01*
X024702Y025155D01*
X024631Y025106D01*
X024576Y025068D01*
X024499Y025002D01*
X023984Y024519D01*
X024291Y023763D01*
X024379Y023642D01*
X024395Y023642D01*
X024428Y023675D01*
X024472Y023807D01*
X024538Y024053D01*
X024614Y024366D01*
X024757Y024947D01*
X024779Y025046D01*
X024779Y025155D01*
X026023Y025155D01*
X026089Y025139D01*
X026133Y025111D01*
X026166Y025051D01*
X026188Y024996D01*
X026188Y024903D01*
X026171Y024859D01*
X026105Y024585D01*
X026084Y024530D01*
X026001Y024448D01*
X025936Y024421D01*
X025848Y024399D01*
X025738Y024399D01*
X025897Y024377D01*
X026012Y024322D01*
X026018Y024311D01*
X026018Y024163D01*
X025957Y023922D01*
X025919Y023861D01*
X025908Y023796D01*
X025826Y023702D01*
X025760Y023670D01*
X025656Y023637D01*
X023754Y023637D01*
X023786Y023697D01*
X023786Y023735D01*
X023611Y024168D01*
X023156Y023724D01*
X023107Y023637D01*
X022783Y023637D01*
X024916Y023823D02*
X025042Y024305D01*
X025541Y024305D01*
X025585Y024289D01*
X025612Y024251D01*
X025612Y024234D01*
X025530Y023911D01*
X025508Y023878D01*
X025469Y023834D01*
X025448Y023823D01*
X024916Y023823D01*
X025080Y024503D02*
X025195Y024969D01*
X025700Y024969D01*
X025749Y024941D01*
X025755Y024854D01*
X025678Y024563D01*
X025661Y024525D01*
X025629Y024503D01*
X025080Y024503D01*
X026138Y023922D02*
X026127Y023834D01*
X026127Y023779D01*
X026144Y023719D01*
X026171Y023680D01*
X026215Y023648D01*
X026259Y023637D01*
X027344Y023637D01*
X027421Y023823D01*
X027350Y023812D01*
X026560Y023812D01*
X026539Y023829D01*
X026533Y023867D01*
X026544Y023900D01*
X026588Y024086D01*
X027487Y024086D01*
X027580Y024464D01*
X027580Y024656D01*
X027558Y024678D01*
X027487Y024733D01*
X027427Y024755D01*
X026566Y024755D01*
X026533Y024750D01*
X026467Y024728D01*
X026380Y024673D01*
X026330Y024601D01*
X026264Y024470D01*
X026248Y024410D01*
X026138Y023922D01*
X026637Y024262D02*
X026643Y024256D01*
X027114Y024256D01*
X027174Y024492D01*
X027174Y024563D01*
X027158Y024580D01*
X027136Y024585D01*
X026747Y024585D01*
X026714Y024569D01*
X026692Y024530D01*
X026676Y024486D01*
X026637Y024262D01*
X027597Y023922D02*
X027706Y024410D01*
X027723Y024470D01*
X027789Y024601D01*
X027838Y024673D01*
X027926Y024728D01*
X027991Y024750D01*
X028024Y024755D01*
X028885Y024755D01*
X028945Y024733D01*
X029017Y024678D01*
X029038Y024656D01*
X029038Y024464D01*
X028945Y024086D01*
X028046Y024086D01*
X028002Y023900D01*
X027991Y023867D01*
X027997Y023829D01*
X028019Y023812D01*
X028808Y023812D01*
X028879Y023823D01*
X028803Y023637D01*
X027717Y023637D01*
X027673Y023648D01*
X027629Y023680D01*
X027602Y023719D01*
X027586Y023779D01*
X027586Y023834D01*
X027597Y023922D01*
X028096Y024262D02*
X028101Y024256D01*
X028572Y024256D01*
X028633Y024492D01*
X028633Y024563D01*
X028616Y024580D01*
X028594Y024585D01*
X028205Y024585D01*
X028172Y024569D01*
X028150Y024530D01*
X028134Y024486D01*
X028096Y024262D01*
X022848Y029820D02*
X022541Y029820D01*
X022848Y030127D01*
X022848Y030204D01*
X022771Y030280D01*
X022618Y030280D01*
X022541Y030204D01*
X022387Y030204D02*
X022387Y030127D01*
X022311Y030050D01*
X022080Y030050D01*
X022080Y029820D02*
X022311Y029820D01*
X022387Y029897D01*
X022387Y029973D01*
X022311Y030050D01*
X022387Y030204D02*
X022311Y030280D01*
X022080Y030280D01*
X022080Y029820D01*
X021927Y029820D02*
X021620Y030280D01*
X021927Y030280D02*
X021620Y029820D01*
M02*
