%
M48
M72
T01C0.0236
T02C0.0320
T03C0.0360
T04C0.0400
T05C0.0440
T06C0.0470
T07C0.1260
T08C0.1300
%
T01
X8600Y7600
X12600Y10600
X8600Y12100
X10100Y14600
X9446Y15919
X7100Y18600
X9446Y19998
X8565Y22108
X7100Y23100
X7848Y29100
X16100Y21600
X16100Y16100
X15100Y14600
X20100Y12600
X21600Y13600
X23600Y17600
X26100Y16600
X29100Y16600
X29100Y20600
X30600Y21600
X32100Y24600
X31600Y25600
X29100Y28100
X31600Y28600
X25600Y28600
X23100Y25600
X22100Y24100
X22100Y21600
X26600Y22600
X30597Y11632
X33500Y8729
X29100Y7100
T02
X26100Y9100
X26100Y10100
X23600Y10100
X23600Y9100
X24650Y12600
X26550Y12600
X27600Y19600
X27600Y20600
X27600Y21600
X27600Y22600
X27600Y23600
X27600Y24600
X27600Y25600
X27600Y26600
X24600Y26600
X24600Y25600
X24600Y24600
X24600Y23600
X24600Y22600
X24600Y21600
X24600Y20600
X24600Y19600
X14100Y14600
X11100Y14600
X9100Y14600
X8100Y14600
X10730Y11445
X10730Y10645
X10730Y9104
X10730Y8104
X7848Y22076
X7848Y27076
X7100Y29100
X6100Y29100
T03
X14100Y29100
X14100Y28100
X14100Y27100
X22598Y29264
X22598Y30264
X22600Y20100
X22600Y19100
X22600Y18100
X29600Y15100
X30600Y15100
X7600Y10600
X6600Y10600
X5600Y10600
T04
X6100Y5600
X7100Y5600
X14100Y8600
X14100Y9600
X14100Y10600
X14100Y18100
X14100Y19100
X14100Y20100
X14100Y21100
X14100Y22100
X14100Y23100
X14100Y24100
X3990Y25320
X2210Y25320
X2210Y27880
X3990Y27880
X32500Y5600
X33500Y5600
T05
X21100Y16100
X21100Y17100
X21100Y18100
X21100Y19100
X21100Y20100
X21100Y21100
X21100Y22100
X21100Y23100
X21100Y24100
X21100Y25100
X21100Y26100
X21100Y27100
X21100Y28100
X21100Y29100
X18100Y29100
X18100Y28100
X18100Y27100
X18100Y26100
X18100Y25100
X18100Y24100
X18100Y23100
X18100Y22100
X18100Y21100
X18100Y20100
X18100Y19100
X18100Y18100
X18100Y17100
X18100Y16100
X16100Y6100
X12100Y6100
T06
X2600Y18616
X2600Y20584
X37100Y20584
X37100Y18616
T07
X3982Y4021
X35561Y4021
X35553Y35671
X4100Y35600
T08
X20000Y9600
M30
