G75*
%MOIN*%
%OFA0B0*%
%FSLAX24Y24*%
%IPPOS*%
%LPD*%
%AMOC8*
5,1,8,0,0,1.08239X$1,22.5*
%
%ADD10C,0.0000*%
%ADD11C,0.1260*%
%ADD12OC8,0.0480*%
%ADD13C,0.0600*%
%ADD14C,0.1300*%
%ADD15C,0.0480*%
%ADD16C,0.0480*%
%ADD17R,0.0660X0.0660*%
%ADD18C,0.0660*%
%ADD19C,0.0705*%
%ADD20C,0.0540*%
%ADD21OC8,0.0620*%
%ADD22C,0.0620*%
%ADD23OC8,0.0500*%
%ADD24C,0.0500*%
D10*
X000100Y000100D02*
X000100Y039596D01*
X039470Y039596D01*
X039470Y000100D01*
X000100Y000100D01*
X003352Y004021D02*
X003354Y004071D01*
X003360Y004121D01*
X003370Y004170D01*
X003384Y004218D01*
X003401Y004265D01*
X003422Y004310D01*
X003447Y004354D01*
X003475Y004395D01*
X003507Y004434D01*
X003541Y004471D01*
X003578Y004505D01*
X003618Y004535D01*
X003660Y004562D01*
X003704Y004586D01*
X003750Y004607D01*
X003797Y004623D01*
X003845Y004636D01*
X003895Y004645D01*
X003944Y004650D01*
X003995Y004651D01*
X004045Y004648D01*
X004094Y004641D01*
X004143Y004630D01*
X004191Y004615D01*
X004237Y004597D01*
X004282Y004575D01*
X004325Y004549D01*
X004366Y004520D01*
X004405Y004488D01*
X004441Y004453D01*
X004473Y004415D01*
X004503Y004375D01*
X004530Y004332D01*
X004553Y004288D01*
X004572Y004242D01*
X004588Y004194D01*
X004600Y004145D01*
X004608Y004096D01*
X004612Y004046D01*
X004612Y003996D01*
X004608Y003946D01*
X004600Y003897D01*
X004588Y003848D01*
X004572Y003800D01*
X004553Y003754D01*
X004530Y003710D01*
X004503Y003667D01*
X004473Y003627D01*
X004441Y003589D01*
X004405Y003554D01*
X004366Y003522D01*
X004325Y003493D01*
X004282Y003467D01*
X004237Y003445D01*
X004191Y003427D01*
X004143Y003412D01*
X004094Y003401D01*
X004045Y003394D01*
X003995Y003391D01*
X003944Y003392D01*
X003895Y003397D01*
X003845Y003406D01*
X003797Y003419D01*
X003750Y003435D01*
X003704Y003456D01*
X003660Y003480D01*
X003618Y003507D01*
X003578Y003537D01*
X003541Y003571D01*
X003507Y003608D01*
X003475Y003647D01*
X003447Y003688D01*
X003422Y003732D01*
X003401Y003777D01*
X003384Y003824D01*
X003370Y003872D01*
X003360Y003921D01*
X003354Y003971D01*
X003352Y004021D01*
X019350Y009600D02*
X019352Y009650D01*
X019358Y009700D01*
X019368Y009750D01*
X019381Y009798D01*
X019398Y009846D01*
X019419Y009892D01*
X019443Y009936D01*
X019471Y009978D01*
X019502Y010018D01*
X019536Y010055D01*
X019573Y010090D01*
X019612Y010121D01*
X019653Y010150D01*
X019697Y010175D01*
X019743Y010197D01*
X019790Y010215D01*
X019838Y010229D01*
X019887Y010240D01*
X019937Y010247D01*
X019987Y010250D01*
X020038Y010249D01*
X020088Y010244D01*
X020138Y010235D01*
X020186Y010223D01*
X020234Y010206D01*
X020280Y010186D01*
X020325Y010163D01*
X020368Y010136D01*
X020408Y010106D01*
X020446Y010073D01*
X020481Y010037D01*
X020514Y009998D01*
X020543Y009957D01*
X020569Y009914D01*
X020592Y009869D01*
X020611Y009822D01*
X020626Y009774D01*
X020638Y009725D01*
X020646Y009675D01*
X020650Y009625D01*
X020650Y009575D01*
X020646Y009525D01*
X020638Y009475D01*
X020626Y009426D01*
X020611Y009378D01*
X020592Y009331D01*
X020569Y009286D01*
X020543Y009243D01*
X020514Y009202D01*
X020481Y009163D01*
X020446Y009127D01*
X020408Y009094D01*
X020368Y009064D01*
X020325Y009037D01*
X020280Y009014D01*
X020234Y008994D01*
X020186Y008977D01*
X020138Y008965D01*
X020088Y008956D01*
X020038Y008951D01*
X019987Y008950D01*
X019937Y008953D01*
X019887Y008960D01*
X019838Y008971D01*
X019790Y008985D01*
X019743Y009003D01*
X019697Y009025D01*
X019653Y009050D01*
X019612Y009079D01*
X019573Y009110D01*
X019536Y009145D01*
X019502Y009182D01*
X019471Y009222D01*
X019443Y009264D01*
X019419Y009308D01*
X019398Y009354D01*
X019381Y009402D01*
X019368Y009450D01*
X019358Y009500D01*
X019352Y009550D01*
X019350Y009600D01*
X034931Y004021D02*
X034933Y004071D01*
X034939Y004121D01*
X034949Y004170D01*
X034963Y004218D01*
X034980Y004265D01*
X035001Y004310D01*
X035026Y004354D01*
X035054Y004395D01*
X035086Y004434D01*
X035120Y004471D01*
X035157Y004505D01*
X035197Y004535D01*
X035239Y004562D01*
X035283Y004586D01*
X035329Y004607D01*
X035376Y004623D01*
X035424Y004636D01*
X035474Y004645D01*
X035523Y004650D01*
X035574Y004651D01*
X035624Y004648D01*
X035673Y004641D01*
X035722Y004630D01*
X035770Y004615D01*
X035816Y004597D01*
X035861Y004575D01*
X035904Y004549D01*
X035945Y004520D01*
X035984Y004488D01*
X036020Y004453D01*
X036052Y004415D01*
X036082Y004375D01*
X036109Y004332D01*
X036132Y004288D01*
X036151Y004242D01*
X036167Y004194D01*
X036179Y004145D01*
X036187Y004096D01*
X036191Y004046D01*
X036191Y003996D01*
X036187Y003946D01*
X036179Y003897D01*
X036167Y003848D01*
X036151Y003800D01*
X036132Y003754D01*
X036109Y003710D01*
X036082Y003667D01*
X036052Y003627D01*
X036020Y003589D01*
X035984Y003554D01*
X035945Y003522D01*
X035904Y003493D01*
X035861Y003467D01*
X035816Y003445D01*
X035770Y003427D01*
X035722Y003412D01*
X035673Y003401D01*
X035624Y003394D01*
X035574Y003391D01*
X035523Y003392D01*
X035474Y003397D01*
X035424Y003406D01*
X035376Y003419D01*
X035329Y003435D01*
X035283Y003456D01*
X035239Y003480D01*
X035197Y003507D01*
X035157Y003537D01*
X035120Y003571D01*
X035086Y003608D01*
X035054Y003647D01*
X035026Y003688D01*
X035001Y003732D01*
X034980Y003777D01*
X034963Y003824D01*
X034949Y003872D01*
X034939Y003921D01*
X034933Y003971D01*
X034931Y004021D01*
X034923Y035671D02*
X034925Y035721D01*
X034931Y035771D01*
X034941Y035820D01*
X034955Y035868D01*
X034972Y035915D01*
X034993Y035960D01*
X035018Y036004D01*
X035046Y036045D01*
X035078Y036084D01*
X035112Y036121D01*
X035149Y036155D01*
X035189Y036185D01*
X035231Y036212D01*
X035275Y036236D01*
X035321Y036257D01*
X035368Y036273D01*
X035416Y036286D01*
X035466Y036295D01*
X035515Y036300D01*
X035566Y036301D01*
X035616Y036298D01*
X035665Y036291D01*
X035714Y036280D01*
X035762Y036265D01*
X035808Y036247D01*
X035853Y036225D01*
X035896Y036199D01*
X035937Y036170D01*
X035976Y036138D01*
X036012Y036103D01*
X036044Y036065D01*
X036074Y036025D01*
X036101Y035982D01*
X036124Y035938D01*
X036143Y035892D01*
X036159Y035844D01*
X036171Y035795D01*
X036179Y035746D01*
X036183Y035696D01*
X036183Y035646D01*
X036179Y035596D01*
X036171Y035547D01*
X036159Y035498D01*
X036143Y035450D01*
X036124Y035404D01*
X036101Y035360D01*
X036074Y035317D01*
X036044Y035277D01*
X036012Y035239D01*
X035976Y035204D01*
X035937Y035172D01*
X035896Y035143D01*
X035853Y035117D01*
X035808Y035095D01*
X035762Y035077D01*
X035714Y035062D01*
X035665Y035051D01*
X035616Y035044D01*
X035566Y035041D01*
X035515Y035042D01*
X035466Y035047D01*
X035416Y035056D01*
X035368Y035069D01*
X035321Y035085D01*
X035275Y035106D01*
X035231Y035130D01*
X035189Y035157D01*
X035149Y035187D01*
X035112Y035221D01*
X035078Y035258D01*
X035046Y035297D01*
X035018Y035338D01*
X034993Y035382D01*
X034972Y035427D01*
X034955Y035474D01*
X034941Y035522D01*
X034931Y035571D01*
X034925Y035621D01*
X034923Y035671D01*
X003470Y035600D02*
X003472Y035650D01*
X003478Y035700D01*
X003488Y035749D01*
X003502Y035797D01*
X003519Y035844D01*
X003540Y035889D01*
X003565Y035933D01*
X003593Y035974D01*
X003625Y036013D01*
X003659Y036050D01*
X003696Y036084D01*
X003736Y036114D01*
X003778Y036141D01*
X003822Y036165D01*
X003868Y036186D01*
X003915Y036202D01*
X003963Y036215D01*
X004013Y036224D01*
X004062Y036229D01*
X004113Y036230D01*
X004163Y036227D01*
X004212Y036220D01*
X004261Y036209D01*
X004309Y036194D01*
X004355Y036176D01*
X004400Y036154D01*
X004443Y036128D01*
X004484Y036099D01*
X004523Y036067D01*
X004559Y036032D01*
X004591Y035994D01*
X004621Y035954D01*
X004648Y035911D01*
X004671Y035867D01*
X004690Y035821D01*
X004706Y035773D01*
X004718Y035724D01*
X004726Y035675D01*
X004730Y035625D01*
X004730Y035575D01*
X004726Y035525D01*
X004718Y035476D01*
X004706Y035427D01*
X004690Y035379D01*
X004671Y035333D01*
X004648Y035289D01*
X004621Y035246D01*
X004591Y035206D01*
X004559Y035168D01*
X004523Y035133D01*
X004484Y035101D01*
X004443Y035072D01*
X004400Y035046D01*
X004355Y035024D01*
X004309Y035006D01*
X004261Y034991D01*
X004212Y034980D01*
X004163Y034973D01*
X004113Y034970D01*
X004062Y034971D01*
X004013Y034976D01*
X003963Y034985D01*
X003915Y034998D01*
X003868Y035014D01*
X003822Y035035D01*
X003778Y035059D01*
X003736Y035086D01*
X003696Y035116D01*
X003659Y035150D01*
X003625Y035187D01*
X003593Y035226D01*
X003565Y035267D01*
X003540Y035311D01*
X003519Y035356D01*
X003502Y035403D01*
X003488Y035451D01*
X003478Y035500D01*
X003472Y035550D01*
X003470Y035600D01*
D11*
X004100Y035600D03*
X035553Y035671D03*
X035561Y004021D03*
X003982Y004021D03*
D12*
X008100Y014600D03*
X009100Y014600D03*
X011100Y014600D03*
X014100Y014600D03*
X007848Y022076D03*
X007848Y027076D03*
X007100Y029100D03*
X006100Y029100D03*
X023600Y010100D03*
X023600Y009100D03*
X026100Y009100D03*
X026100Y010100D03*
D13*
X032500Y005900D02*
X032500Y005300D01*
X033500Y005300D02*
X033500Y005900D01*
X014400Y008600D02*
X013800Y008600D01*
X013800Y009600D02*
X014400Y009600D01*
X014400Y010600D02*
X013800Y010600D01*
X007100Y005900D02*
X007100Y005300D01*
X006100Y005300D02*
X006100Y005900D01*
X013800Y018100D02*
X014400Y018100D01*
X014400Y019100D02*
X013800Y019100D01*
X013800Y020100D02*
X014400Y020100D01*
X014400Y021100D02*
X013800Y021100D01*
X013800Y022100D02*
X014400Y022100D01*
X014400Y023100D02*
X013800Y023100D01*
X013800Y024100D02*
X014400Y024100D01*
X003990Y025020D02*
X003990Y025620D01*
X002210Y025620D02*
X002210Y025020D01*
X002210Y027580D02*
X002210Y028180D01*
X003990Y028180D02*
X003990Y027580D01*
D14*
X020000Y009600D03*
D15*
X024360Y019600D02*
X024840Y019600D01*
X024840Y020600D02*
X024360Y020600D01*
X024360Y021600D02*
X024840Y021600D01*
X024840Y022600D02*
X024360Y022600D01*
X024360Y023600D02*
X024840Y023600D01*
X024840Y024600D02*
X024360Y024600D01*
X024360Y025600D02*
X024840Y025600D01*
X024840Y026600D02*
X024360Y026600D01*
X027360Y026600D02*
X027840Y026600D01*
X027840Y025600D02*
X027360Y025600D01*
X027360Y024600D02*
X027840Y024600D01*
X027840Y023600D02*
X027360Y023600D01*
X027360Y022600D02*
X027840Y022600D01*
X027840Y021600D02*
X027360Y021600D01*
X027360Y020600D02*
X027840Y020600D01*
X027840Y019600D02*
X027360Y019600D01*
D16*
X026550Y012600D03*
X024650Y012600D03*
D17*
X018100Y029100D03*
D18*
X018100Y028100D03*
X018100Y027100D03*
X018100Y026100D03*
X018100Y025100D03*
X018100Y024100D03*
X018100Y023100D03*
X018100Y022100D03*
X018100Y021100D03*
X018100Y020100D03*
X018100Y019100D03*
X018100Y018100D03*
X018100Y017100D03*
X018100Y016100D03*
X021100Y016100D03*
X021100Y017100D03*
X021100Y018100D03*
X021100Y019100D03*
X021100Y020100D03*
X021100Y021100D03*
X021100Y022100D03*
X021100Y023100D03*
X021100Y024100D03*
X021100Y025100D03*
X021100Y026100D03*
X021100Y027100D03*
X021100Y028100D03*
X021100Y029100D03*
X016100Y006100D03*
X012100Y006100D03*
D19*
X002953Y018616D02*
X002248Y018616D01*
X002248Y020584D02*
X002953Y020584D01*
X036748Y020584D02*
X037453Y020584D01*
X037453Y018616D02*
X036748Y018616D01*
D20*
X030600Y015370D02*
X030600Y014830D01*
X029600Y014830D02*
X029600Y015370D01*
X022870Y018100D02*
X022330Y018100D01*
X022330Y019100D02*
X022870Y019100D01*
X022870Y020100D02*
X022330Y020100D01*
X014370Y027100D02*
X013830Y027100D01*
X013830Y028100D02*
X014370Y028100D01*
X014370Y029100D02*
X013830Y029100D01*
X022328Y029264D02*
X022868Y029264D01*
X022868Y030264D02*
X022328Y030264D01*
X007600Y010870D02*
X007600Y010330D01*
X006600Y010330D02*
X006600Y010870D01*
X005600Y010870D02*
X005600Y010330D01*
D21*
X010730Y009104D03*
D22*
X010730Y008104D03*
D23*
X010730Y010645D03*
D24*
X010730Y011445D03*
M02*
